<svg width="442" height="560" viewBox="0 0 442 560" fill="none" xmlns="http://www.w3.org/2000/svg">
<g clip-path="url(#clip0_194_205)">
<path d="M109.029 321.514L117.727 313.987C115.955 315.521 114.531 317.383 113.483 319.474C112.433 321.567 111.759 323.888 111.485 326.338C111.211 328.791 111.338 331.371 111.89 333.979C112.442 336.588 113.419 339.224 114.847 341.785L106.122 349.154C104.706 346.611 103.737 343.992 103.191 341.399C102.646 338.808 102.524 336.243 102.801 333.804C103.077 331.368 103.751 329.058 104.798 326.976C105.846 324.893 107.263 323.043 109.029 321.514Z" fill="#231F20"/>
<path d="M106.121 349.72C106.02 349.72 105.921 349.693 105.835 349.642C105.748 349.591 105.676 349.517 105.628 349.429C104.215 346.892 103.209 344.229 102.638 341.515C102.086 338.89 101.951 336.273 102.239 333.74C102.524 331.227 103.215 328.866 104.293 326.721C105.391 324.539 106.86 322.643 108.66 321.086L117.358 313.559C117.414 313.509 117.48 313.471 117.55 313.447C117.621 313.423 117.696 313.413 117.77 313.418C117.845 313.423 117.918 313.442 117.984 313.476C118.051 313.509 118.111 313.556 118.16 313.612C118.209 313.669 118.246 313.734 118.269 313.806C118.292 313.877 118.301 313.952 118.296 314.026C118.29 314.101 118.269 314.174 118.235 314.24C118.201 314.307 118.154 314.366 118.097 314.414L118.094 314.417C116.401 315.882 115.02 317.668 113.988 319.727C112.967 321.761 112.314 324.006 112.046 326.401C111.775 328.828 111.908 331.338 112.442 333.861C112.996 336.48 113.971 339.053 115.34 341.509C115.404 341.624 115.426 341.757 115.402 341.886C115.379 342.015 115.311 342.132 115.211 342.216L106.486 349.586C106.384 349.672 106.255 349.719 106.122 349.719L106.121 349.72ZM113.343 318.528L109.398 321.942C107.711 323.402 106.333 325.181 105.302 327.23C104.284 329.254 103.631 331.487 103.361 333.867C103.087 336.28 103.216 338.775 103.744 341.282C104.246 343.67 105.101 346.019 106.287 348.274L114.129 341.651C112.823 339.219 111.884 336.68 111.337 334.095C110.778 331.453 110.639 328.822 110.924 326.274C111.207 323.747 111.898 321.373 112.979 319.219C113.096 318.985 113.217 318.755 113.343 318.527L113.343 318.528Z" fill="#FBFFA4"/>
<path d="M177.245 286.428C178.827 285.717 180.509 285.249 182.249 285.018C183.987 284.786 185.782 284.792 187.592 285.028C189.4 285.265 191.223 285.73 193.019 286.421C194.868 287.137 196.632 288.055 198.28 289.159C199.978 290.293 201.744 291.207 203.536 291.896C205.326 292.584 207.14 293.047 208.935 293.279C210.729 293.511 212.505 293.514 214.218 293.28C215.93 293.047 217.581 292.58 219.128 291.872L315.082 247.992C317.4 246.932 319.924 246.484 322.504 246.581C325.08 246.678 327.712 247.318 330.249 248.436C332.784 249.552 335.227 251.145 337.428 253.147C339.703 255.223 341.636 257.645 343.157 260.324L413.594 384.206C418.347 392.564 415.238 403.203 406.737 407.677L209.432 511.526L134.619 377.27L114.845 341.785C113.163 338.767 112.106 335.644 111.633 332.584C111.161 329.523 111.273 326.531 111.93 323.765C112.586 321.002 113.785 318.467 115.487 316.324C117.186 314.184 119.386 312.435 122.048 311.239L177.244 286.428H177.245Z" fill="#FBFFA4"/>
<path d="M423.183 262.357L436.955 272.559C436.314 272.088 435.596 271.732 434.832 271.509C434.046 271.274 433.184 271.159 432.256 271.17C431.327 271.181 430.33 271.317 429.276 271.587C428.221 271.858 427.108 272.261 425.946 272.805L412.146 262.544C413.307 262.006 414.421 261.608 415.477 261.344C416.532 261.079 417.531 260.948 418.462 260.942C419.393 260.936 420.258 261.056 421.048 261.295C421.816 261.523 422.538 261.882 423.183 262.357Z" fill="#231F20"/>
<path d="M425.946 273.37C425.827 273.37 425.709 273.333 425.61 273.259L411.809 262.998C411.731 262.939 411.669 262.861 411.63 262.771C411.59 262.681 411.575 262.583 411.585 262.486C411.595 262.388 411.63 262.295 411.687 262.215C411.744 262.135 411.82 262.071 411.909 262.03C413.084 261.486 414.239 261.07 415.341 260.794C416.426 260.523 417.475 260.382 418.459 260.376C419.443 260.376 420.365 260.498 421.212 260.753C422.041 261 422.822 261.388 423.519 261.902L437.292 272.104C437.351 272.148 437.402 272.204 437.44 272.268C437.478 272.331 437.503 272.402 437.514 272.475C437.525 272.549 437.522 272.624 437.504 272.696C437.486 272.768 437.454 272.835 437.41 272.895C437.366 272.955 437.31 273.005 437.247 273.044C437.183 273.082 437.113 273.107 437.04 273.118C436.966 273.129 436.891 273.125 436.82 273.108C436.748 273.09 436.68 273.058 436.62 273.013L436.617 273.011C436.029 272.58 435.371 272.255 434.672 272.05C433.936 271.831 433.125 271.727 432.262 271.735C431.369 271.745 430.411 271.879 429.417 272.135C428.383 272.4 427.296 272.797 426.186 273.317C426.111 273.352 426.03 273.37 425.947 273.37H425.946ZM413.265 262.672L426.014 272.152C427.082 271.67 428.131 271.296 429.136 271.039C430.218 270.762 431.265 270.615 432.249 270.604C432.647 270.599 433.045 270.618 433.441 270.659L422.847 262.811C422.254 262.375 421.591 262.045 420.885 261.836C420.146 261.613 419.33 261.507 418.466 261.507C417.571 261.512 416.612 261.642 415.614 261.892C414.856 262.082 414.069 262.343 413.266 262.672H413.265Z" fill="#FBFFA4"/>
<path d="M204.966 373.593L203.275 391.268L194.361 484.479L134.619 377.27L114.846 341.785L106.121 349.154L125.74 384.395L197.713 513.678C198.365 514.849 199.375 515.779 200.595 516.332C201.815 516.884 203.18 517.03 204.488 516.747L205.359 516.559L216.83 402.706L218.612 385.016L204.966 373.594L204.966 373.593Z" fill="#231F20"/>
<path d="M203.148 517.456C200.716 517.456 198.446 516.155 197.22 513.953L105.628 349.43C105.564 349.315 105.542 349.182 105.565 349.053C105.589 348.924 105.657 348.807 105.757 348.723L114.481 341.353C114.545 341.299 114.619 341.26 114.7 341.238C114.78 341.217 114.865 341.214 114.947 341.229C115.112 341.259 115.256 341.362 115.338 341.509L193.972 482.621L204.403 373.54C204.413 373.437 204.45 373.339 204.512 373.257C204.573 373.174 204.655 373.11 204.75 373.071C204.846 373.031 204.95 373.019 205.051 373.035C205.153 373.051 205.248 373.094 205.327 373.16L218.973 384.582C219.117 384.703 219.192 384.886 219.173 385.073L205.92 516.615C205.908 516.734 205.859 516.846 205.78 516.935C205.7 517.024 205.594 517.086 205.478 517.111L204.607 517.3C204.127 517.404 203.638 517.456 203.147 517.457L203.148 517.456ZM106.841 349.286L198.206 513.402C199.432 515.604 201.909 516.725 204.369 516.194L204.839 516.092L218.02 385.257L205.426 374.714L194.924 484.533C194.913 484.653 194.863 484.766 194.783 484.856C194.703 484.946 194.596 485.008 194.478 485.032C194.36 485.057 194.238 485.044 194.128 484.994C194.018 484.944 193.928 484.86 193.869 484.754L114.687 342.658L106.841 349.285L106.841 349.286Z" fill="#FBFFA4"/>
<path d="M412.146 262.544L223.116 349.333L236.859 360.646L425.946 272.805L412.146 262.544Z" fill="#231F20"/>
<path d="M236.859 361.212C236.731 361.212 236.603 361.168 236.5 361.083L222.757 349.769C222.683 349.708 222.626 349.63 222.591 349.541C222.555 349.451 222.543 349.355 222.556 349.259C222.568 349.164 222.604 349.074 222.661 348.997C222.718 348.919 222.794 348.858 222.881 348.818L411.911 262.029C412.098 261.943 412.317 261.966 412.482 262.089L426.283 272.351C426.361 272.409 426.423 272.487 426.463 272.577C426.502 272.667 426.518 272.765 426.508 272.863C426.498 272.96 426.463 273.053 426.406 273.133C426.349 273.213 426.272 273.277 426.183 273.318L237.096 361.159C237.022 361.194 236.941 361.212 236.859 361.212H236.859ZM224.172 349.47L236.943 359.984L424.847 272.692L412.077 263.197L224.172 349.47Z" fill="#FBFFA4"/>
<path d="M218.612 385.016L204.966 373.593C205.184 371.313 205.856 368.922 206.885 366.55C207.915 364.175 209.302 361.822 210.948 359.622C212.593 357.422 214.497 355.376 216.56 353.617C218.621 351.858 220.839 350.387 223.116 349.333L236.859 360.647C234.581 361.713 232.359 363.197 230.292 364.968C228.224 366.74 226.313 368.797 224.658 371.007C223.004 373.217 221.607 375.579 220.566 377.959C219.526 380.338 218.842 382.734 218.612 385.016Z" fill="#231F20"/>
<path d="M218.613 385.581C218.482 385.581 218.354 385.535 218.25 385.449L204.604 374.026C204.534 373.967 204.479 373.892 204.444 373.807C204.409 373.722 204.395 373.63 204.404 373.539C204.623 371.25 205.283 368.822 206.367 366.324C207.41 363.92 208.8 361.55 210.496 359.283C212.192 357.016 214.108 354.965 216.194 353.186C218.356 351.341 220.606 349.872 222.88 348.819C222.976 348.775 223.083 348.759 223.188 348.772C223.293 348.786 223.393 348.829 223.475 348.896L237.218 360.21C237.291 360.27 237.349 360.349 237.384 360.438C237.419 360.526 237.431 360.622 237.42 360.717C237.408 360.812 237.372 360.902 237.316 360.979C237.26 361.057 237.185 361.118 237.099 361.159C234.917 362.181 232.75 363.607 230.66 365.398C228.632 367.134 226.766 369.136 225.11 371.346C223.458 373.554 222.103 375.855 221.083 378.186C220.035 380.582 219.393 382.899 219.174 385.072C219.161 385.212 219.096 385.341 218.992 385.435C218.888 385.529 218.753 385.581 218.613 385.581L218.613 385.581ZM205.559 373.352L218.184 383.92C218.492 381.938 219.118 379.861 220.048 377.732C221.102 375.321 222.501 372.944 224.207 370.667C225.911 368.391 227.835 366.328 229.925 364.538C231.84 362.898 233.82 361.55 235.823 360.525L223.034 349.996C220.961 350.994 218.908 352.355 216.926 354.046C214.904 355.771 213.045 357.761 211.4 359.961C209.756 362.158 208.411 364.451 207.403 366.774C206.413 369.056 205.793 371.267 205.559 373.352Z" fill="#FBFFA4"/>
<path d="M425.946 272.805C428.316 271.695 430.482 271.169 432.369 271.168C434.251 271.167 435.856 271.69 437.107 272.675C438.356 273.658 439.253 275.101 439.727 276.946C440.2 278.787 440.251 281.029 439.808 283.612L418.538 407.611L205.359 516.558L216.83 402.705L218.612 385.015C218.842 382.734 219.526 380.338 220.566 377.959C221.606 375.578 223.003 373.217 224.658 371.007C226.313 368.797 228.224 366.74 230.291 364.968C232.358 363.197 234.581 361.713 236.858 360.646L425.945 272.805H425.946Z" fill="#231F20"/>
<path d="M205.36 517.124C205.281 517.124 205.202 517.108 205.13 517.076C205.058 517.044 204.993 516.997 204.94 516.938C204.887 516.879 204.847 516.81 204.823 516.735C204.798 516.66 204.79 516.58 204.798 516.502L218.051 384.959C218.281 382.669 218.954 380.237 220.049 377.732C221.103 375.322 222.502 372.945 224.207 370.668C225.912 368.391 227.836 366.328 229.926 364.538C232.094 362.681 234.346 361.2 236.62 360.134L425.707 272.293C428.098 271.172 430.34 270.604 432.369 270.603H432.371C434.374 270.603 436.084 271.151 437.456 272.231C438.822 273.306 439.771 274.845 440.274 276.805C440.781 278.78 440.812 281.102 440.365 283.708L419.094 407.708C419.08 407.794 419.045 407.876 418.993 407.947C418.941 408.018 418.873 408.075 418.794 408.115L205.616 517.062C205.536 517.103 205.448 517.124 205.359 517.124L205.36 517.124ZM432.371 271.734H432.369C430.507 271.735 428.426 272.268 426.186 273.317L426.184 273.318L237.097 361.159C234.917 362.181 232.75 363.606 230.659 365.398C228.632 367.134 226.766 369.136 225.11 371.346C223.458 373.553 222.103 375.855 221.083 378.185C220.035 380.582 219.393 382.899 219.174 385.072L206.025 515.583L418.03 407.236L439.252 283.516C439.672 281.069 439.648 278.905 439.181 277.087C438.74 275.373 437.925 274.038 436.758 273.119C435.59 272.2 434.114 271.734 432.371 271.734Z" fill="#FBFFA4"/>
<path d="M386.342 347.509L384.957 356.334L260.951 417.772L261.997 408.79L386.342 347.509ZM352.474 379.58L260.042 425.585L259.008 434.462L351.186 388.345L352.474 379.58Z" fill="#231F20"/>
<path d="M259.008 435.027C258.928 435.027 258.849 435.01 258.776 434.977C258.704 434.944 258.639 434.897 258.586 434.837C258.533 434.778 258.493 434.707 258.469 434.631C258.445 434.555 258.437 434.475 258.447 434.396L259.481 425.52C259.503 425.33 259.619 425.164 259.79 425.079L352.222 379.073C352.315 379.027 352.418 379.007 352.521 379.015C352.624 379.024 352.722 379.06 352.806 379.121C352.889 379.181 352.955 379.264 352.995 379.359C353.035 379.455 353.048 379.559 353.032 379.661L351.745 388.427C351.732 388.517 351.697 388.602 351.644 388.676C351.59 388.75 351.52 388.81 351.439 388.85L259.26 434.966C259.182 435.006 259.096 435.026 259.008 435.026L259.008 435.027ZM260.567 425.955L259.69 433.488L350.671 387.971L351.758 380.567L260.567 425.955ZM260.952 418.338C260.872 418.338 260.793 418.321 260.72 418.288C260.648 418.256 260.583 418.208 260.53 418.148C260.477 418.089 260.437 418.019 260.413 417.942C260.389 417.866 260.381 417.786 260.391 417.707L261.437 408.725C261.448 408.631 261.482 408.541 261.536 408.464C261.591 408.387 261.663 408.324 261.748 408.283L386.093 347.001C386.186 346.956 386.289 346.937 386.392 346.946C386.495 346.955 386.593 346.993 386.676 347.054C386.759 347.115 386.824 347.198 386.864 347.294C386.903 347.389 386.916 347.494 386.9 347.596L385.515 356.422C385.486 356.603 385.372 356.759 385.207 356.84L261.201 418.279C261.122 418.318 261.037 418.338 260.952 418.338ZM262.523 409.161L261.633 416.804L384.445 355.957L385.616 348.496L262.523 409.161Z" fill="#FBFFA4"/>
<path d="M212.088 296.215L159.939 294.541L171.798 288.907L212.088 296.215Z" fill="url(#paint0_linear_194_205)"/>
<path d="M166.944 351.849L179.729 319.284C183.033 311.672 178.706 302.913 170.659 300.926L157.619 297.706L166.944 351.849H166.944Z" fill="url(#paint1_linear_194_205)"/>
<mask id="mask0_194_205" style="mask-type:luminance" maskUnits="userSpaceOnUse" x="74" y="48" width="346" height="265">
<path d="M368.441 281.264L305.906 310.777L251.006 288.049L130.953 312.903L74.8542 258.648L119.457 48.8838L419.254 161.399L368.441 281.264Z" fill="white"/>
</mask>
<g mask="url(#mask0_194_205)">
<path d="M216.373 97.076C218.046 97.4791 219.66 98.095 221.177 98.9088C222.689 99.7206 224.097 100.715 225.368 101.87C226.642 103.027 227.786 104.344 228.767 105.795C229.748 107.246 230.567 108.829 231.194 110.519C231.824 112.21 232.645 113.794 233.627 115.244C234.608 116.693 235.75 118.008 237.022 119.162C238.288 120.311 239.69 121.301 241.197 122.109C242.704 122.916 244.308 123.525 245.969 123.922L351.544 149.035C354.143 149.653 356.517 150.801 358.583 152.347C360.649 153.893 362.408 155.836 363.78 158.047C365.168 160.289 366.141 162.763 366.652 165.35C367.183 168.032 367.205 170.789 366.717 173.479L348.013 276.641C344.431 296.399 325.209 309.252 305.613 304.991L102.896 260.916L127.628 132.901L134.16 99.0902C134.715 96.2143 135.809 93.6108 137.311 91.3645C138.787 89.1519 140.689 87.2563 142.906 85.7888C145.101 84.3357 147.568 83.3435 150.157 82.8722C152.762 82.3995 155.514 82.4533 158.282 83.1187L216.373 97.0765L216.373 97.076Z" fill="#231F20"/>
<path d="M313.227 306.38C310.659 306.38 308.069 306.103 305.493 305.543L102.775 261.468C102.631 261.437 102.505 261.35 102.424 261.227C102.343 261.103 102.313 260.953 102.341 260.808L133.605 98.9821C134.163 96.0963 135.251 93.4276 136.841 91.0493C138.377 88.7528 140.312 86.8237 142.594 85.3161C144.852 83.8184 147.391 82.7972 150.055 82.3149C152.817 81.8128 155.629 81.8988 158.413 82.5678L216.504 96.5255C218.224 96.9406 219.883 97.5739 221.443 98.4099C222.996 99.2439 224.441 100.265 225.746 101.451C227.065 102.649 228.235 104.001 229.233 105.477C230.253 106.987 231.089 108.613 231.722 110.322C232.327 111.945 233.123 113.491 234.093 114.926C235.039 116.325 236.15 117.606 237.4 118.742C238.632 119.86 239.996 120.824 241.462 121.609C242.926 122.393 244.484 122.985 246.099 123.371L351.673 148.485C354.29 149.107 356.728 150.254 358.92 151.894C361.032 153.474 362.829 155.444 364.258 157.748C365.685 160.046 366.684 162.585 367.205 165.24C367.752 167.991 367.774 170.82 367.272 173.579L348.569 276.741C346.808 286.449 341.326 294.814 333.132 300.293C327.13 304.305 320.258 306.38 313.227 306.38ZM103.554 260.48L305.732 304.438C315.059 306.465 324.567 304.659 332.505 299.352C340.442 294.046 345.753 285.943 347.458 276.539L366.162 173.377C366.638 170.758 366.617 168.071 366.098 165.459C365.603 162.938 364.655 160.527 363.3 158.345C361.945 156.161 360.244 154.295 358.245 152.799C356.177 151.252 353.879 150.17 351.413 149.584L245.839 124.471C244.13 124.063 242.481 123.436 240.931 122.607C239.395 121.786 237.952 120.768 236.643 119.58C235.333 118.393 234.161 117.041 233.159 115.561C232.138 114.051 231.301 112.425 230.665 110.717C230.063 109.093 229.269 107.547 228.299 106.112C227.352 104.71 226.24 103.427 224.989 102.289C223.752 101.165 222.383 100.198 220.911 99.4077C219.437 98.6166 217.867 98.0179 216.241 97.626L158.15 83.6683C155.519 83.0359 152.864 82.9559 150.257 83.4281C147.743 83.8836 145.347 84.8473 143.216 86.2605C141.061 87.6849 139.232 89.5082 137.78 91.6789C136.274 93.931 135.242 96.4604 134.714 99.1974L103.554 260.481V260.48Z" fill="#FBFFA4"/>
<path d="M379.116 185.355L379.5 186.723L379.692 187.407L380.078 188.777L380.463 190.149L380.656 190.836L381.042 192.21L381.429 193.587L381.623 194.275L382.011 195.655L382.399 197.036L382.593 197.727L382.982 199.11C382.616 197.818 382.049 196.591 381.301 195.475C380.546 194.346 379.604 193.309 378.491 192.393C377.377 191.477 376.093 190.681 374.656 190.035C373.218 189.389 371.626 188.893 369.9 188.576L366.104 174.836C367.82 175.154 369.402 175.651 370.832 176.297C372.261 176.942 373.538 177.736 374.645 178.651C375.752 179.566 376.69 180.601 377.441 181.729C378.186 182.842 378.751 184.066 379.116 185.355Z" fill="#E5F700"/>
<path d="M382.438 199.262C382.089 198.026 381.547 196.854 380.831 195.788C380.105 194.7 379.196 193.704 378.133 192.828C377.045 191.933 375.798 191.166 374.425 190.55C373.003 189.911 371.446 189.433 369.798 189.13L369.45 189.066L365.32 174.115L366.208 174.279C367.935 174.599 369.569 175.104 371.064 175.779C372.521 176.437 373.846 177.256 375.005 178.214C376.149 179.158 377.126 180.235 377.911 181.413C378.696 182.591 379.284 183.866 379.66 185.201L383.526 198.954L382.439 199.261L382.438 199.262ZM370.35 188.085C371.959 188.407 373.483 188.887 374.886 189.518C376.351 190.176 377.685 190.996 378.849 191.955C379.632 192.596 380.348 193.315 380.987 194.099L378.572 185.509C378.223 184.276 377.683 183.106 376.971 182.042C376.247 180.955 375.344 179.961 374.286 179.086C373.204 178.193 371.964 177.427 370.599 176.811C369.408 176.278 368.167 175.864 366.894 175.577L370.35 188.085L370.35 188.085Z" fill="#231F20"/>
<path d="M138.596 147.191L109.56 226.417L134.16 99.0893L127.81 101.266L96.923 260.898L96.6511 263.029C96.6223 263.255 96.6235 263.483 96.6547 263.709L98.4167 276.421L140.929 161.057L138.595 147.19L138.596 147.191Z" fill="#E5F700"/>
<path d="M98.4171 276.987C98.2809 276.986 98.1492 276.937 98.0464 276.847C97.9436 276.758 97.8765 276.634 97.8575 276.499L96.0955 263.787C96.0575 263.512 96.0559 263.234 96.091 262.958L96.3634 260.827L127.256 101.158C127.294 100.96 127.436 100.796 127.627 100.731L133.977 98.5546C134.07 98.5229 134.171 98.5162 134.268 98.5352C134.365 98.5542 134.455 98.5981 134.53 98.6627C134.682 98.7953 134.752 98.9988 134.714 99.1969L111.447 219.628L138.065 146.996C138.109 146.879 138.189 146.78 138.295 146.714C138.4 146.647 138.524 146.617 138.648 146.628C138.771 146.64 138.888 146.692 138.979 146.777C139.071 146.861 139.131 146.974 139.152 147.097L141.486 160.963C141.502 161.06 141.493 161.161 141.459 161.253L98.9465 276.618C98.9065 276.726 98.8344 276.819 98.7397 276.886C98.6451 276.952 98.5325 276.987 98.4171 276.987ZM128.302 101.695L97.4772 261.006L97.2107 263.101C97.1881 263.278 97.1895 263.455 97.2134 263.631L98.666 274.111L140.347 161.002L138.391 149.385L110.089 226.611C110.04 226.745 109.943 226.855 109.816 226.92C109.69 226.985 109.544 227 109.407 226.962C109.27 226.924 109.153 226.835 109.078 226.714C109.004 226.593 108.977 226.449 109.004 226.309L133.419 99.9401L128.301 101.694L128.302 101.695Z" fill="#231F20"/>
<path d="M163.621 149.933L161.128 136.117L366.104 174.836L369.9 188.575L163.621 149.933Z" fill="#E5F700"/>
<path d="M370.685 189.297L163.134 150.417L160.427 135.409L161.233 135.561L366.555 174.345L370.686 189.297H370.685ZM164.107 149.449L369.114 187.852L365.654 175.326L161.83 136.825L164.107 149.449Z" fill="#231F20"/>
<path d="M140.929 161.057L138.596 147.19C139.316 145.224 140.487 143.439 141.988 141.894C143.489 140.348 145.321 139.043 147.362 138.039C149.403 137.035 151.652 136.333 153.988 135.993C156.323 135.653 158.744 135.674 161.129 136.116L163.62 149.933C161.22 149.492 158.783 149.472 156.432 149.815C154.08 150.159 151.816 150.865 149.76 151.873C147.705 152.881 145.86 154.191 144.348 155.743C142.836 157.293 141.656 159.084 140.929 161.057Z" fill="#E5F700"/>
<path d="M140.725 163.244L138.014 147.137L138.065 146.996C138.798 144.999 139.981 143.149 141.583 141.5C143.123 139.915 144.983 138.58 147.112 137.533C149.254 136.482 151.546 135.774 153.906 135.434C156.375 135.074 158.839 135.117 161.231 135.561L161.615 135.632L164.321 150.637L163.518 150.49C161.232 150.069 158.875 150.03 156.513 150.375C154.254 150.701 152.06 151.378 150.009 152.381C147.982 153.376 146.214 154.64 144.752 156.138C143.25 157.679 142.142 159.4 141.46 161.253L140.726 163.245L140.725 163.244ZM139.177 147.247L141.176 159.119C141.882 157.775 142.809 156.512 143.943 155.348C145.495 153.757 147.368 152.417 149.511 151.366C151.667 150.311 153.975 149.599 156.35 149.256C158.56 148.934 160.767 148.93 162.922 149.245L160.643 136.606C158.493 136.249 156.283 136.231 154.069 136.553C151.825 136.876 149.646 137.549 147.61 138.548C145.597 139.537 143.842 140.796 142.392 142.289C140.939 143.785 139.858 145.452 139.177 147.247Z" fill="#231F20"/>
<path d="M163.62 149.933L369.9 188.575C372.582 189.068 374.938 189.992 376.9 191.239C378.86 192.486 380.427 194.055 381.537 195.84C382.645 197.623 383.296 199.621 383.425 201.73C383.554 203.838 383.162 206.05 382.186 208.269L334.748 316.111L98.4171 276.421L135.285 176.374L140.93 161.056C141.657 159.085 142.836 157.293 144.348 155.743C145.861 154.191 147.706 152.881 149.76 151.873C151.816 150.865 154.081 150.159 156.432 149.815C158.784 149.472 161.221 149.492 163.621 149.933L163.62 149.933Z" fill="#D1D3D4"/>
<path d="M334.748 316.677C334.717 316.677 334.686 316.674 334.655 316.668L98.3237 276.979C98.2418 276.965 98.164 276.933 98.0957 276.886C98.0274 276.839 97.9705 276.777 97.9288 276.705C97.8871 276.633 97.8618 276.553 97.8546 276.47C97.8475 276.387 97.8587 276.304 97.8874 276.226L140.4 160.861C141.138 158.858 142.331 157.003 143.944 155.348C145.496 153.757 147.369 152.417 149.512 151.365C151.668 150.311 153.975 149.599 156.35 149.256C158.835 148.893 161.315 148.934 163.723 149.378H163.724L370.004 188.019C372.696 188.514 375.119 189.437 377.202 190.761C379.225 192.048 380.845 193.655 382.016 195.541C383.191 197.43 383.854 199.501 383.989 201.694C384.127 203.954 383.695 206.243 382.703 208.496L335.265 316.338C335.221 316.438 335.149 316.524 335.057 316.584C334.965 316.644 334.858 316.676 334.749 316.676L334.748 316.677ZM99.1828 275.977L334.409 315.481L381.67 208.041C382.588 205.954 382.989 203.843 382.861 201.765C382.738 199.76 382.131 197.868 381.057 196.139C379.976 194.399 378.475 192.911 376.597 191.717C374.636 190.471 372.349 189.6 369.798 189.131L163.518 150.49C161.232 150.069 158.875 150.03 156.513 150.375C154.254 150.701 152.06 151.378 150.009 152.381C147.982 153.376 146.214 154.64 144.752 156.138C143.25 157.679 142.142 159.4 141.459 161.253L99.1828 275.977V275.977Z" fill="black"/>
<path d="M140.672 85.9815L147.114 83.6846C145.509 84.2573 143.987 85.0373 142.584 86.005C141.17 86.9803 139.889 88.1347 138.771 89.4395C137.624 90.7781 136.656 92.2601 135.891 93.8482C135.089 95.513 134.508 97.2749 134.16 99.0898L127.81 101.266C128.155 99.4657 128.733 97.7178 129.529 96.0664C130.289 94.4908 131.251 93.0205 132.389 91.6925C133.499 90.3978 134.771 89.2524 136.175 88.2847C137.567 87.3242 139.079 86.55 140.672 85.9815Z" fill="#E5F700"/>
<path d="M127.81 101.831C127.726 101.831 127.644 101.813 127.569 101.777C127.493 101.742 127.427 101.69 127.374 101.625C127.321 101.561 127.283 101.486 127.262 101.405C127.242 101.324 127.24 101.24 127.256 101.158C127.611 99.3093 128.204 97.5149 129.021 95.8194C129.803 94.2 130.791 92.6888 131.961 91.3238C133.102 89.9923 134.411 88.8142 135.854 87.8188C137.288 86.8305 138.843 86.0337 140.482 85.4486L146.924 83.1517H146.925C147.066 83.1014 147.221 83.1093 147.356 83.1736C147.492 83.2379 147.596 83.3535 147.646 83.4948C147.696 83.6361 147.688 83.7916 147.624 83.9271C147.56 84.0627 147.445 84.1671 147.303 84.2174L147.299 84.2187C145.743 84.7752 144.265 85.5323 142.904 86.4708C141.531 87.4187 140.285 88.5404 139.199 89.8081C138.084 91.1097 137.143 92.5506 136.399 94.0947C135.619 95.7154 135.053 97.4306 134.714 99.1974C134.695 99.2951 134.651 99.3861 134.585 99.4611C134.52 99.5362 134.436 99.5926 134.342 99.6248L127.992 101.801C127.933 101.821 127.872 101.832 127.809 101.832L127.81 101.831ZM140.861 86.5143C139.314 87.0663 137.847 87.8179 136.494 88.7501C135.131 89.6904 133.895 90.8031 132.817 92.0606C131.711 93.3517 130.776 94.7809 130.037 96.3125C129.406 97.6211 128.916 98.9934 128.575 100.406L133.67 98.6596C134.033 96.9099 134.608 95.2113 135.382 93.6017C136.169 91.9694 137.165 90.4463 138.343 89.0703C139.162 88.1151 140.066 87.2373 141.046 86.4478L140.861 86.5138L140.861 86.5143Z" fill="#231F20"/>
<mask id="mask1_194_205" style="mask-type:luminance" maskUnits="userSpaceOnUse" x="127" y="83" width="21" height="19">
<mask id="mask2_194_205" style="mask-type:luminance" maskUnits="userSpaceOnUse" x="127" y="83" width="21" height="19">
<path d="M140.672 85.9815L147.114 83.6846C145.509 84.2573 143.987 85.0373 142.584 86.005C141.17 86.9803 139.889 88.1347 138.771 89.4395C137.624 90.7781 136.656 92.2601 135.891 93.8482C135.089 95.513 134.508 97.2749 134.16 99.0898L127.81 101.266C128.155 99.4657 128.733 97.7178 129.529 96.0664C130.289 94.4908 131.251 93.0205 132.389 91.6925C133.499 90.3978 134.771 89.2524 136.175 88.2847C137.567 87.3242 139.079 86.55 140.672 85.9815Z" fill="white"/>
</mask>
<g mask="url(#mask2_194_205)">
<path d="M127.81 101.831C127.726 101.831 127.644 101.813 127.569 101.777C127.493 101.742 127.427 101.69 127.374 101.625C127.321 101.561 127.283 101.486 127.262 101.405C127.242 101.324 127.24 101.24 127.256 101.158C127.611 99.3094 128.204 97.5149 129.021 95.8195C129.803 94.2 130.791 92.6889 131.961 91.3238C133.102 89.9924 134.411 88.8143 135.854 87.8188C137.288 86.8305 138.843 86.0337 140.482 85.4486L146.924 83.1517H146.925C147.066 83.1014 147.221 83.1093 147.356 83.1736C147.492 83.238 147.596 83.3535 147.646 83.4948C147.696 83.6361 147.688 83.7917 147.624 83.9272C147.56 84.0627 147.445 84.1671 147.303 84.2174L147.299 84.2188C145.743 84.7752 144.265 85.5323 142.904 86.4709C141.531 87.4187 140.285 88.5404 139.199 89.8081C138.084 91.1097 137.143 92.5506 136.399 94.0948C135.619 95.7154 135.053 97.4306 134.714 99.1974C134.695 99.2951 134.651 99.3861 134.585 99.4611C134.52 99.5362 134.436 99.5927 134.342 99.6249L127.992 101.801C127.933 101.822 127.872 101.832 127.809 101.832L127.81 101.831ZM140.861 86.5143C139.314 87.0663 137.847 87.8179 136.494 88.7501C135.131 89.6905 133.895 90.8032 132.817 92.0607C131.711 93.3518 130.776 94.7809 130.037 96.3125C129.406 97.6211 128.916 98.9934 128.575 100.406L133.67 98.6596C134.033 96.9099 134.608 95.2113 135.382 93.6017C136.169 91.9695 137.165 90.4463 138.343 89.0704C139.162 88.1152 140.066 87.2373 141.046 86.4478L140.861 86.5139L140.861 86.5143Z" fill="white"/>
</g>
</mask>
<g mask="url(#mask1_194_205)">
<path d="M144.696 84.7362L138.271 87.0254C138.659 86.8251 139.053 86.6374 139.453 86.4627C139.853 86.2883 140.26 86.1276 140.671 85.981L147.114 83.6841C146.699 83.8323 146.29 83.9941 145.886 84.1695C145.483 84.3446 145.086 84.5335 144.696 84.7358" fill="#231F20"/>
<path d="M138.271 87.5908C138.145 87.5907 138.022 87.5481 137.923 87.4699C137.823 87.3916 137.753 87.2821 137.723 87.159C137.693 87.036 137.705 86.9064 137.758 86.7912C137.81 86.6759 137.9 86.5816 138.012 86.5233C138.61 86.214 139.224 85.9349 139.85 85.687C140.059 85.6038 140.27 85.5251 140.482 85.4495L146.924 83.1522C146.994 83.1272 147.068 83.1163 147.142 83.12C147.216 83.1238 147.289 83.142 147.356 83.1739C147.423 83.2057 147.483 83.2504 147.532 83.3055C147.582 83.3605 147.621 83.4249 147.645 83.4948C147.67 83.5648 147.681 83.6389 147.678 83.7131C147.674 83.7873 147.656 83.86 147.624 83.9271C147.592 83.9942 147.547 84.0544 147.492 84.1042C147.437 84.154 147.373 84.1925 147.303 84.2174H147.302C146.9 84.3617 146.503 84.5189 146.111 84.6887C145.72 84.8586 145.334 85.0422 144.956 85.2392C144.933 85.2505 144.909 85.2609 144.885 85.2695L138.46 87.5587C138.398 87.5809 138.334 87.5913 138.271 87.5913L138.271 87.5908Z" fill="#FBFFA4"/>
<path d="M134.16 99.0893L127.81 101.266C128.122 99.6507 128.606 98.1218 129.238 96.6947C129.87 95.2677 130.648 93.9433 131.552 92.736C132.446 91.54 133.472 90.4486 134.611 89.4825C135.735 88.5282 136.963 87.7041 138.271 87.0259L144.696 84.7367C143.378 85.4202 142.141 86.2506 141.009 87.2122C139.862 88.1861 138.829 89.2861 137.928 90.4916C137.018 91.7083 136.234 93.044 135.598 94.482C134.962 95.9199 134.475 97.4614 134.16 99.0902" fill="#E5F700"/>
<path d="M127.07 102.117L127.255 101.158C127.566 99.5437 128.058 97.9695 128.722 96.4654C129.359 95.0241 130.157 93.6594 131.1 92.3972C132.02 91.1674 133.075 90.0449 134.246 89.0509C135.402 88.0695 136.666 87.2216 138.012 86.5233L138.082 86.493L144.507 84.2038L144.956 85.2387C143.675 85.9028 142.474 86.7094 141.374 87.6433C140.26 88.5898 139.256 89.6588 138.38 90.8299C137.481 92.0339 136.721 93.3356 136.114 94.7104C135.48 96.1484 135.011 97.6535 134.714 99.1969L134.652 99.5185L127.07 102.117ZM138.497 87.5451C137.239 88.2007 136.058 88.9951 134.975 89.9135C133.87 90.8524 132.873 91.9128 132.004 93.0748C131.112 94.2687 130.357 95.5598 129.754 96.9236C129.258 98.0469 128.864 99.2123 128.575 100.406L133.67 98.6596C133.984 97.1449 134.457 95.6677 135.082 94.2526C135.723 92.8 136.527 91.4245 137.476 90.1523C138.403 88.913 139.465 87.782 140.644 86.7807L138.497 87.5456L138.497 87.5451Z" fill="#231F20"/>
</g>
</g>
<path opacity="0.5" d="M326.983 276.161L345.293 292.572L355.658 267.128L326.983 276.161Z" fill="url(#paint2_linear_194_205)"/>
<path opacity="0.5" d="M326.407 210.365L351.817 220.831L359.777 199.793L326.407 210.365Z" fill="url(#paint3_linear_194_205)"/>
<path d="M330.641 234.606L155.671 203.531L151.826 213.692L326.395 244.475L330.641 234.606Z" fill="#FBFFA4"/>
<path d="M326.736 245.109L326.296 245.032L151.057 214.131L155.309 202.893L155.77 202.975L331.441 234.174L326.736 245.11V245.109ZM152.596 213.254L326.052 243.84L329.84 235.038L156.033 204.17L152.596 213.254Z" fill="#231F20"/>
<path d="M278.041 245.24L148.48 222.537L144.676 232.591L273.938 255.082L278.041 245.24Z" fill="#FBFFA4"/>
<path d="M274.286 255.716L143.905 233.031L148.118 221.899L148.578 221.98L278.834 244.806L274.286 255.716ZM145.446 232.151L273.591 254.447L277.248 245.675L148.843 223.173L145.446 232.151Z" fill="#231F20"/>
<mask id="mask3_194_205" style="mask-type:luminance" maskUnits="userSpaceOnUse" x="221" y="0" width="221" height="302">
<path d="M305.531 163.5L316.499 177.23L323.274 282.395C323.274 282.395 328.625 289.85 340.531 294.014C344.787 295.503 355.078 301.85 359.831 301.555C376.958 300.494 396.103 252.684 400.769 242.198C421.527 195.554 424.658 143.713 434.606 94.1789C439.388 70.3632 451.383 31.8679 428.261 13.2069C410.891 -0.81147 377.786 1.98298 358.372 1.24252C332.164 0.242893 304.922 -0.425639 278.675 0.315716C257.22 0.921828 227.065 -2.07345 222.64 24.2454C219.136 45.0838 224.394 66.063 228.283 86.3668C231.231 101.756 231.164 112.275 239.989 125.971C251.515 143.859 305.531 163.5 305.531 163.5Z" fill="white"/>
</mask>
<g mask="url(#mask3_194_205)">
<g opacity="0.5">
<path d="M352.308 216.137C379.802 219.512 381.013 269.815 351.909 266.236C324.034 262.808 322.736 215.022 350.218 215.974C350.929 215.998 351.629 216.054 352.308 216.137Z" fill="#A7A9AC"/>
<mask id="mask4_194_205" style="mask-type:luminance" maskUnits="userSpaceOnUse" x="330" y="215" width="44" height="52">
<path d="M352.308 216.137C379.802 219.512 381.013 269.815 351.909 266.236C324.034 262.808 322.736 215.022 350.218 215.974C350.929 215.998 351.629 216.054 352.308 216.137Z" fill="white"/>
</mask>
<g mask="url(#mask4_194_205)">
<path d="M352.308 216.137C379.802 219.512 381.013 269.815 351.909 266.236C324.034 262.808 322.736 215.022 350.218 215.974C350.929 215.998 351.629 216.054 352.308 216.137Z" fill="#A7A9AC"/>
</g>
</g>
<path opacity="0.5" d="M360.475 265.574C357.988 266.364 355.136 266.633 351.909 266.235C347.195 265.656 343.243 263.804 340.06 261.137L340.059 261.136C340.026 261.108 339.99 261.082 339.957 261.054C339.479 260.646 339.018 260.22 338.575 259.776L338.573 259.775L338.526 259.727C338.051 259.252 337.596 258.757 337.162 258.244L337.158 258.24C337.09 258.159 337.022 258.078 336.955 257.997C336.555 257.513 336.174 257.014 335.811 256.502L335.683 256.32L335.681 256.317C335.329 255.813 334.994 255.297 334.676 254.769L334.675 254.768C334.656 254.735 334.637 254.702 334.618 254.668C334.27 254.085 333.944 253.49 333.638 252.884L333.633 252.875C333.633 252.873 333.632 252.872 333.631 252.871C332.666 250.946 331.915 248.903 331.367 246.808C331.366 246.802 331.364 246.797 331.363 246.792C331.208 246.198 331.069 245.6 330.946 244.998L330.946 244.994C330.928 244.906 330.913 244.818 330.895 244.731C330.895 244.727 330.895 244.723 330.893 244.718C330.769 244.077 330.663 243.432 330.577 242.784L330.569 242.723C330.487 242.092 330.423 241.459 330.377 240.824L330.377 240.82C330.329 240.147 330.302 239.474 330.296 238.799L330.295 238.758C330.283 237.37 330.358 235.994 330.525 234.644L330.526 234.637C330.534 234.571 330.543 234.505 330.552 234.439C330.632 233.815 330.732 233.194 330.852 232.577L330.853 232.575L330.87 232.494C331 231.843 331.148 231.2 331.322 230.569L331.323 230.566L331.325 230.559L331.325 230.557C331.488 229.969 331.672 229.387 331.877 228.812V228.811C331.882 228.8 331.885 228.789 331.889 228.779C332.985 225.695 334.645 222.94 336.879 220.782V220.782C336.909 220.753 336.938 220.722 336.968 220.693C338.788 218.954 340.976 217.649 343.37 216.877L343.367 216.878C343.387 216.871 343.405 216.861 343.427 216.854L314.577 226.122C314.557 226.128 314.539 226.138 314.518 226.144C313.959 226.326 313.421 226.538 312.898 226.769C312.814 226.806 312.73 226.842 312.647 226.88C312.059 227.152 311.488 227.458 310.936 227.797C310.47 228.082 310.019 228.389 309.583 228.718C309.518 228.767 309.456 228.818 309.392 228.868C308.951 229.21 308.526 229.574 308.12 229.959C308.089 229.988 308.06 230.019 308.03 230.049C307.624 230.441 307.237 230.851 306.871 231.28C306.847 231.308 306.821 231.334 306.798 231.362C306.434 231.795 306.089 232.244 305.766 232.707C305.72 232.773 305.673 232.836 305.628 232.902C305.318 233.354 305.026 233.823 304.751 234.303C304.428 234.868 304.13 235.446 303.857 236.037C303.819 236.121 303.781 236.206 303.743 236.291C303.508 236.814 303.293 237.345 303.097 237.883C303.074 237.948 303.053 238.013 303.03 238.078C302.825 238.653 302.641 239.236 302.477 239.824L302.474 239.837C302.311 240.435 302.169 241.038 302.047 241.645C302.033 241.711 302.018 241.776 302.005 241.842C301.89 242.43 301.794 243.021 301.717 243.614C301.704 243.712 301.69 243.808 301.678 243.906C301.606 244.495 301.55 245.086 301.512 245.678C301.506 245.782 301.5 245.886 301.494 245.99C301.461 246.592 301.445 247.195 301.445 247.797C301.445 247.888 301.447 247.978 301.448 248.068C301.455 248.694 301.475 249.321 301.518 249.949C301.521 249.996 301.527 250.043 301.53 250.09C301.575 250.723 301.639 251.356 301.721 251.989L301.736 252.115C301.821 252.744 301.927 253.37 302.047 253.994C302.065 254.083 302.08 254.172 302.099 254.261C302.22 254.864 302.36 255.462 302.516 256.058C302.696 256.751 302.9 257.439 303.126 258.119C303.158 258.217 303.193 258.313 303.226 258.409C303.428 258.997 303.645 259.579 303.882 260.153C303.91 260.222 303.941 260.288 303.969 260.357C304.221 260.958 304.493 261.552 304.783 262.136L304.786 262.141C305.078 262.72 305.39 263.289 305.721 263.848C305.757 263.91 305.792 263.973 305.829 264.035C306.147 264.563 306.483 265.08 306.836 265.585C306.893 265.667 306.948 265.749 307.006 265.83C307.77 266.9 308.615 267.91 309.533 268.852C309.596 268.916 309.661 268.977 309.725 269.041C310.17 269.484 310.628 269.913 311.108 270.32C311.142 270.348 311.178 270.375 311.211 270.403C311.697 270.81 312.201 271.198 312.722 271.566C312.759 271.591 312.793 271.618 312.829 271.643C313.349 272.005 313.89 272.341 314.446 272.66C314.525 272.706 314.603 272.753 314.683 272.798C315.225 273.101 315.785 273.38 316.36 273.639C316.46 273.684 316.559 273.729 316.66 273.772C317.243 274.026 317.837 274.254 318.44 274.456C318.541 274.49 318.643 274.521 318.745 274.554C319.373 274.755 320.015 274.935 320.677 275.084C320.752 275.101 320.829 275.115 320.906 275.131C321.618 275.287 322.338 275.411 323.061 275.502C323.811 275.594 324.535 275.642 325.244 275.665C325.335 275.667 325.427 275.674 325.518 275.675C326.169 275.687 326.819 275.669 327.468 275.621C327.58 275.612 327.692 275.605 327.802 275.594C328.408 275.541 329.01 275.458 329.608 275.345C329.708 275.326 329.805 275.304 329.904 275.284C330.486 275.166 331.061 275.018 331.627 274.841C331.643 274.835 331.661 274.833 331.678 274.828L360.527 265.561C360.51 265.566 360.492 265.569 360.475 265.574L360.475 265.574Z" fill="#BCBEC0"/>
<g opacity="0.5">
<path d="M323.459 225.404C350.954 228.779 352.165 279.081 323.06 275.503C295.186 272.075 293.887 224.289 321.37 225.241C322.081 225.265 322.78 225.321 323.459 225.404Z" fill="url(#paint4_linear_194_205)"/>
<mask id="mask5_194_205" style="mask-type:luminance" maskUnits="userSpaceOnUse" x="301" y="225" width="44" height="51">
<path d="M323.459 225.404C350.954 228.779 352.165 279.081 323.06 275.503C295.186 272.075 293.887 224.289 321.37 225.241C322.081 225.265 322.78 225.321 323.459 225.404Z" fill="white"/>
</mask>
<g mask="url(#mask5_194_205)">
<path opacity="0.65" d="M323.459 225.404C350.954 228.779 352.165 279.081 323.06 275.503C295.186 272.075 293.887 224.289 321.37 225.241C322.081 225.265 322.78 225.321 323.459 225.404Z" fill="url(#paint5_linear_194_205)"/>
</g>
</g>
<path opacity="0.3" d="M373.333 243.78C373.337 244.416 373.322 245.051 373.29 245.685C373.285 245.772 373.283 245.858 373.278 245.945C373.202 247.239 373.047 248.528 372.814 249.803C372.797 249.896 372.777 249.988 372.759 250.081C372.645 250.67 372.513 251.255 372.362 251.836C372.351 251.877 372.338 251.918 372.326 251.959C372.174 252.525 372.003 253.087 371.813 253.642C371.795 253.695 371.778 253.75 371.76 253.803C371.569 254.345 371.359 254.879 371.131 255.406C371.093 255.495 371.055 255.583 371.017 255.67C370.791 256.174 370.547 256.669 370.285 257.155C370.239 257.241 370.191 257.326 370.143 257.411C369.876 257.893 369.589 258.365 369.283 258.824C369.245 258.882 369.203 258.937 369.164 258.994C368.847 259.46 368.51 259.911 368.152 260.346C368.144 260.357 368.137 260.367 368.128 260.378C367.768 260.808 367.388 261.22 366.989 261.613C366.933 261.669 366.879 261.725 366.823 261.78C366.438 262.151 366.034 262.503 365.615 262.835C365.12 263.229 364.603 263.594 364.065 263.927C363.991 263.973 363.915 264.015 363.84 264.06C363.358 264.35 362.86 264.614 362.349 264.851C362.315 264.867 362.279 264.88 362.245 264.896C361.722 265.13 361.187 265.337 360.643 265.516C360.603 265.529 360.567 265.548 360.526 265.561L331.716 274.815C331.759 274.801 331.797 274.781 331.839 274.767C332.429 274.573 333.008 274.346 333.572 274.086L333.583 274.08C338.673 271.706 341.949 266.917 343.477 261.228L343.477 261.227C343.488 261.185 343.502 261.145 343.512 261.102L343.513 261.1C343.673 260.485 343.812 259.865 343.93 259.24C344.072 258.5 344.186 257.754 344.272 257.004V257.003C344.421 255.703 344.494 254.381 344.483 253.047L344.483 253.018L344.482 253.003C344.475 252.374 344.45 251.746 344.407 251.119L344.407 251.107C344.401 251.025 344.398 250.944 344.392 250.862L344.391 250.856C344.346 250.245 344.284 249.634 344.205 249.026L344.204 249.023C344.19 248.913 344.176 248.803 344.161 248.694C344.078 248.09 343.98 247.488 343.865 246.889L343.864 246.883C343.844 246.781 343.822 246.679 343.802 246.577L343.801 246.573C343.666 245.9 343.51 245.231 343.334 244.567C343.333 244.564 343.332 244.561 343.331 244.558C342.996 243.299 342.586 242.062 342.103 240.853C342.103 240.851 342.102 240.849 342.101 240.847L342.049 240.718C341.801 240.104 341.533 239.499 341.245 238.902L341.245 238.9C341.197 238.801 341.147 238.702 341.099 238.603L341.097 238.6C339.869 236.125 338.311 233.849 336.426 231.901L336.374 231.847C335.959 231.421 335.529 231.01 335.083 230.617H335.082L335.066 230.603C334.537 230.136 333.986 229.695 333.415 229.282L333.407 229.276C330.608 227.257 327.289 225.873 323.459 225.403C322.765 225.319 322.068 225.264 321.369 225.24C318.943 225.156 316.745 225.459 314.766 226.071H314.767C314.705 226.09 314.639 226.102 314.577 226.122L343.426 216.855C343.487 216.835 343.553 216.823 343.615 216.803C343.999 216.685 344.386 216.58 344.777 216.488C344.899 216.46 345.02 216.43 345.143 216.403C345.626 216.298 346.113 216.212 346.603 216.145C346.666 216.136 346.73 216.132 346.793 216.124C347.249 216.068 347.707 216.028 348.166 216.002C348.849 215.961 349.534 215.952 350.218 215.973C350.928 215.998 351.628 216.053 352.307 216.137H352.307C353.011 216.223 353.692 216.348 354.362 216.494C354.449 216.513 354.539 216.529 354.626 216.55C355.257 216.696 355.871 216.871 356.47 217.068C357.164 217.294 357.846 217.556 358.513 217.853C358.607 217.895 358.699 217.94 358.792 217.984C359.358 218.244 359.911 218.53 360.451 218.84C360.496 218.866 360.54 218.895 360.586 218.922C361.114 219.233 361.629 219.567 362.128 219.922C362.174 219.954 362.22 219.983 362.265 220.016C362.76 220.375 363.24 220.756 363.703 221.156C363.779 221.221 363.857 221.285 363.932 221.351C364.458 221.815 364.963 222.303 365.446 222.814C365.86 223.25 366.258 223.701 366.639 224.165C366.691 224.23 366.741 224.295 366.792 224.359C367.188 224.85 367.566 225.356 367.924 225.875C367.927 225.879 367.931 225.883 367.933 225.887C368.292 226.414 368.633 226.952 368.955 227.503C368.999 227.577 369.044 227.649 369.087 227.724C369.446 228.348 369.782 228.985 370.094 229.634C370.358 230.182 370.606 230.738 370.838 231.3C370.876 231.393 370.913 231.488 370.95 231.581C371.185 232.165 371.402 232.756 371.602 233.352C371.619 233.4 371.633 233.45 371.649 233.499C371.844 234.095 372.022 234.696 372.183 235.302C372.198 235.359 372.216 235.415 372.23 235.473C372.389 236.081 372.527 236.695 372.652 237.312C372.672 237.413 372.694 237.515 372.713 237.617C372.85 238.327 372.963 239.04 373.054 239.757C373.132 240.369 373.196 240.983 373.241 241.596C373.247 241.678 373.251 241.759 373.256 241.842C373.298 242.48 373.326 243.117 373.332 243.752L373.333 243.782V243.78Z" fill="#FBFFA4"/>
<path opacity="0.5" d="M382.312 64.1519C375.909 54.3243 366.396 49.489 356.495 48.2718C355.914 48.2003 355.331 48.1412 354.747 48.0945C354.122 48.0453 353.495 48.0118 352.868 47.9941C352.648 47.9873 352.434 47.9878 352.218 47.985C351.579 47.9755 350.94 47.9852 350.301 48.014C350.007 48.0276 349.719 48.0475 349.431 48.0687C349.136 48.0904 348.839 48.1108 348.549 48.1411C348.394 48.1574 348.244 48.1809 348.091 48.1994C347.289 48.2939 346.493 48.425 345.704 48.5925C345.436 48.65 345.171 48.711 344.909 48.7762C343.979 48.9918 343.063 49.2636 342.165 49.5899L343.371 49.2027C343.288 49.2294 343.214 49.2674 343.133 49.2945H343.134C342.322 49.5644 341.511 49.8392 340.702 50.1191C341.002 50.0124 341.485 49.8387 342.165 49.5899L314.522 58.4699C314.44 58.4966 314.366 58.5341 314.285 58.5612C317.589 57.4589 321.404 57.0016 325.899 57.3617C326.483 57.4083 327.065 57.4675 327.647 57.539C337.547 58.7562 347.06 63.592 353.464 73.4191C359.672 82.9645 361.185 96.2089 356.212 105.658C346.761 123.629 327.448 132.004 315.576 147.609C306.695 159.285 297.527 185.423 308.044 201.213C311.464 206.34 316.849 209.413 322.219 210.074C324.282 210.327 326.341 210.213 328.288 209.733L358.59 200.03C356.232 200.872 353.653 201.125 351.068 200.807C345.698 200.147 340.313 197.074 336.893 191.946C326.375 176.156 335.544 150.018 344.424 138.342C356.297 122.738 375.61 114.362 385.06 96.3916C390.034 86.9422 388.521 73.6982 382.312 64.1528L382.312 64.1519Z" fill="#A7A9AC"/>
<path opacity="0.5" d="M307.27 96.6508C307.375 96.6201 307.485 96.6011 307.588 96.568L278.74 105.835C278.636 105.869 278.525 105.887 278.421 105.918C278.135 106.003 277.845 106.077 277.551 106.144C277.352 106.189 277.153 106.233 276.95 106.271C276.642 106.327 276.329 106.369 276.014 106.405C275.816 106.428 275.62 106.455 275.419 106.471C275.068 106.497 274.71 106.504 274.35 106.506C274.175 106.508 274.004 106.518 273.827 106.514C273.274 106.501 272.723 106.461 272.174 106.395C262.373 105.19 252.744 94.7244 252.828 83.045C252.837 81.8006 252.889 80.5825 252.961 79.3762C252.981 79.0555 253.003 78.7366 253.026 78.4186C253.103 77.372 253.201 76.3379 253.323 75.3202C253.342 75.1633 253.355 75.0027 253.375 74.8466C253.523 73.6982 253.705 72.5728 253.909 71.4615C253.962 71.1756 254.02 70.8938 254.076 70.6106C254.258 69.6938 254.459 68.7896 254.678 67.8981C254.732 67.6796 254.781 67.458 254.837 67.2413C255.108 66.1928 255.409 65.152 255.738 64.1203C255.814 63.8823 255.896 63.6503 255.975 63.4142C256.252 62.584 256.547 61.7604 256.862 60.9441C256.954 60.7052 257.042 60.4646 257.137 60.228C257.524 59.2599 257.938 58.3029 258.378 57.3581C258.459 57.1857 258.546 57.0184 258.628 56.8474C259.006 56.0608 259.402 55.2831 259.817 54.5152C259.944 54.2791 260.071 54.0421 260.202 53.8082C260.695 52.9181 261.214 52.0417 261.756 51.1802C261.809 51.0979 261.864 51.0192 261.917 50.9378C262.564 49.9317 263.242 48.9465 263.952 47.9837C264.508 47.2238 265.084 46.4781 265.678 45.7474C265.721 45.6949 265.761 45.6398 265.805 45.5873C266.44 44.8183 267.096 44.0661 267.772 43.3316C267.949 43.1375 268.129 42.9462 268.31 42.7544C268.89 42.1363 269.483 41.5311 270.09 40.9392C270.209 40.823 270.325 40.7027 270.445 40.5873C271.157 39.9064 271.886 39.2433 272.631 38.5985C272.816 38.4374 273.006 38.2805 273.193 38.1217C273.813 37.5968 274.444 37.0842 275.084 36.5843C275.257 36.4495 275.426 36.312 275.6 36.179C276.381 35.5832 277.175 35.0055 277.982 34.4466C278.157 34.3249 278.336 34.2091 278.513 34.0893C279.188 33.6314 279.872 33.1866 280.564 32.7549C280.774 32.6233 280.984 32.4903 281.196 32.3614C282.037 31.8483 282.889 31.3537 283.752 30.8778C283.885 30.804 284.022 30.7357 284.156 30.6629C284.912 30.2543 285.676 29.8602 286.447 29.4805C286.682 29.3648 286.917 29.249 287.153 29.1354C288.049 28.7032 288.953 28.2899 289.866 27.8956C289.9 27.8811 289.935 27.8685 289.969 27.854C290.856 27.4774 291.75 27.1185 292.651 26.7775C292.899 26.6829 293.149 26.5902 293.398 26.4984C294.237 26.1885 295.081 25.894 295.93 25.615C296.037 25.5797 296.144 25.5408 296.251 25.5064C296.286 25.4956 296.319 25.4829 296.353 25.4721L325.202 16.2049C325.168 16.2158 325.134 16.2284 325.1 16.2393L325.108 16.237C320.773 17.636 316.569 19.4295 312.592 21.616C312.205 21.8286 311.825 22.0512 311.441 22.2714L311.469 22.2683C311.347 22.3379 311.226 22.4085 311.105 22.4791C310.75 22.6817 310.394 22.8821 310.044 23.0942C310.042 23.0956 310.04 23.0965 310.039 23.0983C309.829 23.2254 309.623 23.357 309.416 23.4864L309.413 23.4882C309.021 23.7333 308.637 23.9916 308.25 24.2449C307.777 24.5548 307.298 24.8565 306.833 25.1785L306.831 25.1799C306.024 25.7389 305.23 26.3165 304.45 26.9123L304.449 26.9132C304.276 27.0452 304.108 27.1814 303.937 27.3148L303.934 27.3171C303.293 27.817 302.663 28.3296 302.043 28.8545L302.041 28.8559C301.125 29.6296 300.231 30.4307 299.363 31.2582C299.341 31.2794 299.316 31.2989 299.295 31.3206C299.175 31.4355 299.06 31.5549 298.942 31.6702C298.941 31.6708 298.941 31.6712 298.94 31.6716C298.66 31.9443 298.393 32.2302 298.12 32.5084C297.167 33.4734 296.249 34.472 295.368 35.5023C295.131 35.7764 294.884 36.0401 294.654 36.3201L294.653 36.3215C294.611 36.3726 294.572 36.426 294.53 36.4766L294.528 36.4802C294.378 36.6643 294.239 36.8593 294.091 37.0461C293.484 37.8041 292.897 38.5779 292.33 39.3665L292.325 39.3733C292.053 39.7555 291.796 40.1531 291.532 40.5425C291.224 40.9985 290.903 41.4427 290.608 41.9095L290.605 41.9135C290.13 42.6648 289.681 43.4406 289.239 44.2217C289.047 44.5601 288.854 44.8979 288.669 45.2417L288.665 45.2485C288.25 46.0165 287.854 46.7942 287.477 47.5811C287.394 47.7512 287.308 47.9176 287.228 48.0891L287.226 48.0922C286.986 48.6052 286.772 49.1376 286.547 49.6623C286.26 50.3285 285.973 50.9939 285.71 51.6778V51.6796C285.395 52.4948 285.1 53.3172 284.824 54.1461L284.82 54.1565C284.743 54.389 284.661 54.6188 284.586 54.8531C284.557 54.9472 284.534 55.0453 284.504 55.139C284.074 56.51 283.701 57.9203 283.365 59.3573C283.212 60.0145 283.058 60.6713 282.925 61.3421L282.923 61.3493C282.846 61.7361 282.776 62.1269 282.707 62.5181C282.526 63.5246 282.357 64.5396 282.224 65.5777L282.223 65.5835C282.203 65.7387 282.191 65.8979 282.172 66.0535L282.171 66.058C282.144 66.2819 282.131 66.5149 282.106 66.7401C281.984 67.8479 281.878 68.966 281.81 70.1077V70.1108C281.734 71.3256 281.69 72.5422 281.677 73.7593L281.677 73.7733V73.7773C281.676 74.4241 281.704 75.0705 281.762 75.7146C281.776 75.8806 281.792 76.0457 281.81 76.2108C281.872 76.7907 281.953 77.367 282.06 77.9369C282.072 77.998 282.079 78.0604 282.09 78.1214C282.249 78.9098 282.449 79.6892 282.69 80.4563C282.841 80.9429 283.007 81.4246 283.188 81.9006C283.235 82.0236 283.276 82.1489 283.324 82.2715C283.546 82.8193 283.787 83.359 284.047 83.8895C284.142 84.0849 284.241 84.2757 284.341 84.4684C284.538 84.847 284.744 85.2197 284.959 85.587C285.064 85.7666 285.164 85.9489 285.273 86.1257C285.562 86.5919 285.866 87.0488 286.184 87.4958C286.338 87.7125 286.499 87.9219 286.658 88.1331C286.865 88.405 287.075 88.6719 287.291 88.9347C287.466 89.1482 287.638 89.363 287.819 89.5702C288.151 89.9496 288.494 90.3193 288.848 90.6788C289.063 90.8973 289.286 91.1053 289.507 91.3152C289.708 91.5052 289.912 91.6911 290.118 91.8738C290.352 92.0815 290.585 92.2891 290.826 92.4863C291.19 92.7848 291.56 93.072 291.937 93.3457C294.737 95.3834 297.869 96.7395 301.023 97.1276C303.281 97.4053 305.366 97.2149 307.278 96.6481L307.27 96.6508Z" fill="#939598"/>
<g opacity="0.5">
<path d="M359.746 13.3014C396.428 18.7411 435.218 53.1836 427.452 99.3657C424.318 118.033 411.688 129.608 399.7 140.583C392.773 146.924 385.386 152.81 378.988 159.846C373.118 166.298 370.808 173.787 368.88 182.871C367.333 190.134 365.522 197.454 358.78 199.972C356.373 200.869 353.722 201.133 351.068 200.807C345.698 200.147 340.313 197.073 336.893 191.946C326.375 176.156 335.544 150.018 344.424 138.342C356.297 122.737 375.61 114.362 385.06 96.3912C390.033 86.9417 388.521 73.6977 382.312 64.1524C375.909 54.3248 366.396 49.4895 356.495 48.2723C355.914 48.2007 355.331 48.1416 354.747 48.095C332.089 46.278 326.454 64.9774 318.66 84.7801C315.454 92.9481 309.392 98.157 301.024 97.128C291.223 95.923 281.593 85.4577 281.678 73.7783C282.001 29.0834 323.409 8.81486 357.988 13.0635C358.579 13.1359 359.161 13.215 359.747 13.3014H359.746Z" fill="#808285"/>
<path d="M359.746 13.3014C396.428 18.7411 435.218 53.1836 427.452 99.3657C424.318 118.033 411.688 129.608 399.7 140.583C392.773 146.924 385.386 152.81 378.988 159.846C373.118 166.298 370.808 173.787 368.88 182.871C367.333 190.134 365.522 197.454 358.78 199.972C356.373 200.869 353.722 201.133 351.068 200.807C345.698 200.147 340.313 197.073 336.893 191.946C326.375 176.156 335.544 150.018 344.424 138.342C356.297 122.737 375.61 114.362 385.06 96.3912C390.033 86.9417 388.521 73.6977 382.312 64.1524C375.909 54.3248 366.396 49.4895 356.495 48.2723C355.914 48.2007 355.331 48.1416 354.747 48.095C332.089 46.278 326.454 64.9774 318.66 84.7801C315.454 92.9481 309.392 98.157 301.024 97.128C291.223 95.923 281.593 85.4577 281.678 73.7783C282.001 29.0834 323.409 8.81486 357.988 13.0635C358.579 13.1359 359.161 13.215 359.747 13.3014H359.746Z" fill="#808285"/>
<mask id="mask6_194_205" style="mask-type:luminance" maskUnits="userSpaceOnUse" x="281" y="12" width="148" height="189">
<mask id="mask7_194_205" style="mask-type:luminance" maskUnits="userSpaceOnUse" x="281" y="12" width="148" height="189">
<path d="M359.746 13.3014C396.428 18.7411 435.218 53.1836 427.452 99.3657C424.318 118.033 411.688 129.608 399.7 140.583C392.773 146.924 385.386 152.81 378.988 159.846C373.118 166.298 370.808 173.787 368.88 182.871C367.333 190.134 365.522 197.454 358.78 199.972C356.373 200.869 353.722 201.133 351.068 200.807C345.698 200.147 340.313 197.073 336.893 191.946C326.375 176.156 335.544 150.018 344.424 138.342C356.297 122.737 375.61 114.362 385.06 96.3912C390.033 86.9417 388.521 73.6977 382.312 64.1524C375.909 54.3248 366.396 49.4895 356.495 48.2723C355.914 48.2007 355.331 48.1416 354.747 48.095C332.089 46.278 326.454 64.9774 318.66 84.7801C315.454 92.9481 309.392 98.157 301.024 97.128C291.223 95.923 281.593 85.4577 281.678 73.7783C282.001 29.0834 323.409 8.81486 357.988 13.0635C358.579 13.1359 359.161 13.215 359.747 13.3014H359.746Z" fill="white"/>
</mask>
<g mask="url(#mask7_194_205)">
<path d="M359.746 13.3014C396.428 18.7411 435.218 53.1836 427.452 99.3657C424.318 118.033 411.688 129.608 399.7 140.583C392.773 146.924 385.386 152.81 378.988 159.846C373.118 166.298 370.808 173.787 368.88 182.871C367.333 190.134 365.522 197.454 358.78 199.972C356.373 200.869 353.722 201.133 351.068 200.807C345.698 200.147 340.313 197.073 336.893 191.946C326.375 176.156 335.544 150.018 344.424 138.342C356.297 122.737 375.61 114.362 385.06 96.3912C390.033 86.9417 388.521 73.6977 382.312 64.1524C375.909 54.3248 366.396 49.4895 356.495 48.2723C355.914 48.2007 355.331 48.1416 354.747 48.095C332.089 46.278 326.454 64.9774 318.66 84.7801C315.454 92.9481 309.392 98.157 301.024 97.128C291.223 95.923 281.593 85.4577 281.678 73.7783C282.001 29.0834 323.409 8.81486 357.988 13.0635C358.579 13.1359 359.161 13.215 359.747 13.3014H359.746Z" fill="white"/>
</g>
</mask>
<g mask="url(#mask6_194_205)">
<g opacity="0.5">
<path d="M359.746 13.3014C396.428 18.7411 435.218 53.1836 427.452 99.3657C424.318 118.033 411.688 129.608 399.7 140.583C392.773 146.924 385.386 152.81 378.988 159.846C373.118 166.298 370.808 173.787 368.88 182.871C367.333 190.134 365.522 197.454 358.78 199.972C356.373 200.869 353.722 201.133 351.068 200.807C345.698 200.147 340.313 197.073 336.893 191.946C326.375 176.156 335.544 150.018 344.424 138.342C356.297 122.737 375.61 114.362 385.06 96.3912C390.033 86.9417 388.521 73.6977 382.312 64.1524C375.909 54.3248 366.396 49.4895 356.495 48.2723C355.914 48.2007 355.331 48.1416 354.747 48.095C332.089 46.278 326.454 64.9774 318.66 84.7801C315.454 92.9481 309.392 98.157 301.024 97.128C291.223 95.923 281.593 85.4577 281.678 73.7783C282.001 29.0834 323.409 8.81486 357.988 13.0635C358.579 13.1359 359.161 13.215 359.747 13.3014H359.746Z" fill="#808285"/>
<mask id="mask8_194_205" style="mask-type:luminance" maskUnits="userSpaceOnUse" x="281" y="12" width="148" height="189">
<path d="M359.746 13.3014C396.428 18.7411 435.218 53.1836 427.452 99.3657C424.318 118.033 411.688 129.608 399.7 140.583C392.773 146.924 385.386 152.81 378.988 159.846C373.118 166.298 370.808 173.787 368.88 182.871C367.333 190.134 365.522 197.454 358.78 199.972C356.373 200.869 353.722 201.133 351.068 200.807C345.698 200.147 340.313 197.073 336.893 191.946C326.375 176.156 335.544 150.018 344.424 138.342C356.297 122.737 375.61 114.362 385.06 96.3912C390.033 86.9417 388.521 73.6977 382.312 64.1524C375.909 54.3248 366.396 49.4895 356.495 48.2723C355.914 48.2007 355.331 48.1416 354.747 48.095C332.089 46.278 326.454 64.9774 318.66 84.7801C315.454 92.9481 309.392 98.157 301.024 97.128C291.223 95.923 281.593 85.4577 281.678 73.7783C282.001 29.0834 323.409 8.81486 357.988 13.0635C358.579 13.1359 359.161 13.215 359.747 13.3014H359.746Z" fill="white"/>
</mask>
<g mask="url(#mask8_194_205)">
<path d="M359.746 13.3014C396.428 18.7411 435.218 53.1836 427.452 99.3657C424.318 118.033 411.688 129.608 399.7 140.583C392.773 146.924 385.386 152.81 378.988 159.846C373.118 166.298 370.808 173.787 368.88 182.871C367.333 190.134 365.522 197.454 358.78 199.972C356.373 200.869 353.722 201.133 351.068 200.807C345.698 200.147 340.313 197.073 336.893 191.946C326.375 176.156 335.544 150.018 344.424 138.342C356.297 122.737 375.61 114.362 385.06 96.3912C390.033 86.9417 388.521 73.6977 382.312 64.1524C375.909 54.3248 366.396 49.4895 356.495 48.2723C355.914 48.2007 355.331 48.1416 354.747 48.095C332.089 46.278 326.454 64.9774 318.66 84.7801C315.454 92.9481 309.392 98.157 301.024 97.128C291.223 95.923 281.593 85.4577 281.678 73.7783C282.001 29.0834 323.409 8.81486 357.988 13.0635C358.579 13.1359 359.161 13.215 359.747 13.3014H359.746Z" fill="#808285"/>
</g>
</g>
</g>
</g>
<path opacity="0.7" d="M316.622 88.9292C316.681 88.832 316.735 88.7284 316.793 88.6293C317.075 88.1473 317.341 87.6561 317.591 87.1566C317.983 86.3808 318.34 85.5876 318.66 84.7796C319.029 83.8429 319.392 82.9102 319.753 81.9807C320.131 81.0045 320.508 80.0339 320.883 79.07C321.248 78.1312 321.616 77.1937 321.988 76.2574L322.148 75.8535C322.478 75.0253 322.814 74.1992 323.154 73.3752C323.227 73.1979 323.301 73.0215 323.374 72.8451C323.718 72.0176 324.069 71.1934 324.429 70.3727C324.454 70.3148 324.481 70.2587 324.506 70.2008C324.841 69.4409 325.183 68.6946 325.53 67.9578C325.604 67.8004 325.677 67.642 325.752 67.486C326.114 66.727 326.484 65.982 326.862 65.2515C326.935 65.1104 327.01 64.9724 327.084 64.8322C327.448 64.1406 327.82 63.4612 328.202 62.799C328.243 62.7285 328.282 62.6552 328.323 62.5851C328.73 61.889 329.15 61.215 329.58 60.5555C329.674 60.4112 329.768 60.2674 329.864 60.1249C330.294 59.4791 330.743 58.8461 331.21 58.227C331.268 58.1505 331.328 58.0786 331.387 58.0031C331.816 57.4476 332.263 56.9062 332.727 56.3797C332.818 56.2756 332.907 56.1684 333.001 56.0662C333.453 55.5698 333.923 55.0898 334.409 54.6274C339.596 49.2289 346.646 47.5983 354.747 48.0945C350.253 47.734 346.437 48.1917 343.132 49.2941C343.214 49.2669 343.288 49.2289 343.37 49.2022L314.522 58.4694C314.439 58.4961 314.365 58.5341 314.283 58.5617C313.615 58.784 312.958 59.0375 312.313 59.3211C312.203 59.3695 312.089 59.4134 311.981 59.4636C311.309 59.7744 310.653 60.1184 310.015 60.4945C309.878 60.575 309.743 60.6591 309.608 60.7423C308.974 61.1285 308.359 61.5448 307.766 61.9898C307.743 62.0075 307.72 62.0274 307.697 62.045C307.122 62.4883 306.566 62.9566 306.032 63.4486C305.92 63.5512 305.805 63.6526 305.695 63.758C305.16 64.2624 304.646 64.788 304.153 65.3334C304.06 65.4361 303.97 65.5433 303.878 65.6473C303.415 66.1741 302.968 66.7155 302.538 67.2707C302.481 67.3462 302.419 67.4186 302.362 67.4946C301.894 68.1138 301.446 68.7467 301.016 69.3925C300.478 70.1964 299.964 71.0164 299.475 71.8514C299.433 71.9233 299.393 71.9984 299.351 72.0707C298.966 72.7397 298.594 73.4161 298.235 74.0994C298.161 74.2392 298.086 74.3776 298.013 74.5187C297.631 75.2575 297.261 76.0024 296.903 76.7532C296.828 76.9092 296.755 77.0675 296.681 77.2249C296.331 77.9684 295.989 78.7161 295.657 79.468C295.632 79.5259 295.605 79.582 295.58 79.6399C295.143 80.6374 294.717 81.6399 294.304 82.6474C293.963 83.4701 293.629 84.295 293.299 85.122L293.141 85.5196C292.827 86.3131 292.514 87.1076 292.204 87.9029L292.034 88.3385C291.659 89.3019 291.282 90.2731 290.903 91.2492C290.542 92.1787 290.179 93.1118 289.811 94.0482C289.49 94.8562 289.134 95.6493 288.742 96.4251C288.492 96.9246 288.226 97.4158 287.944 97.8979C287.886 97.9965 287.831 98.1001 287.773 98.1978C287.443 98.7396 287.091 99.2673 286.718 99.7795C286.626 99.9057 286.53 100.026 286.436 100.149C286.134 100.544 285.817 100.928 285.486 101.3C285.387 101.411 285.291 101.525 285.19 101.633C284.902 101.941 284.597 102.221 284.293 102.503C280.72 105.417 276.719 106.845 272.174 106.397C274.639 106.7 276.898 106.449 278.948 105.753C278.877 105.778 278.811 105.814 278.739 105.837L307.588 96.5703C307.66 96.5472 307.725 96.5106 307.797 96.4866C308.33 96.3057 308.854 96.103 309.358 95.862C309.378 95.852 309.4 95.8452 309.421 95.8353C309.944 95.582 310.445 95.2866 310.936 94.9713C311.069 94.8863 311.198 94.7972 311.328 94.7076C311.732 94.43 312.123 94.1336 312.5 93.8193C312.584 93.7487 312.672 93.684 312.756 93.6112C313.205 93.2186 313.633 92.8033 314.04 92.3669C314.141 92.2588 314.237 92.1448 314.336 92.0335C314.667 91.6621 314.984 91.2781 315.285 90.8823C315.379 90.7593 315.475 90.6395 315.567 90.5133C315.942 90.0014 316.294 89.4737 316.622 88.9315L316.622 88.9292Z" fill="url(#paint6_linear_194_205)"/>
<path opacity="0.65" d="M330.897 22.5682C367.58 28.0078 406.369 62.4503 398.603 108.632C395.469 127.3 382.839 138.875 370.851 149.849C363.924 156.191 356.537 162.076 350.139 169.112C344.269 175.564 341.959 183.053 340.031 192.137C338.484 199.4 336.673 206.721 329.931 209.239C327.524 210.136 324.873 210.4 322.219 210.074C316.849 209.413 311.464 206.34 308.044 201.213C297.527 185.423 306.695 159.285 315.575 147.609C327.448 132.004 346.761 123.629 356.211 105.658C361.184 96.2084 359.672 82.9645 353.463 73.4191C347.06 63.5915 337.547 58.7562 327.646 57.539C327.065 57.4675 326.482 57.4083 325.898 57.3617C303.24 55.5447 297.605 74.2441 289.812 94.0468C286.605 102.215 280.543 107.424 272.175 106.395C262.374 105.19 252.744 94.7244 252.829 83.045C253.152 38.3501 294.56 18.0816 329.139 22.3302C329.73 22.4026 330.311 22.4818 330.897 22.5682Z" fill="url(#paint7_linear_194_205)"/>
<path opacity="0.5" d="M359.746 13.3014C359.161 13.2148 358.575 13.1354 357.988 13.0635C356.758 12.9124 355.517 12.8007 354.271 12.7116C353.88 12.6836 353.486 12.6682 353.094 12.646C352.222 12.5965 351.349 12.562 350.475 12.5424C349.162 12.5157 347.847 12.5231 346.534 12.5646C346.124 12.5768 345.716 12.5841 345.306 12.6031C344.155 12.6564 343.002 12.7333 341.85 12.8383C341.737 12.8487 341.623 12.8527 341.51 12.8636C340.245 12.9866 338.984 13.1401 337.727 13.3241C337.345 13.3792 336.965 13.4475 336.585 13.5086C335.695 13.6506 334.807 13.8049 333.922 13.9781C332.622 14.2338 331.329 14.5228 330.044 14.8448C329.634 14.947 329.224 15.0451 328.815 15.1542C327.762 15.4364 326.714 15.7412 325.673 16.0683C325.517 16.1171 325.358 16.1551 325.202 16.2053L296.353 25.4725C296.503 25.4246 296.656 25.387 296.807 25.3409C301.965 23.7209 307.279 22.6451 312.66 22.1308C312.724 22.1244 312.788 22.1204 312.851 22.1163C314.052 22.0046 315.254 21.9259 316.455 21.8702H316.458C316.803 21.8544 317.148 21.8472 317.493 21.8381C318.427 21.8074 319.359 21.7911 320.29 21.7942H320.292C320.738 21.796 321.183 21.8006 321.627 21.8101H321.63C322.504 21.8286 323.373 21.8648 324.241 21.9137H324.245C324.638 21.9358 325.032 21.9512 325.423 21.9792H325.425C326.669 22.0683 327.91 22.1801 329.139 22.3311C329.502 22.3755 329.861 22.4279 330.221 22.4777C330.446 22.5089 330.673 22.5356 330.898 22.5691C367.58 28.0087 406.37 62.4512 398.604 108.633C395.47 127.301 382.839 138.876 370.852 149.85C364.791 155.399 358.378 160.599 352.582 166.526C351.752 167.373 350.937 168.236 350.139 169.113C345.094 174.659 342.681 180.974 340.877 188.406C340.577 189.648 340.294 190.894 340.029 192.145C339.905 192.728 339.778 193.31 339.647 193.892L339.567 194.252C339.283 195.499 338.977 196.732 338.627 197.928C338.621 197.949 338.614 197.97 338.608 197.99C337.126 203.032 334.835 207.408 329.931 209.239L329.929 209.24C329.718 209.318 329.506 209.392 329.292 209.461L358.141 200.194C358.355 200.125 358.568 200.051 358.778 199.973H358.78C365.522 197.454 367.332 190.134 368.88 182.871C370.808 173.787 373.118 166.298 378.988 159.846C385.386 152.81 392.773 146.924 399.7 140.583C411.688 129.608 424.318 118.033 427.452 99.3657C435.218 53.1836 396.428 18.7411 359.747 13.3014H359.746Z" fill="#FBFFA4"/>
<path d="M324.38 210.773C323.641 210.773 322.897 210.726 322.15 210.635C316.352 209.922 310.903 206.517 307.574 201.527C297.302 186.106 305.36 160.106 315.126 147.266C320.268 140.507 326.88 135.024 333.274 129.721C341.682 122.75 350.376 115.54 355.711 105.395C360.418 96.4509 359.3 83.4285 352.99 73.7276C345.67 62.4937 335.13 59.0285 327.577 58.0994C327.004 58.0294 326.429 57.9712 325.853 57.9248C305.082 56.2571 298.941 72.0897 291.831 90.421C291.336 91.6998 290.838 92.9773 290.337 94.2535C286.78 103.313 280.136 107.947 272.105 106.956C261.453 105.646 252.181 94.4702 252.264 83.0409C252.394 65.0733 259.201 49.6496 271.948 38.4365C286.533 25.6087 308.473 19.2214 329.207 21.7694C329.803 21.8422 330.389 21.9213 330.98 22.0091C352.434 25.1903 373.742 38.1624 386.588 55.8631C397.987 71.57 402.335 89.8497 399.16 108.726C395.992 127.6 383.404 139.123 371.232 150.267C369.157 152.167 367.007 154.055 364.927 155.882C360.057 160.16 355.021 164.584 350.557 169.493C344.972 175.631 342.6 182.753 340.584 192.255C339.18 198.843 337.433 207.04 330.129 209.768C328.346 210.434 326.39 210.773 324.38 210.773ZM322.865 56.671C323.863 56.671 324.888 56.7135 325.943 56.7981C326.528 56.8451 327.124 56.9053 327.714 56.9772C335.505 57.9352 346.378 61.5117 353.936 73.1097C360.459 83.1395 361.6 96.6318 356.71 105.922C351.27 116.268 342.488 123.55 333.995 130.593C327.65 135.854 321.088 141.295 316.024 147.951C308.071 158.407 297.704 184.672 308.513 200.899C311.662 205.619 316.811 208.839 322.287 209.513C324.89 209.833 327.465 209.554 329.734 208.709C335.952 206.387 337.826 199.777 339.479 192.02C341.535 182.334 343.965 175.059 349.721 168.732C354.229 163.777 359.289 159.332 364.182 155.033C366.258 153.21 368.404 151.325 370.47 149.433C382.502 138.418 394.942 127.029 398.047 108.54C401.17 89.9691 396.891 71.9843 385.675 56.5289C373 39.0657 351.979 26.2672 330.815 23.1286C330.234 23.0426 329.656 22.9644 329.071 22.8925C308.646 20.3862 287.043 26.6653 272.693 39.2873C260.195 50.2815 253.521 65.4144 253.393 83.0499C253.306 95.1007 263.257 104.73 272.243 105.835C279.721 106.751 285.933 102.382 289.286 93.8405C289.791 92.5578 290.286 91.2804 290.778 90.0125C294.345 80.8177 297.714 72.1327 302.885 65.9241C308.107 59.6549 314.512 56.6714 322.865 56.6714L322.865 56.671ZM325.982 276.253C324.982 276.251 323.983 276.188 322.992 276.063C313.835 274.938 308.54 269.386 305.711 264.927C302.158 259.327 300.431 252.142 300.974 245.215C301.741 235.44 307.546 224.173 321.389 224.676C322.109 224.7 322.829 224.757 323.528 224.843C331.851 225.864 338.721 231.397 342.379 240.023C346.606 249.993 345.743 262.029 340.278 269.292C337.8 272.585 333.379 276.253 325.982 276.253V276.253ZM320.556 225.791C308.082 225.791 302.813 236.217 302.1 245.303C301.082 258.292 308.106 273.094 323.129 274.941C330.006 275.788 335.625 273.598 339.377 268.611C344.61 261.655 345.417 250.081 341.339 240.464C339.285 235.62 334.222 227.295 323.391 225.964C322.45 225.85 321.504 225.792 320.556 225.791V225.791Z" fill="white"/>
<mask id="mask9_194_205" style="mask-type:luminance" maskUnits="userSpaceOnUse" x="300" y="224" width="46" height="53">
<path d="M325.982 276.253C324.982 276.251 323.984 276.188 322.992 276.063C313.835 274.938 308.54 269.386 305.711 264.927C302.158 259.327 300.432 252.142 300.974 245.215C301.741 235.44 307.546 224.173 321.389 224.676C322.109 224.7 322.829 224.757 323.528 224.843C331.851 225.864 338.721 231.397 342.379 240.023C346.606 249.993 345.743 262.029 340.278 269.292C337.8 272.585 333.379 276.253 325.982 276.253V276.253ZM320.556 225.791C308.082 225.791 302.813 236.217 302.1 245.303C301.082 258.292 308.106 273.094 323.129 274.941C330.007 275.788 335.625 273.598 339.377 268.611C344.61 261.655 345.417 250.081 341.339 240.464C339.285 235.62 334.222 227.295 323.391 225.964C322.45 225.85 321.504 225.792 320.556 225.791V225.791Z" fill="white"/>
</mask>
<g mask="url(#mask9_194_205)">
<path d="M325.982 276.253C324.982 276.251 323.984 276.188 322.992 276.063C313.835 274.938 308.54 269.386 305.711 264.927C302.158 259.327 300.432 252.142 300.974 245.215C301.741 235.44 307.546 224.173 321.389 224.676C322.109 224.7 322.829 224.757 323.528 224.843C331.851 225.864 338.721 231.397 342.379 240.023C346.606 249.993 345.743 262.029 340.278 269.292C337.8 272.585 333.379 276.253 325.982 276.253V276.253ZM320.556 225.791C308.082 225.791 302.813 236.217 302.1 245.303C301.082 258.292 308.106 273.094 323.129 274.941C330.007 275.788 335.625 273.598 339.377 268.611C344.61 261.655 345.417 250.081 341.339 240.464C339.285 235.62 334.222 227.295 323.391 225.964C322.45 225.85 321.504 225.792 320.556 225.791V225.791Z" fill="white"/>
</g>
</g>
<path opacity="0.3" d="M343.491 427.48L338.045 449.201L350.015 443.208L352.755 429.508C352.873 427.013 350.867 424.934 348.372 424.968L346.631 424.992C345.907 425.002 345.206 425.252 344.638 425.702C344.07 426.151 343.667 426.777 343.491 427.48Z" fill="url(#paint8_linear_194_205)"/>
<mask id="mask10_194_205" style="mask-type:luminance" maskUnits="userSpaceOnUse" x="284" y="424" width="125" height="137">
<path d="M350.176 424.28C339.528 424.28 342.897 434.403 346.402 435.618C348.809 436.452 345.653 441.071 346.215 444.366C335.514 447.47 316.473 460.455 316.473 460.455L284.495 476.695C284.495 476.695 285.076 487.769 285.186 491.034C285.449 498.876 284.493 506.719 284.323 514.557C284.021 528.533 284.186 540.807 292.495 552.624C305.627 571.302 344.112 548.644 364.96 548.436C372.299 548.363 373.934 537.513 365.858 537.72C362.476 537.807 377.046 529.242 380.148 527.403C394.773 518.736 397.019 520.953 401.979 505.541C409.177 483.177 413.323 445.332 399.954 435.545C389.949 428.221 378.699 426.992 366.924 425.033C362.786 424.345 355.567 424.956 350.176 424.281V424.28Z" fill="white"/>
</mask>
<g mask="url(#mask10_194_205)">
<path d="M392.516 474.343C392.502 474.227 392.499 474.207 392.516 474.343ZM392.796 476.658C392.801 476.697 392.8 476.694 392.796 476.658Z" fill="#161314"/>
<path d="M369.323 461.34C365.669 455.23 360.404 452.881 354.068 450.496C348.28 448.319 341.624 448.485 335.77 450.241C328.787 452.337 324.116 457.545 321.478 464.219C316.376 477.126 316.729 492.117 323.093 504.505C329.252 516.497 343.545 524.242 356.274 517.004C358.807 522.9 364.891 525.839 371.149 524.714C377.412 523.588 382.437 519.858 385.87 514.574C393.038 503.541 394.261 488.747 392.714 475.977L392.797 476.658L392.714 475.976C392.598 475.024 392.539 474.533 392.516 474.342L392.714 475.975C391.401 465.149 387.439 454.598 381.106 445.712C377.218 440.257 372.431 435.786 367.022 431.89C362.04 428.301 354.84 424.975 348.68 424.154C347.903 424.05 346.238 423.721 345.587 423.645C343.729 423.428 341.869 423.259 339.997 423.275C336.106 423.31 332.373 423.951 328.628 424.954C322.556 426.714 316.944 429.629 312.233 433.89C301.66 443.453 296.634 457.834 295.888 471.81C294.363 500.388 307.578 532.709 335.46 544.025C342.694 546.961 350.365 548.431 358.162 548.459C360.88 548.469 363.617 548.681 366.323 548.328C367.897 548.122 368.463 547.586 369.532 546.417C371.741 544.004 372.377 539.144 368.361 537.87C368.158 537.806 366.534 537.378 366.323 537.401C352.534 538.904 338.605 534.023 328.738 524.271C318.46 514.113 312.548 499.631 310.56 485.503C308.616 471.688 309.805 455.882 318.276 444.283C322.254 438.837 327.927 434.761 334.769 434.169C342.653 433.486 350.816 436.482 357.191 440.996C367.146 448.044 374.025 458.906 377.131 470.638C380.512 483.407 381.013 501.425 372.46 512.46C371.32 513.931 370.848 514.316 369.868 512.603C369.116 511.291 368.82 509.749 368.74 508.254C368.68 507.129 368.782 505.998 368.904 504.881C369.346 500.831 370.024 496.802 370.641 492.776C371.311 488.402 371.524 482.399 372.788 478.726C374.582 473.472 371.97 465.765 369.324 461.34L369.323 461.34ZM356.859 492.192C356.078 497.284 355.068 502.436 354.744 507.584C352.964 506.769 350.073 507.77 348.931 508.898C341.4 509.264 336.499 500.925 334.375 494.772C331.792 487.294 331.431 479.788 333.031 472.071C333.754 468.586 334.75 465.037 336.801 462.084C339.359 458.399 344.158 459.748 347.733 461.055C351.65 462.487 354.475 463.84 356.641 467.627C357.712 469.5 358.451 471.546 358.823 473.672C359.147 475.542 359.017 477.002 358.91 479.151C358.754 482.263 357.433 488.446 356.859 492.191L356.859 492.192Z" fill="#161314"/>
<path d="M316.692 523.108C306.308 516.206 299.893 487.784 302.305 486.433C302.908 486.095 304.04 488.702 304.583 489.955C307.492 496.657 309.757 503.621 312.828 510.257C316.629 518.467 318.451 522.808 318.294 523.281C318.251 523.409 318.105 523.567 317.973 523.597C317.571 523.686 317.035 523.336 316.692 523.109" fill="#3D3A3B"/>
<path d="M316.495 522.055C313.892 520.76 309.604 515.435 305.89 506.46C302.613 498.537 301.525 488.943 302.565 488.385C303.078 488.109 303.986 489.977 303.995 489.996L315.946 518.375C316.441 519.582 317.055 521.085 316.932 521.621C316.892 521.794 316.769 522.059 316.599 522.11C316.565 522.121 316.527 522.071 316.495 522.055Z" fill="#514E4E"/>
<path d="M314.416 520.15C306.645 513.897 301.115 490.961 302.831 490.081C303.353 489.814 304.371 492.069 304.382 492.092C306.707 497.276 308.553 502.656 310.809 507.869C314.231 515.775 315.924 519.905 315.889 520.258C315.875 520.41 315.806 520.659 315.664 520.713C315.28 520.857 314.736 520.408 314.416 520.151" fill="#696667"/>
<path d="M313.166 518.144C309.707 515.546 302.342 500.337 303.299 492.605C304.149 493.132 304.258 493.2 306.312 498.148C314.465 517.794 314.45 517.855 314.199 518.869C313.889 518.652 313.469 518.371 313.166 518.144Z" fill="#7B7879"/>
<path d="M361.839 515.884C359.689 516.927 358.979 514.095 359.369 513.022C359.721 512.058 360.403 511.887 360.913 511.912C361.865 511.96 362.806 512.348 362.91 512.393C363.494 512.64 364.044 513.117 364.096 513.26C364.161 513.443 364.126 513.724 364.054 513.904L363.622 514.447C363.336 514.779 362.352 515.635 361.839 515.884Z" fill="#3D3A3B"/>
<path d="M361.907 515.723C359.995 516.906 358.992 514.402 359.408 513.207C359.521 512.882 359.821 512.019 360.931 512.052C360.94 512.052 361.897 512.119 362.675 512.463C362.69 512.47 363.411 512.858 363.418 512.863C363.57 512.978 363.773 513.16 363.839 513.339C363.905 513.522 363.848 513.801 363.793 513.988C363.756 514.11 363.625 514.234 363.545 514.333C363.104 514.876 362.645 515.266 361.907 515.723" fill="#514E4E"/>
<path d="M361.68 515.691C360.707 516.152 360.238 515.651 360.013 515.41C359.187 514.527 359.537 513.416 359.541 513.405C359.665 513.046 359.922 512.299 360.971 512.322C361.675 512.337 362.135 512.529 362.259 512.588L363.036 512.992C363.192 513.11 363.403 513.304 363.456 513.493L363.336 514.204C363.282 514.345 363.124 514.486 363.029 514.604C362.744 514.957 362.051 515.516 361.68 515.691Z" fill="#696667"/>
<path d="M361.062 515.807C359.502 515.912 359.231 513.586 359.9 512.85C360.371 512.333 361.165 512.406 361.596 512.496C362.179 512.617 362.862 513.044 362.869 513.048C363.033 513.151 363.22 513.365 363.274 513.551C363.278 513.563 363.156 514.271 363.148 514.287C363.081 514.42 362.575 514.955 362.57 514.96C362.101 515.438 361.495 515.778 361.062 515.807Z" fill="#7B7879"/>
<path d="M330.803 506.397C329.077 506.284 326.391 502.481 325.142 499.156C322.779 492.865 323.174 488.819 324.048 488.414C325.795 487.606 332.729 502.539 331.941 505.413C331.874 505.657 331.594 506.449 330.803 506.397" fill="#3D3A3B"/>
<path d="M330.514 505.805C329.895 505.872 327.601 504.788 325.25 499.112C323.697 495.363 323.213 490.903 323.846 489.709C323.916 489.577 324.036 489.396 324.172 489.333C325.828 488.568 332.204 502.795 331.278 505.19C331.063 505.745 330.678 505.787 330.514 505.805Z" fill="#514E4E"/>
<path d="M329.928 505.277C328.672 505.079 326.491 502.119 325.353 499.068C323.118 493.074 323.818 490.448 324.311 490.217C325.736 489.551 331.554 502.527 330.795 504.679C330.661 505.06 330.503 505.368 329.929 505.277" fill="#696667"/>
<path d="M329.539 504.733C326.811 504.103 322.348 492.079 324.459 491.045C325.988 490.297 331.366 502.716 330.272 504.468C330.148 504.666 329.767 504.785 329.539 504.733Z" fill="#7B7879"/>
<path d="M364.461 474.548C364.157 474.384 363.649 474.109 363.196 473.037C359.804 465.012 358.247 460.832 358.523 460.498C359.58 459.223 366.166 462.333 366.51 469.418C366.681 472.948 365.338 474.674 364.57 474.609C364.532 474.606 364.494 474.565 364.46 474.547" fill="#3D3A3B"/>
<path d="M363.858 473.62C363.082 472.886 359.261 463.351 359.225 463.256C358.578 461.583 358.856 461.284 359.022 461.105C360.16 459.88 365.76 463.521 366.083 469.545C366.23 472.278 365.218 474.022 364.485 473.976C364.269 473.963 364.015 473.768 363.858 473.62Z" fill="#514E4E"/>
<path d="M363.681 472.654C363.607 472.58 358.629 462.873 359.634 461.912C360.704 460.888 365.342 464.503 365.563 469.699C365.631 471.306 365.143 473.077 364.333 473.052C364.104 473.045 363.843 472.816 363.681 472.654Z" fill="#696667"/>
<path d="M363.568 471.789C363.494 471.734 359.196 463.581 360.183 462.698C361.076 461.899 365.099 465.257 365.11 469.833C365.112 470.79 364.813 472.204 364.164 472.198C363.947 472.197 363.742 471.919 363.568 471.789Z" fill="#7B7879"/>
<path d="M383.857 478.814C383.834 478.78 382.928 475.88 381.137 470.115C379.732 465.59 378.051 461.25 376.14 457.215C374.099 452.906 370.33 446.644 369.907 445.944C369.899 445.93 369.045 444.464 369.296 444.005C370.16 442.424 380.272 450.098 384.063 463.919C386.365 472.312 385.45 479.532 384.292 479.261C384.11 479.218 383.96 478.971 383.856 478.815" fill="#3D3A3B"/>
<path d="M383.62 477.102C383.252 476.51 383.004 475.594 382.796 474.929C380.316 466.993 379.388 464.023 377.086 458.94C376.885 458.497 375.116 454.741 373.673 452.147C370.895 447.156 370.148 445.814 370.436 445.378C371.224 444.18 381.007 451.256 384.364 467.373C385.305 471.889 385.139 477.823 384.077 477.615C383.875 477.575 383.73 477.277 383.62 477.102Z" fill="#514E4E"/>
<path d="M383.487 476.251C383.187 475.761 383.066 475.382 381.906 471.754C380.958 468.788 379.193 463.267 376.312 457.141C376.3 457.115 374.89 454.192 373.741 452.108C371.747 448.492 370.718 446.461 370.991 446.08C371.692 445.103 382.11 453.236 384.5 469.177C384.947 472.164 384.879 476.96 383.956 476.797C383.744 476.759 383.6 476.435 383.487 476.251Z" fill="#696667"/>
<path d="M383.384 474.803C383.328 474.736 383.229 474.663 383.195 474.582C381.379 470.312 380.192 465.811 378.39 461.536C376.692 457.507 374.397 453.764 372.719 449.724C372.462 449.105 371.742 448.163 372.078 447.583C372.695 446.518 380.2 453.481 383.127 464.214C384.685 469.926 384.612 475.294 383.687 475.171C383.546 475.152 383.476 474.913 383.384 474.803Z" fill="#7B7879"/>
</g>
<mask id="mask11_194_205" style="mask-type:luminance" maskUnits="userSpaceOnUse" x="0" y="275" width="186" height="149">
<path d="M176.743 338.443L139.518 386.954L135.807 403.474L145.844 423.376L0 422.645L18.0177 275.721L185.322 291.186L176.743 338.443Z" fill="white"/>
</mask>
<g mask="url(#mask11_194_205)">
<path d="M77.871 390.766C71.9997 389.455 67.9189 382.873 68.7558 376.065L78.8565 293.895C79.6935 287.087 85.1298 282.641 91.0011 283.952L161.854 299.772C167.715 301.08 171.798 307.651 170.961 314.46L160.86 396.629C160.023 403.438 154.585 407.895 148.724 406.586L77.8705 390.766H77.871Z" fill="#FFEC48"/>
<path d="M150.761 407.378C150.044 407.378 149.321 407.299 148.602 407.138L77.7482 391.318C71.6109 389.948 67.3254 383.074 68.1958 375.996L78.2965 293.827C78.7513 290.125 80.5689 286.902 83.2834 284.985C85.5964 283.35 88.381 282.787 91.1244 283.4L161.978 299.221C168.11 300.589 172.391 307.457 171.522 314.529L161.421 396.699C160.965 400.404 159.145 403.632 156.426 405.553C154.723 406.756 152.767 407.378 150.761 407.378H150.761ZM77.9939 390.215L148.847 406.035C151.267 406.573 153.728 406.076 155.775 404.629C158.234 402.892 159.883 399.951 160.3 396.561L170.401 314.392C171.201 307.881 167.312 301.57 161.732 300.324L90.8783 284.504C88.4496 283.963 85.984 284.461 83.9338 285.909C81.4794 287.643 79.8331 290.579 79.4167 293.965L69.3159 376.134C68.5146 382.65 72.4081 388.967 77.9939 390.215Z" fill="black"/>
<path d="M143.877 357.84C147.879 358.733 151.591 355.691 152.162 351.04C152.732 346.4 149.947 341.907 145.945 341.013C141.936 340.118 138.223 343.16 137.653 347.801C137.083 352.442 139.867 356.944 143.877 357.84Z" fill="#E5F700"/>
<path d="M145.268 358.56C144.759 358.559 144.251 358.503 143.754 358.391C139.476 357.436 136.488 352.654 137.093 347.732C137.41 345.157 138.678 342.913 140.573 341.573C142.195 340.428 144.146 340.034 146.069 340.461C150.342 341.415 153.327 346.192 152.723 351.11C152.405 353.691 151.135 355.94 149.237 357.281C148.045 358.124 146.674 358.56 145.268 358.56V358.56ZM144.554 341.424C143.375 341.424 142.225 341.789 141.224 342.496C139.588 343.653 138.491 345.611 138.213 347.87C137.677 352.23 140.273 356.455 144 357.287C145.602 357.646 147.231 357.315 148.587 356.357C150.224 355.199 151.323 353.236 151.602 350.971C152.137 346.615 149.545 342.396 145.823 341.564C145.406 341.471 144.981 341.424 144.555 341.423L144.554 341.424Z" fill="#231F20"/>
<path d="M119.121 352.312C123.131 353.207 126.843 350.165 127.415 345.514C127.985 340.873 125.199 336.381 121.19 335.485C117.188 334.592 113.476 337.634 112.906 342.275C112.334 346.925 115.12 351.418 119.121 352.312Z" fill="#E5F700"/>
<path d="M120.517 353.033C120.013 353.033 119.505 352.977 118.998 352.864C114.725 351.91 111.741 347.128 112.345 342.206C112.662 339.63 113.931 337.384 115.827 336.045C117.447 334.9 119.395 334.503 121.312 334.934C125.591 335.888 128.579 340.666 127.975 345.584C127.658 348.164 126.388 350.413 124.491 351.753C123.297 352.596 121.925 353.033 120.517 353.033ZM119.802 335.897C118.626 335.897 117.478 336.262 116.478 336.968C114.842 338.125 113.744 340.084 113.466 342.344C112.93 346.705 115.522 350.929 119.245 351.76C120.851 352.118 122.484 351.788 123.841 350.829C125.478 349.672 126.577 347.709 126.855 345.446C127.39 341.09 124.794 336.869 121.067 336.037C120.652 335.944 120.228 335.897 119.803 335.896L119.802 335.897Z" fill="#231F20"/>
<path d="M94.3737 346.786C98.3832 347.681 102.096 344.639 102.667 339.989C103.238 335.348 100.452 330.855 96.4424 329.96C92.4406 329.067 88.7287 332.108 88.1583 336.749C87.5865 341.399 90.3724 345.892 94.3737 346.786Z" fill="#E5F700"/>
<path d="M95.7694 347.507C95.2653 347.507 94.7572 347.451 94.2509 347.338C89.9772 346.385 86.9925 341.603 87.5977 336.68C87.9144 334.104 89.1831 331.859 91.0792 330.519C92.6989 329.375 94.6474 328.98 96.5648 329.408C100.843 330.363 103.832 335.141 103.227 340.058C102.91 342.638 101.641 344.887 99.7437 346.228C98.5499 347.071 97.1773 347.507 95.7694 347.507ZM95.0549 330.371C93.8782 330.371 92.7301 330.737 91.7305 331.443C90.0941 332.6 88.9966 334.559 88.7188 336.818C88.1827 341.18 90.7748 345.404 94.497 346.234C96.1032 346.591 97.736 346.262 99.0933 345.303C100.731 344.146 101.829 342.184 102.107 339.92C102.642 335.564 100.046 331.344 96.3195 330.512C95.9044 330.419 95.4803 330.371 95.0549 330.371V330.371Z" fill="#231F20"/>
<path d="M30.8546 292.494L87.581 283.826C83.1488 284.503 79.5268 288.441 78.8565 293.895L22.1301 302.563C22.8004 297.109 26.4224 293.172 30.8546 292.494Z" fill="#808285"/>
<path d="M21.4788 303.234L21.57 302.494C22.2556 296.915 25.953 292.671 30.7697 291.935L87.4961 283.268L87.6664 284.385L87.6623 284.386C83.3533 285.047 80.0399 288.895 79.417 293.965L79.3646 294.39L21.4788 303.234ZM30.9399 293.053C26.8424 293.679 23.6445 297.188 22.8026 301.888L78.3551 293.4C78.8944 289.858 80.6587 286.891 83.1442 285.076L30.9399 293.053ZM148.724 406.586L77.8709 390.766L21.1445 399.434L91.9979 415.254C93.1609 415.514 94.3068 415.546 95.4039 415.379L152.13 406.711C150.997 406.882 149.842 406.84 148.724 406.586Z" fill="#231F20"/>
<path d="M94.0404 416.047C93.3119 416.046 92.5858 415.965 91.8751 415.806L18.0831 399.329L77.8904 390.191L77.9938 390.215L148.847 406.035C149.918 406.273 150.994 406.313 152.045 406.153L152.215 407.27L95.4889 415.938C95.0095 416.011 94.5253 416.048 94.0404 416.048V416.047ZM24.2055 399.538L92.1208 414.702C93.1908 414.941 94.2667 414.98 95.3186 414.82L147.378 406.865L77.8515 391.341L24.2055 399.538Z" fill="#231F20"/>
<path d="M68.7558 376.065L12.0294 384.732L22.1302 302.563L78.8566 293.895L68.7558 376.065Z" fill="#6D6E71"/>
<path d="M11.3781 385.404L21.622 302.069L79.5078 293.224L69.2639 376.559L11.3781 385.404ZM22.6382 303.057L12.6811 384.061L68.2481 375.57L78.2052 294.567L22.6382 303.057Z" fill="#231F20"/>
<path d="M77.871 390.766L21.1446 399.434C15.2733 398.123 11.1924 391.541 12.0294 384.732L68.7558 376.065C67.9188 382.873 71.9997 389.455 77.871 390.766Z" fill="#414042"/>
<path d="M21.1252 400.009L21.0217 399.986C14.8844 398.616 10.599 391.741 11.4693 384.663L11.5217 384.238L69.4076 375.393L69.3163 376.134C68.5151 382.65 72.408 388.967 77.9938 390.215L80.932 390.87L21.1252 400.009ZM12.5443 385.225C11.9626 391.55 15.7552 397.586 21.1658 398.859L75.5304 390.552C70.8114 388.311 67.6908 382.659 68.1235 376.734L12.5443 385.225Z" fill="#231F20"/>
</g>
</g>
<defs>
<linearGradient id="paint0_linear_194_205" x1="159.939" y1="292.561" x2="268.952" y2="292.561" gradientUnits="userSpaceOnUse">
<stop stop-color="#231F20" stop-opacity="0"/>
<stop offset="1" stop-color="#231F20"/>
</linearGradient>
<linearGradient id="paint1_linear_194_205" x1="136.792" y1="344.158" x2="177.857" y2="313.024" gradientUnits="userSpaceOnUse">
<stop stop-color="#231F20"/>
<stop offset="1" stop-color="#231F20" stop-opacity="0"/>
</linearGradient>
<linearGradient id="paint2_linear_194_205" x1="322.833" y1="269.738" x2="349.986" y2="279.642" gradientUnits="userSpaceOnUse">
<stop stop-color="#231F20"/>
<stop offset="1" stop-color="#231F20" stop-opacity="0"/>
</linearGradient>
<linearGradient id="paint3_linear_194_205" x1="325.477" y1="192.883" x2="353.144" y2="211.985" gradientUnits="userSpaceOnUse">
<stop stop-color="#231F20"/>
<stop offset="1" stop-color="#231F20" stop-opacity="0"/>
</linearGradient>
<linearGradient id="paint4_linear_194_205" x1="301.441" y1="250.456" x2="344.485" y2="250.456" gradientUnits="userSpaceOnUse">
<stop stop-color="#FBFFA4"/>
<stop offset="1" stop-color="white"/>
</linearGradient>
<linearGradient id="paint5_linear_194_205" x1="301.441" y1="250.456" x2="344.485" y2="250.456" gradientUnits="userSpaceOnUse">
<stop stop-color="white"/>
<stop offset="1" stop-color="#FBFFA4"/>
</linearGradient>
<linearGradient id="paint6_linear_194_205" x1="272.174" y1="77.2476" x2="354.747" y2="77.2476" gradientUnits="userSpaceOnUse">
<stop stop-color="#FBFFA4"/>
<stop offset="1" stop-color="white"/>
</linearGradient>
<linearGradient id="paint7_linear_194_205" x1="252.828" y1="115.993" x2="399.605" y2="115.993" gradientUnits="userSpaceOnUse">
<stop stop-color="white"/>
<stop offset="1" stop-color="#FBFFA4"/>
</linearGradient>
<linearGradient id="paint8_linear_194_205" x1="347.72" y1="427.436" x2="343.925" y2="446.877" gradientUnits="userSpaceOnUse">
<stop/>
<stop offset="1" stop-color="#231F20" stop-opacity="0"/>
</linearGradient>
<clipPath id="clip0_194_205">
<rect width="442" height="560" fill="white"/>
</clipPath>
</defs>
</svg>
