<svg xmlns="http://www.w3.org/2000/svg" viewBox="0 0 1500 1500" width="1500" height="1500"><path fill="#FFF" d="M0 0h1500v1500H0z"/><g transform="translate(43.0 0.0) rotate(0.0 707.5 750.0) scale(1.2289824459616854 1.2274949038503242)"><svg width="1151.359" height="1222.001" viewBox="0 0 1151.359 1222.001"><linearGradient id="a" gradientUnits="userSpaceOnUse" x1="606.616" x2="676.273" y1="98.56" y2="98.56"><stop offset="0" stop-color="#fff" stop-opacity=".7"/><stop offset=".824" stop-color="#FFF9A4"/></linearGradient><linearGradient xmlns:xlink="http://www.w3.org/1999/xlink" id="d" x1="132.493" x2="715.095" xlink:href="#a" y1="212.922" y2="212.922"/><linearGradient xmlns:xlink="http://www.w3.org/1999/xlink" id="e" x1="96.083" x2="171.315" xlink:href="#a" y1="195.297" y2="195.297"/><linearGradient xmlns:xlink="http://www.w3.org/1999/xlink" id="f" x1="95.394" x2="146.94" xlink:href="#a" y1="53.732" y2="53.732"/><linearGradient xmlns:xlink="http://www.w3.org/1999/xlink" id="g" x1="134.217" x2="203.873" xlink:href="#a" y1="339.549" y2="339.549"/><linearGradient id="h" gradientUnits="userSpaceOnUse" x1="251.908" x2="329.923" y1="468.696" y2="468.696"><stop offset="0" stop-color="#231f20" stop-opacity="0"/><stop offset="1" stop-color="#231f20"/></linearGradient><clipPath id="i"><path d="M963.815 712.001 727.148 872.834l-20.833 241.667 307.5 107.5 105-275-2.5-182.5z"/></clipPath><linearGradient id="b" gradientUnits="userSpaceOnUse" x1="174.6" x2="881.567" y1="663.54" y2="666.498"><stop offset="0" stop-color="#231f20"/><stop offset="1" stop-color="#231f20" stop-opacity="0"/></linearGradient><linearGradient xmlns:xlink="http://www.w3.org/1999/xlink" id="j" x1="338.524" x2="642.516" xlink:href="#b" y1="554.659" y2="555.931"/><linearGradient xmlns:xlink="http://www.w3.org/1999/xlink" id="k" x1="422.632" x2="704.77" xlink:href="#b" y1="345.033" y2="346.214"/><linearGradient id="l" gradientUnits="userSpaceOnUse" x1="269.235" x2="414.602" y1="328.463" y2="642.983"><stop offset=".118" stop-color="#231f20" stop-opacity="0"/><stop offset="1" stop-color="#231f20"/></linearGradient><linearGradient xmlns:xlink="http://www.w3.org/1999/xlink" id="m" x1="413.889" x2="428.138" xlink:href="#b" y1="471.29" y2="522.153"/><clipPath id="n"><path d="M516.289 118.898c-8.379-1.479-16.918 1.288-19.997 7.886-3.943 8.45-1.227 19.591 12.914 21.974-22.796 18.854-36.53 337.125-57.919 333.56-21.293-3.549-30.188-5.124-39.103-8.118-14.056-4.721-25.565 18.914-11.052 28.219 2.829 1.814 6.368 2.956 11.052 4.399 18.344 5.653 61.631 25.182 103.78 31.712 4.758.737 106.901 22.211 208.692 23.51 26.428.337 52.832-19.337 77.502-19.04 71.956.868 129.157 1.5 129.157 1.5l19.65 55.482s4.292 18.294 20.544 9.314c24.22-13.383 50.117-21.296 72.577-37.311 43.469-30.994 72.267-82.445 75.229-141.985 2.832-56.939-36.23-66.47-47.822-113.005C1051.315 236 945.254 69.327 923.692 58.698 860.726 27.659 813.142-.169 739.315 0c-57.33.132-139.964 33.766-180.763 72.769-12.439 11.891-26.491 48.912-42.263 46.128z"/></clipPath><linearGradient id="c" gradientUnits="userSpaceOnUse" x1="1020.614" x2="1243.948" y1="87.181" y2="200.514"><stop offset=".144" stop-color="#231f20" stop-opacity="0"/><stop offset="1" stop-color="#231f20" stop-opacity=".6"/></linearGradient><linearGradient xmlns:xlink="http://www.w3.org/1999/xlink" id="o" x1="654.343" x2="822.677" xlink:href="#c" y1="675.514" y2="845.514"/><linearGradient xmlns:xlink="http://www.w3.org/1999/xlink" id="p" x1="166.525" x2="1011.525" xlink:href="#b" y1="510.947" y2="370.947"/><g fill="#121011"><path d="m525.173 120.452.11.023.117.019-.227-.042zm471.07 159.161c-.012.083-.029.166-.042.249-.063.434-.091.629.042-.249zM666.263 32.064c.125-.042.252-.081.378-.122.219-.074.433-.159.652-.233l-1.03.355zm-215.208 86.533c.12-.018.239-.039.359-.057-.502.076-.523.081-.359.057zm35.36-2.054.054.002c.317.005.633 0 .95.005l-1.003-.007z"/><path d="m1086.141 406.845-.134-.729a168.558 168.558 0 0 0-1.167-5.652c-.72-3.201-1.53-6.385-2.443-9.536a151.807 151.807 0 0 0-7.479-20.281c-6.255-13.843-14.59-26.708-24.51-38.204-12.243-14.187-26.851-26.344-42.855-36.072a225.323 225.323 0 0 0-5.745-3.393 230.827 230.827 0 0 0-5.765-3.133c-1.573-.83-1.395-.881-1.111-2.419.464-2.514.892-5.034 1.271-7.562.063-.439.164-1.122.175-1.193.072-.506.154-1.016.219-1.523l.265-2.097c.3-2.38.564-4.763.789-7.152.554-5.882.87-11.799.903-17.709a228.503 228.503 0 0 0-1.459-27.292c-2.825-24.66-8.881-48.509-19.689-70.932-21.995-45.635-60.855-81.695-105.359-105.132-48.47-25.525-104.871-35.285-159.025-26.617-15.764 2.523-31.232 6.717-46.378 11.726-24.667 8.377-47.771 20.137-68.86 35.457-20.91 15.19-38.619 34.004-53.526 55.043-1.202 1.01-1.935 1.742-3.782 1.3a365.53 365.53 0 0 0-4.713-1.1 283.149 283.149 0 0 0-10.476-2.166c-12.808-2.37-25.795-3.658-38.815-3.929-4.578-.065-9.15-.05-13.728.138-4.255.175-8.51.45-12.748.87-2.075.199-4.149.423-6.218.678-.54.067-1.08.135-1.62.208-.206.028-.859.123-1.1.157-9.138 1.382-18.177 3.05-27.135 5.356l1.556-.416c-43.57 10.517-84.366 34.836-113.486 69.016-21.995 25.817-37.239 57.028-43.134 90.477-5.879 33.361-2.55 68.347 9.758 99.918 16.301 41.81 46.717 77.628 84.93 101.105 14.282 8.83 29.498 16.152 45.374 21.64 8.011 2.769 16.151 5.159 24.417 7.044 2.109.481 4.224.937 6.345 1.362 1.691.339 4.226 1.267 6.099 1.145l125.107 21.598 182.896 31.575 98.557 17.015 12.74 2.199 11.046 1.907 3.863.667c44.048 7.386 90.593-.523 129.135-23.344 40.917-24.227 71.214-64.258 77.897-111.934 1.094-7.804 1.508-15.662 1.469-23.538 0-8.144-.972-16.458-2.346-24.545zM629.384 61.105a246.088 246.088 0 0 0-5.284 3.197c1.725-1.081 3.463-2.287 5.284-3.197zm-12.07 7.605-.527.358c2.094-1.424 4.195-2.902 6.382-4.178-2.145 1.358-4.242 2.84-6.382 4.178l.526-.358zm.059-.04c.571-.388.33-.225 0 0zm-.665.452c-1.996 1.746-4.523 3.138-6.681 4.722a227.152 227.152 0 0 1 6.681-4.722zm439.877 381.927c-3.786 24.886-15.811 48.321-33.319 66.395-18.134 18.714-41.364 31.722-66.246 39.142-24.858 7.413-50.837 7.281-76.19 2.905l-36.245-6.257-64.855-11.196-64.837-11.193-64.821-11.19-64.806-11.188-64.792-11.185-64.779-11.183c-22.886-3.951-45.04-10.851-65.501-21.957-20.959-11.34-39.617-26.415-54.648-44.952-16.484-20.33-28.397-44.319-34.315-69.831-2.896-12.481-4.357-25.294-4.291-38.108.076-15.027 3.032-30.202 7.64-44.474 15.001-46.464 52.052-83.416 96.213-102.926 17.485-7.724 35.911-13.032 54.878-15.458a200.3 200.3 0 0 1 25.519-1.627 201.617 201.617 0 0 1 17.677.791c1.812.161 6.531.659 7.079.698.911.111 5.193.687 6.423.871 2.512.377 5.015.812 7.511 1.286 2.799.538 5.588 1.127 8.369 1.749 1.85.414 4.684 1.304 6.724 1.519 8.137.858 15.778-.081 22.726-3.656 5.894-3.042 9.789-7.581 13.61-12.845 14.259-19.648 31.653-36.725 51.705-50.402 21.495-14.661 46.29-24.306 71.386-30.787 15.762-4.071 31.615-6.603 47.899-7.108a238.827 238.827 0 0 1 47.393 3.25c44.962 7.637 87.563 28.604 120.085 60.7 36.456 35.979 58.723 85.259 58.142 136.797a190.025 190.025 0 0 1-1.841 24.266c-.78 5.56-2.324 11.027-1.954 16.681a31.925 31.925 0 0 0 7.721 18.813c4.022 4.644 9.08 7.168 14.324 10.086 25.264 14.054 46.414 34.692 59.265 60.754 10.678 21.656 14.689 46.927 11.149 70.82-.054.357 0 0 0 0z"/><path d="M1086.14 406.841v.004c.061.332.1.544 0-.004z"/></g><path d="M444.631 128.463c-134.049 28.062-200.998 162.99-137.761 277.642-71.684-116.571.966-257.298 143.955-278.846-1.858.361-4.341.816-6.194 1.204" fill="#565958"/><path d="M394.326 144.102c-1.803 2.07-5.501 3.29-7.953 4.526-2.489 1.255-61.277 31.417-88.067 90.581-26.497 58.518-13.856 112.387-7.191 132.831-12.873-14.225-42.659-161.348 102.972-228.39-.081.13.264.3.238.451" fill="#D8F16F"/><path d="M362.838 162.093c-75.296 64.601-84.744 108.962-78.278 190.141-17.892-75.817 12.769-148.063 82.019-193.259a265.007 265.007 0 0 0-3.741 3.118" fill="#FFF25A"/><path d="M699.479 30.872c-4.58 2.551-11.441 4.329-16.358 6.15-37.82 14.009-64.522 32.661-74.574 39.682-26.195 18.298-41.131 37.322-56.943 57.463 6.513-35.916 98.4-100.143 148.969-104.125-.328.249-.734.628-1.094.829" fill="#0D0D0D"/><path d="M689.966 33.826q-60.625 28.326-70.588 35.098c-21.757 14.789-37.526 27.414-58.513 51.733-.813.942-2.008 2.101-2.942 2.923 11.149-35.338 106.14-91.57 134.473-91.055-.729.391-1.681.952-2.43 1.302" fill="#212120"/><path d="M674.582 38.813c-1.56 1.565-4.634 2.261-6.639 3.191-24.954 11.58-40.38 20.802-48.925 26.499-5.396 3.598-21.819 14.546-38.045 29.486q-7.761 7.146-8.99 7.566c15.405-22.865 62.689-56.548 102.912-67.402-.094.198-.159.504-.314.66" fill="#5A5A5A"/><path d="M664.242 43.036c-18.477 11.53-38.613 20.196-56.48 32.777-9.733 6.853-17.95 15.654-28.155 21.902 14.625-19.796 57.356-47.495 86.268-55.92-.49.372-1.112.915-1.634 1.241" fill="#E5FB7A"/><path d="m495.482 505.746 7.58.875c4.94.588 12.202 1.362 21.41 2.543l33.235 4.143 20.443 2.548c7.195.914 14.648 2.547 22.506 3.767l230.01 38.7 62.318 10.459c20.229 3.23 40.537 2.12 59.465-2.295 18.923-4.409 36.377-12.106 51.229-21.877 14.876-9.762 27.118-21.626 36.187-34.111 4.651-6.186 8.051-12.761 11.442-18.905 3.289-6.215 5.801-12.431 7.781-18.417.908-3.057 1.787-5.873 2.448-8.862.6-2.83 1.135-5.634 1.478-8.36.732-5.44.994-10.518 1.036-15.115.025-9.2-.52-16.485-.921-21.435-.447-4.954-1.248-8.494-.686-7.596.478.763.804 1.676 1.704 6.572.9 4.895 1.994 13.017 2.703 22.365.352 4.671.528 9.885.247 15.582-.118 2.847-.42 5.806-.817 8.929-.394 2.959-1.089 6.197-1.758 9.405-1.535 6.441-3.625 13.224-6.553 20.114-2.927 6.902-7.304 13.496-12.018 20.162-9.616 13.236-22.528 25.725-38.136 35.968-15.587 10.253-33.842 18.3-53.651 22.917-19.756 4.63-41.225 5.776-62.252 2.417l-62.496-10.487-230.01-38.7c-7.824-1.419-15.401-2.315-22.499-3.805l-20.151-4.282-32.762-6.961c-9.088-1.898-16.202-3.542-21.063-4.604l-7.449-1.653z" fill="#0D0D0D"/><path d="m539.168 513.096 6.836.814 19.309 2.36 29.977 3.824 18.438 2.364c6.476.922 13.215 2.314 20.303 3.431l207.56 34.923 28.267 4.756 14.064 2.366 7.003 1.178 6.927 1.017c18.205 2.305 36.691 1.109 53.812-2.812 17.164-3.908 33.073-10.5 46.913-18.754 13.817-8.314 25.543-18.292 34.768-28.846 4.576-5.309 8.592-10.705 11.981-16.108 1.579-2.768 3.207-5.415 4.564-8.107l2.125-3.923 1.905-3.89c1.266-2.55 2.227-5.135 3.28-7.584.85-2.518 1.824-4.91 2.492-7.288 1.408-4.756 2.624-9.133 3.344-13.187 1.486-8.122 1.604-13.412 1.758-17.883.155-4.48-.387-9.424.259-8.17.79 1.534.968 2.619 1.226 7.653.242 4.717.601 10.309.017 18.815a103.6 103.6 0 0 1-.706 6.724c-.26 2.28-.925 4.754-1.419 7.25-.524 2.525-1.353 5.078-2.062 7.777-.911 2.627-1.734 5.411-2.868 8.174-4.161 11.25-11.673 22.718-21.186 33.857-9.659 11.052-21.893 21.452-36.265 30.098-14.395 8.586-30.909 15.427-48.738 19.487-17.83 4.065-36.896 5.335-56.088 2.904l-7.075-1.04-7.003-1.178-14.064-2.366-28.267-4.756-207.56-34.923c-7.063-1.264-13.887-2.154-20.309-3.402l-18.195-3.8-29.578-6.196-19.019-4.089-6.725-1.468z" fill="#212120"/><path d="m566.967 517.774 24.163 3.081 27.708 3.682 17.041 2.279c5.986.889 12.227 2.134 18.783 3.178l192.018 32.308 26.15 4.4 13.011 2.189 6.422 1.067 6.48.931c16.914 1.991 34.058 1.012 50.029-2.289 16.024-3.277 30.917-9.03 44.119-16.075 13.143-7.182 24.586-15.728 33.849-24.907 9.307-9.144 16.504-18.813 21.645-28.036 1.36-2.265 2.429-4.589 3.658-6.732 1.126-2.194 2.119-4.359 3.12-6.42l2.504-6.093 1.963-5.68 2.831-9.785c.81-2.865 1.357-5.353 1.776-7.381.868-4.057.993-8.397 1.523-10.516.387-1.549.782 5.927.387 10.585-.353 4.157-.764 10.531-2.852 18.144-1.987 7.599-5 16.824-10.479 26.4-1.39 2.377-2.855 4.809-4.508 7.22-1.556 2.477-3.384 4.863-5.21 7.348-3.807 4.842-7.977 9.826-12.851 14.508-9.598 9.509-21.42 18.336-34.979 25.742-13.617 7.27-28.962 13.194-45.482 16.573-16.517 3.397-34.036 4.434-51.757 2.343l-6.48-.931-6.54-1.086-13.011-2.189-26.151-4.4-192.017-32.308c-6.537-1.159-12.842-2.025-18.789-3.143l-16.848-3.423-27.388-5.588-23.841-4.996z" fill="#555"/><path d="m603.999 524.005 22.022 2.948 25.257 3.493 15.529 2.182 17.132 2.926 175.184 29.475 23.857 4.014c7.924 1.36 15.81 2.684 23.588 3.177 15.674 1.031 31.232-.419 45.813-3.77a173.607 173.607 0 0 0 21.087-6.375c6.736-2.56 13.137-5.533 19.198-8.741a154.108 154.108 0 0 0 31.43-22.287c8.599-8.286 14.977-16.126 20.494-24.175 5.51-8.037 10.249-17.64 12.909-24.14 2.592-6.525 3.82-10.467 4.712-14.135.894-3.678 1.913-7.183 2.388-6.003.543 1.347.225 2.339-.452 6.067-.678 3.734-2.673 11.085-4.97 17.814-2.347 6.707-5.844 12.938-11.037 21.429-5.28 8.402-12.398 17.626-21.496 25.894a157.86 157.86 0 0 1-32.206 22.841c-6.202 3.284-12.753 6.325-19.643 8.943a177.098 177.098 0 0 1-21.572 6.521c-14.916 3.429-30.839 4.915-46.903 3.858-8.098-.518-16.036-1.865-23.963-3.221l-23.857-4.014-175.183-29.475-17.147-2.841-15.388-3.02-25.009-4.965-21.774-4.421z" fill="#676868"/><path d="m623.806 527.337 20.661 3.008 23.713 3.453c4.575.689 9.459 1.327 14.578 2.173l16.108 2.728 164.677 27.708 22.427 3.773c7.404 1.338 14.891 2.372 22.239 2.749a146.54 146.54 0 0 0 22.007-.355c7.231-.663 14.359-1.672 21.238-3.276a164.017 164.017 0 0 0 38.234-13.707c11.523-5.889 21.769-12.743 30.318-20.112a151.955 151.955 0 0 0 20.905-22.346c5.621-7.275 9.723-14.075 12.651-20.009 2.968-5.919 4.379-9.362 5.551-12.715 1.1-3.383 1.485-4.647 2.718-6.498.757-1.136-.391 2.88-1.362 6.305-1.046 3.402-2.664 8.453-5.422 14.523-2.72 6.084-6.858 12.065-12.268 19.649-5.437 7.544-12.344 15.609-21.151 22.996-8.698 7.494-19.107 14.459-30.809 20.438A166.52 166.52 0 0 1 952 571.739c-6.985 1.628-14.222 2.654-21.568 3.327a149.1 149.1 0 0 1-22.36.36c-7.578-.395-15.041-1.432-22.516-2.78l-22.427-3.773-164.677-27.708-16.114-2.694c-5.114-.875-9.938-1.871-14.486-2.717l-23.538-4.497-20.508-3.919z" fill="#E8FF7E"/><path d="M606.616 83.914c14.632 1.28 29.212 19.891 32.558 41.556l38.133 246.947c3.346 21.665-5.808 38.2-20.44 36.92l-490.093-42.878c-14.632-1.28-29.212-19.891-32.558-41.556L96.083 77.956c-3.346-21.665 5.808-38.2 20.44-36.92l490.093 42.878z" fill="#798796" opacity=".3" fill-opacity=".85"/><path d="M606.616 83.914c14.632 1.28 29.212 19.891 32.558 41.556l38.133 246.947c3.346 21.665-5.808 38.2-20.44 36.92l-490.093-42.878c-14.632-1.28-29.212-19.891-32.558-41.556L96.083 77.956c-3.346-21.665 5.808-38.2 20.44-36.92l490.093 42.878z" fill="#798796" opacity=".3" fill-opacity=".85"/><g fill="#FFFFA7" opacity=".3"><path d="m530.473 194.599-268.222-23.466 4.304 27.871 268.222 23.467zm-61.735 46.151-198.417-17.359 4.304 27.872 198.417 17.359z"/></g><path d="M643.715 71.65c14.632 1.28 29.212 19.891 32.558 41.556l-37.099 12.264c-3.346-21.665-17.926-40.276-32.558-41.556z" fill="url(#a)"/><path d="M663.55 408.6c10.599-3.504 16.558-18.045 13.758-36.183l37.099-12.264c2.801 18.137-3.158 32.679-13.758 36.183L663.55 408.6zm12.723-295.394 38.133 246.947-37.099 12.264-38.133-246.947z" fill="#FFFFA7"/><path d="M153.622 28.772 643.715 71.65l-37.099 12.264-490.093-42.878z" fill="#FFFFA7" opacity=".3"/><path d="M643.715 71.65c14.632 1.28 29.212 19.891 32.558 41.556l38.133 246.947c3.346 21.665-5.808 38.2-20.44 36.92l-490.093-42.878c-14.632-1.28-29.212-19.891-32.558-41.556L133.182 65.692c-3.346-21.665 5.808-38.2 20.44-36.92z" fill="url(#d)" opacity=".75"/><path d="m171.315 312.639-37.098 12.264L96.083 77.956l37.099-12.264z" fill="url(#e)"/><path d="M146.94 29.509c2.062-.682 4.299-.946 6.682-.737l-37.099 12.264c-2.383-.208-4.62.056-6.682.737l37.099-12.264z" fill="#FFF9A4" opacity=".3"/><g opacity=".3"><path d="M146.94 29.509c2.062-.682 4.299-.946 6.682-.737l-37.099 12.264c-2.383-.208-4.62.056-6.682.737l37.099-12.264z" fill="#FFF9A4"/><path d="m109.939 42.07-.195-.594 37.099-12.265c2.141-.707 4.433-.958 6.807-.751l1.51.133-38.599 12.76-.064-.006c-2.291-.202-4.5.042-6.557.723zm5.014-1.416c.506 0 1.018.021 1.533.065l35.402-11.703a15.89 15.89 0 0 0-4.851.789l-32.869 10.866c.26-.012.521-.018.784-.018z"/></g><path d="m109.841 41.773 37.099-12.264c-10.599 3.504-16.558 18.045-13.758 36.183L96.083 77.956c-2.801-18.137 3.158-32.679 13.758-36.183z" fill="url(#f)"/><path d="M153.622 28.772 643.715 71.65l-37.099 12.264-490.093-42.878z" fill="#FFF9A4" opacity=".3"/><g fill="#f1f2f2" opacity=".45"><path d="m551.723 184.599-268.222-23.466 4.304 27.871 268.222 23.467zm-61.735 46.151-198.417-17.359 4.304 27.872 198.417 17.359z"/></g><path d="m203.873 354.195-37.099 12.264c-14.632-1.28-29.212-19.891-32.558-41.556l37.099-12.264c3.346 21.665 17.926 40.276 32.558 41.556z" fill="url(#g)"/><path d="M695.551 398.392c-.559 0-1.123-.025-1.694-.075L203.763 355.44c-15.149-1.325-30.26-20.44-33.684-42.611L131.946 65.882c-2.083-13.49.555-25.69 7.056-32.636 3.968-4.237 9.054-6.211 14.729-5.719l490.094 42.877c15.149 1.325 30.26 20.44 33.684 42.611l38.133 246.947c2.083 13.49-.555 25.69-7.056 32.636-3.567 3.811-8.046 5.794-13.034 5.794zM152.059 29.953c-4.293 0-8.152 1.712-11.231 5.001-5.98 6.39-8.377 17.809-6.41 30.547l38.133 246.947c3.259 21.102 17.358 39.271 31.432 40.502l490.094 42.877c4.872.429 9.262-1.28 12.685-4.937 5.98-6.39 8.377-17.809 6.41-30.547l-38.133-246.947c-3.259-21.102-17.358-39.271-31.432-40.502L153.512 30.017a16.59 16.59 0 0 0-1.453-.064z" fill="#fff"/><path d="m189.148 637.077 19.59-13.833c-13.933 9.838-19.882 29.006-13.421 48.23l-19.59 13.833c-6.461-19.224-.512-38.392 13.421-48.23z" fill="#FFFE99"/><path d="m175.077 687.297-.534-1.591c-6.474-19.262-.895-39.215 13.885-49.65l19.577-13.823.013-.009 1.441 2.043-.01.007c-13.861 9.795-19.064 28.602-12.947 46.803l.297.883-21.722 15.338zm14.792-49.198c-13.461 9.505-18.762 27.506-13.468 45.203l17.441-12.316c-4.436-14.008-2.531-28.296 4.617-38.953l-8.591 6.066zm809.208 238.506-637.622 158.977-19.59 13.833 637.621-158.977c4.566-1.138 8.68-3.052 12.265-5.585l19.59-13.832c-3.586 2.532-7.7 4.446-12.265 5.584z" fill="#231f20"/><path d="m335.695 1052.242 25.231-17.815.227-.057 637.622-158.978c4.304-1.072 8.279-2.88 11.817-5.372l.029-.021 1.441 2.043-19.59 13.832c-3.797 2.681-8.064 4.624-12.684 5.776l-644.095 160.591zm26.29-15.503-13.948 9.849 631.147-157.362c4.318-1.077 8.305-2.892 11.848-5.394l8.611-6.08c-.088.022-.175.045-.263.066l-637.396 158.921z" fill="#231f20"/><path d="m306.371 1001.908-19.59 13.833-111.054-330.434 19.59-13.832z" fill="#FFFE99"/><path d="m286.13 1017.729-.534-1.591-111.351-331.315 21.722-15.338.534 1.591 111.351 331.316zM177.208 685.791l110.223 327.959 17.458-12.327-110.223-327.96z" fill="#231f20"/><path d="m361.455 1035.583-19.59 13.833c-22.312 5.563-46.962-9.506-55.084-33.675l19.59-13.833c8.123 24.168 32.773 39.238 55.084 33.675z" fill="#FFFE99"/><path d="M332.445 1051.811c-19.944 0-39.705-14.417-46.849-35.673l-.297-.883 21.722-15.337.534 1.591c7.905 23.517 31.949 38.259 53.598 32.86l6.474-1.614-25.232 17.815-.227.057a40.102 40.102 0 0 1-9.723 1.184zm-44.176-35.592c8.173 22.924 31.753 37.204 53.067 32.038l14.857-10.489c-20.786 2.125-42.339-12.044-50.451-33.887l-17.474 12.338z" fill="#231f20"/><path d="M858.62 458.686c22.312-5.563 46.981 9.502 55.103 33.67l111.054 330.433c8.123 24.168-3.389 48.254-25.7 53.817l-637.622 158.977c-22.312 5.563-46.962-9.506-55.084-33.675L195.317 671.475c-8.123-24.168 3.37-48.249 25.681-53.812z" fill="#FFED39" fill-opacity=".14"/><path d="M352.037 1037.979c-19.946.002-39.706-14.416-46.851-35.673L194.132 671.872c-4.269-12.698-3.354-26.119 2.509-36.821 5.156-9.414 13.698-16.02 24.054-18.602l637.622-158.977c22.896-5.708 48.282 9.76 56.591 34.484l111.055 330.433c4.266 12.692 3.35 26.11-2.514 36.814-5.16 9.42-13.708 16.03-24.068 18.613l-637.622 158.978a40.143 40.143 0 0 1-9.722 1.184zm516.045-579.195c-3.068 0-6.136.361-9.16 1.115L221.3 618.876c-9.671 2.411-17.649 8.582-22.467 17.377-5.528 10.092-6.378 22.785-2.332 34.823l111.054 330.434c7.905 23.517 31.949 38.259 53.598 32.86l637.622-158.978c9.676-2.412 17.66-8.588 22.481-17.389 5.528-10.094 6.38-22.784 2.337-34.816L912.538 492.754c-6.8-20.233-25.557-33.971-44.456-33.971z" fill="#231f20"/><path d="M709.428 679.137 354.621 767.6l9.065 26.971 354.806-88.463zm-75.343 73.592-262.468 65.44 9.064 26.971 262.468-65.44z" fill="#5E6264"/><path d="m251.908 449.109 19.148 27.94.802 11.235 58.065-14.277z" fill="url(#h)"/><path d="m693.966 397.073-490.093-42.878-37.098 12.264 490.093 42.878c2.383.208 4.62-.056 6.682-.737l37.098-12.264c-2.062.681-4.299.945-6.682.737z" fill="#FFF9A4" opacity=".5"/><g clip-path="url(#i)"><path d="m728.996 1080.368 4.48-156.385c-.35 12.219 8.429 23.853 22.71 28.31l-4.48 156.385c-14.281-4.457-23.06-16.091-22.71-28.31z" fill="#111314"/><path d="M751.706 1109.929c-.125 0-.25-.019-.372-.057-14.484-4.521-23.963-16.393-23.586-29.54l4.479-156.38v-.005c.019-.69.604-1.277 1.285-1.213a1.25 1.25 0 0 1 1.213 1.285c-.345 12.014 8.43 22.897 21.832 27.081.535.167.894.669.877 1.229l-4.48 156.385a1.248 1.248 0 0 1-1.249 1.213zm-17.301-174.688-4.159 145.163c-.331 11.538 7.747 22.033 20.259 26.552l4.405-153.763c-9.704-3.282-17.047-9.902-20.505-17.952zm-5.408 145.127h.01z" fill="#FFF9A4"/><path d="m1092.139 819.828-76.967 182.339-4.481 156.385 76.968-182.338c1.263-2.993 1.91-6.052 1.997-9.077l4.481-156.385c-.087 3.024-.734 6.083-1.998 9.076z" fill="#ECEC94"/><path d="M1010.692 1159.802a1.249 1.249 0 0 1-1.25-1.286l4.48-156.385c.004-.154.037-.308.098-.45l76.968-182.339c1.173-2.779 1.812-5.673 1.898-8.601v-.025c.02-.69.582-1.27 1.286-1.213a1.25 1.25 0 0 1 1.213 1.284l-4.48 156.386c-.093 3.25-.798 6.456-2.095 9.527l-76.968 182.338a1.25 1.25 0 0 1-1.15.764zm5.723-157.364-4.283 149.487 74.376-176.197a23.88 23.88 0 0 0 1.899-8.627l4.155-145.061-76.147 180.397z" fill="#FFF9A4"/><path d="m971.343 1019.448-4.48 156.385-215.157-67.154 4.48-156.386z" fill="#111314"/><path d="M966.863 1177.083c-.125 0-.25-.019-.372-.057l-215.157-67.154a1.248 1.248 0 0 1-.877-1.229l4.48-156.385a1.248 1.248 0 0 1 1.621-1.157l215.157 67.154c.535.167.894.669.877 1.229l-4.48 156.385a1.248 1.248 0 0 1-1.249 1.213zm-213.881-69.315 212.679 66.381 4.406-153.789-212.679-66.381z" fill="#FFF9A4"/><path d="m1015.172 1002.167-4.48 156.385c-6.378 15.109-26 22.846-43.828 17.281l4.48-156.385c17.829 5.565 37.451-2.172 43.828-17.281z" fill="#5E6264"/><path d="M978.672 1178.877c-4.045 0-8.16-.596-12.182-1.851a1.248 1.248 0 0 1-.877-1.229l4.48-156.385a1.248 1.248 0 0 1 1.621-1.157c17.204 5.368 36.181-2.065 42.306-16.574a1.249 1.249 0 0 1 2.4.523l-4.48 156.385a1.225 1.225 0 0 1-.098.45c-5.165 12.236-18.716 19.839-33.171 19.839zm-10.532-3.967c16.875 4.811 35.199-2.517 41.309-16.632l4.324-150.901c-8.094 12.096-25.224 18.014-41.227 13.722l-4.406 153.812z" fill="#FFF9A4"/><path d="M1015.172 1002.167c-6.378 15.109-26 22.846-43.828 17.281l-215.157-67.154c-17.829-5.565-27.082-22.314-20.704-37.423l76.967-182.338c6.367-15.085 25.96-22.83 43.789-17.266l215.157 67.154c17.829 5.565 27.111 22.323 20.744 37.407l-76.967 182.338z" fill="#231f20"/><path d="M983.153 1022.492c-4.045 0-8.16-.596-12.182-1.851l-215.157-67.154c-9.613-3.001-17.293-9.391-21.07-17.531-3.214-6.928-3.36-14.588-.412-21.571l76.967-182.339c6.604-15.646 26.933-23.707 45.312-17.973l215.156 67.154c9.627 3.005 17.318 9.405 21.103 17.561 3.21 6.919 3.36 14.564.421 21.526l-76.967 182.339c-5.165 12.236-18.717 19.839-33.171 19.839zm-138.76-307.776c-13.452 0-26.022 7.005-30.792 18.303l-76.967 182.339c-2.67 6.325-2.536 13.267.377 19.546 3.481 7.503 10.605 13.406 19.547 16.197l215.157 67.154c17.204 5.373 36.181-2.065 42.306-16.574l1.151.486-1.151-.486 76.967-182.339c2.661-6.304 2.523-13.229-.387-19.502-3.487-7.517-10.624-13.431-19.578-16.226L855.867 716.46a38.525 38.525 0 0 0-11.474-1.744z" fill="#FFF9A4"/><circle cx="935.589" cy="825.594" fill="#FFF9A4" r="42.603"/><path d="M935.542 869.449a43.647 43.647 0 0 1-15.333-2.787c-22.645-8.48-34.169-33.803-25.688-56.448 4.108-10.97 12.242-19.683 22.903-24.534 10.663-4.853 22.575-5.262 33.544-1.154 22.646 8.48 34.17 33.803 25.689 56.448-6.59 17.595-23.348 28.476-41.115 28.476zm.026-85.231c-5.83 0-11.644 1.25-17.109 3.737-10.054 4.575-17.724 12.792-21.597 23.136-7.997 21.354 2.869 45.233 24.224 53.229 21.349 7.996 45.23-2.871 53.229-24.224 7.997-21.354-2.87-45.232-24.225-53.229a41.336 41.336 0 0 0-14.522-2.649zm39.918 56.317h.01z" fill="#231f20"/><path d="m910.683 871.865 13.3 4.98c41.593 15.576 62.716 61.99 47.14 103.584L807.1 919.005c15.576-41.593 61.99-62.716 103.583-47.14z" fill="#FFF9A4"/><path d="M971.117 981.681c-.146 0-.294-.025-.438-.079l-164.022-61.425a1.25 1.25 0 0 1-.732-1.609c7.655-20.442 22.813-36.681 42.682-45.722 19.87-9.041 42.069-9.807 62.512-2.15l13.299 4.98c42.2 15.804 63.676 62.993 47.872 105.193a1.251 1.251 0 0 1-1.171.812zm-162.404-63.403 161.663 60.541c6.96-19.491 6.079-40.544-2.514-59.425-8.765-19.261-24.506-33.955-44.323-41.376l-13.299-4.98c-19.817-7.421-41.338-6.683-60.599 2.084-18.881 8.592-33.374 23.888-40.929 43.156z" fill="#231f20"/></g><path d="m596.973 854.051 219.23-74.733 138.556-159.152-46.81-142.301z" fill="url(#b)"/><path d="m520.529 543.948 134.649 36.898 18.724-24.341-108.056-25.756z" fill="url(#j)"/><path d="m568.035 314.25 67.173-16.251c20.71-5.01 41.934 6.062 49.673 25.915l23.757 49.645c5.159 10.781-3.561 23.027-15.437 21.677l-76.567-8.701-48.6-72.285z" fill="url(#k)"/><path d="m10.445 451.706 19.59-13.833c-7.987 5.64-11.404 16.636-7.703 27.65l-19.59 13.833c-3.702-11.014-.285-22.01 7.703-27.65z" fill="#FFF9A4"/><path d="M2.742 480.606a1.25 1.25 0 0 1-1.185-.852c-3.786-11.266-.504-22.948 8.167-29.07l19.574-13.821.016-.011a1.251 1.251 0 0 1 1.441 2.043c-7.761 5.479-10.67 16.021-7.238 26.229a1.25 1.25 0 0 1-.464 1.42L3.462 480.377c-.213.15-.466.229-.721.229zm19.662-35.814-11.238 7.936c-7.351 5.189-10.349 14.92-7.73 24.609l17.428-12.306c-2.163-7.148-1.507-14.402 1.541-20.239zm-11.959 6.914h.01z" fill="#231f20"/><path d="M666.645 449.274 90.257 592.983l-19.59 13.832 576.387-143.709a20.858 20.858 0 0 0 7.018-3.196l19.59-13.832a20.858 20.858 0 0 1-7.018 3.196z" fill="#FFF9A4"/><path d="M70.666 608.065a1.25 1.25 0 0 1-.721-2.271l19.591-13.832c.126-.089.269-.154.418-.191l576.388-143.709a19.634 19.634 0 0 0 6.568-2.982l.031-.022a1.25 1.25 0 0 1 1.441 2.043l-19.591 13.832a22.112 22.112 0 0 1-7.436 3.388L70.969 608.028a1.268 1.268 0 0 1-.303.037zm20.12-13.926-13.949 9.849 569.914-142.095a19.6 19.6 0 0 0 6.6-3.005l10.973-7.747L90.787 594.139zm575.858-144.865h.01z" fill="#231f20"/><path d="m58.682 573.68-19.59 13.833-36.35-108.157 19.59-13.833z" fill="#FFF9A4"/><path d="M39.092 588.762a1.252 1.252 0 0 1-1.185-.852L1.557 479.755a1.25 1.25 0 0 1 .464-1.42l19.591-13.833a1.252 1.252 0 0 1 1.905.623l36.35 108.157a1.25 1.25 0 0 1-.464 1.42l-19.59 13.832c-.213.15-.466.229-.721.229zM4.223 479.841l35.52 105.683 17.458-12.327-35.519-105.684z" fill="#231f20"/><path d="m90.257 592.983-19.59 13.833c-12.78 3.186-26.923-5.46-31.575-19.303l19.59-13.833c4.653 13.843 18.795 22.489 31.575 19.303z" fill="#FFF9A4"/><path d="M65.275 608.721c-11.658 0-23.2-8.409-27.367-20.811a1.25 1.25 0 0 1 .464-1.42l19.59-13.832a1.248 1.248 0 0 1 1.905.623c4.444 13.223 17.949 21.52 30.088 18.488a1.25 1.25 0 0 1 1.023 2.234l-19.59 13.832a1.249 1.249 0 0 1-.418.191c-1.881.469-3.79.693-5.695.693zm-24.688-20.733c4.704 12.632 17.731 20.479 29.555 17.669L85.4 594.884c-.179.004-.356.006-.534.006-11.161 0-22.215-7.707-26.795-19.247l-17.483 12.346z" fill="#231f20"/><path d="M613.44 290.968c12.78-3.186 26.922 5.459 31.575 19.303l36.35 108.157c4.653 13.843-1.941 27.659-14.721 30.846L90.257 592.983c-12.78 3.186-26.923-5.46-31.575-19.303l-36.35-108.157c-4.653-13.844 1.941-27.659 14.721-30.846z" fill="#FFF9A4"/><path d="M84.865 594.889c-11.657 0-23.199-8.409-27.367-20.811l-36.35-108.157c-2.492-7.415-1.953-15.263 1.48-21.531 3.029-5.53 8.045-9.41 14.122-10.926l576.387-143.709.303 1.213-.303-1.213c13.371-3.335 28.213 5.688 33.062 20.117l36.35 108.156c2.492 7.416 1.952 15.265-1.482 21.533-3.028 5.529-8.044 9.409-14.12 10.924L90.56 594.196a23.5 23.5 0 0 1-5.695.693zm534.001-303.332c-1.716 0-3.433.202-5.123.624L37.356 435.89c-5.394 1.345-9.845 4.79-12.535 9.701-3.099 5.658-3.574 12.778-1.304 19.533l36.35 108.157c4.444 13.223 17.949 21.52 30.088 18.488l576.387-143.71c5.393-1.344 9.844-4.788 12.533-9.699 3.101-5.658 3.576-12.779 1.306-19.535l-36.35-108.156c-3.826-11.382-14.359-19.112-24.965-19.112z" fill="#231f20"/><path d="M613.44 290.968c12.78-3.186 26.922 5.459 31.575 19.303l36.35 108.157c4.653 13.843-1.941 27.659-14.721 30.846L90.257 592.983c-12.78 3.186-26.923-5.46-31.575-19.303l-36.35-108.157c-4.653-13.844 1.941-27.659 14.721-30.846z" fill="#FFF9A4"/><path d="M84.865 594.889c-11.657 0-23.199-8.409-27.367-20.811l-36.35-108.157c-2.492-7.415-1.953-15.263 1.48-21.531 3.029-5.53 8.045-9.41 14.122-10.926l576.387-143.709.303 1.213-.303-1.213c13.371-3.335 28.213 5.688 33.062 20.117l36.35 108.156c2.492 7.416 1.952 15.265-1.482 21.533-3.028 5.529-8.044 9.409-14.12 10.924L90.56 594.196a23.5 23.5 0 0 1-5.695.693zm534.001-303.332c-1.716 0-3.433.202-5.123.624L37.356 435.89c-5.394 1.345-9.845 4.79-12.535 9.701-3.099 5.658-3.574 12.778-1.304 19.533l36.35 108.157c4.444 13.223 17.949 21.52 30.088 18.488l576.387-143.71c5.393-1.344 9.844-4.788 12.533-9.699 3.101-5.658 3.576-12.779 1.306-19.535l-36.35-108.156c-3.826-11.382-14.359-19.112-24.965-19.112z" fill="#231f20"/><path d="M130.313 455.306c-6.678 1.665-10.132 8.84-7.716 16.029 2.411 7.175 9.781 11.65 16.459 9.985 6.665-1.662 10.119-8.836 7.707-16.011-2.416-7.189-9.785-11.665-16.45-10.004" fill="#F3FF48"/><path d="M136.228 482.915c-6.33 0-12.575-4.514-14.815-11.182-1.343-3.993-1.046-8.23.814-11.627 1.665-3.041 4.43-5.177 7.783-6.013 7.281-1.812 15.322 3.039 17.938 10.817 1.34 3.987 1.042 8.222-.818 11.617-1.664 3.038-4.424 5.171-7.771 6.005a12.968 12.968 0 0 1-3.131.382zm-3.062-26.706c-.854 0-1.708.101-2.55.311a9.655 9.655 0 0 0-6.196 4.787c-1.525 2.787-1.758 6.297-.638 9.63 2.207 6.565 8.923 10.682 14.972 9.171 2.662-.663 4.858-2.361 6.184-4.78 1.525-2.786 1.76-6.292.642-9.619-1.901-5.657-7.139-9.499-12.413-9.499zm-2.853-.902h.01z" fill="#231f20"/><path d="M171.533 445.029c-6.678 1.665-10.132 8.84-7.716 16.029 2.411 7.175 9.781 11.65 16.459 9.985 6.665-1.662 10.119-8.836 7.707-16.011-2.416-7.189-9.785-11.665-16.45-10.004" fill="#F3FF48"/><path d="M177.447 472.637c-6.329 0-12.574-4.514-14.814-11.182-1.343-3.993-1.045-8.231.815-11.628 1.666-3.041 4.43-5.176 7.783-6.012 7.282-1.815 15.322 3.038 17.938 10.817 1.34 3.986 1.042 8.221-.817 11.615-1.665 3.039-4.425 5.172-7.772 6.007a12.92 12.92 0 0 1-3.132.382zm-3.061-26.706c-.854 0-1.708.101-2.55.311-2.669.665-4.869 2.365-6.196 4.787-1.526 2.786-1.759 6.297-.639 9.63 2.206 6.564 8.922 10.683 14.972 9.171 2.663-.664 4.859-2.362 6.185-4.782 1.525-2.785 1.76-6.29.642-9.617-1.901-5.657-7.139-9.499-12.413-9.499zm-2.853-.902h.01z" fill="#231f20"/><path d="M212.753 434.752c-6.678 1.665-10.118 8.836-7.702 16.026 2.411 7.175 9.768 11.654 16.445 9.989 6.678-1.665 10.119-8.836 7.708-16.011-2.416-7.189-9.773-11.669-16.451-10.003" fill="#F3FF48"/><path d="M218.673 462.359c-6.325 0-12.566-4.515-14.808-11.184-1.344-3.998-1.048-8.239.812-11.635 1.662-3.035 4.423-5.167 7.771-6.002 7.278-1.813 15.324 3.039 17.938 10.817 1.341 3.99 1.044 8.225-.814 11.618-1.664 3.036-4.425 5.169-7.775 6.004-1.032.257-2.08.381-3.125.381zm-5.618-26.395a9.638 9.638 0 0 0-6.185 4.777c-1.525 2.785-1.758 6.298-.636 9.637 2.207 6.566 8.917 10.677 14.958 9.174a9.65 9.65 0 0 0 6.188-4.779c1.525-2.783 1.758-6.29.639-9.62-2.209-6.574-8.924-10.695-14.964-9.188z" fill="#231f20"/><path d="M666.645 449.274 90.257 592.983c-12.78 3.187-26.922-5.46-31.575-19.302l-36.35-108.157c-3.701-11.014-.284-22.01 7.703-27.65l-19.59 13.832c-7.987 5.64-11.404 16.636-7.703 27.65l36.35 108.157c4.652 13.843 18.795 22.489 31.575 19.302h.001l576.386-143.709a20.858 20.858 0 0 0 7.018-3.196l19.59-13.832a20.858 20.858 0 0 1-7.018 3.196z" fill="url(#l)"/><path d="M394.695 491.153c-.312 14.485 6.226 25.761 10.298 31.996l47.5-10z" fill="url(#m)"/><g clip-path="url(#n)"><g fill="#121011"><path d="m525.173 120.452.11.023.117.019-.227-.042zm471.07 159.161c-.012.083-.029.166-.042.249-.063.434-.091.629.042-.249zM666.263 32.064c.125-.042.252-.081.378-.122.219-.074.433-.159.652-.233l-1.03.355zm-215.208 86.533c.12-.018.239-.039.359-.057-.502.076-.523.081-.359.057zm35.36-2.054.054.002c.317.005.633 0 .95.005l-1.003-.007z"/><path d="m1086.141 406.845-.134-.729a168.558 168.558 0 0 0-1.167-5.652c-.72-3.201-1.53-6.385-2.443-9.536a151.807 151.807 0 0 0-7.479-20.281c-6.255-13.843-14.59-26.708-24.51-38.204-12.243-14.187-26.851-26.344-42.855-36.072a225.323 225.323 0 0 0-5.745-3.393 230.827 230.827 0 0 0-5.765-3.133c-1.573-.83-1.395-.881-1.111-2.419.464-2.514.892-5.034 1.271-7.562.063-.439.164-1.122.175-1.193.072-.506.154-1.016.219-1.523l.265-2.097c.3-2.38.564-4.763.789-7.152.554-5.882.87-11.799.903-17.709a228.503 228.503 0 0 0-1.459-27.292c-2.825-24.66-8.881-48.509-19.689-70.932-21.995-45.635-60.855-81.695-105.359-105.132-48.47-25.525-104.871-35.285-159.025-26.617-15.764 2.523-31.232 6.717-46.378 11.726-24.667 8.377-47.771 20.137-68.86 35.457-20.91 15.19-38.619 34.004-53.526 55.043-1.202 1.01-1.935 1.742-3.782 1.3a365.53 365.53 0 0 0-4.713-1.1 283.149 283.149 0 0 0-10.476-2.166c-12.808-2.37-25.795-3.658-38.815-3.929-4.578-.065-9.15-.05-13.728.138-4.255.175-8.51.45-12.748.87-2.075.199-4.149.423-6.218.678-.54.067-1.08.135-1.62.208-.206.028-.859.123-1.1.157-9.138 1.382-18.177 3.05-27.135 5.356l1.556-.416c-43.57 10.517-84.366 34.836-113.486 69.016-21.995 25.817-37.239 57.028-43.134 90.477-5.879 33.361-2.55 68.347 9.758 99.918 16.301 41.81 46.717 77.628 84.93 101.105 14.282 8.83 29.498 16.152 45.374 21.64 8.011 2.769 16.151 5.159 24.417 7.044 2.109.481 4.224.937 6.345 1.362 1.691.339 4.226 1.267 6.099 1.145l125.107 21.598 182.896 31.575 98.557 17.015 12.74 2.199 11.046 1.907 3.863.667c44.048 7.386 90.593-.523 129.135-23.344 40.917-24.227 71.214-64.258 77.897-111.934 1.094-7.804 1.508-15.662 1.469-23.538 0-8.144-.972-16.458-2.346-24.545zM629.384 61.105a246.088 246.088 0 0 0-5.284 3.197c1.725-1.081 3.463-2.287 5.284-3.197zm-12.07 7.605-.527.358c2.094-1.424 4.195-2.902 6.382-4.178-2.145 1.358-4.242 2.84-6.382 4.178l.526-.358zm.059-.04c.571-.388.33-.225 0 0zm-.665.452c-1.996 1.746-4.523 3.138-6.681 4.722a227.152 227.152 0 0 1 6.681-4.722zm439.877 381.927c-3.786 24.886-15.811 48.321-33.319 66.395-18.134 18.714-41.364 31.722-66.246 39.142-24.858 7.413-50.837 7.281-76.19 2.905l-36.245-6.257-64.855-11.196-64.837-11.193-64.821-11.19-64.806-11.188-64.792-11.185-64.779-11.183c-22.886-3.951-45.04-10.851-65.501-21.957-20.959-11.34-39.617-26.415-54.648-44.952-16.484-20.33-28.397-44.319-34.315-69.831-2.896-12.481-4.357-25.294-4.291-38.108.076-15.027 3.032-30.202 7.64-44.474 15.001-46.464 52.052-83.416 96.213-102.926 17.485-7.724 35.911-13.032 54.878-15.458a200.3 200.3 0 0 1 25.519-1.627 201.617 201.617 0 0 1 17.677.791c1.812.161 6.531.659 7.079.698.911.111 5.193.687 6.423.871 2.512.377 5.015.812 7.511 1.286 2.799.538 5.588 1.127 8.369 1.749 1.85.414 4.691 1.247 6.724 1.519 7.59 1.014 15.778-.081 22.726-3.656 5.894-3.042 9.789-7.581 13.61-12.845 14.259-19.648 31.653-36.725 51.705-50.402 21.495-14.661 46.29-24.306 71.386-30.787 15.762-4.071 31.615-6.603 47.899-7.108a238.827 238.827 0 0 1 47.393 3.25c44.962 7.637 87.563 28.604 120.085 60.7 36.456 35.979 58.723 85.259 58.142 136.797a190.025 190.025 0 0 1-1.841 24.266c-.78 5.56-2.324 11.027-1.954 16.681a31.925 31.925 0 0 0 7.721 18.813c4.022 4.644 9.08 7.168 14.324 10.086 25.264 14.054 46.414 34.692 59.265 60.754 10.678 21.656 14.689 46.927 11.149 70.82-.054.357 0 0 0 0z"/><path d="M1086.14 406.841v.004c.061.332.1.544 0-.004z"/></g><path d="M444.631 128.463c-134.049 28.062-200.998 162.99-137.761 277.642-71.684-116.571.966-257.298 143.955-278.846-1.858.361-4.341.816-6.194 1.204" fill="#565958"/><path d="M394.326 144.102c-1.803 2.07-5.501 3.29-7.953 4.526-2.489 1.255-61.277 31.417-88.067 90.581-26.497 58.518-13.856 112.387-7.191 132.831-12.873-14.225-42.659-161.348 102.972-228.39-.081.13.264.3.238.451" fill="#D8F16F"/><path d="M362.838 162.093c-75.296 64.601-84.744 108.962-78.278 190.141-17.892-75.817 12.769-148.063 82.019-193.259a265.007 265.007 0 0 0-3.741 3.118" fill="#FFF25A"/><path d="M699.479 30.872c-4.58 2.551-11.441 4.329-16.358 6.15-37.82 14.009-64.522 32.661-74.574 39.682-26.195 18.298-41.131 37.322-56.943 57.463 6.513-35.916 98.4-100.143 148.969-104.125-.328.249-.734.628-1.094.829" fill="#0D0D0D"/><path d="M689.966 33.826q-60.625 28.326-70.588 35.098c-21.757 14.789-37.526 27.414-58.513 51.733-.813.942-2.008 2.101-2.942 2.923 11.149-35.338 106.14-91.57 134.473-91.055-.729.391-1.681.952-2.43 1.302" fill="#212120"/><path d="M674.582 38.813c-1.56 1.565-4.634 2.261-6.639 3.191-24.954 11.58-40.38 20.802-48.925 26.499-5.396 3.598-21.819 14.546-38.045 29.486q-7.761 7.146-8.99 7.566c15.405-22.865 62.689-56.548 102.912-67.402-.094.198-.159.504-.314.66" fill="#5A5A5A"/><path d="M664.242 43.036c-18.477 11.53-38.613 20.196-56.48 32.777-9.733 6.853-17.95 15.654-28.155 21.902 14.625-19.796 57.356-47.495 86.268-55.92-.49.372-1.112.915-1.634 1.241" fill="#E5FB7A"/><path d="m495.482 505.746 7.58.875c4.94.588 12.202 1.362 21.41 2.543l33.235 4.143 20.443 2.548c7.195.914 14.648 2.547 22.506 3.767l230.01 38.7 62.318 10.459c20.229 3.23 40.537 2.12 59.465-2.295 18.923-4.409 36.377-12.106 51.229-21.877 14.876-9.762 27.118-21.626 36.187-34.111 4.651-6.186 8.051-12.761 11.442-18.905 3.289-6.215 5.801-12.431 7.781-18.417.908-3.057 1.787-5.873 2.448-8.862.6-2.83 1.135-5.634 1.478-8.36.732-5.44.994-10.518 1.036-15.115.025-9.2-.52-16.485-.921-21.435-.447-4.954-1.248-8.494-.686-7.596.478.763.804 1.676 1.704 6.572.9 4.895 1.994 13.017 2.703 22.365.352 4.671.528 9.885.247 15.582-.118 2.847-.42 5.806-.817 8.929-.394 2.959-1.089 6.197-1.758 9.405-1.535 6.441-3.625 13.224-6.553 20.114-2.927 6.902-7.304 13.496-12.018 20.162-9.616 13.236-22.528 25.725-38.136 35.968-15.587 10.253-33.842 18.3-53.651 22.917-19.756 4.63-41.225 5.776-62.252 2.417l-62.496-10.487-230.01-38.7c-7.824-1.419-15.401-2.315-22.499-3.805l-20.151-4.282-32.762-6.961c-9.088-1.898-16.202-3.542-21.063-4.604l-7.449-1.653z" fill="#0D0D0D"/><path d="m539.168 513.096 6.836.814 19.309 2.36 29.977 3.824 18.438 2.364c6.476.922 13.215 2.314 20.303 3.431l207.56 34.923 28.267 4.756 14.064 2.366 7.003 1.178 6.927 1.017c18.205 2.305 36.691 1.109 53.812-2.812 17.164-3.908 33.073-10.5 46.913-18.754 13.817-8.314 25.543-18.292 34.768-28.846 4.576-5.309 8.592-10.705 11.981-16.108 1.579-2.768 3.207-5.415 4.564-8.107l2.125-3.923 1.905-3.89c1.266-2.55 2.227-5.135 3.28-7.584.85-2.518 1.824-4.91 2.492-7.288 1.408-4.756 2.624-9.133 3.344-13.187 1.486-8.122 1.604-13.412 1.758-17.883.155-4.48-.387-9.424.259-8.17.79 1.534.968 2.619 1.226 7.653.242 4.717.601 10.309.017 18.815a103.6 103.6 0 0 1-.706 6.724c-.26 2.28-.925 4.754-1.419 7.25-.524 2.525-1.353 5.078-2.062 7.777-.911 2.627-1.734 5.411-2.868 8.174-4.161 11.25-11.673 22.718-21.186 33.857-9.659 11.052-21.893 21.452-36.265 30.098-14.395 8.586-30.909 15.427-48.738 19.487-17.83 4.065-36.896 5.335-56.088 2.904l-7.075-1.04-7.003-1.178-14.064-2.366-28.267-4.756-207.56-34.923c-7.063-1.264-13.887-2.154-20.309-3.402l-18.195-3.8-29.578-6.196-19.019-4.089-6.725-1.468z" fill="#212120"/><path d="m566.967 517.774 24.163 3.081 27.708 3.682 17.041 2.279c5.986.889 12.227 2.134 18.783 3.178l192.018 32.308 26.15 4.4 13.011 2.189 6.422 1.067 6.48.931c16.914 1.991 34.058 1.012 50.029-2.289 16.024-3.277 30.917-9.03 44.119-16.075 13.143-7.182 24.586-15.728 33.849-24.907 9.307-9.144 16.504-18.813 21.645-28.036 1.36-2.265 2.429-4.589 3.658-6.732 1.126-2.194 2.119-4.359 3.12-6.42l2.504-6.093 1.963-5.68 2.831-9.785c.81-2.865 1.357-5.353 1.776-7.381.868-4.057.993-8.397 1.523-10.516.387-1.549.782 5.927.387 10.585-.353 4.157-.764 10.531-2.852 18.144-1.987 7.599-5 16.824-10.479 26.4-1.39 2.377-2.855 4.809-4.508 7.22-1.556 2.477-3.384 4.863-5.21 7.348-3.807 4.842-7.977 9.826-12.851 14.508-9.598 9.509-21.42 18.336-34.979 25.742-13.617 7.27-28.962 13.194-45.482 16.573-16.517 3.397-34.036 4.434-51.757 2.343l-6.48-.931-6.54-1.086-13.011-2.189-26.151-4.4-192.017-32.308c-6.537-1.159-12.842-2.025-18.789-3.143l-16.848-3.423-27.388-5.588-23.841-4.996z" fill="#555"/><path d="m603.999 524.005 22.022 2.948 25.257 3.493 15.529 2.182 17.132 2.926 175.184 29.475 23.857 4.014c7.924 1.36 15.81 2.684 23.588 3.177 15.674 1.031 31.232-.419 45.813-3.77a173.607 173.607 0 0 0 21.087-6.375c6.736-2.56 13.137-5.533 19.198-8.741a154.108 154.108 0 0 0 31.43-22.287c8.599-8.286 14.977-16.126 20.494-24.175 5.51-8.037 10.249-17.64 12.909-24.14 2.592-6.525 3.82-10.467 4.712-14.135.894-3.678 1.913-7.183 2.388-6.003.543 1.347.225 2.339-.452 6.067-.678 3.734-2.673 11.085-4.97 17.814-2.347 6.707-5.844 12.938-11.037 21.429-5.28 8.402-12.398 17.626-21.496 25.894a157.86 157.86 0 0 1-32.206 22.841c-6.202 3.284-12.753 6.325-19.643 8.943a177.098 177.098 0 0 1-21.572 6.521c-14.916 3.429-30.839 4.915-46.903 3.858-8.098-.518-16.036-1.865-23.963-3.221l-23.857-4.014-175.183-29.475-17.147-2.841-15.388-3.02-25.009-4.965-21.774-4.421z" fill="#676868"/><path d="m623.806 527.337 20.661 3.008 23.713 3.453c4.575.689 9.459 1.327 14.578 2.173l16.108 2.728 164.677 27.708 22.427 3.773c7.404 1.338 14.891 2.372 22.239 2.749a146.54 146.54 0 0 0 22.007-.355c7.231-.663 14.359-1.672 21.238-3.276a164.017 164.017 0 0 0 38.234-13.707c11.523-5.889 21.769-12.743 30.318-20.112a151.955 151.955 0 0 0 20.905-22.346c5.621-7.275 9.723-14.075 12.651-20.009 2.968-5.919 4.379-9.362 5.551-12.715 1.1-3.383 1.485-4.647 2.718-6.498.757-1.136-.391 2.88-1.362 6.305-1.046 3.402-2.664 8.453-5.422 14.523-2.72 6.084-6.858 12.065-12.268 19.649-5.437 7.544-12.344 15.609-21.151 22.996-8.698 7.494-19.107 14.459-30.809 20.438A166.52 166.52 0 0 1 952 571.739c-6.985 1.628-14.222 2.654-21.568 3.327a149.1 149.1 0 0 1-22.36.36c-7.578-.395-15.041-1.432-22.516-2.78l-22.427-3.773-164.677-27.708-16.114-2.694c-5.114-.875-9.938-1.871-14.486-2.717l-23.538-4.497-20.508-3.919z" fill="#E8FF7E"/></g><path d="M1149.589 110.715c3.098-24.11-6.475-49.608-22.064-67.772-15.424-17.973-37.388-30.749-60.765-34.829-24.292-4.858-50.768 1.634-70.542 16.325-9.205 6.839-17.034 15.792-22.915 25.605l-7.049 11.764-22.746 37.957c-2.986 4.982-5.231 9.417-4.514 15.6 1.465 12.626 10.348 24.054 18.616 33.174 17.638 19.458 40.164 34.816 63.661 46.321 10.855 5.315 22.154 9.852 33.831 13.015 9.445 2.559 19.369 4.377 29.192 3.791 5.554-.331 11.485-1.481 16.119-4.73 3.195-2.244 4.952-5.477 6.901-8.73l11.814-19.716 12.454-20.782c6.697-11.176 12.969-22.003 16.016-34.815.96-4.02 1.465-8.086 1.99-12.179.349-2.717-.038.3 0 0z" fill="#F3FF48"/><path d="M1080.493 212.968c-7.575 0-15.856-1.277-25.7-3.944-10.995-2.979-22.131-7.262-34.042-13.096-25.992-12.726-47.531-28.401-64.02-46.59-8.004-8.828-17.387-20.652-18.916-33.836-.769-6.621 1.662-11.321 4.675-16.348l29.795-49.722c6.144-10.251 14.175-19.224 23.226-25.947 20.474-15.213 47.198-21.393 71.483-16.537 23.316 4.069 45.72 16.909 61.435 35.221 16.657 19.411 25.011 44.504 22.496 67.393 0 .057-.002.114-.01.172l-.032.253-.112.868v.013l-.057.439c-.5 3.897-1.017 7.927-1.957 11.864-2.993 12.587-8.831 22.933-16.153 35.15l-24.739 41.289c-1.781 2.996-3.624 6.094-6.766 8.3-4.14 2.902-9.612 4.52-16.732 4.943a64.898 64.898 0 0 1-3.872.114zM1050.349 7.702c-18.842 0-37.956 6.201-53.421 17.691-8.803 6.54-16.619 15.275-22.604 25.262l-29.795 49.722c-2.884 4.812-5.036 8.962-4.353 14.852 1.452 12.512 10.552 23.947 18.316 32.512 16.285 17.965 37.583 33.459 63.303 46.053 11.774 5.766 22.771 9.997 33.618 12.936 11.291 3.059 20.443 4.248 28.811 3.752 6.667-.397 11.739-1.875 15.507-4.517 2.725-1.913 4.358-4.66 6.088-7.569l24.744-41.296c7.214-12.039 12.965-22.223 15.88-34.479.91-3.814 1.396-7.604 1.911-11.615l.056-.435v-.005c2.858-22.242-5.49-47.856-21.786-66.847-15.362-17.9-37.256-30.451-60.067-34.433a82.75 82.75 0 0 0-16.207-1.583z" fill="#231f20"/><path d="M1149.589 110.715c3.098-24.11-6.475-49.608-22.064-67.772-15.424-17.973-37.388-30.749-60.765-34.829-24.292-4.858-50.768 1.634-70.542 16.325-9.205 6.839-17.034 15.792-22.915 25.605l-7.049 11.764-22.746 37.957c-2.986 4.982-5.231 9.417-4.514 15.6 1.465 12.626 10.348 24.054 18.616 33.174 17.638 19.458 40.164 34.816 63.661 46.321 10.855 5.315 22.154 9.852 33.831 13.015 9.445 2.559 19.369 4.377 29.192 3.791 5.554-.331 11.485-1.481 16.119-4.73 3.195-2.244 4.952-5.477 6.901-8.73l11.814-19.716 12.454-20.782c6.697-11.176 12.969-22.003 16.016-34.815.96-4.02 1.465-8.086 1.99-12.179.349-2.717-.038.3 0 0z" fill="url(#c)"/><path d="m630.012 603.752 304.503-501.408 31.12-11.894-304.504 501.408z" fill="#FFFE99"/><path d="M630.012 605.002a1.249 1.249 0 0 1-1.068-1.898l304.503-501.408c.144-.237.363-.42.622-.52l31.119-11.895a1.25 1.25 0 0 1 1.514 1.816L662.199 592.505c-.144.237-.363.42-.622.52l-31.119 11.894a1.243 1.243 0 0 1-.446.082zm305.35-501.643L632.975 601.281l27.311-10.438L962.671 92.921l-27.31 10.438z" fill="#FFF9A4"/><path d="m788.225 661.337 304.503-501.408 21.517 40.67-304.503 501.408z" fill="#FFFE99"/><path d="M809.742 703.257h-.037a1.249 1.249 0 0 1-1.067-.664l-21.517-40.67a1.25 1.25 0 0 1 .036-1.233l304.503-501.407a1.249 1.249 0 0 1 2.172.063l21.518 40.67c.206.39.192.857-.036 1.233L810.81 702.656a1.252 1.252 0 0 1-1.068.602zm-20.08-41.877 20.155 38.096 302.992-498.918-20.156-38.097z" fill="#FFF9A4"/><path d="M726.657 615.707 1031.16 114.3l61.568 45.629-304.503 501.408z" fill="#FFFE99"/><path d="M788.225 662.587c-.266 0-.527-.085-.744-.246l-61.568-45.629a1.249 1.249 0 0 1-.324-1.652l304.504-501.408a1.245 1.245 0 0 1 1.812-.355l61.567 45.63c.519.384.659 1.101.324 1.652L789.293 661.986a1.248 1.248 0 0 1-1.068.601zm-59.908-47.204 59.552 44.134 303.199-499.262-59.551-44.135z" fill="#FFF9A4"/><path d="M661.131 591.858 965.635 90.45l65.525 23.85-304.503 501.407z" fill="#FFFE99"/><path d="M726.657 616.958c-.143 0-.287-.024-.428-.075l-65.525-23.85a1.251 1.251 0 0 1-.641-1.823L964.566 89.802a1.249 1.249 0 0 1 1.496-.526l65.526 23.85a1.251 1.251 0 0 1 .641 1.823L727.725 616.357a1.248 1.248 0 0 1-1.068.602zm-63.666-25.753 63.13 22.978 303.181-499.229-63.131-22.978z" fill="#FFF9A4"/><path d="m726.657 615.707 61.568 45.63 21.517 40.67-31.138 11.887-65.526-23.849-61.549-45.623-21.517-40.67 31.119-11.894z" fill="#FFFE99"/><path d="M778.604 715.144c-.145 0-.289-.025-.428-.075l-65.526-23.85a1.224 1.224 0 0 1-.316-.171l-61.549-45.623a1.241 1.241 0 0 1-.36-.419l-21.517-40.67a1.254 1.254 0 0 1 .659-1.753l31.119-11.894c.281-.106.591-.107.874-.007l65.525 23.85c.113.041.22.099.316.171l61.568 45.629c.15.111.273.254.36.419l21.517 40.67a1.248 1.248 0 0 1-.659 1.753l-31.138 11.888a1.249 1.249 0 0 1-.446.082zm-64.928-26.212 64.917 23.628 29.383-11.218-20.724-39.171-61.194-45.352-64.916-23.628-29.364 11.223 20.724 39.172 61.175 45.346z" fill="#FFF9A4"/><path d="M672.767 799.235c-1.29.941-3.078 1.568-5.374 1.818-11.737 1.276-32.285-7.806-45.897-20.285-8.055-7.386-11.876-14.306-11.219-18.989 6.576-46.918 40-90.072 19.728-140.752-1.655 11.81 7.978 29.26 28.291 47.884 34.322 31.468 86.138 54.369 115.734 51.151 5.788-.629 10.298-2.211 13.551-4.584l-114.813 83.758z" fill="#F3FF48"/><path d="M665.137 802.358c-12.259 0-31.51-8.854-44.444-20.714-8.109-7.435-12.335-14.735-11.593-20.03 2.208-15.751 7.488-31.281 12.594-46.301 7.982-23.477 16.179-47.585 12.696-73.126-4.466-7.939-6.419-15.216-5.562-21.326.075-.534.5-.95 1.034-1.016a1.178 1.178 0 0 1 1.247.739c2.813 7.033 4.6 13.938 5.573 20.732 4.763 8.352 12.398 17.531 22.418 26.718 34.047 31.217 85.546 54.015 114.801 50.846 5.457-.594 9.824-2.062 12.979-4.364a1.19 1.19 0 1 1 1.402 1.922l-114.813 83.758c-1.488 1.086-3.489 1.771-5.946 2.039-.76.083-1.557.123-2.385.123zm-27.828-155.423c1.937 24.142-5.809 46.922-13.363 69.144-5.071 14.915-10.314 30.337-12.49 45.865-.623 4.441 3.432 11.151 10.845 17.948 13.369 12.258 33.546 21.229 44.964 19.979 2.039-.223 3.654-.76 4.802-1.597l106.59-77.759a42.044 42.044 0 0 1-4.497.728c-29.852 3.243-82.18-19.839-116.666-51.457-8.538-7.828-15.336-15.563-20.184-22.852z" fill="#231f20"/><ellipse cx="711.884" cy="663.084" fill="#F3FF48" rx="36.684" ry="93.105" transform="matrix(.51400543 -.85778693 .85778693 .51400543 -222.815 932.893)"/><path d="M768.264 721.549c-30.468 0-78.455-22.133-110.771-51.762-21.668-19.866-32.121-39.298-27.963-51.979 1.66-5.062 6.493-11.405 20.079-12.883 29.846-3.244 82.18 19.837 116.666 51.456 21.668 19.866 32.121 39.298 27.963 51.979-1.66 5.062-6.491 11.406-20.079 12.884a54.699 54.699 0 0 1-5.895.305zM649.867 607.288c-9.759 1.062-16.01 4.955-18.077 11.26-3.802 11.594 6.663 30.557 27.311 49.487 34.047 31.217 85.546 54.015 114.801 50.846 9.759-1.062 16.01-4.955 18.077-11.261 3.802-11.594-6.663-30.557-27.311-49.487-34.05-31.218-85.568-54.011-114.801-50.845z" fill="#231f20"/><path d="M765.471 657.257c-34.322-31.469-86.138-54.37-115.734-51.151-12.08 1.313-18.591 6.776-19.733 14.921l-19.728 140.752c.453-3.23 3.035-5.396 7.826-5.917 11.736-1.276 32.285 7.805 45.896 20.284 10.95 10.039 14.074 19.218 8.768 23.089l114.813-83.758c13.38-9.761 5.5-32.906-22.109-58.22z" fill="#F3FF48"/><path d="M672.769 800.425a1.19 1.19 0 0 1-.702-2.15l.009-.006c1.247-.914 1.926-2.197 2.017-3.813.248-4.433-3.826-10.949-10.896-17.433-13.369-12.258-33.539-21.215-44.964-19.979-2.821.307-6.287 1.405-6.776 4.899a1.2 1.2 0 0 1-1.343 1.013 1.19 1.19 0 0 1-1.011-1.352l19.726-140.743c1.256-8.956 8.636-14.616 20.781-15.937 29.84-3.249 82.18 19.837 116.666 51.456 19.024 17.442 29.53 34.673 28.825 47.275-.302 5.401-2.596 9.701-6.818 12.782l-114.812 83.758a1.195 1.195 0 0 1-.7.229zm-52.408-45.867c12.258 0 31.508 8.854 44.442 20.713 7.703 7.062 11.954 14.104 11.663 19.317-.01.172-.024.342-.044.51l110.457-80.581c3.619-2.64 5.586-6.339 5.847-10.993.665-11.888-9.562-28.432-28.059-45.391-34.048-31.217-85.548-54.021-114.801-50.845-11.118 1.209-17.578 6.017-18.684 13.903l-18.979 135.403c1.315-.911 3.167-1.632 5.77-1.914a22.05 22.05 0 0 1 2.387-.123z" fill="#231f20"/><ellipse cx="642.748" cy="778.457" fill="#F3FF48" rx="14.548" ry="36.923" transform="matrix(.51400543 -.85778693 .85778693 .51400543 -355.38 929.66)"/><path d="M665.137 802.358c-12.259 0-31.51-8.854-44.444-20.714-8.807-8.074-13.025-16.062-11.286-21.366.725-2.208 2.799-4.971 8.567-5.598 12.025-1.322 33.02 7.93 46.829 20.59 8.807 8.074 13.025 16.062 11.286 21.366-.725 2.208-2.799 4.972-8.567 5.599-.76.083-1.557.123-2.385.123zm-44.678-45.429a20.7 20.7 0 0 0-2.228.114c-2.489.271-5.648 1.18-6.565 3.976-1.419 4.327 2.655 11.559 10.634 18.873 13.369 12.258 33.546 21.229 44.964 19.979 2.489-.271 5.648-1.181 6.565-3.977 1.419-4.327-2.656-11.559-10.634-18.873-12.539-11.496-31.06-20.093-42.736-20.093z" fill="#231f20"/><path d="M765.471 657.257c-34.322-31.469-86.138-54.37-115.734-51.151-12.08 1.313-18.591 6.776-19.733 14.921l-19.728 140.752c.453-3.23 3.035-5.396 7.826-5.917 11.736-1.276 32.285 7.805 45.896 20.284 10.95 10.039 14.074 19.218 8.768 23.089l114.813-83.758c13.38-9.761 5.5-32.906-22.109-58.22z" fill="url(#o)"/><path d="M674.646 793.373c-.229-2.876-1.686-5.915-3.08-8.105-3.3-5.186-7.839-9.408-12.635-13.184a90.765 90.765 0 0 0-11.741-7.81c-5.939-3.284-12.249-6.013-18.883-7.523-5.452-1.241-14.705-2.917-17.995 3.172-.641 1.185-.761 2.494-.94 3.799l-4.853 35.351-1.343 9.784-6.204 45.195s50.032-36.328 75.048-54.494c2.174-1.579 2.812-3.827 2.624-6.184zM660.342 773.2l.008-.01z" fill="#231f20"/><path d="m596.974 854.051 50.217-89.777c.249.138.498.277.746.418l-16.088 32.593-34.875 56.767" fill="#0D0D0D"/><path d="m596.974 854.051 50.963-89.359c.283.16.565.322.847.486l-15.206 30.372-36.605 58.502" fill="#212120"/><path d="m596.974 854.051 51.81-88.873c.282.164.563.329.844.496l-15.84 30.782z" fill="#555"/><path d="m596.974 854.051 52.654-88.378c.381.227.762.457 1.141.69l-17.248 32.191-36.546 55.497" fill="#676868"/><path d="m596.974 854.051 35.787-51.586 25.479-30.961c.238.183.475.368.711.553l-61.978 81.993" fill="#0D0D0D"/><path d="m596.974 854.051 36.651-53.729 23.897-29.365c.241.181.48.363.719.547z" fill="#212120"/><path d="m596.974 854.051 35.745-53.746 23.874-30.036c.312.228.622.457.93.689l-60.548 83.093" fill="#555"/><path d="m596.974 854.051 36.39-56.107 22.197-28.417c.346.245.689.492 1.031.741l-59.618 83.782" fill="#676868"/><path d="m596.977 854.046 58.585-84.518a88.493 88.493 0 0 0-4.793-3.164l-53.789 87.678-.005.009.002-.003-.002.003.003-.005z" fill="#E8FF7E"/><path d="M726.657 615.707 1031.16 114.3l61.568 45.629-304.503 501.408z" fill="url(#p)"/></svg></g><g transform="translate(750.0 1350.0) rotate(0.0 45.0 55.5) scale(0.9927748055816006 0.9984797920283532)"><svg width="90.655" height="111.169" viewBox="0 0 90.655 111.169"><g fill="#6d6e71"><path d="M84.124 75.951c-3.352.175-5.867 3.183-5.867 6.54v8.015c0 4.565-3.7 8.265-8.265 8.265H20.663a8.265 8.265 0 0 1-8.265-8.265v-8.015c0-3.357-2.515-6.365-5.867-6.54A6.199 6.199 0 0 0 0 82.142v22.828a6.2 6.2 0 0 0 6.199 6.199h78.257a6.199 6.199 0 0 0 6.199-6.199V82.142a6.198 6.198 0 0 0-6.531-6.19z"/><path d="M40.945 78.455c1.211 1.211 2.797 1.816 4.383 1.816s3.172-.605 4.383-1.816l16.048-16.046c2.374-2.373 2.722-6.278.475-8.772a6.198 6.198 0 0 0-8.994-.24l-2.185 2.185c-1.302 1.302-3.527.38-3.527-1.461V6.548c0-3.357-2.515-6.365-5.867-6.54a6.199 6.199 0 0 0-6.531 6.19v47.92c0 1.841-2.226 2.763-3.527 1.461l-2.016-2.016c-2.12-2.12-5.498-2.632-7.98-.951a6.202 6.202 0 0 0-.952 9.55l16.292 16.292z"/></g></svg></g><g transform="translate(1306.0 750.0) rotate(0.0 44.5 51.5) scale(0.993248144634786 0.9964013465928878)"><svg width="89.605" height="103.372" viewBox="0 0 89.605 103.372"><path d="M0 103.372.164 0l89.441 51.828z" fill="#6d6e71"/></svg></g></svg>