<svg width="660" height="700" viewBox="0 0 660 700" fill="none" xmlns="http://www.w3.org/2000/svg">
<g clip-path="url(#clip0_202_282)">
<path d="M301.188 69.0434L301.251 69.0565L301.317 69.0674L301.188 69.0434ZM570.465 160.104C570.458 160.151 570.448 160.199 570.441 160.246C570.405 160.495 570.389 160.606 570.465 160.104ZM381.839 18.4741C381.91 18.4501 381.983 18.4278 382.055 18.4043C382.18 18.362 382.302 18.3133 382.428 18.271L381.839 18.4741ZM258.82 67.9821C258.888 67.9718 258.956 67.9598 259.025 67.9495C258.738 67.993 258.726 67.9958 258.82 67.9821ZM279.033 66.8069L279.063 66.8081C279.245 66.8109 279.425 66.8081 279.606 66.8109L279.033 66.8069Z" fill="#121011"/>
<path d="M621.853 232.897L621.776 232.48C621.572 231.398 621.35 230.32 621.109 229.246C620.698 227.415 620.235 225.593 619.713 223.79C618.565 219.826 617.136 215.948 615.437 212.187C611.862 204.267 607.097 196.907 601.427 190.329C594.428 182.213 586.078 175.257 576.93 169.692C575.845 169.028 574.75 168.381 573.646 167.75C572.556 167.137 571.457 166.54 570.35 165.958C569.451 165.483 569.553 165.454 569.715 164.574C569.98 163.136 570.225 161.694 570.442 160.248C570.478 159.996 570.535 159.606 570.542 159.565C570.583 159.275 570.63 158.984 570.667 158.694L570.818 157.494C570.99 156.132 571.141 154.769 571.269 153.402C571.586 150.037 571.767 146.651 571.786 143.27C571.819 138.053 571.541 132.839 570.952 127.656C569.337 113.547 565.875 99.9023 559.697 87.0734C547.124 60.9644 524.91 40.3334 499.471 26.9245C471.764 12.3209 439.523 6.73691 408.567 11.6961C399.556 13.1396 390.714 15.5391 382.057 18.4049C367.956 23.1976 354.749 29.9258 342.694 38.6908C330.741 47.3815 320.618 58.1455 312.097 70.1825C311.41 70.7604 310.991 71.1791 309.935 70.9263C309.039 70.7105 308.141 70.5008 307.241 70.2969C305.253 69.8461 303.257 69.433 301.253 69.0577C293.931 67.7018 286.508 66.9649 279.065 66.8098C276.448 66.7726 273.835 66.7812 271.218 66.8888C268.786 66.9889 266.353 67.1462 263.931 67.3865C262.745 67.5004 261.559 67.6285 260.376 67.7744C260.068 67.8127 259.759 67.8517 259.45 67.8934C259.332 67.9094 258.959 67.9638 258.821 67.9832C253.598 68.7739 248.431 69.7282 243.31 71.0476L244.2 70.8096C219.294 76.8266 195.974 90.7402 179.328 110.296C166.755 125.066 158.041 142.923 154.671 162.06C151.311 181.147 153.214 201.163 160.249 219.226C169.567 243.147 186.954 263.639 208.798 277.071C216.962 282.123 225.66 286.312 234.735 289.452C239.314 291.036 243.967 292.403 248.692 293.482C249.898 293.757 251.107 294.018 252.319 294.261C253.286 294.455 254.735 294.986 255.806 294.916L327.32 307.273L431.869 325.338L488.207 335.073L495.489 336.331L501.803 337.422L504.012 337.804C529.191 342.029 555.797 337.504 577.829 324.448C601.218 310.587 618.537 287.684 622.357 260.407C622.982 255.942 623.219 251.446 623.197 246.94C623.197 242.281 622.641 237.524 621.856 232.898L621.853 232.897ZM360.758 35.0893C359.743 35.6863 358.736 36.2961 357.737 36.9184C358.723 36.2999 359.717 35.6099 360.758 35.0893ZM353.858 39.4403L353.557 39.6452C354.754 38.8304 355.955 37.9848 357.205 37.2548C355.979 38.0318 354.78 38.8796 353.557 39.6452L353.858 39.4403H353.858ZM353.892 39.4174C354.218 39.1955 354.08 39.2887 353.892 39.4174ZM353.512 39.6761C352.371 40.675 350.926 41.4714 349.693 42.3776C350.949 41.4542 352.223 40.5536 353.512 39.6761ZM604.958 258.187C602.794 272.425 595.92 285.833 585.912 296.174C575.546 306.881 562.267 314.323 548.044 318.568C533.834 322.809 518.984 322.734 504.491 320.23L483.773 316.65L446.7 310.245L409.637 303.841L372.584 297.439L335.539 291.038L298.502 284.639L261.472 278.24C248.39 275.98 235.726 272.032 224.03 265.678C212.049 259.19 201.384 250.565 192.792 239.96C183.369 228.328 176.559 214.604 173.176 200.008C171.521 192.867 170.686 185.536 170.723 178.205C170.767 169.608 172.456 160.925 175.09 152.76C183.665 126.177 204.845 105.035 230.089 93.8732C240.083 89.4541 250.616 86.4172 261.458 85.0292C266.296 84.4083 271.168 84.0974 276.046 84.0984C279.419 84.1012 282.79 84.2521 286.15 84.5509C287.186 84.643 289.884 84.928 290.197 84.9503C290.718 85.0138 293.165 85.3433 293.869 85.4486C295.305 85.6643 296.735 85.9132 298.162 86.1844C299.762 86.4922 301.356 86.8291 302.946 87.185C304.004 87.4219 305.624 87.9311 306.79 88.0541C311.441 88.545 315.809 88.0077 319.78 85.9624C323.15 84.222 325.376 81.6251 327.56 78.6134C335.711 67.3722 345.654 57.602 357.116 49.777C369.404 41.389 383.577 35.8708 397.923 32.1629C406.933 29.8337 415.995 28.3851 425.303 28.0962C434.373 27.8133 443.448 28.4362 452.394 29.9556C478.096 34.3249 502.448 46.3207 521.038 64.6838C541.877 85.2684 554.606 113.463 554.274 142.949C554.22 147.595 553.868 152.232 553.221 156.832C552.776 160.013 551.893 163.141 552.104 166.376C552.364 170.35 553.914 174.129 556.518 177.14C558.817 179.797 561.708 181.241 564.706 182.91C579.148 190.951 591.238 202.758 598.584 217.669C604.687 230.059 606.98 244.517 604.957 258.187H604.958Z" fill="#121011"/>
<path d="M621.852 232.895V232.897C621.887 233.087 621.909 233.208 621.852 232.895Z" fill="#121011"/>
<path d="M255.148 73.6267C178.521 89.6818 140.252 166.878 176.4 232.474C135.423 165.78 176.952 85.2661 258.688 72.9379C257.626 73.1444 256.207 73.4047 255.148 73.6267Z" fill="#656565"/>
<path d="M226.392 82.5743C225.361 83.7586 223.247 84.4566 221.846 85.1637C220.423 85.8818 186.818 103.138 171.504 136.988C156.358 170.467 163.584 201.287 167.394 212.984C160.035 204.846 143.008 120.672 226.255 82.3157C226.209 82.3901 226.406 82.4873 226.391 82.5737" fill="#6E6E6E"/>
<path d="M208.392 92.8674C165.351 129.827 159.95 155.208 163.647 201.652C153.419 158.275 170.946 116.941 210.531 91.0835C209.813 91.6716 209.1 92.2662 208.392 92.8674Z" fill="#777777"/>
<path d="M400.826 17.7921C398.208 19.2516 394.286 20.2689 391.475 21.3107C369.856 29.3257 354.593 39.997 348.847 44.0139C333.873 54.4827 325.335 65.3669 316.296 76.8901C320.019 56.3416 372.545 19.5955 401.451 17.3173C401.264 17.4597 401.032 17.6771 400.826 17.7921Z" fill="#3D3A3B"/>
<path d="M395.388 19.4822C372.285 30.2863 358.835 36.9798 355.038 39.5627C342.601 48.024 333.587 55.2471 321.59 69.1607C321.126 69.6996 320.442 70.3627 319.909 70.833C326.282 50.6151 380.581 18.4432 396.777 18.7378C396.36 18.9616 395.816 19.2819 395.388 19.4822Z" fill="#514E4E"/>
<path d="M386.594 22.3354C385.702 23.2307 383.945 23.629 382.799 24.161C368.535 30.7863 359.717 36.0624 354.832 39.3219C351.748 41.3804 342.36 47.644 333.085 56.1916C330.127 58.9173 328.414 60.3602 327.946 60.5204C336.752 47.4386 363.781 28.1676 386.773 21.9578C386.719 22.071 386.683 22.2461 386.594 22.3354Z" fill="#696667"/>
<path d="M380.683 24.7515C370.122 31.3482 358.611 36.3062 348.398 43.5042C342.834 47.425 338.137 52.4603 332.304 56.0349C340.664 44.7091 365.09 28.8617 381.617 24.0415C381.337 24.2543 380.982 24.565 380.683 24.7515Z" fill="#7B7879"/>
<path d="M284.216 289.481L288.549 289.982C291.372 290.318 295.524 290.761 300.787 291.436L319.785 293.807L331.471 295.265C335.584 295.787 339.844 296.722 344.336 297.42L475.816 319.561L511.439 325.545C523.002 327.393 534.611 326.758 545.431 324.232C556.248 321.71 566.225 317.306 574.715 311.716C583.218 306.13 590.216 299.343 595.4 292.2C598.059 288.66 600.002 284.899 601.941 281.384C603.821 277.828 605.257 274.271 606.389 270.847C606.908 269.098 607.41 267.487 607.788 265.777C608.131 264.157 608.437 262.553 608.633 260.994C609.051 257.881 609.201 254.976 609.225 252.346C609.239 247.082 608.928 242.914 608.699 240.082C608.443 237.248 607.985 235.223 608.307 235.736C608.58 236.173 608.766 236.695 609.281 239.496C609.795 242.297 610.42 246.944 610.826 252.292C611.027 254.964 611.128 257.948 610.967 261.207C610.899 262.836 610.727 264.529 610.5 266.315C610.275 268.008 609.877 269.861 609.495 271.696C608.617 275.381 607.423 279.262 605.749 283.204C604.076 287.153 601.574 290.926 598.879 294.739C593.382 302.312 586.002 309.457 577.08 315.318C568.17 321.184 557.735 325.788 546.411 328.429C535.118 331.078 522.846 331.734 510.826 329.812L475.102 323.812L343.621 301.671C339.149 300.859 334.818 300.346 330.76 299.494L319.242 297.044L300.514 293.061C295.319 291.975 291.252 291.035 288.474 290.427L284.216 289.482V289.481Z" fill="#3D3A3B"/>
<path d="M309.188 293.686L313.095 294.152L324.133 295.502L341.269 297.69L351.808 299.042C355.51 299.57 359.362 300.366 363.414 301.005L482.061 320.986L498.219 323.707L506.259 325.061L510.262 325.734L514.222 326.316C524.628 327.635 535.195 326.951 544.982 324.708C554.794 322.472 563.888 318.7 571.799 313.978C579.697 309.221 586.4 303.512 591.673 297.474C594.289 294.437 596.585 291.35 598.522 288.258C599.425 286.675 600.355 285.16 601.131 283.62L602.346 281.376L603.435 279.15C604.158 277.691 604.708 276.212 605.309 274.811C605.795 273.37 606.352 272.002 606.734 270.641C607.539 267.92 608.234 265.416 608.645 263.097C609.495 258.45 609.562 255.423 609.65 252.865C609.739 250.302 609.429 247.474 609.798 248.191C610.25 249.069 610.352 249.689 610.499 252.57C610.638 255.268 610.843 258.468 610.509 263.334C610.416 264.621 610.282 265.904 610.105 267.181C609.957 268.486 609.577 269.901 609.294 271.329C608.995 272.774 608.521 274.234 608.116 275.779C607.595 277.281 607.124 278.874 606.476 280.455C604.098 286.892 599.804 293.453 594.366 299.826C588.844 306.149 581.851 312.099 573.636 317.046C565.407 321.958 555.967 325.872 545.776 328.195C535.583 330.52 524.685 331.247 513.714 329.856L509.67 329.261L505.667 328.587L497.627 327.233L481.469 324.512L362.822 304.532C358.784 303.809 354.884 303.3 351.213 302.586L340.812 300.412L323.904 296.867L313.032 294.527L309.188 293.687L309.188 293.686Z" fill="#514E4E"/>
<path d="M325.078 296.363L338.891 298.125L354.729 300.232L364.47 301.536C367.892 302.044 371.46 302.757 375.207 303.354L484.97 321.838L499.918 324.356L507.356 325.608L511.027 326.218L514.731 326.751C524.399 327.89 534.199 327.33 543.329 325.442C552.489 323.567 561.002 320.275 568.549 316.245C576.062 312.136 582.603 307.246 587.898 301.995C593.218 296.763 597.332 291.231 600.271 285.954C601.048 284.659 601.659 283.329 602.362 282.103C603.005 280.848 603.573 279.609 604.145 278.43L605.576 274.944L606.699 271.694L608.317 266.096C608.78 264.457 609.093 263.033 609.332 261.873C609.828 259.552 609.9 257.069 610.203 255.856C610.424 254.97 610.65 259.247 610.424 261.912C610.222 264.291 609.987 267.938 608.794 272.293C607.658 276.641 605.935 281.919 602.803 287.397C602.009 288.757 601.171 290.149 600.227 291.528C599.337 292.945 598.292 294.31 597.248 295.732C595.072 298.502 592.688 301.354 589.902 304.032C584.416 309.473 577.658 314.523 569.907 318.76C562.124 322.92 553.352 326.309 543.909 328.242C534.467 330.186 524.453 330.779 514.323 329.583L510.619 329.05L506.88 328.429L499.443 327.176L484.494 324.659L374.732 306.175C370.995 305.511 367.391 305.016 363.991 304.376L354.361 302.418L338.705 299.221L325.077 296.363H325.078Z" fill="#646162"/>
<path d="M346.247 299.927L358.835 301.614L373.273 303.613L382.15 304.861L391.943 306.535L492.083 323.398L505.72 325.695C510.25 326.473 514.758 327.231 519.204 327.513C528.164 328.103 537.057 327.273 545.392 325.356C549.483 324.397 553.509 323.178 557.446 321.708C561.296 320.244 564.955 318.543 568.42 316.707C574.918 313.226 580.954 308.942 586.386 303.956C591.302 299.216 594.948 294.73 598.101 290.125C601.251 285.527 603.96 280.033 605.48 276.314C606.962 272.581 607.664 270.326 608.174 268.227C608.685 266.123 609.267 264.117 609.539 264.793C609.849 265.563 609.668 266.131 609.281 268.264C608.893 270.4 607.753 274.606 606.44 278.456C605.098 282.293 603.099 285.858 600.13 290.716C597.112 295.523 593.043 300.8 587.843 305.53C582.277 310.64 576.092 315.031 569.433 318.598C565.888 320.477 562.143 322.217 558.204 323.715C554.177 325.219 550.059 326.465 545.873 327.446C537.347 329.408 528.245 330.258 519.062 329.653C514.433 329.357 509.896 328.586 505.364 327.81L491.727 325.514L391.587 308.65L381.786 307.025L372.989 305.297L358.694 302.456L346.247 299.927Z" fill="#767475"/>
<path d="M357.569 301.834L369.379 303.555L382.935 305.53C385.55 305.924 388.342 306.29 391.268 306.774L400.476 308.334L494.61 324.187L507.429 326.345C511.662 327.111 515.942 327.703 520.142 327.918C524.334 328.166 528.539 328.098 532.722 327.715C536.855 327.336 540.93 326.759 544.862 325.841C552.444 324.143 559.785 321.509 566.718 317.999C573.304 314.629 579.161 310.708 584.048 306.492C588.451 302.644 592.455 298.36 595.998 293.707C599.211 289.545 601.556 285.655 603.23 282.26C604.926 278.873 605.733 276.903 606.403 274.985C607.032 273.049 607.252 272.326 607.957 271.267C608.389 270.617 607.733 272.915 607.178 274.875C606.58 276.821 605.655 279.711 604.079 283.184C602.524 286.664 600.158 290.086 597.066 294.425C593.958 298.741 590.01 303.356 584.975 307.582C580.003 311.869 574.053 315.854 567.364 319.275C560.326 322.839 552.872 325.514 545.174 327.237C541.181 328.169 537.044 328.756 532.845 329.141C528.596 329.53 524.323 329.599 520.064 329.347C515.732 329.121 511.466 328.528 507.193 327.756L494.373 325.598L400.239 309.745L391.028 308.204C388.104 307.703 385.347 307.133 382.747 306.649L369.292 304.077L357.569 301.834V301.834Z" fill="#7E7C7D"/>
<path opacity="0.3" d="M347.743 48.1389C356.107 48.8712 364.441 59.5191 366.354 71.9143L388.152 213.2C390.064 225.595 384.832 235.055 376.468 234.323L96.3167 209.791C87.9527 209.059 79.6183 198.411 77.7056 186.016L55.9077 44.7302C53.9951 32.335 59.2278 22.8749 67.5918 23.6072L347.743 48.1389Z" fill="#BCBEC0"/>
<path opacity="0.3" d="M347.743 48.1389C356.107 48.8712 364.441 59.5191 366.354 71.9143L388.152 213.2C390.064 225.595 384.832 235.055 376.468 234.323L96.3167 209.791C87.9527 209.059 79.6183 198.411 77.7056 186.016L55.9077 44.7302C53.9951 32.335 59.2278 22.8749 67.5918 23.6072L347.743 48.1389Z" fill="#BCBEC0"/>
<g opacity="0.3">
<path d="M304.217 111.465L150.894 98.0394L153.354 113.985L306.678 127.411L304.217 111.465ZM268.928 137.869L155.507 127.938L157.967 143.884L271.388 153.816L268.928 137.869Z" fill="#939598"/>
</g>
<path d="M368.95 41.1224C377.314 41.8548 385.648 52.5026 387.561 64.8978L366.354 71.9144C364.441 59.5192 356.107 48.8713 347.743 48.139L368.95 41.1224Z" fill="url(#paint0_linear_202_282)"/>
<path d="M380.288 233.901C386.347 231.896 389.753 223.577 388.152 213.2L409.359 206.183C410.96 216.56 407.554 224.88 401.495 226.884L380.288 233.901ZM387.561 64.8977L409.359 206.183L388.152 213.2L366.354 71.9143L387.561 64.8977Z" fill="#939598"/>
<path opacity="0.3" d="M88.7986 16.5907L368.95 41.1224L347.743 48.139L67.5918 23.6073L88.7986 16.5907Z" fill="#939598"/>
<path opacity="0.75" d="M368.95 41.1224C377.314 41.8548 385.648 52.5026 387.561 64.8978L409.359 206.183C411.271 218.578 406.039 228.038 397.675 227.306L117.524 202.774C109.16 202.042 100.825 191.394 98.9126 178.999L77.1147 37.7137C75.202 25.3185 80.4347 15.8584 88.7987 16.5907L368.95 41.1224Z" fill="url(#paint1_linear_202_282)"/>
<path d="M98.9125 178.999L77.7062 186.016L55.9077 44.7302L77.1146 37.7136L98.9125 178.999Z" fill="url(#paint2_linear_202_282)"/>
<path opacity="0.3" d="M84.9791 17.0123C86.1578 16.6221 87.4365 16.4711 88.7987 16.5906L67.5918 23.6072C66.2296 23.4882 64.9509 23.6393 63.7722 24.0289L84.9791 17.0123Z" fill="#F7FFA4"/>
<g opacity="0.3">
<path d="M84.9791 17.0123C86.1578 16.6221 87.4365 16.4711 88.7987 16.5906L67.5918 23.6072C66.2296 23.4882 64.9509 23.6393 63.7722 24.0289L84.9791 17.0123Z" fill="#F7FFA4"/>
<path d="M63.8283 24.1988L63.7168 23.8589L84.9236 16.8418C86.1475 16.4373 87.4577 16.2937 88.8147 16.4121L89.6779 16.4882L67.6136 23.7886L67.577 23.7851C66.2674 23.6696 65.0041 23.8092 63.8283 24.1988ZM66.6944 23.3886C66.9837 23.3886 67.2763 23.4007 67.5707 23.4258L87.8075 16.7302C86.8654 16.7358 85.9299 16.8881 85.0345 17.1816L66.2457 23.3984C66.3943 23.3915 66.5435 23.3881 66.6938 23.3881L66.6944 23.3886Z" fill="black"/>
</g>
<path d="M63.7722 24.0289L84.979 17.0123C78.9203 19.0171 75.514 27.3364 77.1146 37.7136L55.9077 44.7302C54.3066 34.3535 57.7129 26.0336 63.7722 24.0289Z" fill="url(#paint3_linear_202_282)"/>
<path opacity="0.3" d="M88.7986 16.5907L368.95 41.1224L347.743 48.139L67.5918 23.6073L88.7986 16.5907Z" fill="#F7FFA4"/>
<g opacity="0.45">
<path d="M316.365 105.744L163.041 92.3181L165.502 108.264L318.825 121.69L316.365 105.744ZM281.075 132.148L167.654 122.216L170.115 138.163L283.535 148.094L281.075 132.148Z" fill="#F1F2F2"/>
</g>
<path d="M117.524 202.774L96.3168 209.791C87.9527 209.059 79.6184 198.411 77.7057 186.016L98.9125 178.999C100.825 191.394 109.16 202.042 117.524 202.774Z" fill="url(#paint4_linear_202_282)"/>
<path d="M398.581 228.061C398.261 228.061 397.939 228.046 397.612 228.018L117.461 203.487C108.801 202.729 100.163 191.792 98.206 179.108L76.4081 37.8224C75.2174 30.1044 76.7254 23.1244 80.4415 19.1504C82.7097 16.7263 85.6171 15.5969 88.861 15.8784L369.013 40.4096C377.672 41.1676 386.31 52.1039 388.267 64.7885L410.065 206.074C411.256 213.792 409.748 220.772 406.032 224.746C403.993 226.926 401.432 228.061 398.581 228.061ZM87.9053 17.2664C85.4513 17.2664 83.2454 18.2459 81.4853 20.1276C78.067 23.7835 76.6968 30.3166 77.8212 37.6044L99.6191 178.89C101.482 190.963 109.541 201.358 117.587 202.062L397.738 226.593C400.523 226.839 403.033 225.861 404.989 223.769C408.408 220.113 409.778 213.58 408.653 206.292L386.855 65.0065C384.993 52.9334 376.933 42.5384 368.888 41.8342L88.7359 17.303C88.4597 17.2787 88.1825 17.2664 87.9053 17.2664Z" fill="white"/>
<path d="M109.106 364.619L120.305 356.705C112.34 362.334 108.939 373.3 112.633 384.299L101.435 392.213C97.7412 381.214 101.142 370.248 109.106 364.619Z" fill="#F7F600"/>
<path d="M101.063 393.351L100.758 392.441C97.0571 381.421 100.246 370.005 108.695 364.035L119.886 356.126L119.893 356.121L120.717 357.29L120.711 357.294C112.788 362.898 109.814 373.658 113.31 384.072L113.48 384.577L101.063 393.351ZM109.519 365.204C101.824 370.642 98.7937 380.941 101.82 391.066L111.79 384.019C109.254 376.005 110.343 367.831 114.429 361.733L109.518 365.204H109.519ZM572.085 501.66L207.602 592.615L196.404 600.529L560.886 509.574C563.496 508.923 565.848 507.828 567.897 506.379L579.095 498.465C577.045 499.914 574.694 501.009 572.084 501.66H572.085Z" fill="#231F20"/>
<path d="M192.877 602.147L207.3 591.954L207.429 591.922L571.912 500.966C574.372 500.353 576.645 499.318 578.667 497.892L578.684 497.88L579.507 499.049L568.309 506.963C566.139 508.497 563.699 509.608 561.059 510.268L192.876 602.146L192.877 602.147ZM207.905 593.277L199.932 598.912L560.713 508.881C563.182 508.264 565.461 507.226 567.486 505.795L572.408 502.316C572.358 502.329 572.308 502.342 572.258 502.354L207.905 593.277Z" fill="#231F20"/>
<path d="M176.114 573.349L164.916 581.264L101.435 392.213L112.633 384.299L176.114 573.349Z" fill="#F7F600"/>
<path d="M164.544 582.401L164.239 581.491L100.587 391.936L113.004 383.161L113.31 384.071L176.961 573.626L164.544 582.401ZM102.281 392.49L165.288 580.124L175.267 573.072L112.261 385.437L102.281 392.49Z" fill="#231F20"/>
<path d="M207.602 592.616L196.404 600.53C183.65 603.713 169.559 595.091 164.916 581.264L176.114 573.349C180.758 587.177 194.848 595.799 207.602 592.616Z" fill="#F7F600"/>
<path d="M191.019 601.9C179.618 601.9 168.322 593.652 164.239 581.491L164.069 580.986L176.486 572.211L176.791 573.121C181.31 586.576 195.054 595.01 207.429 591.921L211.13 590.998L196.707 601.19L196.577 601.223C194.759 601.675 192.892 601.903 191.019 601.9ZM165.767 581.537C170.439 594.653 183.918 602.823 196.101 599.867L204.594 593.866C192.712 595.082 180.392 586.975 175.755 574.478L165.766 581.537H165.767Z" fill="#231F20"/>
<path d="M491.796 262.557C504.55 259.374 518.651 267.993 523.294 281.82L586.776 470.87C591.419 484.697 584.838 498.478 572.085 501.661L207.602 592.616C194.848 595.799 180.757 587.177 176.114 573.349L112.633 384.299C107.989 370.472 114.559 356.695 127.313 353.512L491.796 262.557Z" fill="#E6E7E8"/>
<path d="M202.218 593.987C190.817 593.988 179.521 585.739 175.437 573.577L111.955 384.526C109.515 377.261 110.038 369.583 113.39 363.46C116.337 358.074 121.22 354.294 127.139 352.817L491.622 261.862C504.71 258.596 519.222 267.446 523.971 281.591L587.453 470.641C589.892 477.903 589.368 485.58 586.016 491.704C583.067 497.093 578.18 500.875 572.258 502.353L207.776 593.309C205.958 593.76 204.091 593.989 202.218 593.987ZM497.204 262.613C495.45 262.613 493.697 262.819 491.968 263.251L127.485 354.206C121.957 355.585 117.397 359.116 114.643 364.148C111.483 369.922 110.997 377.184 113.31 384.071L176.791 573.122C181.31 586.576 195.054 595.011 207.429 591.922L571.912 500.966C577.443 499.586 582.007 496.052 584.763 491.017C587.923 485.242 588.41 477.982 586.099 471.098L522.617 282.048C518.729 270.472 508.007 262.612 497.204 262.612V262.613Z" fill="#231F20"/>
<path d="M406.513 388.683L203.695 439.295L208.877 454.726L411.694 404.114L406.513 388.683ZM363.445 430.787L213.411 468.227L218.592 483.658L368.626 446.218L363.445 430.787Z" fill="#6D6E71"/>
<path d="M144.982 257.077L155.927 273.063L156.386 279.491L189.577 271.322L144.982 257.077Z" fill="url(#paint5_linear_202_282)"/>
<path opacity="0.5" d="M397.675 227.306L117.524 202.774L96.3173 209.791L376.468 234.323C377.83 234.442 379.109 234.291 380.288 233.901L401.494 226.884C400.315 227.274 399.037 227.425 397.675 227.306Z" fill="#F7FFA4"/>
<mask id="mask0_202_282" style="mask-type:luminance" maskUnits="userSpaceOnUse" x="404" y="407" width="237" height="293">
<path d="M551.928 407.485L416.642 499.502L404.734 637.767L580.509 699.271L640.53 541.936L639.101 437.522L551.928 407.485Z" fill="white"/>
</mask>
<g mask="url(#mask0_202_282)">
<path d="M417.699 618.239L420.26 528.766C420.059 535.757 425.078 542.413 433.241 544.963L430.68 634.436C422.517 631.886 417.499 625.23 417.699 618.239Z" fill="#414042"/>
<path d="M430.68 635.151C430.609 635.151 430.537 635.14 430.468 635.119C422.188 632.532 416.77 625.74 416.985 618.218L419.546 528.749V528.746C419.556 528.351 419.891 528.015 420.28 528.052C420.469 528.057 420.649 528.138 420.779 528.276C420.909 528.413 420.979 528.597 420.973 528.787C420.776 535.66 425.792 541.887 433.453 544.281C433.759 544.376 433.964 544.663 433.955 544.984L431.394 634.456C431.388 634.642 431.311 634.819 431.178 634.948C431.044 635.078 430.866 635.15 430.68 635.15L430.68 635.151ZM420.791 535.207L418.413 618.259C418.224 624.86 422.842 630.865 429.994 633.45L432.512 545.478C426.965 543.6 422.767 539.813 420.791 535.207Z" fill="#F7FFA4"/>
<path d="M625.281 469.176L581.285 573.498L578.723 662.97L622.721 558.649C623.442 556.937 623.812 555.187 623.862 553.456L626.423 463.984C626.374 465.714 626.004 467.464 625.281 469.176Z" fill="#808285"/>
<path d="M578.724 663.685C578.629 663.685 578.534 663.666 578.446 663.629C578.358 663.592 578.278 663.537 578.211 663.469C578.145 663.4 578.092 663.319 578.058 663.229C578.023 663.14 578.007 663.045 578.01 662.949L580.57 573.477C580.573 573.389 580.592 573.301 580.627 573.22L624.624 468.898C625.294 467.308 625.659 465.653 625.709 463.977V463.963C625.72 463.568 626.041 463.236 626.444 463.269C626.633 463.275 626.812 463.355 626.942 463.493C627.072 463.631 627.142 463.814 627.137 464.004L624.576 553.477C624.523 555.336 624.12 557.17 623.379 558.927L579.381 663.248C579.327 663.377 579.235 663.488 579.119 663.566C579.002 663.643 578.864 663.685 578.724 663.685ZM581.996 573.653L579.547 659.178L622.063 558.371C622.728 556.808 623.096 555.134 623.148 553.435L625.523 470.442L581.996 573.653Z" fill="#F7FFA4"/>
<path d="M556.231 583.385L553.67 672.857L430.68 634.436L433.241 544.963L556.231 583.385Z" fill="#414042"/>
<path d="M553.67 673.572C553.599 673.572 553.527 673.561 553.458 673.539L430.468 635.119C430.319 635.072 430.189 634.979 430.099 634.852C430.008 634.725 429.962 634.571 429.966 634.415L432.527 544.943C432.53 544.833 432.559 544.725 432.611 544.627C432.662 544.53 432.736 544.446 432.826 544.381C432.916 544.317 433.019 544.275 433.128 544.257C433.237 544.24 433.349 544.248 433.454 544.281L556.444 582.702C556.75 582.797 556.955 583.085 556.945 583.405L554.384 672.877C554.379 673.063 554.301 673.24 554.168 673.37C554.035 673.499 553.856 673.572 553.67 673.572ZM431.41 633.915L552.983 671.893L555.502 583.906L433.928 545.928L431.41 633.915Z" fill="#F7FFA4"/>
<path d="M581.285 573.498L578.724 662.97C575.078 671.614 563.862 676.041 553.671 672.857L556.232 583.385C566.423 586.568 577.64 582.142 581.285 573.498Z" fill="#6D6E71"/>
<path d="M560.421 674.598C558.108 674.598 555.756 674.257 553.457 673.539C553.308 673.493 553.179 673.399 553.088 673.272C552.997 673.145 552.951 672.992 552.956 672.836L555.517 583.364C555.52 583.254 555.548 583.145 555.6 583.048C555.652 582.95 555.725 582.866 555.815 582.802C555.905 582.738 556.008 582.696 556.117 582.678C556.226 582.661 556.338 582.669 556.443 582.702C566.277 585.773 577.125 581.521 580.626 573.22C580.691 573.066 580.807 572.939 580.955 572.862C581.104 572.785 581.274 572.762 581.437 572.798C581.6 572.834 581.745 572.925 581.848 573.057C581.95 573.188 582.004 573.352 581.998 573.519L579.437 662.991C579.435 663.08 579.416 663.167 579.381 663.249C576.429 670.249 568.683 674.599 560.42 674.599L560.421 674.598ZM554.4 672.329C564.046 675.081 574.521 670.889 578.014 662.813L580.485 576.478C575.859 583.399 566.067 586.785 556.919 584.329L554.4 672.329Z" fill="#F7FFA4"/>
<path d="M581.285 573.498C577.639 582.142 566.423 586.568 556.232 583.385L433.242 544.964C423.05 541.78 417.761 532.197 421.407 523.553L465.403 419.232C469.043 410.602 480.243 406.171 490.434 409.354L613.424 447.775C623.616 450.959 628.922 460.546 625.282 469.176L581.285 573.497L581.285 573.498Z" fill="#231F20"/>
<path d="M562.982 585.126C560.67 585.126 558.317 584.785 556.018 584.067L433.029 545.646C427.533 543.929 423.143 540.274 420.984 535.616C419.147 531.653 419.064 527.27 420.749 523.275L464.745 418.954C468.52 410.002 480.141 405.39 490.647 408.671L613.636 447.092C619.139 448.811 623.536 452.472 625.699 457.139C627.534 461.097 627.62 465.471 625.94 469.454L581.943 573.776C578.991 580.776 571.244 585.126 562.982 585.126ZM483.663 409.039C475.973 409.039 468.788 413.046 466.061 419.51L422.065 523.832C420.538 527.45 420.615 531.422 422.28 535.015C424.27 539.307 428.342 542.684 433.454 544.281L556.444 582.702C566.278 585.776 577.126 581.521 580.627 573.22L624.623 468.898C626.145 465.292 626.066 461.33 624.402 457.741C622.409 453.44 618.329 450.056 613.211 448.457L490.222 410.037C488.098 409.374 485.887 409.038 483.663 409.039Z" fill="#F7FFA4"/>
<path d="M535.793 496.85C549.243 496.85 560.146 485.937 560.146 472.475C560.146 459.014 549.243 448.101 535.793 448.101C522.343 448.101 511.44 459.014 511.44 472.475C511.44 485.937 522.343 496.85 535.793 496.85Z" fill="#F7FFA4"/>
<path d="M535.766 497.566C532.773 497.565 529.804 497.025 527.001 495.971C514.057 491.12 507.469 476.632 512.317 463.676C514.666 457.4 519.315 452.415 525.409 449.639C531.505 446.863 538.314 446.629 544.584 448.979C557.529 453.831 564.117 468.319 559.269 481.275C555.502 491.341 545.922 497.566 535.766 497.566V497.566ZM535.781 448.803C532.449 448.803 529.125 449.518 526.001 450.941C520.254 453.558 515.87 458.26 513.656 464.178C509.084 476.395 515.296 490.057 527.503 494.631C539.706 499.206 553.358 492.989 557.93 480.772C562.501 468.555 556.289 454.894 544.082 450.318C541.429 449.319 538.617 448.805 535.781 448.803Z" fill="#231F20"/>
<path d="M521.556 498.948L529.159 501.797C552.934 510.709 565.009 537.264 556.105 561.061L462.345 525.918C471.249 502.122 497.78 490.037 521.556 498.948Z" fill="#F7FFA4"/>
<path d="M556.102 561.777C556.018 561.777 555.934 561.763 555.851 561.732L462.092 526.589C461.914 526.522 461.771 526.388 461.692 526.215C461.614 526.043 461.607 525.846 461.673 525.668C466.049 513.973 474.714 504.682 486.072 499.509C497.43 494.337 510.119 493.899 521.805 498.279L529.407 501.129C553.53 510.17 565.806 537.169 556.772 561.312C556.721 561.449 556.63 561.566 556.51 561.649C556.391 561.732 556.248 561.777 556.103 561.777H556.102ZM463.267 525.502L555.678 560.14C559.657 548.988 559.153 536.943 554.241 526.141C549.231 515.121 540.233 506.714 528.905 502.468L521.303 499.619C509.975 495.374 497.673 495.796 486.663 500.812C475.87 505.727 467.585 514.479 463.266 525.502H463.267Z" fill="#231F20"/>
</g>
<path d="M342.231 488.756L467.549 445.999L546.751 354.944L519.993 273.53L342.231 488.756Z" fill="url(#paint6_linear_202_282)"/>
<path d="M298.533 311.337L375.502 332.448L386.205 318.522L324.438 303.786L298.533 311.337Z" fill="url(#paint7_linear_202_282)"/>
<path d="M325.689 179.921L364.087 170.623C375.925 167.757 388.057 174.091 392.481 185.45L406.061 213.853C409.01 220.021 404.026 227.027 397.237 226.255L353.469 221.277L325.689 179.921Z" fill="url(#paint8_linear_202_282)"/>
<path d="M6.95465 258.563L18.1528 250.649C13.5872 253.876 11.634 260.167 13.7496 266.468L2.55139 274.383C0.435227 268.081 2.38848 261.79 6.95465 258.563Z" fill="#F7FFA4"/>
<path d="M2.55143 275.098C2.40173 275.098 2.25582 275.051 2.13428 274.963C2.01274 274.876 1.92171 274.752 1.87405 274.61C-0.290136 268.165 1.58595 261.481 6.54254 257.978L17.7316 250.071L17.7407 250.065C17.8958 249.964 18.0838 249.928 18.2652 249.963C18.4466 249.998 18.6075 250.102 18.714 250.253C18.8205 250.404 18.8644 250.591 18.8365 250.773C18.8087 250.956 18.7112 251.121 18.5645 251.234C14.128 254.368 12.4652 260.4 14.427 266.24C14.4761 266.386 14.4768 266.544 14.429 266.69C14.3812 266.837 14.2875 266.964 14.1618 267.052L2.963 274.967C2.84124 275.053 2.69662 275.098 2.55086 275.098H2.55143ZM13.7908 254.607L7.36682 259.148C3.16479 262.117 1.45104 267.684 2.94814 273.227L12.9105 266.187C11.674 262.097 12.049 257.947 13.7914 254.607H13.7908Z" fill="#231F20"/>
<path d="M382.057 257.172L52.5775 339.392L41.3793 347.305L370.858 265.085C372.298 264.731 373.658 264.111 374.87 263.257L386.068 255.343C384.856 256.197 383.496 256.817 382.057 257.172H382.057Z" fill="#F7FFA4"/>
<path d="M41.3788 348.021C41.2271 348.021 41.0793 347.972 40.9569 347.883C40.8344 347.793 40.7437 347.667 40.6978 347.522C40.6519 347.377 40.6532 347.222 40.7015 347.078C40.7499 346.934 40.8427 346.809 40.9666 346.721L52.1654 338.808C52.2374 338.757 52.3191 338.719 52.4043 338.698L381.884 256.478C383.23 256.147 384.503 255.568 385.638 254.772L385.656 254.76C385.733 254.706 385.819 254.667 385.911 254.646C386.003 254.626 386.097 254.623 386.19 254.639C386.282 254.655 386.371 254.689 386.45 254.74C386.529 254.79 386.598 254.855 386.652 254.932C386.706 255.009 386.745 255.095 386.765 255.187C386.786 255.279 386.788 255.373 386.772 255.466C386.756 255.558 386.722 255.647 386.672 255.726C386.622 255.806 386.557 255.874 386.48 255.929L375.281 263.842C373.997 264.747 372.555 265.404 371.03 265.781L41.552 347.999C41.4953 348.013 41.4371 348.021 41.3788 348.021ZM52.8799 340.053L44.9063 345.688L370.685 264.391C372.039 264.058 373.318 263.475 374.458 262.672L380.73 258.24L52.8799 340.053Z" fill="#231F20"/>
<path d="M34.5283 328.348L23.3301 336.262L2.55139 274.383L13.7496 266.468L34.5283 328.348Z" fill="#F7FFA4"/>
<path d="M23.3301 336.977C23.1804 336.977 23.0346 336.93 22.9131 336.842C22.7916 336.755 22.7005 336.631 22.6527 336.489L1.87399 274.611C1.82492 274.465 1.82422 274.307 1.87201 274.161C1.9198 274.014 2.01352 273.887 2.13923 273.798L13.338 265.884C13.429 265.82 13.5337 265.778 13.6436 265.762C13.7536 265.746 13.8659 265.755 13.9716 265.79C14.0773 265.824 14.1734 265.883 14.2525 265.961C14.3315 266.04 14.3913 266.135 14.4269 266.241L35.2056 328.12C35.2547 328.266 35.2554 328.424 35.2076 328.57C35.1598 328.717 35.0661 328.844 34.9404 328.933L23.7422 336.846C23.6204 336.932 23.4758 336.977 23.3301 336.977ZM3.39795 274.66L23.7022 335.124L33.6817 328.072L13.378 267.607L3.39795 274.66Z" fill="#231F20"/>
<path d="M52.5774 339.392L41.3792 347.306C34.0738 349.129 25.9893 344.182 23.3301 336.262L34.5283 328.348C37.1881 336.268 45.272 341.214 52.5774 339.392Z" fill="#F7FFA4"/>
<path d="M38.297 348.396C31.633 348.396 25.0353 343.585 22.6533 336.489C22.6042 336.343 22.6035 336.185 22.6513 336.039C22.6991 335.893 22.7928 335.766 22.9185 335.677L34.1167 327.763C34.2076 327.699 34.3123 327.657 34.4224 327.64C34.5325 327.623 34.6449 327.633 34.7508 327.667C34.8566 327.702 34.9529 327.761 35.0319 327.839C35.1109 327.918 35.1704 328.014 35.2057 328.12C37.746 335.685 45.4658 340.432 52.4048 338.697C52.5665 338.657 52.7372 338.674 52.8874 338.747C53.0375 338.819 53.1576 338.942 53.227 339.093C53.2964 339.245 53.3106 339.416 53.2673 339.577C53.2239 339.738 53.1257 339.879 52.9896 339.975L41.7914 347.889C41.7192 347.94 41.6382 347.977 41.5525 347.998C40.4772 348.267 39.386 348.395 38.297 348.395V348.396ZM24.1847 336.534C26.8736 343.761 34.3202 348.251 41.0791 346.643L49.8011 340.479C49.6987 340.482 49.5976 340.483 49.4958 340.483C43.1159 340.483 36.7971 336.073 34.179 329.471L24.1853 336.534L24.1847 336.534Z" fill="#231F20"/>
<path d="M351.644 166.6C358.949 164.778 367.033 169.724 369.693 177.644L390.471 239.524C393.131 247.444 389.362 255.348 382.057 257.172L52.5774 339.392C45.272 341.215 37.1875 336.268 34.5283 328.348L13.7496 266.468C11.0898 258.548 14.8591 250.644 22.1645 248.82L351.644 166.6Z" fill="#F7FFA4"/>
<path d="M49.4952 340.482C42.8317 340.482 36.234 335.671 33.8514 328.576L13.0727 266.696C11.6482 262.454 11.9564 257.964 13.9188 254.378C15.6502 251.214 18.5175 248.994 21.9913 248.126L351.47 165.906C359.114 163.998 367.598 169.161 370.37 177.416L391.148 239.295C392.573 243.538 392.264 248.029 390.301 251.615C388.57 254.778 385.703 256.998 382.23 257.865L52.7506 340.086C51.6857 340.35 50.5924 340.484 49.4952 340.482ZM354.745 166.937C353.764 166.937 352.783 167.053 351.817 167.294L22.3377 249.514C19.2543 250.284 16.71 252.255 15.1723 255.065C13.4009 258.302 13.1293 262.375 14.4269 266.24L35.2056 328.12C37.7459 335.685 45.4658 340.432 52.4048 338.697L381.884 256.477C384.967 255.708 387.511 253.737 389.048 250.928C390.821 247.69 391.092 243.616 389.795 239.751L369.016 177.872C366.829 171.36 360.808 166.937 354.745 166.937Z" fill="#231F20"/>
<path d="M351.644 166.6C358.949 164.778 367.033 169.724 369.693 177.644L390.471 239.524C393.131 247.444 389.362 255.348 382.057 257.172L52.5774 339.392C45.272 341.215 37.1875 336.268 34.5283 328.348L13.7496 266.468C11.0898 258.548 14.8591 250.644 22.1645 248.82L351.644 166.6Z" fill="#F7FFA4"/>
<path d="M49.4952 340.482C42.8317 340.482 36.234 335.671 33.8514 328.576L13.0727 266.696C11.6482 262.454 11.9564 257.964 13.9188 254.378C15.6502 251.214 18.5175 248.994 21.9913 248.126L351.47 165.906C359.114 163.998 367.598 169.161 370.37 177.416L391.148 239.295C392.573 243.538 392.264 248.029 390.301 251.615C388.57 254.778 385.703 256.998 382.23 257.865L52.7506 340.086C51.6857 340.35 50.5924 340.484 49.4952 340.482ZM354.745 166.937C353.764 166.937 352.783 167.053 351.817 167.294L22.3377 249.514C19.2543 250.284 16.71 252.255 15.1723 255.065C13.4009 258.302 13.1293 262.375 14.4269 266.24L35.2056 328.12C37.7459 335.685 45.4658 340.432 52.4048 338.697L381.884 256.477C384.967 255.708 387.511 253.737 389.048 250.928C390.821 247.69 391.092 243.616 389.795 239.751L369.016 177.872C366.829 171.36 360.808 166.937 354.745 166.937Z" fill="#231F20"/>
<path d="M75.4746 260.623C71.6573 261.575 69.6829 265.68 71.0639 269.793C72.4421 273.898 76.655 276.459 80.4724 275.506C84.2823 274.555 86.2567 270.451 84.8779 266.346C83.4968 262.233 79.2845 259.672 75.4746 260.622" fill="#FAFF48"/>
<path d="M78.8558 276.419C75.2374 276.419 71.6676 273.836 70.3872 270.021C69.6195 267.737 69.7892 265.313 70.8525 263.369C71.8042 261.629 73.3848 260.407 75.3015 259.929C79.4635 258.892 84.0599 261.668 85.5553 266.118C86.3213 268.399 86.151 270.822 85.0877 272.764C84.1365 274.502 82.5588 275.722 80.6456 276.2C80.0601 276.345 79.4591 276.418 78.8558 276.418V276.419ZM77.1055 261.139C76.6173 261.139 76.1292 261.197 75.6479 261.317C74.8991 261.501 74.1971 261.84 73.5871 262.311C72.9771 262.783 72.4726 263.377 72.1061 264.056C71.2343 265.651 71.1011 267.659 71.7414 269.566C73.0029 273.322 76.842 275.677 80.2998 274.813C81.8214 274.433 83.0767 273.462 83.8347 272.078C84.7065 270.484 84.8408 268.478 84.2017 266.575C83.115 263.338 80.1209 261.14 77.1061 261.14L77.1055 261.139Z" fill="#231F20"/>
<path d="M99.0371 254.743C95.2198 255.696 93.2454 259.801 94.6264 263.914C96.0046 268.019 100.218 270.579 104.035 269.626C107.845 268.676 109.819 264.571 108.44 260.466C107.059 256.353 102.847 253.793 99.0371 254.743Z" fill="#FAFF48"/>
<path d="M102.418 270.538C98.7998 270.538 95.23 267.956 93.9496 264.141C93.1819 261.856 93.3522 259.432 94.4155 257.488C95.3678 255.748 96.9478 254.527 98.8644 254.049C103.027 253.01 107.623 255.787 109.118 260.237C109.884 262.518 109.714 264.941 108.651 266.883C107.7 268.621 106.122 269.842 104.209 270.319C103.623 270.465 103.022 270.538 102.418 270.538L102.418 270.538ZM100.668 255.259C100.18 255.259 99.6916 255.317 99.2103 255.437C97.6846 255.818 96.427 256.79 95.6685 258.176C94.7962 259.77 94.663 261.779 95.3032 263.685C96.5642 267.441 100.403 269.797 103.862 268.932C105.384 268.553 106.639 267.581 107.397 266.197C108.269 264.603 108.403 262.598 107.764 260.694C106.677 257.458 103.683 255.26 100.668 255.26L100.668 255.259Z" fill="#231F20"/>
<path d="M122.6 248.863C118.782 249.816 116.816 253.919 118.197 258.032C119.575 262.137 123.781 264.7 127.597 263.747C131.415 262.795 133.382 258.692 132.004 254.587C130.622 250.474 126.417 247.91 122.6 248.863Z" fill="#FAFF48"/>
<path d="M125.984 264.658C122.368 264.658 118.801 262.075 117.519 258.259C116.751 255.972 116.92 253.546 117.983 251.603C118.933 249.866 120.512 248.646 122.425 248.169C126.586 247.131 131.185 249.907 132.679 254.357C133.446 256.64 133.276 259.063 132.214 261.004C131.263 262.741 129.684 263.962 127.769 264.44C127.18 264.587 126.581 264.657 125.983 264.657L125.984 264.658ZM122.772 249.557C122.025 249.74 121.324 250.078 120.715 250.549C120.106 251.019 119.603 251.612 119.237 252.29C118.365 253.883 118.232 255.893 118.873 257.803C120.135 261.56 123.97 263.912 127.424 263.052C128.171 262.869 128.872 262.53 129.481 262.06C130.091 261.589 130.595 260.995 130.961 260.318C131.833 258.726 131.966 256.719 131.326 254.814C130.063 251.053 126.225 248.695 122.772 249.557V249.557Z" fill="#231F20"/>
<path d="M382.057 257.172L52.5775 339.392C45.2721 341.215 37.1881 336.268 34.5283 328.349L13.7496 266.469C11.634 260.167 13.5873 253.876 18.1529 250.65L6.95467 258.563C2.38908 261.79 0.435824 268.081 2.55142 274.383L23.3301 336.262C25.9893 344.182 34.0739 349.129 41.3793 347.305L370.858 265.085C372.298 264.731 373.658 264.111 374.87 263.257L386.068 255.343C384.856 256.197 383.496 256.817 382.057 257.172H382.057Z" fill="url(#paint9_linear_202_282)"/>
<path d="M226.603 281.132C226.424 289.419 230.162 295.871 232.489 299.438L259.642 293.716L226.603 281.132Z" fill="url(#paint10_linear_202_282)"/>
<mask id="mask1_202_282" style="mask-type:luminance" maskUnits="userSpaceOnUse" x="226" y="0" width="415" height="351">
<path d="M296.109 68.1543C291.32 67.3081 286.439 68.8912 284.679 72.6661C282.425 77.5005 283.977 83.8746 292.061 85.238C279.03 96.0249 271.179 278.117 258.952 276.077C246.781 274.047 241.696 273.146 236.6 271.433C228.565 268.732 221.986 282.254 230.282 287.577C231.899 288.615 233.922 289.269 236.6 290.094C247.086 293.328 271.83 304.502 295.924 308.238C298.643 308.659 357.031 320.945 415.218 321.688C430.325 321.881 445.418 310.625 459.52 310.795C500.652 311.292 533.35 311.653 533.35 311.653L544.582 343.396C544.582 343.396 547.036 353.863 556.326 348.725C570.171 341.068 584.974 336.541 597.813 327.378C622.661 309.646 639.123 280.209 640.816 246.145C642.435 213.568 620.106 208.115 613.48 181.491C601.945 135.152 541.318 39.7933 528.992 33.7121C492.999 15.9538 465.799 0.0326547 423.597 0.129344C390.826 0.204865 343.59 19.4478 320.268 41.7625C313.158 48.5657 305.125 69.7471 296.109 68.1543Z" fill="white"/>
</mask>
<g mask="url(#mask1_202_282)">
<path d="M301.188 69.0434L301.251 69.0565L301.317 69.0674L301.188 69.0434ZM570.465 160.104C570.458 160.151 570.448 160.199 570.441 160.246C570.405 160.495 570.389 160.606 570.465 160.104ZM381.839 18.4741C381.91 18.4501 381.983 18.4278 382.055 18.4043C382.18 18.362 382.302 18.3133 382.428 18.271L381.839 18.4741ZM258.82 67.9821C258.888 67.9718 258.956 67.9598 259.025 67.9495C258.738 67.993 258.726 67.9958 258.82 67.9821ZM279.033 66.8069L279.063 66.8081C279.245 66.8109 279.425 66.8081 279.606 66.8109L279.033 66.8069Z" fill="#121011"/>
<path d="M621.853 232.897L621.776 232.48C621.572 231.398 621.35 230.32 621.109 229.246C620.698 227.415 620.235 225.593 619.713 223.79C618.565 219.826 617.136 215.948 615.437 212.187C611.862 204.267 607.097 196.907 601.427 190.329C594.428 182.213 586.078 175.257 576.93 169.692C575.845 169.028 574.75 168.381 573.646 167.75C572.556 167.137 571.457 166.54 570.35 165.958C569.451 165.483 569.553 165.454 569.715 164.574C569.98 163.136 570.225 161.694 570.442 160.248C570.478 159.996 570.535 159.606 570.542 159.565C570.583 159.275 570.63 158.984 570.667 158.694L570.818 157.494C570.99 156.132 571.141 154.769 571.269 153.402C571.586 150.037 571.767 146.651 571.786 143.27C571.819 138.053 571.541 132.839 570.952 127.656C569.337 113.547 565.875 99.9023 559.697 87.0734C547.124 60.9644 524.91 40.3334 499.471 26.9245C471.764 12.3209 439.523 6.73691 408.567 11.6961C399.556 13.1396 390.714 15.5391 382.057 18.4049C367.956 23.1976 354.749 29.9258 342.694 38.6908C330.741 47.3815 320.618 58.1455 312.097 70.1825C311.41 70.7604 310.991 71.1791 309.935 70.9263C309.039 70.7105 308.141 70.5008 307.241 70.2969C305.253 69.8461 303.257 69.433 301.253 69.0577C293.931 67.7018 286.508 66.9649 279.065 66.8098C276.448 66.7726 273.835 66.7812 271.218 66.8888C268.786 66.9889 266.353 67.1462 263.931 67.3865C262.745 67.5004 261.559 67.6285 260.376 67.7744C260.068 67.8127 259.759 67.8517 259.45 67.8934C259.332 67.9094 258.959 67.9638 258.821 67.9832C253.598 68.7739 248.431 69.7282 243.31 71.0476L244.2 70.8096C219.294 76.8266 195.974 90.7402 179.328 110.296C166.755 125.066 158.041 142.923 154.671 162.06C151.311 181.147 153.214 201.163 160.249 219.226C169.567 243.147 186.954 263.639 208.798 277.071C216.962 282.123 225.66 286.312 234.735 289.452C239.314 291.036 243.967 292.403 248.692 293.482C249.898 293.757 251.107 294.018 252.319 294.261C253.286 294.455 254.735 294.986 255.806 294.916L327.32 307.273L431.869 325.338L488.207 335.073L495.489 336.331L501.803 337.422L504.012 337.804C529.191 342.029 555.797 337.504 577.829 324.448C601.218 310.587 618.537 287.684 622.357 260.407C622.982 255.942 623.219 251.446 623.197 246.94C623.197 242.281 622.641 237.524 621.856 232.898L621.853 232.897ZM360.758 35.0893C359.743 35.6863 358.736 36.2961 357.737 36.9184C358.723 36.2999 359.717 35.6099 360.758 35.0893ZM353.858 39.4403L353.557 39.6452C354.754 38.8304 355.955 37.9848 357.205 37.2548C355.979 38.0318 354.78 38.8796 353.557 39.6452L353.858 39.4403H353.858ZM353.892 39.4174C354.218 39.1955 354.08 39.2887 353.892 39.4174ZM353.512 39.6761C352.371 40.675 350.926 41.4714 349.693 42.3776C350.949 41.4542 352.223 40.5536 353.512 39.6761ZM604.958 258.187C602.794 272.425 595.92 285.833 585.912 296.174C575.546 306.881 562.267 314.323 548.044 318.568C533.834 322.809 518.984 322.734 504.491 320.23L483.773 316.65L446.7 310.245L409.637 303.841L372.584 297.439L335.539 291.038L298.502 284.639L261.472 278.24C248.39 275.98 235.726 272.032 224.03 265.678C212.049 259.19 201.384 250.565 192.792 239.96C183.369 228.328 176.559 214.604 173.176 200.008C171.521 192.867 170.686 185.536 170.723 178.205C170.767 169.608 172.456 160.925 175.09 152.76C183.665 126.177 204.845 105.035 230.089 93.8732C240.083 89.4541 250.616 86.4172 261.458 85.0292C266.296 84.4083 271.168 84.0974 276.046 84.0984C279.419 84.1012 282.79 84.2521 286.15 84.5509C287.186 84.643 289.884 84.928 290.197 84.9503C290.718 85.0138 293.165 85.3433 293.869 85.4486C295.305 85.6643 296.735 85.9132 298.162 86.1844C299.762 86.4922 301.356 86.8291 302.946 87.185C304.004 87.4219 305.628 87.8984 306.79 88.0541C311.128 88.6342 315.809 88.0077 319.78 85.9624C323.15 84.222 325.376 81.6251 327.56 78.6134C335.711 67.3722 345.654 57.602 357.116 49.777C369.404 41.389 383.577 35.8708 397.923 32.1629C406.933 29.8337 415.995 28.3851 425.303 28.0962C434.373 27.8133 443.448 28.4362 452.394 29.9556C478.096 34.3249 502.448 46.3207 521.038 64.6838C541.877 85.2684 554.606 113.463 554.274 142.949C554.22 147.595 553.868 152.232 553.221 156.832C552.776 160.013 551.893 163.141 552.104 166.376C552.364 170.35 553.914 174.129 556.518 177.14C558.817 179.797 561.708 181.241 564.706 182.91C579.148 190.951 591.238 202.758 598.584 217.669C604.687 230.059 606.98 244.517 604.957 258.187H604.958Z" fill="#121011"/>
<path d="M621.852 232.895V232.897C621.887 233.087 621.909 233.208 621.852 232.895Z" fill="#121011"/>
<path d="M255.148 73.6267C178.521 89.6818 140.252 166.878 176.4 232.474C135.423 165.78 176.952 85.2661 258.688 72.9379C257.626 73.1444 256.207 73.4047 255.148 73.6267Z" fill="#656565"/>
<path d="M400.826 17.7921C398.208 19.2516 394.286 20.2689 391.475 21.3107C369.856 29.3257 354.593 39.997 348.847 44.0139C333.873 54.4827 325.335 65.3669 316.296 76.8901C320.019 56.3416 372.545 19.5955 401.451 17.3173C401.264 17.4597 401.032 17.6771 400.826 17.7921Z" fill="#3D3A3B"/>
<path d="M395.388 19.4822C372.285 30.2863 358.835 36.9798 355.038 39.5627C342.601 48.024 333.587 55.2471 321.59 69.1607C321.125 69.6996 320.442 70.3627 319.908 70.833C326.282 50.6151 380.581 18.4432 396.777 18.7378C396.36 18.9616 395.816 19.2819 395.388 19.4822Z" fill="#514E4E"/>
<path d="M386.594 22.3354C385.702 23.2307 383.945 23.629 382.799 24.161C368.535 30.7863 359.717 36.0624 354.832 39.3219C351.748 41.3804 342.36 47.644 333.085 56.1916C330.127 58.9173 328.414 60.3602 327.946 60.5204C336.751 47.4386 363.78 28.1676 386.773 21.9578C386.719 22.071 386.683 22.2461 386.594 22.3354Z" fill="#696667"/>
<path d="M380.683 24.7515C370.122 31.3482 358.611 36.3062 348.398 43.5042C342.834 47.425 338.137 52.4603 332.304 56.0349C340.664 44.7091 365.09 28.8617 381.617 24.0415C381.337 24.2543 380.982 24.565 380.683 24.7515Z" fill="#7B7879"/>
<path d="M284.215 289.481L288.548 289.982C291.372 290.318 295.523 290.761 300.787 291.436L319.785 293.807L331.471 295.265C335.584 295.787 339.844 296.722 344.336 297.42L475.816 319.561L511.439 325.545C523.002 327.393 534.611 326.758 545.431 324.232C556.248 321.71 566.225 317.306 574.715 311.716C583.218 306.13 590.216 299.343 595.4 292.2C598.059 288.66 600.002 284.899 601.941 281.384C603.821 277.828 605.257 274.271 606.389 270.847C606.908 269.098 607.41 267.487 607.788 265.777C608.131 264.157 608.437 262.553 608.633 260.994C609.051 257.881 609.201 254.976 609.225 252.346C609.239 247.082 608.928 242.914 608.699 240.082C608.443 237.248 607.985 235.223 608.306 235.736C608.58 236.173 608.766 236.695 609.28 239.496C609.795 242.297 610.42 246.944 610.826 252.292C611.027 254.964 611.127 257.948 610.967 261.207C610.899 262.836 610.727 264.529 610.5 266.315C610.275 268.008 609.877 269.861 609.495 271.696C608.617 275.381 607.423 279.262 605.749 283.204C604.076 287.153 601.574 290.926 598.879 294.739C593.382 302.312 586.001 309.457 577.079 315.318C568.17 321.184 557.734 325.788 546.411 328.429C535.118 331.078 522.846 331.734 510.826 329.812L475.102 323.812L343.621 301.671C339.149 300.859 334.818 300.346 330.76 299.494L319.241 297.044L300.514 293.061C295.319 291.975 291.252 291.035 288.474 290.427L284.215 289.482V289.481Z" fill="#3D3A3B"/>
<path d="M309.188 293.686L313.095 294.152L324.133 295.502L341.269 297.69L351.808 299.042C355.51 299.57 359.362 300.366 363.414 301.005L482.061 320.986L498.219 323.707L506.259 325.061L510.262 325.734L514.222 326.316C524.628 327.635 535.195 326.951 544.982 324.708C554.793 322.472 563.887 318.7 571.799 313.978C579.697 309.221 586.4 303.512 591.673 297.474C594.289 294.437 596.585 291.35 598.522 288.258C599.424 286.675 600.355 285.16 601.131 283.62L602.345 281.376L603.434 279.15C604.158 277.691 604.707 276.212 605.309 274.811C605.795 273.37 606.352 272.002 606.734 270.641C607.539 267.92 608.234 265.416 608.645 263.097C609.495 258.45 609.562 255.423 609.65 252.865C609.739 250.302 609.429 247.474 609.798 248.191C610.25 249.069 610.352 249.689 610.499 252.57C610.638 255.268 610.843 258.468 610.509 263.334C610.416 264.621 610.282 265.904 610.105 267.181C609.957 268.486 609.577 269.901 609.294 271.329C608.995 272.774 608.521 274.234 608.115 275.779C607.595 277.281 607.124 278.874 606.476 280.455C604.097 286.892 599.803 293.453 594.366 299.826C588.844 306.149 581.851 312.099 573.635 317.046C565.407 321.958 555.967 325.872 545.775 328.195C535.583 330.52 524.685 331.247 513.714 329.856L509.67 329.261L505.667 328.587L497.627 327.233L481.469 324.512L362.822 304.532C358.784 303.809 354.884 303.3 351.213 302.586L340.812 300.412L323.904 296.867L313.032 294.527L309.188 293.687L309.188 293.686Z" fill="#514E4E"/>
<path d="M325.078 296.363L338.891 298.125L354.729 300.232L364.47 301.536C367.892 302.044 371.46 302.757 375.207 303.354L484.97 321.838L499.918 324.356L507.356 325.608L511.027 326.218L514.731 326.751C524.399 327.89 534.199 327.33 543.329 325.442C552.489 323.567 561.002 320.275 568.549 316.245C576.062 312.136 582.603 307.246 587.898 301.995C593.218 296.763 597.332 291.231 600.271 285.954C601.048 284.659 601.659 283.329 602.362 282.103C603.005 280.848 603.573 279.609 604.145 278.43L605.576 274.944L606.699 271.694L608.317 266.096C608.78 264.457 609.093 263.033 609.332 261.873C609.828 259.552 609.9 257.069 610.203 255.856C610.424 254.97 610.65 259.247 610.424 261.912C610.222 264.291 609.987 267.938 608.794 272.293C607.658 276.641 605.935 281.919 602.803 287.397C602.009 288.757 601.171 290.149 600.227 291.528C599.337 292.945 598.292 294.31 597.248 295.732C595.072 298.502 592.688 301.354 589.902 304.032C584.416 309.473 577.658 314.523 569.907 318.76C562.124 322.92 553.352 326.309 543.909 328.242C534.467 330.186 524.453 330.779 514.323 329.583L510.619 329.05L506.88 328.429L499.443 327.176L484.494 324.659L374.732 306.175C370.995 305.511 367.391 305.016 363.991 304.376L354.361 302.418L338.705 299.221L325.077 296.363H325.078Z" fill="#646162"/>
<path d="M346.247 299.927L358.835 301.614L373.273 303.613L382.15 304.861L391.943 306.535L492.083 323.398L505.72 325.695C510.25 326.473 514.758 327.231 519.204 327.513C528.164 328.103 537.057 327.273 545.392 325.356C549.483 324.397 553.509 323.178 557.446 321.708C561.296 320.244 564.955 318.543 568.42 316.707C574.918 313.226 580.954 308.942 586.386 303.956C591.302 299.216 594.947 294.73 598.101 290.125C601.251 285.527 603.96 280.033 605.48 276.314C606.962 272.581 607.664 270.326 608.174 268.227C608.685 266.123 609.267 264.117 609.539 264.793C609.849 265.563 609.667 266.131 609.28 268.264C608.893 270.4 607.752 274.606 606.439 278.456C605.098 282.293 603.099 285.858 600.13 290.716C597.112 295.523 593.043 300.8 587.843 305.53C582.277 310.64 576.092 315.031 569.433 318.598C565.888 320.477 562.143 322.217 558.204 323.715C554.177 325.219 550.058 326.465 545.873 327.446C537.347 329.408 528.245 330.258 519.062 329.653C514.433 329.357 509.895 328.586 505.364 327.81L491.727 325.514L391.587 308.65L381.786 307.025L372.989 305.297L358.693 302.456L346.247 299.927Z" fill="#767475"/>
<path d="M357.569 301.834L369.379 303.555L382.935 305.53C385.55 305.924 388.342 306.29 391.268 306.774L400.476 308.334L494.61 324.187L507.429 326.345C511.662 327.111 515.942 327.703 520.142 327.918C524.334 328.166 528.539 328.098 532.722 327.715C536.855 327.336 540.93 326.759 544.862 325.841C552.444 324.143 559.785 321.509 566.718 317.999C573.304 314.629 579.161 310.708 584.048 306.492C588.451 302.644 592.455 298.36 595.998 293.707C599.211 289.545 601.556 285.655 603.23 282.26C604.926 278.873 605.733 276.903 606.403 274.985C607.032 273.049 607.252 272.326 607.957 271.267C608.389 270.617 607.733 272.915 607.178 274.875C606.58 276.821 605.655 279.711 604.079 283.184C602.524 286.664 600.158 290.086 597.066 294.425C593.958 298.741 590.01 303.356 584.975 307.582C580.003 311.869 574.053 315.854 567.364 319.275C560.326 322.839 552.872 325.514 545.174 327.237C541.181 328.169 537.044 328.756 532.845 329.141C528.596 329.53 524.323 329.599 520.064 329.347C515.732 329.121 511.466 328.528 507.193 327.756L494.373 325.598L400.239 309.745L391.028 308.204C388.104 307.703 385.347 307.133 382.747 306.649L369.292 304.077L357.569 301.834V301.834Z" fill="#7E7C7D"/>
</g>
<path d="M658.121 63.4726C659.892 49.6786 654.42 35.0905 645.509 24.6983C636.692 14.4155 624.137 7.10598 610.774 4.77169C596.888 1.99229 581.754 5.70655 570.45 14.1117C565.188 18.0245 560.713 23.1467 557.351 28.761L553.322 35.4915L540.32 57.2078C538.613 60.0582 537.33 62.5956 537.739 66.133C538.577 73.3567 543.655 79.895 548.381 85.1128C558.463 96.2453 571.34 105.032 584.771 111.614C590.976 114.655 597.435 117.251 604.11 119.061C609.509 120.525 615.182 121.565 620.797 121.23C623.972 121.04 627.362 120.382 630.011 118.523C631.837 117.24 632.842 115.39 633.956 113.529L640.709 102.249L647.828 90.3586C651.656 83.9645 655.242 77.7701 656.983 70.44C657.532 68.14 657.821 65.8138 658.121 63.4721C658.32 61.9176 658.099 63.6437 658.121 63.4721L658.121 63.4726Z" fill="#FAFF48"/>
<path d="M618.624 121.974C614.294 121.974 609.561 121.244 603.934 119.718C597.649 118.014 591.283 115.563 584.474 112.225C569.616 104.944 557.304 95.9763 547.879 85.5698C543.303 80.5191 537.94 73.7542 537.066 66.2113C536.626 62.4232 538.016 59.7342 539.738 56.8581L556.77 28.4108C560.282 22.5459 564.873 17.4122 570.046 13.5658C581.75 4.86199 597.026 1.32623 610.908 4.10449C624.236 6.43248 637.043 13.7786 646.026 24.2554C655.548 35.361 660.323 49.7174 658.885 62.8129C658.885 62.8455 658.884 62.8781 658.88 62.9113L658.861 63.056L658.797 63.5526V63.5601L658.765 63.8112C658.479 66.0408 658.183 68.3465 657.646 70.599C655.935 77.8003 652.598 83.7196 648.413 90.7093L634.271 114.332C633.253 116.046 632.199 117.818 630.403 119.081C628.037 120.741 624.909 121.667 620.839 121.909C620.102 121.952 619.364 121.974 618.626 121.974L618.624 121.974ZM601.393 4.53587C590.623 4.53587 579.697 8.08364 570.856 14.6574C565.824 18.3991 561.356 23.3967 557.935 29.1105L540.904 57.5579C539.255 60.3109 538.025 62.6853 538.415 66.0551C539.245 73.2136 544.447 79.7559 548.885 84.6561C558.194 94.9344 570.369 103.799 585.071 111.004C591.801 114.303 598.088 116.724 604.288 118.405C610.742 120.156 615.974 120.836 620.757 120.552C624.568 120.325 627.468 119.479 629.621 117.968C631.179 116.873 632.113 115.302 633.101 113.637L647.246 90.0107C651.37 83.1228 654.657 77.2963 656.323 70.2843C656.844 68.1022 657.121 65.9338 657.416 63.639L657.448 63.3901V63.3873C659.081 50.662 654.31 36.0075 644.994 25.1422C636.213 14.9011 623.698 7.72034 610.658 5.44212C607.607 4.83611 604.504 4.53275 601.394 4.53644L601.393 4.53587Z" fill="#231F20"/>
<path d="M658.121 63.4726C659.892 49.6786 654.42 35.0905 645.509 24.6983C636.692 14.4155 624.137 7.10598 610.774 4.77169C596.888 1.99229 581.754 5.70655 570.45 14.1117C565.188 18.0245 560.713 23.1467 557.351 28.761L553.322 35.4915L540.32 57.2078C538.613 60.0582 537.33 62.5956 537.739 66.133C538.577 73.3567 543.655 79.895 548.381 85.1128C558.463 96.2453 571.34 105.032 584.771 111.614C590.976 114.655 597.435 117.251 604.11 119.061C609.509 120.525 615.182 121.565 620.797 121.23C623.972 121.04 627.362 120.382 630.011 118.523C631.837 117.24 632.842 115.39 633.956 113.529L640.709 102.249L647.828 90.3586C651.656 83.9645 655.242 77.7701 656.983 70.44C657.532 68.14 657.821 65.8138 658.121 63.4721C658.32 61.9176 658.099 63.6437 658.121 63.4721L658.121 63.4726Z" fill="url(#paint11_linear_202_282)"/>
<path d="M361.117 345.553L535.179 58.6833L552.968 51.8784L378.905 338.748L361.117 345.553Z" fill="#F7F600"/>
<path d="M361.117 346.268C360.99 346.268 360.865 346.235 360.756 346.171C360.647 346.107 360.556 346.015 360.494 345.904C360.432 345.793 360.4 345.668 360.402 345.541C360.404 345.415 360.44 345.291 360.506 345.182L534.569 58.3125C534.651 58.177 534.776 58.0723 534.924 58.015L552.713 51.2096C552.852 51.1565 553.004 51.1483 553.148 51.186C553.292 51.2237 553.421 51.3055 553.516 51.4199C553.611 51.5344 553.669 51.6757 553.68 51.8243C553.691 51.9728 553.655 52.1212 553.578 52.2486L379.516 339.118C379.433 339.254 379.308 339.359 379.16 339.416L361.372 346.221C361.29 346.252 361.204 346.268 361.117 346.268V346.268ZM535.663 59.264L362.81 344.139L378.422 338.167L551.274 53.2921L535.663 59.264Z" fill="#F7FFA4"/>
<path d="M451.556 378.499L625.618 91.6293L637.918 114.898L463.855 401.767L451.556 378.499Z" fill="#F7F600"/>
<path d="M463.855 402.483H463.834C463.708 402.479 463.585 402.442 463.478 402.375C463.371 402.308 463.283 402.214 463.224 402.103L450.925 378.834C450.867 378.725 450.838 378.603 450.842 378.479C450.845 378.355 450.881 378.235 450.945 378.129L625.008 91.2597C625.073 91.1517 625.166 91.0629 625.277 91.0025C625.388 90.9421 625.513 90.9122 625.639 90.9158C625.765 90.9195 625.888 90.9566 625.995 91.0233C626.103 91.0901 626.19 91.1841 626.249 91.2958L638.55 114.564C638.667 114.787 638.659 115.055 638.529 115.27L464.466 402.139C464.402 402.244 464.313 402.331 464.206 402.391C464.099 402.451 463.978 402.482 463.855 402.483ZM452.377 378.524L463.898 400.319L637.097 114.874L625.575 93.078L452.377 378.524Z" fill="#F7FFA4"/>
<path d="M416.362 352.393L590.424 65.5237L625.618 91.6293L451.556 378.499L416.362 352.393Z" fill="#F7F600"/>
<path d="M451.556 379.214C451.404 379.214 451.254 379.165 451.13 379.073L415.936 352.968C415.793 352.862 415.695 352.706 415.661 352.531C415.627 352.356 415.659 352.175 415.751 352.023L589.814 65.1529C589.866 65.0676 589.934 64.994 590.016 64.9369C590.097 64.8798 590.19 64.8404 590.287 64.8213C590.385 64.8021 590.485 64.8037 590.582 64.8258C590.679 64.8479 590.77 64.8902 590.85 64.9498L626.044 91.056C626.34 91.2757 626.42 91.6859 626.229 92.0011L452.166 378.87C452.103 378.975 452.013 379.062 451.906 379.122C451.799 379.183 451.678 379.214 451.556 379.214ZM417.311 352.207L451.352 377.458L624.669 91.8158L590.628 66.5649L417.311 352.207Z" fill="#F7FFA4"/>
<path d="M378.905 338.748L552.968 51.8784L590.424 65.5237L416.362 352.393L378.905 338.748Z" fill="#F7F600"/>
<path d="M416.362 353.109C416.28 353.109 416.198 353.095 416.117 353.066L378.661 339.42C378.562 339.384 378.472 339.326 378.398 339.251C378.323 339.176 378.267 339.085 378.232 338.985C378.197 338.886 378.184 338.78 378.195 338.674C378.206 338.569 378.24 338.468 378.295 338.377L552.357 51.5076C552.443 51.3661 552.575 51.2588 552.731 51.2039C552.887 51.149 553.057 51.15 553.212 51.2067L590.669 64.852C590.768 64.8882 590.858 64.946 590.932 65.0212C591.006 65.0964 591.063 65.1871 591.098 65.2868C591.133 65.3866 591.146 65.4928 591.135 65.598C591.124 65.7031 591.09 65.8045 591.035 65.8949L416.972 352.765C416.909 352.87 416.819 352.957 416.712 353.017C416.605 353.077 416.484 353.109 416.362 353.109ZM379.968 338.375L416.055 351.521L589.362 65.8978L553.275 52.7514L379.968 338.375Z" fill="#F7FFA4"/>
<path d="M416.362 352.393L451.556 378.499L463.855 401.767L446.056 408.568L408.6 394.924L373.416 368.821L361.117 345.553L378.905 338.748L416.362 352.393Z" fill="#F7F600"/>
<path d="M446.056 409.284C445.973 409.284 445.891 409.269 445.811 409.241L408.355 395.595C408.29 395.572 408.229 395.539 408.174 395.498L372.991 369.395C372.905 369.332 372.835 369.25 372.785 369.156L360.486 345.887C360.439 345.798 360.411 345.699 360.405 345.598C360.399 345.497 360.414 345.396 360.449 345.301C360.485 345.206 360.54 345.12 360.611 345.048C360.682 344.977 360.768 344.921 360.862 344.884L378.651 338.079C378.811 338.019 378.989 338.018 379.15 338.075L416.606 351.721C416.671 351.744 416.732 351.777 416.787 351.818L451.981 377.924C452.067 377.988 452.137 378.069 452.187 378.164L464.487 401.432C464.534 401.522 464.562 401.62 464.569 401.721C464.575 401.823 464.56 401.924 464.524 402.019C464.489 402.114 464.433 402.2 464.362 402.272C464.29 402.343 464.205 402.399 464.11 402.435L446.31 409.237C446.229 409.268 446.143 409.284 446.056 409.284ZM408.941 394.287L446.05 407.805L462.846 401.387L451 378.976L416.019 353.029L378.911 339.511L362.126 345.932L373.973 368.343L408.941 394.287Z" fill="#F7FFA4"/>
<path d="M385.557 457.394C384.819 457.933 383.797 458.291 382.485 458.435C375.776 459.165 364.03 453.968 356.249 446.829C351.644 442.603 349.46 438.644 349.836 435.965C353.595 409.122 372.701 384.432 361.113 355.437C360.167 362.193 365.673 372.177 377.285 382.832C396.904 400.836 426.524 413.938 443.441 412.097C446.75 411.737 449.328 410.832 451.188 409.475L385.557 457.395L385.557 457.394Z" fill="#FAFF48"/>
<path d="M381.195 459.181C374.188 459.181 363.183 454.115 355.79 447.33C351.154 443.076 348.739 438.9 349.163 435.87C350.425 426.859 353.443 417.974 356.362 409.38C360.925 395.948 365.61 382.155 363.619 367.543C361.066 363.001 359.95 358.837 360.44 355.342C360.483 355.036 360.726 354.798 361.031 354.76C361.18 354.741 361.331 354.772 361.46 354.849C361.589 354.926 361.689 355.043 361.744 355.183C363.352 359.207 364.373 363.157 364.929 367.044C367.652 371.823 372.016 377.074 377.744 382.331C397.206 400.191 426.645 413.234 443.368 411.421C446.487 411.081 448.983 410.241 450.787 408.924C450.859 408.868 450.941 408.828 451.029 408.804C451.117 408.781 451.209 408.776 451.299 408.788C451.389 408.801 451.476 408.832 451.554 408.879C451.632 408.926 451.699 408.988 451.753 409.061C451.807 409.135 451.845 409.218 451.866 409.307C451.886 409.396 451.889 409.488 451.874 409.577C451.859 409.667 451.825 409.753 451.776 409.83C451.727 409.906 451.663 409.972 451.588 410.024L385.958 457.944C385.107 458.566 383.964 458.957 382.559 459.111C382.125 459.158 381.668 459.181 381.195 459.181ZM365.288 370.259C366.395 384.072 361.967 397.105 357.649 409.818C354.75 418.352 351.753 427.175 350.51 436.059C350.153 438.6 352.471 442.439 356.709 446.328C364.351 453.341 375.885 458.473 382.412 457.758C383.577 457.631 384.5 457.323 385.157 456.845L446.086 412.356C445.238 412.542 444.379 412.681 443.516 412.773C426.451 414.628 396.539 401.422 376.826 383.333C371.946 378.854 368.06 374.429 365.288 370.259L365.288 370.259Z" fill="#231F20"/>
<path d="M453.569 406.875C459.521 396.932 443.908 376.613 418.694 361.491C393.481 346.37 368.216 342.172 362.263 352.115C356.31 362.057 371.924 382.376 397.137 397.498C422.351 412.619 447.616 416.817 453.569 406.875Z" fill="#FAFF48"/>
<path d="M440.145 412.948C422.729 412.948 395.298 400.285 376.826 383.333C364.44 371.968 358.464 360.85 360.841 353.595C361.79 350.699 364.553 347.07 372.319 346.224C389.38 344.368 419.295 357.573 439.008 375.663C451.395 387.029 457.37 398.147 454.993 405.402C454.044 408.298 451.282 411.928 443.515 412.773C442.396 412.892 441.271 412.951 440.145 412.948ZM372.466 347.576C366.888 348.184 363.315 350.411 362.133 354.018C359.96 360.651 365.942 371.501 377.745 382.331C397.207 400.191 426.645 413.235 443.368 411.421C448.947 410.814 452.52 408.587 453.702 404.979C455.875 398.346 449.893 387.496 438.09 376.666C418.626 358.805 389.177 345.765 372.466 347.576Z" fill="#231F20"/>
<path d="M438.549 376.165C418.929 358.16 389.31 345.058 372.392 346.9C365.487 347.651 361.765 350.777 361.112 355.437L349.835 435.965C350.094 434.117 351.57 432.878 354.309 432.579C361.017 431.849 372.764 437.045 380.544 444.185C386.803 449.928 388.589 455.18 385.556 457.394L451.186 409.474C458.835 403.89 454.33 390.648 438.548 376.165H438.549Z" fill="#FAFF48"/>
<path d="M385.558 458.075C385.414 458.075 385.275 458.03 385.159 457.945C385.043 457.861 384.956 457.742 384.912 457.606C384.867 457.469 384.867 457.322 384.911 457.186C384.955 457.049 385.041 456.93 385.157 456.845L385.162 456.842C385.874 456.319 386.263 455.585 386.315 454.66C386.456 452.124 384.128 448.396 380.086 444.686C372.444 437.673 360.914 432.549 354.383 433.256C352.771 433.431 350.79 434.06 350.51 436.059C350.484 436.237 350.388 436.397 350.245 436.506C350.101 436.614 349.921 436.662 349.742 436.638C349.654 436.626 349.568 436.596 349.491 436.55C349.414 436.504 349.346 436.444 349.293 436.372C349.239 436.3 349.2 436.218 349.178 436.131C349.156 436.044 349.151 435.953 349.165 435.865L360.44 355.342C361.158 350.218 365.377 346.979 372.319 346.224C389.377 344.365 419.296 357.573 439.009 375.663C449.884 385.642 455.889 395.5 455.486 402.71C455.314 405.8 454.002 408.261 451.589 410.023L385.959 457.944C385.843 458.028 385.703 458.074 385.559 458.075L385.558 458.075ZM355.6 431.833C362.607 431.833 373.611 436.899 381.004 443.684C385.407 447.724 387.837 451.753 387.671 454.736C387.665 454.834 387.657 454.931 387.646 455.027L450.786 408.925C452.855 407.414 453.979 405.298 454.129 402.635C454.509 395.834 448.663 386.369 438.089 376.666C418.626 358.806 389.188 345.759 372.466 347.576C366.11 348.268 362.418 351.019 361.785 355.53L350.937 432.998C351.688 432.477 352.747 432.065 354.235 431.903C354.688 431.855 355.144 431.832 355.599 431.833L355.6 431.833Z" fill="#231F20"/>
<path d="M386.501 456.361C388.861 452.418 382.669 444.36 372.67 438.363C362.671 432.366 352.652 430.701 350.291 434.645C347.93 438.588 354.122 446.646 364.121 452.642C374.12 458.639 384.14 460.304 386.501 456.361Z" fill="#FAFF48"/>
<path d="M381.195 459.181C374.188 459.181 363.183 454.115 355.79 447.33C350.755 442.711 348.344 438.14 349.338 435.106C349.753 433.843 350.938 432.262 354.235 431.903C361.109 431.147 373.111 436.44 381.004 443.683C386.039 448.303 388.45 452.873 387.456 455.907C387.041 457.171 385.856 458.752 382.558 459.111C382.124 459.158 381.668 459.181 381.195 459.181ZM355.656 433.19C355.231 433.189 354.805 433.21 354.382 433.255C352.96 433.41 351.154 433.93 350.63 435.53C349.818 438.005 352.147 442.143 356.708 446.328C364.35 453.341 375.884 458.473 382.411 457.758C383.834 457.603 385.64 457.082 386.164 455.483C386.975 453.007 384.646 448.87 380.085 444.685C372.917 438.108 362.33 433.189 355.656 433.189V433.19Z" fill="#231F20"/>
<path d="M438.549 376.165C418.929 358.16 389.31 345.058 372.392 346.9C365.487 347.651 361.765 350.777 361.112 355.437L349.835 435.965C350.094 434.117 351.57 432.878 354.309 432.579C361.017 431.849 372.764 437.045 380.544 444.185C386.803 449.928 388.589 455.18 385.556 457.394L451.186 409.474C458.835 403.89 454.33 390.648 438.548 376.165H438.549Z" fill="url(#paint12_linear_202_282)"/>
<path d="M386.631 454.041C386.5 452.395 385.667 450.656 384.87 449.403C382.984 446.436 380.389 444.021 377.648 441.861C375.53 440.199 373.286 438.705 370.936 437.392C367.541 435.513 363.934 433.952 360.142 433.088C357.026 432.378 351.736 431.419 349.856 434.903C349.489 435.581 349.421 436.33 349.318 437.076L346.544 457.302L345.777 462.899L342.23 488.757C342.23 488.757 370.83 467.972 385.13 457.579C386.372 456.676 386.737 455.39 386.63 454.041L386.631 454.041Z" fill="#231F20"/>
<path d="M342.231 488.756L370.937 437.392C371.079 437.471 371.221 437.551 371.363 437.631L362.167 456.279L342.231 488.756Z" fill="#3D3A3B"/>
<path d="M342.231 488.756L371.363 437.631C371.525 437.723 371.686 437.816 371.847 437.909L363.155 455.286L342.231 488.757" fill="#514E4E"/>
<path d="M342.231 488.756L371.847 437.909C372.008 438.003 372.169 438.098 372.33 438.193L363.275 455.804L342.231 488.756Z" fill="#646162"/>
<path d="M342.231 488.756L372.33 438.193C372.548 438.323 372.765 438.454 372.982 438.587L363.122 457.005L342.231 488.756Z" fill="#767475"/>
<path d="M342.231 488.756L362.688 459.242L377.253 441.529C377.389 441.633 377.524 441.739 377.659 441.845L342.231 488.756" fill="#3D3A3B"/>
<path d="M342.231 488.756L363.182 458.016L376.842 441.216C376.98 441.319 377.117 441.423 377.253 441.529L342.231 488.756Z" fill="#514E4E"/>
<path d="M342.231 488.756L362.664 458.006L376.311 440.822C376.489 440.952 376.667 441.083 376.843 441.216L342.231 488.756Z" fill="#646162"/>
<path d="M342.231 488.756L363.033 456.656L375.721 440.398C375.919 440.538 376.115 440.679 376.311 440.822L342.231 488.756" fill="#767475"/>
<path d="M342.233 488.753L375.722 440.398C374.828 439.765 373.914 439.161 372.982 438.588L342.235 488.751L342.232 488.756L342.233 488.753H342.233Z" fill="#7E7C7D"/>
<path d="M416.362 352.393L590.424 65.5237L625.618 91.6293L451.556 378.499L416.362 352.393Z" fill="url(#paint13_linear_202_282)"/>
</g>
<defs>
<linearGradient id="paint0_linear_202_282" x1="347.743" y1="56.5184" x2="387.561" y2="56.5184" gradientUnits="userSpaceOnUse">
<stop stop-color="white" stop-opacity="0.7"/>
<stop offset="0.824" stop-color="#F7FFA4"/>
</linearGradient>
<linearGradient id="paint1_linear_202_282" x1="76.7208" y1="121.948" x2="409.753" y2="121.948" gradientUnits="userSpaceOnUse">
<stop stop-color="white" stop-opacity="0.7"/>
<stop offset="0.824" stop-color="#F7FFA4"/>
</linearGradient>
<linearGradient id="paint2_linear_202_282" x1="55.9077" y1="111.864" x2="98.9125" y2="111.864" gradientUnits="userSpaceOnUse">
<stop stop-color="white" stop-opacity="0.7"/>
<stop offset="0.824" stop-color="#F7FFA4"/>
</linearGradient>
<linearGradient id="paint3_linear_202_282" x1="55.5139" y1="30.871" x2="84.979" y2="30.871" gradientUnits="userSpaceOnUse">
<stop stop-color="white" stop-opacity="0.7"/>
<stop offset="0.824" stop-color="#F7FFA4"/>
</linearGradient>
<linearGradient id="paint4_linear_202_282" x1="77.7063" y1="194.395" x2="117.524" y2="194.395" gradientUnits="userSpaceOnUse">
<stop stop-color="white" stop-opacity="0.7"/>
<stop offset="0.824" stop-color="#F7FFA4"/>
</linearGradient>
<linearGradient id="paint5_linear_202_282" x1="144.982" y1="268.284" x2="189.577" y2="268.284" gradientUnits="userSpaceOnUse">
<stop stop-color="#231F20" stop-opacity="0"/>
<stop offset="1" stop-color="#231F20"/>
</linearGradient>
<linearGradient id="paint6_linear_202_282" x1="100.79" y1="379.759" x2="504.913" y2="381.449" gradientUnits="userSpaceOnUse">
<stop stop-color="#231F20"/>
<stop offset="1" stop-color="#231F20" stop-opacity="0"/>
</linearGradient>
<linearGradient id="paint7_linear_202_282" x1="194.494" y1="317.465" x2="368.264" y2="318.192" gradientUnits="userSpaceOnUse">
<stop stop-color="#231F20"/>
<stop offset="1" stop-color="#231F20" stop-opacity="0"/>
</linearGradient>
<linearGradient id="paint8_linear_202_282" x1="242.572" y1="197.533" x2="403.85" y2="198.207" gradientUnits="userSpaceOnUse">
<stop stop-color="#231F20"/>
<stop offset="1" stop-color="#231F20" stop-opacity="0"/>
</linearGradient>
<linearGradient id="paint9_linear_202_282" x1="154.886" y1="188.052" x2="238.102" y2="367.943" gradientUnits="userSpaceOnUse">
<stop offset="0.118" stop-color="#231F20" stop-opacity="0"/>
<stop offset="1" stop-color="#231F20"/>
</linearGradient>
<linearGradient id="paint10_linear_202_282" x1="237.575" y1="269.768" x2="245.733" y2="298.864" gradientUnits="userSpaceOnUse">
<stop stop-color="#231F20"/>
<stop offset="1" stop-color="#231F20" stop-opacity="0"/>
</linearGradient>
<linearGradient id="paint11_linear_202_282" x1="584.396" y1="50.0082" x2="712.105" y2="114.759" gradientUnits="userSpaceOnUse">
<stop offset="0.144" stop-color="#231F20" stop-opacity="0"/>
<stop offset="1" stop-color="#231F20" stop-opacity="0.6"/>
</linearGradient>
<linearGradient id="paint12_linear_202_282" x1="375.025" y1="386.61" x2="471.334" y2="483.788" gradientUnits="userSpaceOnUse">
<stop offset="0.144" stop-color="#231F20" stop-opacity="0"/>
<stop offset="1" stop-color="#231F20" stop-opacity="0.6"/>
</linearGradient>
<linearGradient id="paint13_linear_202_282" x1="96.1745" y1="292.457" x2="579.223" y2="212.495" gradientUnits="userSpaceOnUse">
<stop stop-color="#231F20"/>
<stop offset="1" stop-color="#231F20" stop-opacity="0"/>
</linearGradient>
<clipPath id="clip0_202_282">
<rect width="658.149" height="699.141" fill="white" transform="translate(0.984009 0.129395)"/>
</clipPath>
</defs>
</svg>
