<svg width="506" height="560" viewBox="0 0 506 560" fill="none" xmlns="http://www.w3.org/2000/svg">
<g clip-path="url(#clip0_194_67)">
<path d="M196.87 371.988L196.772 371.223C196.324 367.263 195.496 362.915 194.628 359.443C189.916 340.564 179.285 323.335 164.539 310.658C156.746 303.959 147.785 298.506 138.163 294.869C133.547 293.124 128.67 291.77 123.812 290.909C121.113 290.431 118.386 290.074 115.651 289.891C114.501 289.817 113.351 289.768 112.199 289.744C111.848 289.736 108.066 289.758 107.573 289.767C101.438 289.895 95.9061 291.197 95.4845 291.288C93.6528 291.681 91.8081 292.08 90.0086 292.605C86.9918 293.486 83.9409 294.569 81.1118 295.944C76.924 297.978 72.9168 300.262 69.1596 302.934C67.9324 303.806 68.6938 303.129 66.5254 304.83C57.1297 312.203 49.6083 321.838 44.7177 332.796C36.984 350.124 36.6225 368.825 40.7226 387.068C47.3048 416.363 70.2931 441.929 98.3246 452.172C109.535 456.269 121.946 457.916 133.802 456.428C139.881 455.665 145.735 454.124 151.435 451.904C153.594 451.063 155.688 450.087 157.747 449.026C158.905 448.43 160.028 447.776 161.149 447.114C161.27 447.043 161.804 446.709 161.804 446.709C187.725 431.223 200.188 401.401 196.87 371.988ZM174.302 334.653C186.111 352.623 191.375 374.631 187.683 395.902C182.007 393.63 176.043 392.115 170.029 391.059C169.176 390.909 158.508 389.648 158.506 389.627C157.226 376.092 154.562 362.725 150.554 349.734C150.218 348.643 149.938 347.703 149.938 347.703C149.938 347.703 151.039 347.139 152.368 346.628C155.345 345.483 158.284 344.234 161.149 342.831C165.785 340.561 170.264 337.876 174.302 334.653ZM158.471 389.818C158.499 389.772 158.492 389.782 158.471 389.818ZM122.038 390.413L117.72 390.942L122.029 390.414C115.348 391.229 108.718 392.413 102.169 393.961C100.073 394.457 97.9868 394.994 95.9116 395.572C95.2897 395.745 93.8029 396.243 93.8029 396.243C93.8029 396.243 92.8331 393.541 92.5987 392.771C89.0869 381.235 86.7107 369.384 85.504 357.386C97.3648 357.732 109.258 356.956 120.963 355.003C127.294 353.946 135.823 352.034 140.904 350.484C141.159 350.406 141.641 350.302 141.641 350.302C141.641 350.302 142.531 353.095 142.823 354.06C143.316 355.695 143.79 357.335 144.245 358.981C144.89 361.317 145.485 363.667 146.029 366.028C146.29 367.157 148.046 375.836 148.415 378.116C149.001 381.759 149.48 385.418 149.848 389.089C140.566 388.823 131.263 389.284 122.046 390.412C124.278 390.139 125.742 389.96 122.038 390.413ZM125.071 299.648C125.114 299.66 125.107 299.657 125.071 299.648ZM125.069 299.648C125.05 299.643 125.031 299.639 125.012 299.634L125.069 299.648ZM124.237 299.441C142.46 303.972 157.783 314.193 169.799 328.51C163.299 333.941 155.389 337.432 147.481 340.296C146.708 338.272 145.774 336.221 145.119 334.654C144.226 332.514 143.286 330.393 142.3 328.294C140.62 324.719 138.803 321.205 136.806 317.797C132.821 310.993 128.129 304.51 122.425 299.041C123.031 299.163 123.637 299.292 124.237 299.441ZM90.9698 307.316C93.7095 302.043 97.9521 297.307 104.445 298.272C110.045 299.104 114.907 303.27 118.639 307.269C128.036 317.34 134.13 330.234 139.058 342.957C122.494 347.662 105.091 349.803 87.8798 349.44C87.0174 349.422 85.7369 349.397 84.875 349.367C84.875 349.367 84.742 344.867 84.729 343.884C84.6863 340.595 84.751 337.303 84.9563 334.021C85.52 325.01 87.6223 316.071 90.8474 307.648L90.9698 307.316ZM52.4012 335.262L52.483 335.069L52.4017 335.261C58.5658 320.671 70.1816 309.138 84.5473 302.678C76.7523 316.324 75.8302 333.407 76.3452 348.755C69.3499 348.062 62.3526 346.841 55.6639 344.637C53.8625 344.042 52.0876 343.37 50.3441 342.622C50.2011 342.56 49.7177 342.396 49.7177 342.396C49.7177 342.396 51.8947 336.461 52.4012 335.262ZM52.5312 334.954C52.602 334.786 52.5884 334.819 52.5312 334.954ZM81.3232 350.296C81.287 350.293 81.149 350.176 81.3232 350.296ZM64.4302 417.151C64.5838 417.227 64.399 417.111 64.4302 417.151ZM64.7379 409.117C63.8548 409.705 62.9886 410.319 62.1402 410.956C61.7201 411.272 61.2708 411.557 61.2708 411.557C61.2708 411.557 60.1033 410.094 59.5255 409.121C57.8836 406.355 56.4329 403.47 54.9943 400.595C52.4343 395.478 50.422 390.309 48.906 384.775C45.9063 373.827 44.4566 361.625 47.6044 350.554C56.4656 354.579 66.1228 355.893 75.7223 356.805C76.2704 356.904 76.7618 357.001 76.7618 357.001C76.7618 357.001 76.9867 358.224 77.1012 359.313C77.2814 361.026 77.4837 362.736 77.7095 364.444C78.293 368.836 79.019 373.208 79.8865 377.553C80.6701 381.49 81.6043 385.399 82.6257 389.28C83.2056 391.481 83.8243 393.671 84.4815 395.849C84.7254 396.659 85.1792 398.054 85.4006 398.871C85.4006 398.871 83.9765 399.461 83.0087 399.836C76.6288 402.303 70.4261 405.298 64.7379 409.117ZM111.114 447.215C92.8356 442.667 77.4872 432.397 65.4592 418.018C67.3516 416.435 69.367 415.018 71.4692 413.734C72.3541 413.264 73.2115 412.745 74.0784 412.246C76.1028 411.141 78.1693 410.113 80.2786 409.18C81.7613 408.527 83.2588 407.908 84.7701 407.324C85.9974 406.849 87.7633 406.251 87.7633 406.251C87.7633 406.251 88.1855 406.835 88.4184 407.439C90.7399 413.46 93.3747 419.371 96.4282 425.058C100.839 433.271 106.19 441.145 112.945 447.62C112.331 447.498 111.721 447.363 111.114 447.215ZM150.477 411.542C150.055 419.337 149.044 427.257 146.401 434.641C144.56 439.782 140.595 448.442 134.052 448.442C123.363 449.323 115.911 437.813 110.472 430.227C104.553 421.972 99.8927 412.982 96.2419 403.522C112.305 398.962 129.149 396.811 145.842 397.007C147.145 397.023 148.447 397.053 149.749 397.094C149.992 397.101 150.463 397.189 150.463 397.189C150.463 397.189 150.602 400.645 150.623 401.67C150.692 404.96 150.655 408.256 150.477 411.542ZM159.895 439.152C157.009 441.046 153.969 442.567 150.822 443.982C158.65 430.283 159.553 413.123 159.018 397.718C166.038 398.422 173.061 399.647 179.771 401.867C181.569 402.462 183.339 403.136 185.078 403.887C185.226 403.95 185.697 404.124 185.697 404.124C185.697 404.124 183.523 410.088 183.017 411.289C183.017 411.29 183.016 411.292 183.016 411.293C178.486 422.069 170.708 431.683 161.12 438.34C162.795 437.205 159.896 439.147 159.895 439.152Z" fill="#161314"/>
<path d="M187.712 395.723C187.941 394.405 187.683 395.901 187.683 395.901L187.712 395.723ZM64.7379 409.117C64.8995 409.008 64.1697 409.496 64.7379 409.117ZM117.719 390.943C117.272 390.997 117.19 391.007 117.719 390.943ZM52.4017 335.261L52.4012 335.262C51.7457 336.814 52.1377 335.887 52.4017 335.261Z" fill="#161314"/>
<path d="M57.2085 317.351C57.1041 318.037 56.4174 318.764 56.0786 319.37C51.4379 327.659 47.0543 335.488 44.6273 347.609C42.8132 356.668 42.6551 363.075 42.6099 372.548C42.6084 372.858 42.4518 373.266 42.2952 373.534C34.4993 351.158 53.4904 316.136 57.0438 316.977C57.1563 317.003 57.208 317.212 57.204 317.327C57.2029 317.335 57.2095 317.344 57.2085 317.351Z" fill="#3D3A3B"/>
<path d="M55.8522 319.188C55.8707 319.318 54.268 322.225 52.5713 325.302C52.5156 325.403 46.9454 335.716 44.5651 347.603C42.8624 356.104 42.5904 363.14 42.5798 366.577C42.5653 371.338 42.5572 371.352 42.1346 372.064C35.6141 350.96 51.5534 320.275 55.4606 319.093C55.5721 319.06 55.7904 319.07 55.8401 319.175C55.8421 319.18 55.8512 319.183 55.8522 319.188Z" fill="#514E4E"/>
<path d="M54.4617 321.251C48.2595 333.886 43.3608 343.866 42.504 365.951C42.3554 369.778 42.3554 369.778 41.9985 370.591C36.5512 353.623 49.923 322.619 54.1716 321.026C54.274 320.988 54.4798 320.974 54.5325 321.07C54.5606 321.121 54.4848 321.198 54.4617 321.251Z" fill="#696667"/>
<path d="M51.1855 327.347C46.5002 338.821 45.7804 340.585 44.3714 347.583C43.8021 350.409 42.7435 355.671 42.2044 365.689C42.1753 366.235 42.0839 367.002 41.7938 367.465C38.2941 348.866 48.9462 326.564 52.339 324.573C51.9911 325.404 51.5258 326.512 51.1855 327.347Z" fill="#7B7879"/>
<path d="M178.055 425.454C178.159 424.768 178.846 424.042 179.185 423.436C183.826 415.147 188.209 407.318 190.636 395.197C192.45 386.137 192.608 379.731 192.654 370.257C192.655 369.947 192.812 369.54 192.968 369.271C200.764 391.647 181.773 426.67 178.22 425.828C178.107 425.802 178.056 425.593 178.06 425.478C178.06 425.471 178.054 425.462 178.055 425.454Z" fill="#3D3A3B"/>
<path d="M179.411 423.618C179.393 423.488 180.995 420.582 182.692 417.504C182.748 417.404 188.318 407.09 190.698 395.204C192.401 386.702 192.673 379.666 192.684 376.229C192.698 371.468 192.706 371.454 193.129 370.742C199.649 391.847 183.71 422.531 179.803 423.713C179.691 423.746 179.473 423.736 179.423 423.631C179.421 423.626 179.412 423.623 179.411 423.618Z" fill="#514E4E"/>
<path d="M180.802 421.554C187.004 408.919 191.903 398.94 192.759 376.855C192.908 373.028 192.908 373.028 193.265 372.215C198.712 389.183 185.34 420.187 181.092 421.779C180.989 421.818 180.784 421.832 180.731 421.736C180.702 421.685 180.779 421.608 180.802 421.554Z" fill="#696667"/>
<path d="M184.078 415.459C188.763 403.985 189.483 402.221 190.892 395.223C191.461 392.396 192.52 387.135 193.059 377.116C193.089 376.571 193.18 375.804 193.47 375.341C196.969 393.94 186.317 416.242 182.925 418.233C183.272 417.402 183.737 416.294 184.078 415.459Z" fill="#7B7879"/>
<path d="M86.8572 300.205C86.8572 300.205 84.2094 305.582 83.5328 307.235C82.8561 308.888 81.2433 313.967 80.5862 317.113C79.9292 320.26 79.0733 326.932 78.9142 330.656C78.7551 334.38 78.7149 342.844 78.9343 345.613C79.1536 348.381 80.0095 355.59 80.5069 358.856C81.0044 362.123 81.4225 364.333 81.5821 363.696C81.7413 363.059 81.3829 354.793 81.3829 354.793C81.3829 354.793 81.0044 347.185 81.0044 344.079C81.0044 340.972 81.1439 334.32 81.4421 330.994C81.7403 327.669 83.0348 320.12 83.4128 318.229C83.7913 316.337 87.0359 305.503 89.5242 301.321C92.0124 297.139 93.0675 295.326 93.0675 295.326L86.8572 300.205Z" fill="#3D3A3B"/>
<path d="M88.7121 297.271C88.7121 297.271 82.9837 307.877 81.7865 312.838C80.5894 317.799 79.6206 323.663 79.1929 328.624C78.7652 333.585 78.6227 339.611 79.1357 345.769C79.6487 351.928 81.1024 361.85 81.0165 358.6C80.9312 355.349 80.6747 348.164 80.9312 341.15C81.1877 334.137 80.76 332.084 82.4702 322.675C84.1804 313.265 88.3928 301.549 90.9579 298.213C93.5229 294.878 88.7121 297.271 88.7121 297.271Z" fill="#514E4E"/>
<path d="M80.4376 351.214C80.4492 350.929 80.4768 349.079 80.4883 348.793C80.3899 321.398 84.0216 312.936 90.0391 298.917C82.723 304.009 76.691 327.749 80.1726 349.592L80.4376 351.214Z" fill="#696667"/>
<path d="M88.9268 300.672C89.2415 301.5 88.1312 302.58 87.7728 303.39C85.8277 307.789 83.3952 314.188 81.8391 324.72C80.6736 332.611 80.4783 340.03 80.3844 343.595C80.3167 346.159 80.3016 346.2 80.1119 346.703C78.4132 339.228 78.7872 310.974 88.7923 300.607C88.8038 300.65 88.9092 300.631 88.9268 300.672Z" fill="#7B7879"/>
<path d="M84.5473 302.678C88.1514 300.545 91.3263 298.151 93.8035 295.333V293.851L85.1185 297.151L84.5473 302.678ZM77.8391 348.95L83.7075 351.157L77.9254 356.379L77.8391 348.95Z" fill="#161314"/>
<path d="M146.02 445.619C146.02 445.619 148.775 440.296 149.484 438.656C150.194 437.017 151.907 431.972 152.626 428.839C153.346 425.706 154.334 419.053 154.567 415.333C154.801 411.612 155.009 403.15 154.845 400.378C154.681 397.606 153.969 390.381 153.536 387.106C153.103 383.83 152.729 381.612 152.558 382.246C152.386 382.88 152.58 391.151 152.58 391.151C152.58 391.151 152.807 398.764 152.745 401.87C152.683 404.977 152.411 411.624 152.047 414.943C151.682 418.263 150.238 425.783 149.822 427.667C149.407 429.552 145.947 440.319 143.376 444.45C140.805 448.582 139.714 450.373 139.714 450.373L146.02 445.619Z" fill="#3D3A3B"/>
<path d="M144.107 448.516C144.107 448.516 150.046 438.026 151.341 433.089C152.637 428.153 153.722 422.31 154.248 417.358C154.774 412.406 155.037 406.385 154.646 400.217C154.256 394.05 153 384.101 153.021 387.352C153.042 390.604 153.155 397.792 152.759 404.8C152.363 411.807 152.75 413.868 150.853 423.241C148.956 432.614 144.511 444.244 141.88 447.528C139.249 450.813 144.107 448.516 144.107 448.516Z" fill="#514E4E"/>
<path d="M153.477 395.449C153.46 395.734 153.371 396.881 153.353 397.167C152.907 424.558 149.107 432.946 142.812 446.842C150.228 441.897 156.732 418.282 153.685 396.374L153.477 395.449Z" fill="#696667"/>
<path d="M143.96 445.11C143.662 444.276 144.794 443.219 145.168 442.416C147.201 438.057 149.76 431.708 151.525 421.208C152.847 413.342 153.19 405.929 153.355 402.366C153.474 399.804 153.49 399.763 153.689 399.264C155.239 406.772 154.303 435.013 144.094 445.179C144.082 445.135 143.977 445.152 143.96 445.11Z" fill="#7B7879"/>
<path d="M148.379 443.192C144.733 445.253 141.511 447.582 138.978 450.351L138.949 451.833L147.697 448.706L148.379 443.192ZM150.85 388.662L157.017 391.029L150.47 397.117L150.85 388.662Z" fill="#161314"/>
<path d="M320.091 214.483L264.826 307.755C260.522 315.019 254.017 319.004 250.162 316.807L435.206 422.254C439.061 424.45 445.566 420.466 449.87 413.201L505.135 319.929L320.091 214.483Z" fill="#F8FF9D" stroke="#231F20" stroke-width="1.25516" stroke-miterlimit="10"/>
<path d="M435.083 422.093C430.955 419.391 431.457 410.677 436.197 402.678L448.622 381.707C453.017 374.29 453.481 366.226 449.663 363.726L264.759 258.359C268.577 260.859 268.112 268.923 263.717 276.34L251.292 297.311C246.552 305.31 246.05 314.024 250.178 316.726C250.261 316.781 250.345 316.832 250.431 316.881L435.335 422.248C435.251 422.199 435.166 422.148 435.083 422.093Z" fill="#EFF700" stroke="#231F20" stroke-width="1.25516" stroke-miterlimit="10"/>
<path d="M263.064 257.312C258.897 254.937 251.867 259.242 247.214 267.096L136.685 453.641L321.729 559.088L432.258 372.543C436.912 364.689 443.941 360.384 448.109 362.758L263.064 257.312Z" fill="#F8FF9D" stroke="#231F20" stroke-width="1.25516" stroke-miterlimit="10" stroke-linejoin="round"/>
<path d="M373.49 377.236C369.899 375.12 366.01 377.558 362.243 379.924C358.613 382.193 355.182 384.338 352.062 382.499C348.933 380.655 349.236 376.666 349.548 372.441C349.881 368.051 350.22 363.521 346.629 361.404C343.046 359.293 339.149 361.726 335.382 364.092C331.76 366.366 328.329 368.511 325.209 366.672C322.081 364.828 322.383 360.838 322.694 356.613C323.027 352.224 323.367 347.694 319.776 345.577C316.193 343.465 312.296 345.898 308.529 348.264C304.907 350.539 301.476 352.684 298.356 350.844C295.227 349 295.53 345.011 295.842 340.786C296.174 336.396 296.514 331.866 292.923 329.75C289.332 327.633 285.442 330.071 281.676 332.437C278.054 334.711 274.623 336.856 271.503 335.017C268.374 333.173 268.677 329.184 268.997 324.963C269.321 320.568 269.661 316.038 266.078 313.927L265.272 315.254C268.393 317.094 268.097 321.071 267.786 325.295C267.454 329.685 267.113 334.216 270.704 336.333C274.295 338.449 278.185 336.01 281.951 333.645C285.572 331.371 288.996 329.238 292.117 331.077C295.245 332.921 294.95 336.898 294.639 341.123C294.306 345.513 293.966 350.043 297.557 352.16C301.148 354.277 305.037 351.838 308.804 349.472C312.425 347.199 315.849 345.065 318.969 346.905C322.097 348.749 321.802 352.725 321.491 356.951C321.158 361.34 320.819 365.871 324.409 367.987C328 370.104 331.889 367.665 335.656 365.3C339.278 363.026 342.702 360.893 345.822 362.732C348.951 364.576 348.655 368.553 348.344 372.778C348.012 377.168 347.672 381.699 351.263 383.815C354.854 385.932 358.743 383.493 362.509 381.127C366.139 378.858 369.555 376.721 372.683 378.565C375.811 380.409 375.516 384.385 375.206 388.611C374.873 393 374.541 397.536 378.132 399.652L378.93 398.337C375.801 396.493 376.096 392.498 376.416 388.278C376.741 383.883 377.081 379.353 373.49 377.236ZM358.531 401.887C354.94 399.77 351.051 402.208 347.285 404.574C343.655 406.843 340.224 408.988 337.104 407.149C333.975 405.305 334.278 401.316 334.589 397.091C334.922 392.702 335.261 388.171 331.67 386.055C328.087 383.943 324.19 386.376 320.423 388.742C316.802 391.016 313.371 393.161 310.25 391.322C307.122 389.478 307.424 385.489 307.736 381.264C308.068 376.874 308.408 372.344 304.817 370.228C301.234 368.116 297.337 370.549 293.57 372.915C289.949 375.189 286.518 377.333 283.397 375.494C280.269 373.65 280.571 369.661 280.883 365.436C281.215 361.047 281.555 356.516 277.964 354.4C274.373 352.284 270.484 354.722 266.717 357.087C263.096 359.361 259.665 361.506 256.545 359.667C253.416 357.823 253.719 353.834 254.038 349.614C254.362 345.219 254.702 340.689 251.119 338.578L250.314 339.905C253.434 341.744 253.139 345.722 252.828 349.946C252.495 354.336 252.155 358.866 255.746 360.983C259.337 363.099 263.227 360.661 266.993 358.295C270.615 356.022 274.038 353.888 277.159 355.727C280.287 357.571 279.992 361.549 279.681 365.773C279.348 370.163 279.008 374.693 282.599 376.81C286.19 378.926 290.08 376.488 293.846 374.122C297.467 371.849 300.891 369.715 304.012 371.554C307.14 373.398 306.845 377.376 306.534 381.601C306.201 385.99 305.862 390.521 309.452 392.637C313.043 394.754 316.932 392.316 320.699 389.95C324.321 387.676 327.745 385.543 330.865 387.382C333.994 389.226 333.698 393.203 333.387 397.428C333.054 401.818 332.715 406.348 336.306 408.464C339.897 410.581 343.786 408.143 347.552 405.777C351.182 403.508 354.598 401.37 357.726 403.214C360.855 405.058 360.559 409.036 360.248 413.261C359.915 417.65 359.584 422.185 363.175 424.302L363.973 422.986C360.844 421.142 361.139 417.148 361.458 412.928C361.782 408.534 362.122 404.004 358.531 401.887Z" fill="#939598"/>
<path d="M343.573 426.537C339.982 424.42 336.093 426.858 332.326 429.224C328.696 431.494 325.265 433.639 322.145 431.8C319.016 429.956 319.319 425.967 319.63 421.741C319.963 417.352 320.303 412.821 316.712 410.705C313.129 408.593 309.231 411.026 305.465 413.392C301.843 415.667 298.412 417.812 295.291 415.972C292.163 414.128 292.465 410.139 292.777 405.914C293.109 401.524 293.45 396.994 289.859 394.878C286.276 392.766 282.378 395.199 278.612 397.565C274.99 399.84 271.559 401.984 268.438 400.145C265.31 398.301 265.612 394.312 265.924 390.086C266.256 385.697 266.596 381.166 263.005 379.05C259.414 376.934 255.525 379.372 251.759 381.737C248.137 384.012 244.706 386.157 241.586 384.317C238.457 382.473 238.76 378.484 239.079 374.264C239.404 369.869 239.743 365.339 236.16 363.227L235.355 364.555C238.475 366.394 238.18 370.371 237.869 374.596C237.536 378.986 237.196 383.517 240.787 385.633C244.378 387.75 248.267 385.312 252.034 382.946C255.655 380.672 259.079 378.538 262.199 380.378C265.328 382.222 265.033 386.199 264.721 390.424C264.388 394.814 264.048 399.344 267.639 401.461C271.23 403.577 275.12 401.139 278.886 398.773C282.507 396.499 285.931 394.366 289.052 396.205C292.18 398.049 291.885 402.026 291.574 406.251C291.242 410.641 290.902 415.172 294.492 417.288C298.083 419.405 301.972 416.967 305.739 414.6C309.361 412.327 312.785 410.194 315.905 412.033C319.034 413.877 318.738 417.853 318.427 422.079C318.094 426.469 317.755 430.999 321.346 433.116C324.937 435.233 328.826 432.795 332.592 430.428C336.222 428.159 339.638 426.021 342.766 427.865C345.894 429.709 345.599 433.686 345.288 437.911C344.955 442.301 344.624 446.836 348.215 448.953L349.013 447.637C345.884 445.793 346.178 441.799 346.498 437.579C346.824 433.183 347.163 428.653 343.573 426.537Z" fill="#A7A9AC"/>
<path d="M328.614 451.188C325.023 449.071 321.133 451.509 317.367 453.875C313.737 456.144 310.306 458.289 307.186 456.45C304.057 454.606 304.36 450.617 304.671 446.392C305.003 442.002 305.343 437.472 301.752 435.356C298.169 433.244 294.272 435.677 290.505 438.043C286.884 440.317 283.453 442.462 280.332 440.622C277.204 438.778 277.506 434.789 277.818 430.564C278.15 426.175 278.49 421.645 274.899 419.528C271.316 417.417 267.419 419.85 263.652 422.215C260.031 424.489 256.6 426.634 253.48 424.795C250.351 422.951 250.654 418.962 250.965 414.737C251.298 410.348 251.637 405.817 248.046 403.701C244.455 401.584 240.566 404.022 236.799 406.388C233.178 408.662 229.747 410.807 226.627 408.968C223.498 407.124 223.801 403.134 224.12 398.915C224.444 394.52 224.784 389.99 221.201 387.878L220.396 389.206C223.517 391.045 223.221 395.022 222.91 399.247C222.577 403.637 222.238 408.167 225.829 410.283C229.42 412.4 233.309 409.962 237.076 407.596C240.697 405.322 244.121 403.189 247.241 405.028C250.369 406.872 250.074 410.849 249.763 415.074C249.43 419.463 249.09 423.994 252.682 426.11C256.273 428.227 260.162 425.789 263.928 423.423C267.55 421.149 270.973 419.016 274.094 420.855C277.222 422.699 276.927 426.677 276.616 430.901C276.284 435.291 275.944 439.821 279.534 441.938C283.125 444.054 287.015 441.616 290.781 439.251C294.403 436.977 297.827 434.843 300.947 436.682C304.076 438.526 303.78 442.504 303.469 446.729C303.137 451.118 302.797 455.649 306.388 457.765C309.979 459.882 313.868 457.444 317.634 455.078C321.264 452.809 324.68 450.671 327.808 452.515C330.937 454.359 330.642 458.337 330.33 462.561C329.998 466.951 329.666 471.486 333.257 473.603L334.055 472.287C330.927 470.443 331.221 466.449 331.541 462.229C331.865 457.834 332.205 453.304 328.614 451.188ZM313.655 475.837C310.064 473.721 306.175 476.159 302.408 478.525C298.779 480.794 295.348 482.939 292.227 481.1C289.099 479.256 289.401 475.267 289.713 471.042C290.045 466.652 290.385 462.121 286.794 460.005C283.211 457.893 279.314 460.326 275.547 462.692C271.926 464.966 268.495 467.111 265.375 465.272C262.246 463.428 262.549 459.439 262.86 455.214C263.193 450.824 263.533 446.294 259.942 444.177C256.359 442.066 252.462 444.499 248.695 446.865C245.074 449.139 241.642 451.284 238.522 449.445C235.393 447.601 235.696 443.611 236.007 439.387C236.34 434.997 236.68 430.466 233.089 428.349C229.498 426.233 225.609 428.671 221.843 431.038C218.221 433.311 214.79 435.456 211.67 433.617C208.541 431.773 208.844 427.784 209.163 423.564C209.488 419.169 209.828 414.639 206.245 412.527L205.439 413.855C208.56 415.694 208.264 419.671 207.953 423.896C207.62 428.286 207.281 432.816 210.872 434.932C214.463 437.049 218.352 434.611 222.119 432.245C225.74 429.97 229.164 427.838 232.284 429.677C235.413 431.521 235.117 435.498 234.806 439.723C234.473 444.113 234.134 448.643 237.725 450.759C241.316 452.876 245.205 450.438 248.971 448.072C252.593 445.797 256.017 443.665 259.137 445.504C262.265 447.348 261.97 451.325 261.659 455.55C261.327 459.94 260.987 464.471 264.577 466.587C268.168 468.703 272.058 466.265 275.824 463.9C279.447 461.625 282.87 459.493 285.99 461.331C289.119 463.175 288.823 467.152 288.512 471.378C288.18 475.767 287.84 480.298 291.431 482.414C295.022 484.531 298.911 482.093 302.677 479.727C306.307 477.457 309.723 475.32 312.852 477.164C315.98 479.008 315.685 482.985 315.373 487.21C315.041 491.6 314.709 496.135 318.3 498.252L319.098 496.936C315.97 495.092 316.264 491.098 316.584 486.878C316.906 482.484 317.246 477.954 313.655 475.837Z" fill="#939598"/>
<path d="M322.289 559.455L137.246 454.008L136.684 453.641L321.728 559.088L322.289 559.455Z" fill="#F8FF9D" stroke="#231F20" stroke-width="1.25516" stroke-miterlimit="10"/>
<path d="M247.975 0.712085L258.909 1.82188C256.681 1.59591 254.454 1.82791 252.316 2.47019C250.174 3.11347 248.121 4.16752 246.241 5.58365C244.359 7.00178 242.652 8.78197 241.205 10.8765C239.756 12.9721 238.57 15.3805 237.73 18.052L226.888 16.8202C227.723 14.1678 228.904 11.7764 230.345 9.69643C231.785 7.61744 233.485 5.8503 235.358 4.44271C237.23 3.03663 239.275 1.99111 241.407 1.35286C243.537 0.716605 245.755 0.48661 247.975 0.712085Z" fill="#231F20" stroke="#F7FFA4" stroke-width="1.25516" stroke-miterlimit="10" stroke-linecap="round" stroke-linejoin="round"/>
<path d="M317.109 25.1186C318.641 25.7518 320.071 26.6146 321.373 27.6721C322.674 28.7287 323.849 29.9801 324.873 31.3932C325.897 32.8048 326.771 34.3781 327.471 36.0795C328.188 37.834 328.71 39.6624 329.026 41.5316C329.34 43.3996 329.861 45.2271 330.577 46.9806C331.275 48.6764 332.145 50.2407 333.162 51.6413C334.179 53.0408 335.343 54.2762 336.631 55.3146C337.917 56.3521 339.325 57.1928 340.832 57.8044L434.279 95.7233C436.537 96.6393 438.505 98.1006 440.131 99.9571C441.755 101.811 443.039 104.061 443.93 106.558C444.82 109.052 445.319 111.795 445.374 114.639C445.428 117.581 445.017 120.514 444.156 123.328L402.349 260.435C400.818 265.455 395.435 268.208 390.471 266.508L182.06 195.138L226.092 55.0721L237.73 18.052C238.719 14.9029 240.191 12.1199 242.004 9.7838C243.816 7.44971 245.967 5.56355 248.318 4.20568C250.667 2.84932 253.213 2.02023 255.817 1.79777C258.417 1.57531 261.075 1.95796 263.653 3.02357L317.109 25.1186Z" fill="#F7FFA4" stroke="#F7FFA4" stroke-width="1.25516" stroke-miterlimit="10" stroke-linecap="round" stroke-linejoin="round"/>
<path d="M495.289 180.29L497.253 196.555C497.159 195.8 496.934 195.068 496.588 194.39C496.234 193.69 495.748 193.015 495.131 192.377C494.514 191.737 493.765 191.135 492.886 190.579C492.006 190.024 490.995 189.515 489.854 189.064L487.913 172.74C489.049 173.195 490.056 173.708 490.933 174.269C491.809 174.829 492.556 175.436 493.172 176.081C493.787 176.724 494.272 177.404 494.625 178.109C494.97 178.793 495.195 179.53 495.289 180.29ZM274.831 101.561L190.93 166.922L226.092 55.0726L237.73 18.0526L226.888 16.8212L215.317 53.5746L172.472 189.675C172.203 190.528 172.215 191.445 172.507 192.291C172.799 193.137 173.355 193.867 174.092 194.373L175.893 195.608L262.421 128.904L275.865 118.54L274.831 101.561Z" fill="#231F20" stroke="#F7FFA4" stroke-width="1.25516" stroke-miterlimit="10" stroke-linecap="round" stroke-linejoin="round"/>
<path d="M487.913 172.74L303.581 98.2653L304.754 115.239L489.854 189.064L487.913 172.74Z" fill="#231F20" stroke="#F7FFA4" stroke-width="1.25516" stroke-miterlimit="10" stroke-linecap="round" stroke-linejoin="round"/>
<path d="M275.866 118.539L274.831 101.561C276.556 100.217 278.656 99.1155 280.978 98.2749C283.302 97.4337 285.845 96.8542 288.452 96.5554C291.059 96.2561 293.729 96.2375 296.304 96.5173C298.877 96.7965 301.355 97.3735 303.581 98.2653L304.754 115.24C302.519 114.356 300.03 113.784 297.444 113.509C294.857 113.234 292.175 113.255 289.555 113.554C286.935 113.853 284.379 114.431 282.044 115.269C279.711 116.106 277.599 117.202 275.866 118.539Z" fill="#231F20" stroke="#F7FFA4" stroke-width="1.25516" stroke-miterlimit="10" stroke-linecap="round" stroke-linejoin="round"/>
<path d="M489.854 189.064C492.181 189.983 493.967 191.144 495.206 192.455C496.443 193.763 497.134 195.221 497.272 196.737C497.41 198.249 496.998 199.82 496.03 201.36C495.063 202.896 493.541 204.402 491.458 205.788L391.456 272.335L175.894 195.607L262.421 128.903L275.866 118.539C277.599 117.202 279.711 116.106 282.044 115.268C284.379 114.43 286.935 113.852 289.555 113.553C292.175 113.254 294.857 113.233 297.444 113.508C300.03 113.783 302.519 114.355 304.754 115.239L489.854 189.064Z" fill="#231F20" stroke="#F7FFA4" stroke-width="1.25516" stroke-miterlimit="10" stroke-linecap="round" stroke-linejoin="round"/>
<path d="M382.589 118.117L362.048 65.7919L372.857 70.2246L382.589 118.117Z" fill="url(#paint0_linear_194_67)"/>
<path d="M426.139 8.32198L451.341 20.1406L463.558 81.1714L383.008 118.098L366.506 35.6602L426.139 8.32198Z" fill="#FFF548" stroke="#231F20" stroke-width="1.25516" stroke-miterlimit="10" stroke-linecap="round" stroke-linejoin="round"/>
<path d="M445.123 45.0156C444.883 45.1293 444.678 45.3081 444.534 45.5318C444.524 45.5364 444.262 45.9316 443.772 46.6331C442.063 49.1103 437.716 55.3603 433.288 61.2036C431.067 64.1172 428.829 66.9434 426.897 69.1314C425.935 70.2186 425.056 71.1506 424.315 71.8406C423.575 72.5396 422.95 72.985 422.657 73.1196C421.595 73.6062 420.474 73.8452 419.2 73.9422C417.293 74.0853 415.066 73.8668 412.372 73.7468C409.667 73.6208 406.503 73.5781 402.678 74.1139C401.613 74.2615 400.576 74.5657 399.599 75.0168C397.391 76.0292 395.564 77.7034 394.087 79.5775C391.87 82.4048 390.406 85.692 389.466 88.2827C388.526 90.8739 388.111 92.7801 388.109 92.8233C387.961 93.4836 388.317 94.0195 388.899 94.028C389.059 94.0298 389.217 93.9953 389.362 93.9271C389.759 93.7453 390.097 93.338 390.197 92.8615L390.202 92.8379C390.274 92.52 391.013 89.2895 392.633 85.8039C393.434 84.0705 394.46 82.2662 395.695 80.7355C396.929 79.1964 398.363 77.9349 400.031 77.1701C400.806 76.8143 401.629 76.5726 402.474 76.4525C407.358 75.7806 411.118 76.0588 414.342 76.2436C415.953 76.331 417.437 76.4028 418.874 76.2948C420.302 76.1904 421.704 75.9077 423.088 75.2734C423.977 74.8551 424.843 74.1189 425.85 73.1497C427.599 71.4474 429.71 68.9651 431.925 66.1811C438.57 57.8185 446.138 46.6718 446.155 46.6537C446.538 46.0862 446.497 45.3636 446.041 45.0533C445.781 44.8735 445.439 44.871 445.123 45.0156ZM396.747 57.6643C393.734 59.0458 390.765 57.6538 390.146 54.5594C389.526 51.465 391.487 47.8232 394.501 46.4418C397.524 45.0558 400.491 46.4383 401.111 49.5326C401.73 52.627 399.771 56.2783 396.747 57.6643ZM394.069 44.2885C389.89 46.2042 387.184 51.2465 388.041 55.524C388.899 59.8116 392.999 61.7339 397.178 59.8176C401.367 57.8973 404.072 52.855 403.214 48.568C402.358 44.29 398.259 42.3677 394.069 44.2885Z" fill="#EFF700"/>
<path d="M426.139 8.32198L439.596 27.6315L451.341 20.1406L426.139 8.32198Z" fill="#EFF700" stroke="#231F20" stroke-width="1.25516" stroke-miterlimit="10" stroke-linecap="round" stroke-linejoin="round"/>
<path d="M432.704 28.7935L438.432 25.6861L425.783 8.65492L432.704 28.7935Z" fill="url(#paint1_linear_194_67)"/>
<path d="M435.137 95.5195L416.157 88.4574L393.409 121.715L435.137 95.5195Z" fill="#F7FFA4"/>
<path d="M423.749 209.717L299.587 163.476L292.668 168.64L416.716 214.543L423.749 209.717ZM379.259 207.209L286.649 173.132L279.812 178.235L372.332 212.063L379.259 207.209Z" fill="#231F20" stroke="#F7FFA4" stroke-width="1.25516" stroke-miterlimit="10" stroke-linecap="round" stroke-linejoin="round"/>
<mask id="mask0_194_67" style="mask-type:luminance" maskUnits="userSpaceOnUse" x="0" y="79" width="418" height="310">
<path d="M315.817 388.976L352.001 327.064C356.759 318.924 367.163 316.107 375.375 320.735L390.275 329.133L417.465 256.318L392.367 272.22C393.715 271.407 388.959 251.144 385.674 245.438C379.589 234.869 367.86 222.8 357.867 216.442C344.797 208.128 324.898 199.007 307.875 198.052C305.652 197.927 303.613 196.808 302.384 194.951C297.135 187.022 282.627 165.694 273.321 157.745C261.793 147.899 246.858 140.452 246.858 140.452L230.485 135.379L255.165 116.966L166.485 79.7212L0 222.004L19.2417 355.497L315.817 388.976Z" fill="white"/>
</mask>
<g mask="url(#mask0_194_67)">
<path opacity="0.5" d="M137.928 204.664C137.995 204.62 138.058 204.568 138.123 204.521C138.401 204.323 138.661 204.101 138.901 203.858C139.027 203.729 139.141 203.59 139.256 203.45C139.291 203.407 139.33 203.369 139.364 203.325C139.417 203.258 139.472 203.195 139.522 203.126C139.672 202.915 139.803 202.688 139.928 202.458C139.958 202.405 139.995 202.357 140.022 202.303C140.048 202.253 140.067 202.2 140.09 202.149C140.184 201.954 140.26 201.749 140.335 201.543C140.355 201.491 140.38 201.441 140.398 201.388C140.432 201.287 140.461 201.185 140.49 201.082C140.557 200.849 140.612 200.611 140.656 200.367C140.675 200.266 140.696 200.166 140.71 200.062C140.758 199.718 140.79 199.368 140.79 199.009C140.806 197.042 140.9 195.107 141.03 193.186C141.104 192.087 141.184 190.99 141.294 189.907L141.295 189.898C141.396 188.913 141.532 187.943 141.662 186.971C141.74 186.384 141.803 185.79 141.892 185.209C141.893 185.203 141.893 185.198 141.895 185.192C141.903 185.135 141.91 185.078 141.919 185.02V185.019C141.978 184.647 142.055 184.286 142.119 183.917C142.582 181.169 143.154 178.475 143.849 175.85L143.852 175.841C144.168 174.643 144.51 173.451 144.877 172.267C145.798 169.31 146.881 166.405 148.12 163.567L148.123 163.559C148.595 162.477 149.09 161.404 149.607 160.343C149.668 160.219 149.726 160.092 149.787 159.968L149.79 159.962C150.339 158.857 150.914 157.764 151.513 156.685L151.518 156.677C152.314 155.237 153.155 153.822 154.038 152.434L154.042 152.428C154.466 151.763 154.911 151.115 155.352 150.465C161.135 141.954 168.421 134.778 176.857 129.294C177.146 129.106 177.433 128.911 177.726 128.727L128.634 159.677C128.339 159.863 128.05 160.06 127.756 160.25C127.555 160.382 127.353 160.512 127.152 160.646C126.173 161.295 125.209 161.967 124.261 162.662C124.1 162.781 123.941 162.903 123.78 163.023C122.872 163.7 121.979 164.398 121.102 165.115C121.011 165.19 120.917 165.261 120.826 165.336C119.909 166.098 119.01 166.882 118.13 167.687C117.073 168.647 116.042 169.637 115.041 170.655C114.912 170.786 114.787 170.921 114.659 171.054C113.875 171.864 113.108 172.692 112.36 173.536C112.26 173.65 112.157 173.76 112.057 173.875C111.27 174.777 110.504 175.698 109.76 176.636C108.853 177.772 107.978 178.933 107.136 180.118C107.042 180.251 106.951 180.388 106.858 180.522C106.201 181.461 105.565 182.414 104.95 183.381C104.855 183.531 104.756 183.678 104.661 183.829C103.881 185.077 103.135 186.345 102.425 187.634C101.824 188.715 101.249 189.809 100.699 190.915C100.638 191.039 100.58 191.166 100.519 191.291C100.001 192.353 99.5055 193.426 99.0333 194.509C98.952 194.696 98.8667 194.882 98.7858 195.07C98.2966 196.216 97.833 197.374 97.3954 198.541C97.3035 198.784 97.2147 199.029 97.1254 199.274C96.6827 200.477 96.2672 201.69 95.879 202.911C95.8474 203.013 95.8187 203.116 95.7871 203.217C95.4201 204.402 95.0782 205.594 94.7616 206.794C94.7029 207.015 94.6416 207.234 94.5839 207.457C94.2639 208.707 93.971 209.964 93.7055 211.227C93.6508 211.485 93.6001 211.745 93.5474 212.004C93.2789 213.32 93.0397 214.643 92.8301 215.97C92.82 216.032 92.813 216.096 92.803 216.159C92.6027 217.459 92.4355 218.775 92.289 220.101C92.2613 220.352 92.2312 220.602 92.2051 220.855C92.0684 222.197 91.9598 223.542 91.8794 224.888C91.8633 225.156 91.8517 225.426 91.8377 225.694C91.7649 227.105 91.7122 228.524 91.7007 229.959C91.7002 230.317 91.668 230.667 91.6208 231.01C91.6068 231.114 91.5852 231.215 91.5671 231.317C91.523 231.561 91.4677 231.8 91.401 232.033C91.3714 232.135 91.3428 232.238 91.3091 232.337C91.2213 232.598 91.1184 232.85 91.0034 233.093C90.9783 233.146 90.9588 233.202 90.9322 233.254C90.7863 233.54 90.6193 233.814 90.4327 234.075C90.383 234.145 90.3263 234.209 90.2741 234.276C90.252 234.304 90.2264 234.329 90.2038 234.357L90.2174 234.349C90.0889 234.509 89.9538 234.664 89.8103 234.809C89.9498 234.667 90.0778 234.513 90.2038 234.357L86.9355 236.417C87.6133 236.267 88.2582 235.995 88.839 235.614C88.8144 235.63 88.7928 235.65 88.7687 235.666C93.8792 232.442 137.359 205.034 137.928 204.664Z" fill="url(#paint2_linear_194_67)"/>
</g>
<mask id="mask1_194_67" style="mask-type:luminance" maskUnits="userSpaceOnUse" x="0" y="79" width="418" height="310">
<path d="M315.817 388.976L352.001 327.064C356.759 318.924 367.163 316.107 375.375 320.735L390.275 329.133L417.465 256.318L392.367 272.22C393.715 271.407 388.959 251.144 385.674 245.438C379.589 234.869 367.86 222.8 357.867 216.442C344.797 208.128 324.898 199.007 307.875 198.052C305.652 197.927 303.613 196.808 302.384 194.951C297.135 187.022 282.627 165.694 273.321 157.745C261.793 147.899 246.858 140.452 246.858 140.452L230.485 135.379L255.165 116.966L166.485 79.7212L0 222.004L19.2417 355.497L315.817 388.976Z" fill="white"/>
</mask>
<g mask="url(#mask1_194_67)">
<g opacity="0.5">
<path d="M228.961 117.73C265.702 122.243 296.939 149.824 309.596 185.017C310.68 188.016 313.284 190.168 316.19 190.525C318.935 190.65 321.081 190.819 323.249 191.085C324.8 191.275 326.363 191.516 327.936 191.809C368.398 199.316 400.016 238.939 399.484 281.352C398.937 325.516 364.42 357.07 322.189 352.024L155.007 331.488C121.539 327.377 93.4601 295.253 93.9009 260.254C94.2527 232.319 111.866 210.794 136.025 205.466C138.902 204.829 140.786 202.176 140.791 199.008C141.207 147.938 180.682 111.8 228.961 117.73V117.73Z" fill="black"/>
<mask id="mask2_194_67" style="mask-type:luminance" maskUnits="userSpaceOnUse" x="93" y="117" width="307" height="236">
<path d="M228.961 117.73C265.702 122.243 296.939 149.824 309.596 185.017C310.68 188.016 313.284 190.168 316.19 190.525C318.935 190.65 321.081 190.819 323.249 191.085C324.8 191.275 326.363 191.516 327.936 191.809C368.398 199.316 400.016 238.939 399.484 281.352C398.937 325.516 364.42 357.07 322.189 352.024L155.007 331.488C121.539 327.377 93.4601 295.253 93.9009 260.254C94.2527 232.319 111.866 210.794 136.025 205.466C138.902 204.829 140.786 202.176 140.791 199.008C141.207 147.938 180.682 111.8 228.961 117.73V117.73Z" fill="white"/>
</mask>
<g mask="url(#mask2_194_67)">
<path d="M228.961 117.73C265.702 122.243 296.939 149.824 309.596 185.017C310.68 188.016 313.284 190.168 316.19 190.525C318.935 190.65 321.081 190.819 323.249 191.085C324.8 191.275 326.363 191.516 327.936 191.809C368.398 199.316 400.016 238.939 399.484 281.352C398.937 325.516 364.42 357.07 322.189 352.024L155.007 331.488C121.539 327.377 93.4601 295.253 93.9009 260.254C94.2527 232.319 111.866 210.794 136.025 205.466C138.902 204.829 140.786 202.176 140.791 199.008C141.207 147.938 180.682 111.8 228.961 117.73Z" fill="#BCBEC0"/>
</g>
</g>
</g>
<mask id="mask3_194_67" style="mask-type:luminance" maskUnits="userSpaceOnUse" x="0" y="79" width="418" height="310">
<path d="M315.817 388.976L352.001 327.064C356.759 318.924 367.163 316.107 375.375 320.735L390.275 329.133L417.465 256.318L392.367 272.22C393.715 271.407 388.959 251.144 385.674 245.438C379.589 234.869 367.86 222.8 357.867 216.442C344.797 208.128 324.898 199.007 307.875 198.052C305.652 197.927 303.613 196.808 302.384 194.951C297.135 187.022 282.627 165.694 273.321 157.745C261.793 147.899 246.858 140.452 246.858 140.452L230.485 135.379L255.165 116.966L166.485 79.7212L0 222.004L19.2417 355.497L315.817 388.976Z" fill="white"/>
</mask>
<g mask="url(#mask3_194_67)">
<path opacity="0.5" d="M309.597 185.017C296.94 149.824 265.703 122.243 228.961 117.73C227.586 117.562 226.22 117.437 224.86 117.335C224.437 117.304 224.018 117.285 223.597 117.259C222.189 117.175 220.778 117.125 219.367 117.111C218.4 117.104 217.432 117.114 216.465 117.141C216.091 117.151 215.715 117.153 215.343 117.168C214.033 117.22 212.726 117.303 211.42 117.419C211.221 117.437 211.024 117.465 210.826 117.484C209.726 117.592 208.632 117.721 207.547 117.874C207.13 117.932 206.717 118 206.302 118.065C205.417 118.204 204.536 118.357 203.662 118.525C203.239 118.606 202.817 118.688 202.397 118.776C201.445 118.975 200.503 119.195 199.567 119.429C199.267 119.504 198.964 119.57 198.666 119.649C197.451 119.968 196.244 120.317 195.046 120.696C194.769 120.784 194.497 120.884 194.221 120.975C193.301 121.277 192.386 121.597 191.478 121.934C191.085 122.08 190.697 122.233 190.307 122.386C189.5 122.702 188.7 123.033 187.906 123.376C187.532 123.538 187.157 123.698 186.787 123.866C185.854 124.287 184.933 124.729 184.022 125.187C183.824 125.286 183.622 125.377 183.426 125.478C182.329 126.042 181.247 126.634 180.181 127.252C179.888 127.421 179.602 127.601 179.311 127.775C178.782 128.091 178.248 128.399 177.727 128.727L128.635 159.677C129.156 159.349 129.689 159.042 130.218 158.726C137.614 154.315 145.81 151.161 154.575 149.474C155.125 149.368 155.675 149.26 156.229 149.166L156.212 149.189C163.75 147.906 171.678 147.674 179.87 148.68C216.611 153.193 247.848 180.774 260.505 215.967C261.588 218.966 264.193 221.118 267.098 221.475L316.19 190.524C313.284 190.168 310.68 188.016 309.597 185.017Z" fill="url(#paint3_linear_194_67)"/>
</g>
<mask id="mask4_194_67" style="mask-type:luminance" maskUnits="userSpaceOnUse" x="0" y="79" width="418" height="310">
<path d="M315.817 388.976L352.001 327.064C356.759 318.924 367.163 316.107 375.375 320.735L390.275 329.133L417.465 256.318L392.367 272.22C393.715 271.407 388.959 251.144 385.674 245.438C379.589 234.869 367.86 222.8 357.867 216.442C344.797 208.128 324.898 199.007 307.875 198.052C305.652 197.927 303.613 196.808 302.384 194.951C297.135 187.022 282.627 165.694 273.321 157.745C261.793 147.899 246.858 140.452 246.858 140.452L230.485 135.379L255.165 116.966L166.485 79.7212L0 222.004L19.2417 355.497L315.817 388.976Z" fill="white"/>
</mask>
<g mask="url(#mask4_194_67)">
<path opacity="0.4" d="M367.506 342.015C359.261 347.299 349.794 350.762 339.562 352.012C340.021 351.961 340.481 351.911 340.936 351.847C340.309 351.936 339.677 352.011 339.045 352.083L339.05 352.074C338.548 352.132 338.052 352.205 337.546 352.252C336.412 352.357 335.267 352.43 334.115 352.48C333.338 352.513 332.553 352.516 331.769 352.525C331.376 352.53 330.986 352.542 330.591 352.54C327.783 352.527 324.978 352.355 322.19 352.024L155.007 331.488L105.915 362.438L273.097 382.974L273.106 382.975C274.31 383.119 275.5 383.224 276.685 383.309C277.058 383.335 277.427 383.351 277.799 383.372C279.031 383.443 280.265 383.482 281.5 383.49C282.338 383.494 283.176 383.483 284.014 383.458C284.35 383.448 284.689 383.445 285.023 383.43C286.175 383.38 287.319 383.307 288.454 383.202C288.609 383.188 288.762 383.165 288.918 383.15C289.899 383.053 290.873 382.935 291.841 382.797C292.207 382.745 292.569 382.684 292.932 382.626C293.704 382.504 294.47 382.37 295.232 382.222C295.607 382.149 295.982 382.075 296.356 381.996C297.169 381.824 297.975 381.635 298.777 381.434C299.059 381.364 299.343 381.3 299.623 381.226C300.69 380.944 301.747 380.639 302.791 380.307C303.011 380.237 303.227 380.157 303.444 380.085C304.273 379.813 305.095 379.526 305.909 379.222C306.251 379.094 306.591 378.96 306.931 378.826C307.633 378.551 308.329 378.264 309.019 377.966C309.354 377.82 309.69 377.676 310.023 377.526C310.799 377.174 311.568 376.807 312.33 376.425C312.541 376.319 312.756 376.221 312.966 376.113C313.924 375.62 314.871 375.104 315.804 374.565C316.045 374.427 316.279 374.278 316.517 374.136C317.015 373.841 317.516 373.55 318.006 373.242L367.098 342.292C366.606 342.602 366.103 342.893 365.604 343.19C366.245 342.809 366.879 342.416 367.506 342.015Z" fill="#727272"/>
</g>
<mask id="mask5_194_67" style="mask-type:luminance" maskUnits="userSpaceOnUse" x="0" y="79" width="418" height="310">
<path d="M315.817 388.976L352.001 327.064C356.759 318.924 367.163 316.107 375.375 320.735L390.275 329.133L417.465 256.318L392.367 272.22C393.715 271.407 388.959 251.144 385.674 245.438C379.589 234.869 367.86 222.8 357.867 216.442C344.797 208.128 324.898 199.007 307.875 198.052C305.652 197.927 303.613 196.808 302.384 194.951C297.135 187.022 282.627 165.694 273.321 157.745C261.793 147.899 246.858 140.452 246.858 140.452L230.485 135.379L255.165 116.966L166.485 79.7212L0 222.004L19.2417 355.497L315.817 388.976Z" fill="white"/>
</mask>
<g mask="url(#mask5_194_67)">
<path opacity="0.6" d="M142.754 328.682C141.761 328.347 140.777 327.988 139.801 327.605C113.46 317.268 93.5284 289.785 93.9003 260.254L93.9013 260.222C93.9199 258.815 93.9927 257.429 94.0976 256.056L94.1061 255.937C94.1945 254.803 94.3014 253.675 94.4475 252.565V252.564C94.4495 252.55 94.452 252.537 94.4535 252.523C94.454 252.518 94.4555 252.514 94.4555 252.51C94.6297 251.193 94.8531 249.899 95.1055 248.619C95.1161 248.565 95.1256 248.51 95.1367 248.456L95.1372 248.455C95.3515 247.379 95.5839 246.313 95.8525 245.266L95.8535 245.261C95.86 245.236 95.8675 245.213 95.8735 245.189L95.8781 245.173C96.47 242.873 97.2003 240.611 98.0651 238.4L98.0661 238.396L98.0942 238.328C98.943 236.165 99.9242 234.056 101.032 232.014C101.044 231.991 101.057 231.969 101.07 231.947C101.554 231.065 102.062 230.197 102.592 229.342L102.595 229.337C102.729 229.121 102.863 228.906 102.999 228.692L103 228.691C103.542 227.834 104.108 226.992 104.697 226.166L104.698 226.165C104.715 226.141 104.734 226.117 104.752 226.092C108.761 220.533 113.739 215.849 119.447 212.257C119.42 212.274 119.392 212.289 119.365 212.306C119.379 212.298 119.392 212.288 119.405 212.279L70.3142 243.23L70.2725 243.258C69.4352 243.79 68.6132 244.347 67.8074 244.926C67.6056 245.07 67.4068 245.216 67.2076 245.362C66.4549 245.914 65.7173 246.486 64.9954 247.078C64.9397 247.124 64.8815 247.167 64.8258 247.213C63.8721 248.009 62.9469 248.839 62.0519 249.701C61.3687 250.352 60.7029 251.022 60.0551 251.709C60.0105 251.756 59.9633 251.802 59.9191 251.849C59.2387 252.584 58.5792 253.338 57.9414 254.111C57.7812 254.303 57.6231 254.497 57.466 254.692C56.8586 255.44 56.2714 256.204 55.7051 256.984C55.6735 257.028 55.6389 257.07 55.6073 257.115C55.0175 257.941 54.4509 258.784 53.9081 259.642C53.7716 259.856 53.6371 260.071 53.5035 260.287C52.9829 261.125 52.4848 261.977 52.0097 262.842C51.9876 262.883 51.963 262.922 51.9409 262.963C51.45 263.867 50.9897 264.794 50.5455 265.732C50.434 265.967 50.3256 266.202 50.2172 266.439C49.7917 267.364 49.3908 268.3 49.015 269.247C49.002 269.279 48.9879 269.311 48.9753 269.343C48.592 270.331 48.2356 271.329 47.9067 272.336C47.8234 272.589 47.742 272.843 47.6622 273.097C47.342 274.102 47.0486 275.116 46.7823 276.138C46.7763 276.162 46.7682 276.186 46.7622 276.21C46.4932 277.26 46.2602 278.328 46.0454 279.405C45.9917 279.674 45.94 279.943 45.8898 280.212C45.6851 281.295 45.509 282.382 45.3617 283.474C45.3597 283.487 45.3572 283.5 45.3562 283.513C45.2127 284.635 45.0987 285.76 45.0144 286.888C44.9923 287.171 44.9727 287.454 44.9541 287.738C44.8793 288.883 44.8236 290.035 44.8091 291.203C44.3684 326.203 72.447 358.327 105.915 362.438L155.007 331.487C150.823 330.974 146.724 330.023 142.754 328.682Z" fill="#F7FFA4"/>
</g>
<mask id="mask6_194_67" style="mask-type:luminance" maskUnits="userSpaceOnUse" x="0" y="79" width="418" height="310">
<path d="M315.817 388.976L352.001 327.064C356.759 318.924 367.163 316.107 375.375 320.735L390.275 329.133L417.465 256.318L392.367 272.22C393.715 271.407 388.959 251.144 385.674 245.438C379.589 234.869 367.86 222.8 357.867 216.442C344.797 208.128 324.898 199.007 307.875 198.052C305.652 197.927 303.613 196.808 302.384 194.951C297.135 187.022 282.627 165.694 273.321 157.745C261.793 147.899 246.858 140.452 246.858 140.452L230.485 135.379L255.165 116.966L166.485 79.7212L0 222.004L19.2417 355.497L315.817 388.976Z" fill="white"/>
</mask>
<g mask="url(#mask6_194_67)">
<g opacity="0.5">
<path d="M70.3152 243.23L119.407 212.279C124.434 209.11 130.028 206.79 136.026 205.467C136.675 205.324 137.295 205.07 137.858 204.716L88.7663 235.666C88.2035 236.021 87.5836 236.275 86.9341 236.418C80.9362 237.74 75.3423 240.061 70.3152 243.23V243.23Z" fill="black"/>
<mask id="mask7_194_67" style="mask-type:luminance" maskUnits="userSpaceOnUse" x="70" y="204" width="68" height="40">
<path d="M70.3152 243.23L119.407 212.279C124.434 209.11 130.028 206.79 136.026 205.467C136.675 205.324 137.295 205.07 137.858 204.716L88.7663 235.666C88.2035 236.021 87.5836 236.275 86.9341 236.418C80.9362 237.74 75.3423 240.061 70.3152 243.23V243.23Z" fill="white"/>
</mask>
<g mask="url(#mask7_194_67)">
<path d="M44.8091 291.204L93.9008 260.254C94.2527 232.319 111.866 210.794 136.025 205.466L86.9336 236.417C62.7738 241.745 45.1615 263.27 44.8091 291.204Z" fill="#F7FFA4"/>
</g>
<mask id="mask8_194_67" style="mask-type:luminance" maskUnits="userSpaceOnUse" x="70" y="204" width="68" height="40">
<path d="M70.3152 243.23L119.407 212.279C124.434 209.11 130.028 206.79 136.026 205.467C136.675 205.324 137.295 205.07 137.858 204.716L88.7663 235.666C88.2035 236.021 87.5836 236.275 86.9341 236.418C80.9362 237.74 75.3423 240.061 70.3152 243.23V243.23Z" fill="white"/>
</mask>
<g mask="url(#mask8_194_67)">
<path d="M86.9341 236.417L136.026 205.466C138.903 204.829 140.786 202.176 140.791 199.008L91.6992 229.959C91.6942 233.126 89.8108 235.78 86.9341 236.417Z" fill="#F7FFA4"/>
</g>
<mask id="mask9_194_67" style="mask-type:luminance" maskUnits="userSpaceOnUse" x="70" y="204" width="68" height="40">
<path d="M70.3152 243.23L119.407 212.279C124.434 209.11 130.028 206.79 136.026 205.467C136.675 205.324 137.295 205.07 137.858 204.716L88.7663 235.666C88.2035 236.021 87.5836 236.275 86.9341 236.418C80.9362 237.74 75.3423 240.061 70.3152 243.23V243.23Z" fill="white"/>
</mask>
<g mask="url(#mask9_194_67)">
<path d="M70.3152 243.23L119.407 212.279C124.434 209.11 130.028 206.79 136.026 205.467C136.675 205.324 137.295 205.07 137.858 204.716L88.7663 235.666C88.2035 236.021 87.5836 236.275 86.9341 236.418C80.9362 237.74 75.3423 240.061 70.3152 243.23Z" fill="#F7FFA4"/>
</g>
</g>
</g>
<mask id="mask10_194_67" style="mask-type:luminance" maskUnits="userSpaceOnUse" x="0" y="79" width="418" height="310">
<path d="M315.817 388.976L352.001 327.064C356.759 318.924 367.163 316.107 375.375 320.735L390.275 329.133L417.465 256.318L392.367 272.22C393.715 271.407 388.959 251.144 385.674 245.438C379.589 234.869 367.86 222.8 357.867 216.442C344.797 208.128 324.898 199.007 307.875 198.052C305.652 197.927 303.613 196.808 302.384 194.951C297.135 187.022 282.627 165.694 273.321 157.745C261.793 147.899 246.858 140.452 246.858 140.452L230.485 135.379L255.165 116.966L166.485 79.7212L0 222.004L19.2417 355.497L315.817 388.976Z" fill="white"/>
</mask>
<g mask="url(#mask10_194_67)">
<path d="M313.437 375.857C313.88 375.624 314.316 375.38 314.754 375.138C314.316 375.38 313.88 375.625 313.437 375.857Z" fill="url(#paint4_linear_194_67)"/>
<path d="M307.452 378.612C307.965 378.405 308.477 378.2 308.983 377.981C308.477 378.199 307.965 378.405 307.452 378.612Z" fill="url(#paint5_linear_194_67)"/>
<path opacity="0.75" d="M327.936 191.809C326.381 191.519 324.818 191.277 323.249 191.085C321.081 190.818 318.935 190.65 316.19 190.525L267.098 221.475C269.844 221.601 271.989 221.769 274.157 222.035C275.244 222.169 276.337 222.336 277.433 222.519C277.903 222.598 278.372 222.672 278.844 222.76C291.489 225.106 303.27 230.588 313.476 238.312C314.497 239.085 315.501 239.88 316.489 240.695C320.455 243.975 324.142 247.577 327.514 251.466C332.608 257.339 336.966 263.814 340.491 270.744C343.431 276.531 345.782 282.63 347.454 288.933C349.461 296.496 350.492 304.35 350.392 312.303C350.367 314.35 350.244 316.361 350.076 318.351C350.024 318.959 349.984 319.572 349.92 320.174C349.92 320.177 349.919 320.18 349.919 320.183C349.896 320.397 349.869 320.609 349.845 320.822L349.844 320.834C349.713 321.981 349.558 323.126 349.378 324.267L349.378 324.27C348.942 326.995 348.362 329.694 347.641 332.356L347.64 332.358C347.61 332.469 347.574 332.578 347.543 332.689C347.263 333.703 346.976 334.713 346.658 335.705L346.657 335.709C346.313 336.771 345.945 337.826 345.554 338.872L345.554 338.873C345.383 339.333 345.198 339.784 345.018 340.239C344.719 341.001 344.419 341.763 344.096 342.508L344.093 342.515C344.021 342.68 343.945 342.844 343.872 343.008L343.87 343.014C343.624 343.568 343.36 344.108 343.103 344.654C342.873 345.137 342.658 345.629 342.418 346.106L342.416 346.11C341.93 347.074 341.423 348.027 340.894 348.969L340.894 348.969C340.304 350.024 339.689 351.058 339.05 352.073L339.06 352.072C339.021 352.135 338.98 352.195 338.94 352.257C333.667 360.582 326.775 367.554 318.7 372.788C318.469 372.938 318.241 373.094 318.007 373.241L367.099 342.29C367.332 342.143 367.56 341.987 367.792 341.837C368.836 341.162 369.861 340.457 370.865 339.724C370.993 339.63 371.119 339.533 371.246 339.438C372.033 338.854 372.807 338.253 373.567 337.635C373.668 337.553 373.772 337.473 373.872 337.39C374.671 336.73 375.454 336.051 376.222 335.354C377.15 334.516 378.055 333.651 378.935 332.762C379.036 332.66 379.133 332.555 379.233 332.453C379.92 331.748 380.591 331.028 381.247 330.294C381.346 330.182 381.449 330.073 381.547 329.961C382.379 329.015 383.184 328.047 383.961 327.056C384.613 326.23 385.246 325.39 385.859 324.535C385.932 324.432 386.003 324.327 386.076 324.223C386.653 323.405 387.213 322.574 387.755 321.731C387.846 321.59 387.939 321.452 388.029 321.31C388.712 320.231 389.364 319.133 389.985 318.018C390.514 317.077 391.022 316.124 391.507 315.16C391.554 315.067 391.597 314.971 391.644 314.878C392.102 313.954 392.539 313.015 392.96 312.065C393.035 311.895 393.113 311.727 393.187 311.556C393.617 310.564 394.025 309.561 394.411 308.55C394.491 308.341 394.568 308.131 394.647 307.92C395.037 306.875 395.405 305.82 395.748 304.758C395.773 304.684 395.794 304.608 395.817 304.534C396.144 303.504 396.447 302.46 396.733 301.407C396.785 301.212 396.841 301.018 396.892 300.822C397.175 299.739 397.435 298.65 397.671 297.556C397.719 297.335 397.764 297.113 397.81 296.891C398.045 295.755 398.264 294.61 398.451 293.449C398.458 293.404 398.464 293.359 398.471 293.315C398.651 292.182 398.802 291.036 398.935 289.882C398.961 289.662 398.989 289.443 399.012 289.223C399.136 288.07 399.235 286.907 399.31 285.735C399.325 285.504 399.336 285.272 399.349 285.041C399.418 283.82 399.469 282.593 399.485 281.351C400.016 238.94 368.398 199.316 327.936 191.809Z" fill="url(#paint6_linear_194_67)"/>
</g>
<mask id="mask11_194_67" style="mask-type:luminance" maskUnits="userSpaceOnUse" x="0" y="79" width="418" height="310">
<path d="M315.817 388.976L352.001 327.064C356.759 318.924 367.163 316.107 375.375 320.735L390.275 329.133L417.465 256.318L392.367 272.22C393.715 271.407 388.959 251.144 385.674 245.438C379.589 234.869 367.86 222.8 357.867 216.442C344.797 208.128 324.898 199.007 307.875 198.052C305.652 197.927 303.613 196.808 302.384 194.951C297.135 187.022 282.627 165.694 273.321 157.745C261.793 147.899 246.858 140.452 246.858 140.452L230.485 135.379L255.165 116.966L166.485 79.7212L0 222.004L19.2417 355.497L315.817 388.976Z" fill="white"/>
</mask>
<g mask="url(#mask11_194_67)">
<g opacity="0.5">
<path d="M179.87 148.681C216.611 153.194 247.848 180.774 260.505 215.967C261.588 218.967 264.193 221.118 267.098 221.475C269.844 221.601 271.99 221.769 274.158 222.035C275.709 222.226 277.272 222.467 278.844 222.76C319.307 230.266 350.924 269.89 350.393 312.303C349.846 356.467 315.328 388.02 273.098 382.975L105.915 362.439C72.4475 358.328 44.3688 326.204 44.8096 291.204C45.1614 263.27 62.7742 241.745 86.9341 236.417C89.8108 235.78 91.6942 233.126 91.6992 229.959C92.1149 178.888 131.591 142.751 179.87 148.681V148.681Z" fill="black"/>
<mask id="mask12_194_67" style="mask-type:luminance" maskUnits="userSpaceOnUse" x="44" y="148" width="307" height="236">
<path d="M179.87 148.681C216.611 153.194 247.848 180.774 260.505 215.967C261.588 218.967 264.193 221.118 267.098 221.475C269.844 221.601 271.99 221.769 274.158 222.035C275.709 222.226 277.272 222.467 278.844 222.76C319.307 230.266 350.924 269.89 350.393 312.303C349.846 356.467 315.328 388.02 273.098 382.975L105.915 362.439C72.4475 358.328 44.3688 326.204 44.8096 291.204C45.1614 263.27 62.7742 241.745 86.9341 236.417C89.8108 235.78 91.6942 233.126 91.6992 229.959C92.1149 178.888 131.591 142.751 179.87 148.681V148.681Z" fill="white"/>
</mask>
<g mask="url(#mask12_194_67)">
<path opacity="0.7" d="M179.87 148.681C216.611 153.194 247.848 180.774 260.505 215.967C261.588 218.967 264.193 221.118 267.098 221.475C269.844 221.601 271.99 221.769 274.158 222.035C275.709 222.226 277.272 222.467 278.844 222.76C319.307 230.266 350.924 269.89 350.393 312.303C349.846 356.467 315.328 388.02 273.098 382.975L105.915 362.439C72.4475 358.328 44.3688 326.204 44.8096 291.204C45.1614 263.27 62.7742 241.745 86.9341 236.417C89.8108 235.78 91.6942 233.126 91.6992 229.959C92.1149 178.888 131.591 142.751 179.87 148.681Z" fill="url(#paint7_linear_194_67)"/>
</g>
</g>
</g>
<mask id="mask13_194_67" style="mask-type:luminance" maskUnits="userSpaceOnUse" x="0" y="79" width="418" height="310">
<path d="M315.817 388.976L352.001 327.064C356.759 318.924 367.163 316.107 375.375 320.735L390.275 329.133L417.465 256.318L392.367 272.22C393.715 271.407 388.959 251.144 385.674 245.438C379.589 234.869 367.86 222.8 357.867 216.442C344.797 208.128 324.898 199.007 307.875 198.052C305.652 197.927 303.613 196.808 302.384 194.951C297.135 187.022 282.627 165.694 273.321 157.745C261.793 147.899 246.858 140.452 246.858 140.452L230.485 135.379L255.165 116.966L166.485 79.7212L0 222.004L19.2417 355.497L315.817 388.976Z" fill="white"/>
</mask>
<g mask="url(#mask13_194_67)">
<path d="M179.87 148.681C216.611 153.194 247.848 180.774 260.505 215.967C261.588 218.967 264.193 221.118 267.098 221.475C269.844 221.601 271.99 221.769 274.158 222.035C275.709 222.226 277.272 222.467 278.844 222.76C319.307 230.266 350.924 269.89 350.393 312.303C349.846 356.467 315.328 388.02 273.098 382.975L105.915 362.439C72.4475 358.328 44.3688 326.204 44.8096 291.204C45.1614 263.27 62.7742 241.745 86.9341 236.417C89.8108 235.78 91.6942 233.126 91.6992 229.959C92.1149 178.888 131.591 142.751 179.87 148.681Z" stroke="white" stroke-width="1.25516" stroke-miterlimit="10"/>
</g>
<path opacity="0.3" d="M300.128 192.871C295.269 184.449 284.966 168.408 269.528 153.515L307.498 178.952C311.463 181.608 315.914 183.462 320.599 184.366C327.17 185.635 339.269 188.403 359.529 194.384C394.267 204.641 426.028 247.692 426.028 247.692L392.366 272.221C392.366 272.221 393.06 247.692 368.83 224.247C361.712 217.36 354.516 214.556 347.809 211.024C331.278 202.321 317.468 199.773 309.818 199.056C305.775 198.677 302.157 196.389 300.128 192.871Z" fill="url(#paint8_linear_194_67)"/>
<mask id="mask14_194_67" style="mask-type:luminance" maskUnits="userSpaceOnUse" x="19" y="303" width="168" height="180">
<path d="M55.292 303.102L62.9635 307.729C65.8151 305.334 71.1916 307.555 69.755 311.867L78.7451 317.311C80.5688 312.594 87.9837 316.065 86.6249 322.124L128.18 345.643C135.224 343.524 136.389 351.916 133.099 352.524L144.278 359.139C143.629 356.686 151.507 351.538 153.572 360.492L160.63 368.264L186.809 371.646L181.446 393.66C186.127 395.686 184.385 402.807 179.466 401.848L173.392 426.914C176.788 423.298 182.84 426.805 179.03 432.249L178.996 482.484L37.1737 448.733L19.6804 345.604L55.292 303.102Z" fill="white"/>
</mask>
<g mask="url(#mask14_194_67)">
<path d="M196.87 371.988L196.772 371.223C196.324 367.263 195.496 362.915 194.628 359.443C189.916 340.564 179.285 323.335 164.539 310.658C156.746 303.959 147.785 298.506 138.163 294.869C133.547 293.124 128.67 291.77 123.812 290.909C121.113 290.431 118.386 290.074 115.651 289.891C114.501 289.817 113.351 289.768 112.199 289.744C111.848 289.736 108.066 289.758 107.573 289.767C101.438 289.895 95.9061 291.197 95.4845 291.288C93.6528 291.681 91.8081 292.08 90.0086 292.605C86.9918 293.486 83.9409 294.569 81.1118 295.944C76.924 297.978 72.9168 300.262 69.1596 302.934C67.9324 303.806 68.6938 303.129 66.5254 304.83C57.1297 312.203 49.6083 321.838 44.7177 332.796C36.984 350.124 36.6225 368.825 40.7226 387.068C47.3048 416.363 70.2931 441.929 98.3246 452.172C109.535 456.269 121.946 457.916 133.802 456.428C139.881 455.665 145.735 454.124 151.435 451.904C153.594 451.063 155.688 450.087 157.747 449.026C158.905 448.43 160.028 447.776 161.149 447.114C161.27 447.043 161.804 446.709 161.804 446.709C187.725 431.223 200.188 401.401 196.87 371.988ZM174.302 334.653C186.111 352.623 191.375 374.631 187.683 395.902C182.007 393.63 176.043 392.115 170.029 391.059C169.176 390.909 158.508 389.648 158.506 389.627C157.226 376.092 154.562 362.725 150.554 349.734C150.218 348.643 149.938 347.703 149.938 347.703C149.938 347.703 151.039 347.139 152.368 346.628C155.345 345.483 158.284 344.234 161.149 342.831C165.785 340.561 170.264 337.876 174.302 334.653ZM158.471 389.818C158.499 389.772 158.492 389.782 158.471 389.818ZM122.038 390.413L117.72 390.942L122.029 390.414C115.348 391.229 108.718 392.413 102.169 393.961C100.073 394.457 97.9868 394.994 95.9116 395.572C95.2897 395.745 93.8029 396.243 93.8029 396.243C93.8029 396.243 92.8331 393.541 92.5987 392.771C89.0869 381.235 86.7107 369.384 85.504 357.386C97.3648 357.732 109.258 356.956 120.963 355.003C127.294 353.946 135.823 352.034 140.904 350.484C141.159 350.406 141.641 350.302 141.641 350.302C141.641 350.302 142.531 353.095 142.823 354.06C143.316 355.695 143.79 357.335 144.245 358.981C144.89 361.317 145.485 363.667 146.029 366.028C146.29 367.157 148.046 375.836 148.415 378.116C149.001 381.759 149.48 385.418 149.848 389.089C140.566 388.823 131.263 389.284 122.046 390.412C124.278 390.139 125.742 389.96 122.038 390.413ZM125.071 299.648C125.114 299.66 125.107 299.657 125.071 299.648ZM125.069 299.648C125.05 299.643 125.031 299.639 125.012 299.634L125.069 299.648ZM124.237 299.441C142.46 303.972 157.783 314.193 169.799 328.51C163.299 333.941 155.389 337.432 147.481 340.296C146.708 338.272 145.774 336.221 145.119 334.654C144.226 332.514 143.286 330.393 142.3 328.294C140.62 324.719 138.803 321.205 136.806 317.797C132.821 310.993 128.129 304.51 122.425 299.041C123.031 299.163 123.637 299.292 124.237 299.441ZM90.9698 307.316C93.7095 302.043 97.9521 297.307 104.445 298.272C110.045 299.104 114.907 303.27 118.639 307.269C128.036 317.34 134.13 330.234 139.058 342.957C122.494 347.662 105.091 349.803 87.8798 349.44C87.0174 349.422 85.7369 349.397 84.875 349.367C84.875 349.367 84.742 344.867 84.729 343.884C84.6863 340.595 84.751 337.303 84.9563 334.021C85.52 325.01 87.6223 316.071 90.8474 307.648L90.9698 307.316ZM52.4012 335.262L52.483 335.069L52.4017 335.261C58.5658 320.671 70.1816 309.138 84.5473 302.678C76.7523 316.324 75.8302 333.407 76.3452 348.755C69.3499 348.062 62.3526 346.841 55.6639 344.637C53.8625 344.042 52.0876 343.37 50.3441 342.622C50.2011 342.56 49.7177 342.396 49.7177 342.396C49.7177 342.396 51.8947 336.461 52.4012 335.262ZM52.5312 334.954C52.602 334.786 52.5884 334.819 52.5312 334.954ZM81.3232 350.296C81.287 350.293 81.149 350.176 81.3232 350.296ZM64.4302 417.151C64.5838 417.227 64.399 417.111 64.4302 417.151ZM64.7379 409.117C63.8548 409.705 62.9886 410.319 62.1402 410.956C61.7201 411.272 61.2708 411.557 61.2708 411.557C61.2708 411.557 60.1033 410.094 59.5255 409.121C57.8836 406.355 56.4329 403.47 54.9943 400.595C52.4343 395.478 50.422 390.309 48.906 384.775C45.9063 373.827 44.4566 361.625 47.6044 350.554C56.4656 354.579 66.1228 355.893 75.7223 356.805C76.2704 356.904 76.7618 357.001 76.7618 357.001C76.7618 357.001 76.9867 358.224 77.1012 359.313C77.2814 361.026 77.4837 362.736 77.7095 364.444C78.293 368.836 79.019 373.208 79.8865 377.553C80.6701 381.49 81.6043 385.399 82.6257 389.28C83.2056 391.481 83.8243 393.671 84.4815 395.849C84.7254 396.659 85.1792 398.054 85.4006 398.871C85.4006 398.871 83.9765 399.461 83.0087 399.836C76.6288 402.303 70.4261 405.298 64.7379 409.117ZM111.114 447.215C92.8356 442.667 77.4872 432.397 65.4592 418.018C67.3516 416.435 69.367 415.018 71.4692 413.734C72.3541 413.264 73.2115 412.745 74.0784 412.246C76.1028 411.141 78.1693 410.113 80.2786 409.18C81.7613 408.527 83.2588 407.908 84.7701 407.324C85.9974 406.849 87.7633 406.251 87.7633 406.251C87.7633 406.251 88.1855 406.835 88.4184 407.439C90.7399 413.46 93.3747 419.371 96.4282 425.058C100.839 433.271 106.19 441.145 112.945 447.62C112.331 447.498 111.721 447.363 111.114 447.215ZM150.477 411.542C150.055 419.337 149.044 427.257 146.401 434.641C144.56 439.782 140.595 448.442 134.052 448.442C123.363 449.323 115.911 437.813 110.472 430.227C104.553 421.972 99.8927 412.982 96.2419 403.522C112.305 398.962 129.149 396.811 145.842 397.007C147.145 397.023 148.447 397.053 149.749 397.094C149.992 397.101 150.463 397.189 150.463 397.189C150.463 397.189 150.602 400.645 150.623 401.67C150.692 404.96 150.655 408.256 150.477 411.542ZM159.895 439.152C157.009 441.046 153.969 442.567 150.822 443.982C158.65 430.283 159.553 413.123 159.018 397.718C166.038 398.422 173.061 399.647 179.771 401.867C181.569 402.462 183.339 403.136 185.078 403.887C185.226 403.95 185.697 404.124 185.697 404.124C185.697 404.124 183.523 410.088 183.017 411.289C183.017 411.29 183.016 411.292 183.016 411.293C178.486 422.069 170.708 431.683 161.12 438.34C162.795 437.205 159.896 439.147 159.895 439.152Z" fill="#161314"/>
<path d="M187.712 395.723C187.941 394.405 187.683 395.901 187.683 395.901L187.712 395.723ZM64.7379 409.117C64.8995 409.008 64.1697 409.496 64.7379 409.117ZM117.719 390.943C117.272 390.997 117.19 391.007 117.719 390.943ZM52.4017 335.261L52.4012 335.262C51.7457 336.814 52.1377 335.887 52.4017 335.261Z" fill="#161314"/>
<path d="M57.2085 317.351C57.1041 318.037 56.4174 318.764 56.0786 319.37C51.4379 327.659 47.0543 335.488 44.6273 347.609C42.8132 356.668 42.6551 363.075 42.6099 372.548C42.6084 372.858 42.4518 373.266 42.2952 373.534C34.4993 351.158 53.4904 316.136 57.0438 316.977C57.1563 317.003 57.208 317.212 57.204 317.327C57.2029 317.335 57.2095 317.344 57.2085 317.351Z" fill="#3D3A3B"/>
<path d="M55.8522 319.188C55.8707 319.318 54.268 322.225 52.5713 325.302C52.5156 325.403 46.9454 335.716 44.5651 347.603C42.8624 356.104 42.5904 363.14 42.5798 366.577C42.5653 371.338 42.5572 371.352 42.1346 372.064C35.6141 350.96 51.5534 320.275 55.4606 319.093C55.5721 319.06 55.7904 319.07 55.8401 319.175C55.8421 319.18 55.8512 319.183 55.8522 319.188Z" fill="#514E4E"/>
<path d="M54.4617 321.251C48.2595 333.886 43.3608 343.866 42.504 365.951C42.3554 369.778 42.3554 369.778 41.9985 370.591C36.5512 353.623 49.923 322.619 54.1716 321.026C54.274 320.988 54.4798 320.974 54.5325 321.07C54.5606 321.121 54.4848 321.198 54.4617 321.251Z" fill="#696667"/>
<path d="M51.1855 327.347C46.5002 338.821 45.7804 340.585 44.3714 347.583C43.8021 350.409 42.7435 355.671 42.2044 365.689C42.1753 366.235 42.0839 367.002 41.7938 367.465C38.2941 348.866 48.9462 326.564 52.339 324.573C51.9911 325.404 51.5258 326.512 51.1855 327.347Z" fill="#7B7879"/>
<path d="M178.055 425.454C178.159 424.768 178.846 424.042 179.185 423.436C183.826 415.147 188.209 407.318 190.636 395.197C192.45 386.137 192.608 379.731 192.654 370.257C192.655 369.947 192.812 369.54 192.968 369.271C200.764 391.647 181.773 426.67 178.22 425.828C178.107 425.802 178.056 425.593 178.06 425.478C178.06 425.471 178.054 425.462 178.055 425.454Z" fill="#3D3A3B"/>
<path d="M179.411 423.618C179.393 423.488 180.995 420.582 182.692 417.504C182.748 417.404 188.318 407.09 190.698 395.204C192.401 386.702 192.673 379.666 192.684 376.229C192.698 371.468 192.706 371.454 193.129 370.742C199.649 391.847 183.71 422.531 179.803 423.713C179.691 423.746 179.473 423.736 179.423 423.631C179.421 423.626 179.412 423.623 179.411 423.618Z" fill="#514E4E"/>
<path d="M180.802 421.554C187.004 408.919 191.903 398.94 192.759 376.855C192.908 373.028 192.908 373.028 193.265 372.215C198.712 389.183 185.34 420.187 181.092 421.779C180.989 421.818 180.784 421.832 180.731 421.736C180.702 421.685 180.779 421.608 180.802 421.554Z" fill="#696667"/>
<path d="M184.078 415.459C188.763 403.985 189.483 402.221 190.892 395.223C191.461 392.396 192.52 387.135 193.059 377.116C193.089 376.571 193.18 375.804 193.47 375.341C196.969 393.94 186.317 416.242 182.925 418.233C183.272 417.402 183.737 416.294 184.078 415.459Z" fill="#7B7879"/>
<path d="M86.8572 300.205C86.8572 300.205 84.2094 305.582 83.5328 307.235C82.8561 308.888 81.2433 313.967 80.5862 317.113C79.9292 320.26 79.0733 326.932 78.9142 330.656C78.7551 334.38 78.7149 342.844 78.9343 345.613C79.1536 348.381 80.0095 355.59 80.5069 358.856C81.0044 362.123 81.4225 364.333 81.5821 363.696C81.7413 363.059 81.3829 354.793 81.3829 354.793C81.3829 354.793 81.0044 347.185 81.0044 344.079C81.0044 340.972 81.1439 334.32 81.4421 330.994C81.7403 327.669 83.0348 320.12 83.4128 318.229C83.7913 316.337 87.0359 305.503 89.5242 301.321C92.0124 297.139 93.0675 295.326 93.0675 295.326L86.8572 300.205Z" fill="#3D3A3B"/>
<path d="M88.7121 297.271C88.7121 297.271 82.9837 307.877 81.7865 312.838C80.5894 317.799 79.6206 323.663 79.1929 328.624C78.7652 333.585 78.6227 339.611 79.1357 345.769C79.6487 351.928 81.1024 361.85 81.0165 358.6C80.9312 355.349 80.6747 348.164 80.9312 341.15C81.1877 334.137 80.76 332.084 82.4702 322.675C84.1804 313.265 88.3928 301.549 90.9579 298.213C93.5229 294.878 88.7121 297.271 88.7121 297.271Z" fill="#514E4E"/>
<path d="M80.4376 351.214C80.4492 350.929 80.4768 349.079 80.4883 348.793C80.3899 321.398 84.0216 312.936 90.0391 298.917C82.723 304.009 76.691 327.749 80.1726 349.592L80.4376 351.214Z" fill="#696667"/>
<path d="M88.9268 300.672C89.2415 301.5 88.1312 302.58 87.7728 303.39C85.8277 307.789 83.3952 314.188 81.8391 324.72C80.6736 332.611 80.4783 340.03 80.3844 343.595C80.3167 346.159 80.3016 346.2 80.1119 346.703C78.4132 339.228 78.7872 310.974 88.7923 300.607C88.8038 300.65 88.9092 300.631 88.9268 300.672Z" fill="#7B7879"/>
<path d="M84.5473 302.678C88.1514 300.545 91.3263 298.151 93.8035 295.333V293.851L85.1185 297.151L84.5473 302.678ZM77.8391 348.95L83.7075 351.157L77.9254 356.379L77.8391 348.95Z" fill="#161314"/>
<path d="M146.02 445.619C146.02 445.619 148.775 440.296 149.484 438.656C150.194 437.017 151.907 431.972 152.626 428.839C153.346 425.706 154.334 419.053 154.567 415.333C154.801 411.612 155.009 403.15 154.845 400.378C154.681 397.606 153.969 390.381 153.536 387.106C153.103 383.83 152.729 381.612 152.558 382.246C152.386 382.88 152.58 391.151 152.58 391.151C152.58 391.151 152.807 398.764 152.745 401.87C152.683 404.977 152.411 411.624 152.047 414.943C151.682 418.263 150.238 425.783 149.822 427.667C149.407 429.552 145.947 440.319 143.376 444.45C140.805 448.582 139.714 450.373 139.714 450.373L146.02 445.619Z" fill="#3D3A3B"/>
<path d="M144.107 448.516C144.107 448.516 150.046 438.026 151.341 433.089C152.637 428.153 153.722 422.31 154.248 417.358C154.774 412.406 155.037 406.385 154.646 400.217C154.256 394.05 153 384.101 153.021 387.352C153.042 390.604 153.155 397.792 152.759 404.8C152.363 411.807 152.75 413.868 150.853 423.241C148.956 432.614 144.511 444.244 141.88 447.528C139.249 450.813 144.107 448.516 144.107 448.516Z" fill="#514E4E"/>
<path d="M153.477 395.449C153.46 395.734 153.371 396.881 153.353 397.167C152.907 424.558 149.107 432.946 142.812 446.842C150.228 441.897 156.732 418.282 153.685 396.374L153.477 395.449Z" fill="#696667"/>
<path d="M143.96 445.11C143.662 444.276 144.794 443.219 145.168 442.416C147.201 438.057 149.76 431.708 151.525 421.208C152.847 413.342 153.19 405.929 153.355 402.366C153.474 399.804 153.49 399.763 153.689 399.264C155.239 406.772 154.303 435.013 144.094 445.179C144.082 445.135 143.977 445.152 143.96 445.11Z" fill="#7B7879"/>
<path d="M148.379 443.192C144.733 445.253 141.511 447.582 138.978 450.351L138.949 451.833L147.697 448.706L148.379 443.192ZM150.85 388.662L157.017 391.029L150.47 397.117L150.85 388.662Z" fill="#161314"/>
</g>
</g>
<defs>
<linearGradient id="paint0_linear_194_67" x1="362.048" y1="91.9545" x2="382.589" y2="91.9545" gradientUnits="userSpaceOnUse">
<stop stop-color="#231F20" stop-opacity="0"/>
<stop offset="1" stop-color="#231F20"/>
</linearGradient>
<linearGradient id="paint1_linear_194_67" x1="426.761" y1="23.3956" x2="435.711" y2="12.9828" gradientUnits="userSpaceOnUse">
<stop stop-color="#231F20" stop-opacity="0"/>
<stop offset="1" stop-color="#231F20"/>
</linearGradient>
<linearGradient id="paint2_linear_194_67" x1="86.9335" y1="182.572" x2="177.727" y2="182.572" gradientUnits="userSpaceOnUse">
<stop stop-color="#F7FFA4"/>
<stop offset="1" stop-color="#F7FFA4"/>
</linearGradient>
<linearGradient id="paint3_linear_194_67" x1="128.635" y1="169.292" x2="316.19" y2="169.292" gradientUnits="userSpaceOnUse">
<stop stop-color="white"/>
<stop offset="1" stop-color="#F7FFA4"/>
</linearGradient>
<linearGradient id="paint4_linear_194_67" x1="314.052" y1="375.438" x2="314.157" y2="375.586" gradientUnits="userSpaceOnUse">
<stop stop-color="#F7FFA4"/>
<stop offset="1" stop-color="#F7FFA4"/>
</linearGradient>
<linearGradient id="paint5_linear_194_67" x1="308.127" y1="378.167" x2="308.35" y2="378.485" gradientUnits="userSpaceOnUse">
<stop stop-color="#F7FFA4"/>
<stop offset="1" stop-color="#F7FFA4"/>
</linearGradient>
<linearGradient id="paint6_linear_194_67" x1="291.516" y1="217.058" x2="387.468" y2="353.485" gradientUnits="userSpaceOnUse">
<stop stop-color="#F7FFA4"/>
<stop offset="1" stop-color="#F7FFA4"/>
</linearGradient>
<linearGradient id="paint7_linear_194_67" x1="-59.3528" y1="265.775" x2="390.968" y2="265.775" gradientUnits="userSpaceOnUse">
<stop offset="0.266" stop-color="white"/>
<stop offset="0.755" stop-color="#F7FFA4"/>
</linearGradient>
<linearGradient id="paint8_linear_194_67" x1="325.445" y1="229.925" x2="361.574" y2="182.53" gradientUnits="userSpaceOnUse">
<stop stop-color="#F7FFA4"/>
<stop offset="0.899" stop-color="#F7FFA4" stop-opacity="0"/>
</linearGradient>
<clipPath id="clip0_194_67">
<rect width="506" height="560" fill="white"/>
</clipPath>
</defs>
</svg>
