<svg width="292" height="338" viewBox="0 0 292 338" fill="none" xmlns="http://www.w3.org/2000/svg">
<g clip-path="url(#clip0_223_64)">
<path d="M128.959 240.087L61.5796 141.142L199.295 80.1167L266.674 179.062L128.959 240.087Z" fill="#FFFBDD"/>
<path d="M128.926 240.547C128.856 240.542 128.789 240.521 128.728 240.487C128.668 240.452 128.616 240.404 128.577 240.346L61.1982 141.401C61.1602 141.345 61.135 141.282 61.1243 141.215C61.1135 141.149 61.1176 141.08 61.1361 141.016C61.1546 140.951 61.1871 140.891 61.2313 140.84C61.2756 140.789 61.3305 140.748 61.3922 140.721L199.108 79.6951C199.206 79.6514 199.317 79.6437 199.421 79.6733C199.525 79.7028 199.615 79.7678 199.676 79.8569L267.055 178.802C267.093 178.858 267.118 178.922 267.129 178.988C267.139 179.055 267.135 179.123 267.117 179.188C267.098 179.253 267.066 179.313 267.022 179.364C266.977 179.415 266.922 179.455 266.861 179.483L129.145 240.508C129.076 240.539 129.001 240.552 128.926 240.547ZM62.2716 141.339L129.123 239.511L265.982 178.865L199.13 80.6932L62.2716 141.339Z" fill="#231F20"/>
<path d="M147.066 208.666C140.345 208.186 134.202 205.284 130.886 200.416L103.726 160.531C101.393 157.105 100.726 153.053 101.849 149.12C103.294 144.057 107.496 139.659 113.377 137.053L166.922 113.325C177.697 108.55 190.927 111.221 196.414 119.278L223.574 159.162C225.907 162.588 226.574 166.64 225.451 170.573C224.006 175.635 219.804 180.034 213.923 182.64L160.378 206.367C156.114 208.257 151.466 208.981 147.065 208.666H147.066ZM167.109 113.747L167.296 114.168L113.751 137.896C108.121 140.391 104.106 144.575 102.735 149.374C101.689 153.038 102.312 156.817 104.489 160.013L131.648 199.897C136.896 207.604 149.617 210.128 160.005 205.526L213.55 181.798C219.18 179.303 223.195 175.12 224.565 170.321C225.612 166.657 224.989 162.878 222.812 159.682L195.652 119.798C190.404 112.091 177.684 109.566 167.296 114.169L167.109 113.747H167.109V113.747Z" fill="#FFFE48"/>
<path d="M139.402 337.615L72.0227 238.669L61.5796 141.142L128.959 240.087L139.402 337.615Z" fill="#F2FFA4"/>
<path d="M139.402 338C139.277 338 139.156 337.939 139.083 337.832L71.7037 238.886C71.668 238.834 71.6459 238.773 71.6392 238.71L61.1961 141.183C61.1868 141.097 61.2064 141.011 61.2518 140.938C61.2971 140.865 61.3655 140.81 61.4462 140.78C61.5268 140.751 61.6151 140.749 61.6969 140.775C61.7787 140.801 61.8494 140.854 61.8977 140.925L129.277 239.871C129.312 239.923 129.335 239.983 129.341 240.046L139.784 337.574C139.79 337.628 139.785 337.682 139.768 337.733C139.751 337.785 139.724 337.832 139.688 337.872C139.652 337.912 139.608 337.945 139.558 337.967C139.509 337.989 139.456 338 139.402 338ZM72.3955 238.533L138.855 336.128L128.586 240.224L62.1263 142.629L72.3955 238.533Z" fill="black"/>
<path d="M266.674 179.062L277.117 276.59L139.401 337.615L128.958 240.087L266.674 179.062Z" fill="#231F20"/>
<path d="M139.402 338C139.307 338 139.215 337.965 139.144 337.901C139.074 337.838 139.029 337.75 139.019 337.656L128.575 240.128C128.567 240.047 128.584 239.966 128.625 239.895C128.666 239.824 128.728 239.768 128.802 239.735L266.517 178.71C266.573 178.686 266.633 178.675 266.694 178.678C266.755 178.681 266.813 178.699 266.866 178.729C266.919 178.759 266.963 178.801 266.996 178.852C267.029 178.903 267.05 178.961 267.057 179.021L277.5 276.549C277.518 276.715 277.426 276.874 277.273 276.942L139.558 337.967C139.508 337.989 139.455 338 139.402 338ZM129.372 240.325L139.729 337.049L276.704 276.351L266.347 179.628L129.372 240.325Z" fill="black"/>
<path d="M104.841 206.63L156.996 171.54L135.574 153.515L104.841 206.63L104.841 206.63Z" fill="url(#paint0_linear_223_64)"/>
<path d="M244.892 146.186L258.421 167.761L194.611 165.003C222.771 164.016 244.892 146.186 244.892 146.186H244.892Z" fill="url(#paint1_linear_223_64)"/>
<path d="M243.649 267.862L234.081 272.153L235.843 286.275L212.284 296.842L210.522 282.72L173.178 299.471L170.976 281.819L195.219 217.513L220.115 206.346L198.783 265.246L208.557 260.862L206.986 248.27L229.824 238.026L231.395 250.618L240.963 246.326L243.649 267.862Z" fill="#D1D3D4"/>
<path d="M173.177 299.856C173.084 299.856 172.993 299.821 172.922 299.759C172.852 299.697 172.807 299.611 172.795 299.518L170.593 281.867C170.586 281.805 170.593 281.742 170.615 281.683L194.858 217.377C194.894 217.281 194.967 217.203 195.061 217.161L219.957 205.994C220.026 205.963 220.103 205.953 220.178 205.965C220.252 205.977 220.322 206.011 220.377 206.063C220.433 206.114 220.472 206.181 220.49 206.254C220.507 206.328 220.503 206.405 220.477 206.476L199.454 264.522L208.139 260.627L206.603 248.318C206.593 248.236 206.609 248.153 206.65 248.082C206.69 248.01 206.753 247.953 206.828 247.919L229.667 237.675C229.722 237.65 229.782 237.639 229.842 237.642C229.902 237.644 229.961 237.661 230.014 237.691C230.066 237.72 230.111 237.762 230.144 237.812C230.178 237.862 230.199 237.919 230.207 237.978L231.713 250.053L240.805 245.975C240.86 245.95 240.92 245.939 240.98 245.942C241.04 245.944 241.099 245.961 241.152 245.991C241.204 246.02 241.249 246.062 241.282 246.112C241.316 246.162 241.337 246.219 241.345 246.279L244.031 267.814C244.052 267.981 243.961 268.143 243.806 268.213L234.498 272.388L236.225 286.227C236.246 286.395 236.155 286.557 236 286.626L212.441 297.193C212.386 297.217 212.326 297.229 212.266 297.226C212.206 297.223 212.147 297.206 212.095 297.177C212.042 297.147 211.997 297.106 211.964 297.056C211.93 297.006 211.909 296.949 211.901 296.889L210.204 283.285L173.335 299.822C173.286 299.844 173.232 299.855 173.177 299.856ZM171.37 281.866L173.495 298.906L210.364 282.369C210.419 282.344 210.479 282.333 210.539 282.336C210.6 282.338 210.658 282.355 210.711 282.385C210.763 282.414 210.808 282.456 210.842 282.506C210.875 282.556 210.897 282.613 210.904 282.672L212.601 296.277L235.425 286.04L233.698 272.201C233.688 272.119 233.705 272.036 233.745 271.964C233.786 271.893 233.848 271.836 233.923 271.802L243.231 267.627L240.644 246.891L231.553 250.969C231.498 250.994 231.438 251.005 231.377 251.002C231.317 251 231.259 250.983 231.206 250.953C231.153 250.924 231.109 250.882 231.075 250.832C231.041 250.782 231.02 250.725 231.013 250.666L229.506 238.591L207.403 248.505L208.938 260.814C208.959 260.982 208.868 261.144 208.714 261.213L198.94 265.597C198.871 265.628 198.794 265.639 198.719 265.626C198.645 265.614 198.575 265.58 198.52 265.529C198.464 265.477 198.425 265.41 198.407 265.337C198.39 265.263 198.394 265.186 198.42 265.115L219.443 207.069L195.522 217.798L171.37 281.866Z" fill="black"/>
<mask id="mask0_223_64" style="mask-type:luminance" maskUnits="userSpaceOnUse" x="0" y="66" width="150" height="178">
<path d="M139.797 167.352L106.053 205.764L97.1506 243.98L0 193.897L12.9543 134.725L66.6196 66.6482L149.245 122.577L139.797 167.352Z" fill="white"/>
</mask>
<g mask="url(#mask0_223_64)">
<path d="M11.3108 185.018L23.1497 138.777C22.1864 142.54 24.1011 146.759 28.2134 149.135L16.3745 195.375C12.2622 192.999 10.3475 188.781 11.3108 185.018Z" fill="#414042"/>
<path d="M16.6218 195.963L16.1816 195.709C12.0104 193.298 9.90271 188.964 10.9377 184.923L22.7748 138.688L22.7762 138.682L23.5227 138.873C22.5745 142.576 24.5368 146.566 28.4061 148.802L28.6587 148.948L16.6218 195.963ZM22.6524 142.273L11.6841 185.114C10.7726 188.675 12.5518 192.501 16.1301 194.777L27.7687 149.319C24.9686 147.615 23.1477 145.028 22.6524 142.273Z" fill="#F2FFA4"/>
<path d="M141.559 131.57L104.971 182.659L93.1321 228.9L129.72 177.81C130.302 177.005 130.728 176.097 130.976 175.135L142.815 128.895C142.567 129.857 142.141 130.764 141.56 131.57H141.559V131.57Z" fill="#808285"/>
<path d="M92.2494 230.793L104.615 182.493L141.247 131.344C141.801 130.578 142.206 129.714 142.442 128.798L143.188 128.99V128.99L143.187 128.994L131.349 175.23C131.09 176.239 130.644 177.19 130.033 178.035L92.2494 230.793V230.793ZM105.326 182.824L94.0146 227.005L129.407 177.586C129.962 176.819 130.367 175.955 130.603 175.039L141.565 132.224L105.326 182.824V182.824ZM4.78952 361.52L17.311 312.611L17.3653 312.535L53.9541 261.445C54.4991 260.69 54.8983 259.84 55.1312 258.938V258.937L56.0984 259.185L44.2592 305.425C43.9959 306.447 43.544 307.411 42.9265 308.267L4.78882 361.519L4.78952 361.52ZM18.232 313.04L7.07639 356.612L42.1155 307.687C42.6609 306.931 43.0602 306.081 43.293 305.179L54.1044 262.952L18.232 313.04Z" fill="#F2FFA4"/>
<path d="M90.1855 184.951L78.3462 231.191L16.3748 195.375L28.2133 149.135L90.1851 184.951H90.1855Z" fill="#231F20"/>
<path d="M78.5936 231.779L15.9293 195.563L27.9665 148.547L90.6314 184.763L78.5936 231.779ZM16.8204 195.188L78.099 230.604L89.7401 185.138L28.4611 149.723L16.8204 195.188ZM-8.53159 362.119L-71.4011 325.785L-59.305 278.54L3.56448 314.875L-8.53159 362.119ZM-70.2462 325.3L-9.17218 360.596L2.40958 315.36L-58.6645 280.063L-70.2462 325.3Z" fill="#F2FFA4"/>
<path d="M104.97 182.659L93.1314 228.899C90.0964 233.137 83.4781 234.157 78.3467 231.191L90.1856 184.951C95.317 187.916 101.936 186.896 104.97 182.659Z" fill="#58595B"/>
<path d="M84.6551 233.266C82.3726 233.265 80.1306 232.664 78.1536 231.525L77.901 231.379L89.9382 184.363L90.3784 184.618C95.3373 187.484 101.743 186.505 104.657 182.435L105.853 180.765L93.4868 229.065L93.4448 229.124C91.5132 231.821 88.1727 233.266 84.6554 233.266L84.6551 233.266ZM78.7931 231.001C83.6903 233.677 89.8923 232.685 92.776 228.733L104.194 184.138C100.846 187.342 95.1049 187.987 90.4352 185.528L78.7931 231.001ZM-5.77039 363.142C-6.93798 362.847 -8.05915 362.392 -9.10209 361.79L-9.42944 361.6L2.66628 314.356L3.23667 314.685C8.14551 317.525 14.4844 316.558 17.3656 312.535L18.9149 310.371L6.39306 359.28L6.33873 359.356C3.79719 362.905 -1.15433 364.311 -5.77039 363.142ZM-8.27349 361.109C-3.44473 363.704 2.63171 362.722 5.47239 358.85L16.7896 314.647C13.4053 317.629 7.86966 318.198 3.3111 315.862L-8.27349 361.109Z" fill="#F2FFA4"/>
<path d="M104.97 182.659C101.935 186.896 95.317 187.917 90.1856 184.951L28.2138 149.135C23.0824 146.169 21.3723 140.336 24.4069 136.098L60.9957 85.0095C64.0258 80.7782 70.649 79.7516 75.7804 82.7176L137.752 118.533C142.884 121.499 144.59 127.339 141.559 131.57L104.97 182.659Z" fill="#FFFE48"/>
<path d="M96.4941 187.025C94.2116 187.024 91.9695 186.424 89.9926 185.284L28.0205 149.468C25.2517 147.868 23.319 145.354 22.7172 142.57C22.2061 140.205 22.695 137.827 24.0933 135.874L60.6821 84.7856C63.8208 80.4025 70.6804 79.3251 75.973 82.3845L137.945 118.2C140.712 119.799 142.644 122.314 143.246 125.1C143.757 127.466 143.269 129.843 141.872 131.794L105.284 182.883C103.352 185.58 100.011 187.025 96.4941 187.025ZM69.4602 81.4076C66.1899 81.4076 63.0945 82.7409 61.3093 85.2339L24.7205 136.323C23.4503 138.097 23.0065 140.258 23.4711 142.408C24.027 144.98 25.826 147.31 28.4067 148.802L90.3788 184.618C95.3374 187.483 101.743 186.504 104.657 182.435L141.246 131.346C142.515 129.574 142.958 127.414 142.493 125.262C141.937 122.689 140.139 120.358 137.56 118.867L75.5878 83.0513C73.7246 81.9766 71.6116 81.4096 69.4602 81.4076Z" fill="black"/>
</g>
<path d="M87.8595 172.329L69.6528 161.198L75.9613 152.516L43.5173 132.681L51.403 121.828L101.206 107.344L120.446 119.107L76.4354 133.684L86.1384 139.616L91.7637 131.874L109.414 142.665L87.8595 172.329Z" fill="white"/>
<path d="M87.8593 172.714C87.7905 172.714 87.721 172.696 87.6586 172.658L69.4519 161.527C69.4066 161.499 69.3675 161.462 69.3371 161.419C69.3067 161.375 69.2857 161.326 69.2753 161.274C69.2649 161.222 69.2655 161.168 69.2768 161.116C69.2882 161.064 69.3102 161.015 69.3415 160.972L75.4052 152.627L43.3168 133.009C43.2715 132.982 43.2324 132.945 43.202 132.901C43.1716 132.858 43.1506 132.808 43.1402 132.756C43.1298 132.704 43.1304 132.65 43.1418 132.599C43.1531 132.547 43.1751 132.498 43.2064 132.455L51.0921 121.602C51.1421 121.533 51.2141 121.483 51.2963 121.459L101.099 106.974C101.203 106.944 101.315 106.959 101.408 107.015L120.648 118.778C120.71 118.817 120.76 118.872 120.792 118.938C120.824 119.004 120.837 119.078 120.829 119.15C120.82 119.223 120.791 119.292 120.745 119.349C120.699 119.406 120.638 119.449 120.568 119.472L77.3457 133.788L86.037 139.102L91.4531 131.649C91.51 131.57 91.5944 131.516 91.6895 131.497C91.7846 131.478 91.8833 131.496 91.966 131.546L109.616 142.337C109.661 142.365 109.7 142.402 109.731 142.445C109.761 142.489 109.782 142.538 109.793 142.59C109.803 142.642 109.802 142.696 109.791 142.748C109.78 142.799 109.758 142.848 109.726 142.891L88.1722 172.556C88.1365 172.605 88.0895 172.645 88.0353 172.673C87.981 172.701 87.9209 172.715 87.86 172.715L87.8593 172.714ZM70.2096 161.087L87.757 171.815L108.857 142.776L91.8665 132.388L86.4504 139.842C86.3936 139.92 86.3092 139.974 86.2141 139.993C86.1189 140.012 86.0202 139.995 85.9375 139.944L76.2345 134.012C76.1721 133.973 76.122 133.918 76.09 133.852C76.0581 133.786 76.0455 133.712 76.0539 133.639C76.0622 133.567 76.0912 133.498 76.1373 133.441C76.1834 133.384 76.2447 133.341 76.3142 133.318L119.537 119.001L101.15 107.76L51.6374 122.16L44.0741 132.569L76.1625 152.187C76.2078 152.215 76.2469 152.252 76.2773 152.295C76.3077 152.339 76.3287 152.388 76.3391 152.44C76.3495 152.493 76.349 152.546 76.3376 152.598C76.3262 152.65 76.3042 152.699 76.273 152.742L70.2092 161.087L70.2096 161.087Z" fill="black"/>
<mask id="mask1_223_64" style="mask-type:luminance" maskUnits="userSpaceOnUse" x="119" y="0" width="174" height="181">
<path d="M246.064 147.911C246.064 147.911 221.672 164.883 192.298 164.883C147.747 164.883 119.823 119.106 119.823 85.4179C119.823 37.9242 128.677 7.02602 128.959 6.63624C129.377 6.05825 228.291 -3.67831 234.536 1.52425C240.781 6.72681 286.85 44.4536 291.479 56.5931C296.108 68.7325 268.42 180.816 268.42 180.816L246.064 147.911L246.064 147.911Z" fill="white"/>
</mask>
<g mask="url(#mask1_223_64)">
<path opacity="0.5" d="M172.522 29.271C149.261 29.271 137.474 40.8779 134.79 43.2413C129.859 47.5829 119.82 61.36 119.82 86.6024C119.82 156.973 168.721 184.934 200.502 184.934C224.858 184.934 235.702 176.112 241.049 171.003C246.397 165.895 256.088 152.743 256.088 127.742C256.088 95.9784 243.627 65.6526 222.108 47.2872C208.771 35.9058 191.907 29.271 172.522 29.271Z" fill="#A7A9AC"/>
<path opacity="0.3" d="M222.024 116.771C217.567 116.771 213.818 114.548 211.499 111.215C209.107 109.385 207.377 106.726 206.606 103.699C204.655 101.49 203.414 98.616 203.168 95.5016C201.91 92.5204 201.266 89.2587 201.115 86.0548C199.959 83.1627 199.368 80.025 199.23 76.9441C199.206 76.4102 199.219 75.8681 199.249 75.3229C198.741 73.3419 198.452 71.3014 198.362 69.2848C198.337 68.7265 198.351 68.1595 198.386 67.5889C197.813 65.7132 197.561 63.7502 197.639 61.6973V61.6251C197.645 59.4418 197.938 57.3367 198.512 55.3081C198.694 51.4906 200.175 47.4511 202.332 44.1069C202.302 44.1347 202.272 44.1604 202.243 44.189L196.845 49.5089C196.906 49.4451 196.962 49.3789 197.025 49.3168L169.546 76.4003C164.533 81.341 163.427 92.8859 166.23 111.033C170.139 136.334 177.737 149.167 189.021 149.538C189.48 149.553 189.926 149.547 190.36 149.519C192.066 149.412 193.578 148.976 194.896 148.212C195.58 147.814 196.211 147.33 196.774 146.773L202.172 141.453C202.111 141.517 202.054 141.584 201.992 141.646L229.471 114.562C229.701 114.334 229.92 114.095 230.127 113.846C227.825 115.664 224.951 116.771 222.023 116.771L222.024 116.771Z" fill="#BCBEC0"/>
<path opacity="0.3" d="M210.042 41.754C199.628 41.754 197.699 52.2557 197.699 61.6011C197.699 70.9464 201.963 117.326 221.721 117.326C232.511 117.326 233.813 105.27 233.813 93.6358C233.813 82.0021 229.366 62.3528 225.64 55.1943C221.915 48.0357 217.335 41.754 210.042 41.754Z" fill="#BCBEC0"/>
<path opacity="0.75" d="M222.024 116.771C217.567 116.771 213.818 114.548 211.499 111.215C209.107 109.385 207.377 106.726 206.606 103.699C204.655 101.49 203.414 98.616 203.168 95.5016C201.91 92.5204 201.266 89.2587 201.115 86.0548C199.959 83.1627 199.368 80.025 199.23 76.9441C199.206 76.4102 199.219 75.8681 199.249 75.3229C198.741 73.3419 198.452 71.3014 198.362 69.2848C198.337 68.7265 198.351 68.1595 198.386 67.5889C197.813 65.7132 197.561 63.7502 197.639 61.6973V61.6251C197.645 59.4418 197.938 57.3367 198.512 55.3081C198.694 51.4906 200.175 47.4511 202.332 44.1069C202.302 44.1347 202.272 44.1604 202.243 44.189L196.845 49.5089C196.906 49.4451 196.962 49.3789 197.025 49.3168L169.546 76.4003C164.533 81.341 163.427 92.8859 166.23 111.033C170.139 136.334 177.737 149.167 189.021 149.538C189.48 149.553 189.926 149.547 190.36 149.519C192.066 149.412 193.578 148.976 194.896 148.212C195.58 147.814 196.211 147.33 196.774 146.773L202.172 141.453C202.111 141.517 202.054 141.584 201.992 141.646L229.471 114.562C229.701 114.334 229.92 114.095 230.127 113.846C227.825 115.664 224.951 116.771 222.023 116.771L222.024 116.771Z" fill="#F2FFA4"/>
<path opacity="0.75" d="M210.042 41.754C199.628 41.754 197.699 52.2557 197.699 61.6011C197.699 70.9464 201.963 117.326 221.721 117.326C232.511 117.326 233.813 105.27 233.813 93.6358C233.813 82.0021 229.366 62.3528 225.64 55.1943C221.915 48.0357 217.335 41.754 210.042 41.754Z" fill="#F2FFA4"/>
<path opacity="0.3" d="M261.348 149.665C260.747 150.053 260.136 150.426 259.517 150.786C258.998 151.088 258.474 151.381 257.943 151.664C257.809 151.735 257.672 151.803 257.538 151.873C256.505 152.411 255.453 152.911 254.385 153.373C254.275 153.421 254.168 153.471 254.058 153.517C253.488 153.758 252.915 153.988 252.337 154.207C252.187 154.264 252.035 154.318 251.885 154.373C251.256 154.606 250.622 154.827 249.985 155.035C249.487 155.197 248.985 155.352 248.478 155.5C248.371 155.532 248.265 155.565 248.158 155.596C247.545 155.771 246.93 155.935 246.312 156.088C246.146 156.129 245.978 156.167 245.811 156.206C245.337 156.32 244.859 156.427 244.377 156.529C244.182 156.571 243.986 156.612 243.789 156.651C243.245 156.76 242.695 156.863 242.141 156.958C242.04 156.975 241.941 156.994 241.839 157.011C241.188 157.119 240.53 157.216 239.866 157.304C239.685 157.328 239.501 157.349 239.319 157.372C238.815 157.434 238.308 157.491 237.797 157.543C237.59 157.563 237.384 157.584 237.176 157.603C236.578 157.657 235.976 157.704 235.369 157.743C235.279 157.749 235.191 157.757 235.102 157.762C234.409 157.804 233.71 157.834 233.005 157.856C232.811 157.862 232.615 157.865 232.419 157.87C231.882 157.882 231.341 157.889 230.796 157.89C230.586 157.89 230.377 157.891 230.166 157.89C229.443 157.886 228.716 157.875 227.98 157.851C214.86 157.42 202.777 153.928 191.73 147.379C180.684 140.83 171.394 131.565 163.86 119.587C156.325 107.605 151.299 93.4692 148.782 77.1704C146.264 60.8758 146.952 46.927 150.842 35.3208C153.621 27.0313 157.736 20.2023 163.185 14.8316L135.706 41.9151C130.256 47.2861 126.142 54.1148 123.363 62.4043C119.472 74.0105 118.785 87.9593 121.302 104.254C123.82 120.553 128.845 134.689 136.38 146.67C143.914 158.648 153.204 167.913 164.251 174.462C175.297 181.012 187.38 184.503 200.5 184.934C201.235 184.958 201.962 184.969 202.685 184.974C202.896 184.975 203.106 184.974 203.317 184.974C203.861 184.972 204.402 184.965 204.939 184.953C205.135 184.948 205.331 184.945 205.526 184.939C206.203 184.919 206.88 184.89 207.556 184.851C207.578 184.849 207.599 184.847 207.621 184.846C207.712 184.841 207.802 184.833 207.893 184.827C209.212 184.742 210.528 184.618 211.84 184.455C212.022 184.433 212.205 184.412 212.386 184.388C213.05 184.3 213.708 184.203 214.36 184.096C214.461 184.079 214.56 184.059 214.661 184.042C215.215 183.947 215.765 183.845 216.31 183.735C216.986 183.599 217.66 183.451 218.332 183.291C218.498 183.251 218.666 183.213 218.831 183.172C219.453 183.018 220.069 182.855 220.678 182.681C220.785 182.65 220.89 182.616 220.997 182.585C221.687 182.383 222.374 182.166 223.055 181.936C223.508 181.782 223.958 181.623 224.404 181.458C224.555 181.402 224.707 181.349 224.857 181.292C225.436 181.072 226.01 180.842 226.577 180.602C226.687 180.555 226.795 180.505 226.904 180.458C227.366 180.259 227.824 180.052 228.279 179.839C228.451 179.758 228.622 179.675 228.793 179.593C229.217 179.388 229.638 179.176 230.056 178.958C230.191 178.888 230.328 178.82 230.462 178.748C230.963 178.481 231.46 178.208 231.951 177.923C231.979 177.907 232.007 177.888 232.036 177.871C232.655 177.512 233.266 177.138 233.868 176.75C236.452 175.087 238.858 173.161 241.048 171.005L268.528 143.922C266.338 146.078 263.932 148.003 261.347 149.667L261.348 149.665Z" fill="#BCBEC0"/>
<path opacity="0.75" d="M261.348 149.665C260.747 150.053 260.136 150.426 259.517 150.786C258.998 151.088 258.474 151.381 257.943 151.664C257.809 151.735 257.672 151.803 257.538 151.873C256.505 152.411 255.453 152.911 254.385 153.373C254.275 153.421 254.168 153.471 254.058 153.517C253.488 153.758 252.915 153.988 252.337 154.207C252.187 154.264 252.035 154.318 251.885 154.373C251.256 154.606 250.622 154.827 249.985 155.035C249.487 155.197 248.985 155.352 248.478 155.5C248.371 155.532 248.265 155.565 248.158 155.596C247.545 155.771 246.93 155.935 246.312 156.088C246.146 156.129 245.978 156.167 245.811 156.206C245.337 156.32 244.859 156.427 244.377 156.529C244.182 156.571 243.986 156.612 243.789 156.651C243.245 156.76 242.695 156.863 242.141 156.958C242.04 156.975 241.941 156.994 241.839 157.011C241.188 157.119 240.53 157.216 239.866 157.304C239.685 157.328 239.501 157.349 239.319 157.372C238.815 157.434 238.308 157.491 237.797 157.543C237.59 157.563 237.384 157.584 237.176 157.603C236.578 157.657 235.976 157.704 235.369 157.743C235.279 157.749 235.191 157.757 235.102 157.762C234.409 157.804 233.71 157.834 233.005 157.856C232.811 157.862 232.615 157.865 232.419 157.87C231.882 157.882 231.341 157.889 230.796 157.89C230.586 157.89 230.377 157.891 230.166 157.89C229.443 157.886 228.716 157.875 227.98 157.851C214.86 157.42 202.777 153.928 191.73 147.379C180.684 140.83 171.394 131.565 163.86 119.587C156.325 107.605 151.299 93.4692 148.782 77.1704C146.264 60.8758 146.952 46.927 150.842 35.3208C153.621 27.0313 157.736 20.2023 163.185 14.8316L135.706 41.9151C130.256 47.2861 126.142 54.1148 123.363 62.4043C119.472 74.0105 118.785 87.9593 121.302 104.254C123.82 120.553 128.845 134.689 136.38 146.67C143.914 158.648 153.204 167.913 164.251 174.462C175.297 181.012 187.38 184.503 200.5 184.934C201.235 184.958 201.962 184.969 202.685 184.974C202.896 184.975 203.106 184.974 203.317 184.974C203.861 184.972 204.402 184.965 204.939 184.953C205.135 184.948 205.331 184.945 205.526 184.939C206.203 184.919 206.88 184.89 207.556 184.851C207.578 184.849 207.599 184.847 207.621 184.846C207.712 184.841 207.802 184.833 207.893 184.827C209.212 184.742 210.528 184.618 211.84 184.455C212.022 184.433 212.205 184.412 212.386 184.388C213.05 184.3 213.708 184.203 214.36 184.096C214.461 184.079 214.56 184.059 214.661 184.042C215.215 183.947 215.765 183.845 216.31 183.735C216.986 183.599 217.66 183.451 218.332 183.291C218.498 183.251 218.666 183.213 218.831 183.172C219.453 183.018 220.069 182.855 220.678 182.681C220.785 182.65 220.89 182.616 220.997 182.585C221.687 182.383 222.374 182.166 223.055 181.936C223.508 181.782 223.958 181.623 224.404 181.458C224.555 181.402 224.707 181.349 224.857 181.292C225.436 181.072 226.01 180.842 226.577 180.602C226.687 180.555 226.795 180.505 226.904 180.458C227.366 180.259 227.824 180.052 228.279 179.839C228.451 179.758 228.622 179.675 228.793 179.593C229.217 179.388 229.638 179.176 230.056 178.958C230.191 178.888 230.328 178.82 230.462 178.748C230.963 178.481 231.46 178.208 231.951 177.923C231.979 177.907 232.007 177.888 232.036 177.871C232.655 177.512 233.266 177.138 233.868 176.75C236.452 175.087 238.858 173.161 241.048 171.005L268.528 143.922C266.338 146.078 263.932 148.003 261.347 149.667L261.348 149.665Z" fill="#F2FFA4"/>
<path opacity="0.5" d="M141.97 37.496C142.572 37.1085 143.183 36.7347 143.802 36.3749C144.32 36.0729 144.845 35.7804 145.376 35.4974C145.51 35.4258 145.646 35.3581 145.781 35.288C146.814 34.7503 147.865 34.2499 148.934 33.7877C149.044 33.7405 149.151 33.6905 149.261 33.6439C149.83 33.4032 150.404 33.1732 150.982 32.9539C151.131 32.8968 151.283 32.8432 151.434 32.7875C152.063 32.5546 152.696 32.3342 153.334 32.1264C153.832 31.9643 154.334 31.8092 154.841 31.6608C154.948 31.6294 155.053 31.5956 155.161 31.5646C155.773 31.3901 156.389 31.2263 157.007 31.0733C157.173 31.0321 157.341 30.9944 157.507 30.9545C157.982 30.8414 158.459 30.7336 158.941 30.6317C159.137 30.5905 159.332 30.5493 159.529 30.5098C160.074 30.4005 160.623 30.2983 161.177 30.2035C161.279 30.1862 161.378 30.1665 161.479 30.1496C162.13 30.0418 162.789 29.9452 163.453 29.8571C163.634 29.8331 163.817 29.8123 163.999 29.7894C164.503 29.727 165.011 29.6696 165.522 29.6185C165.729 29.5977 165.935 29.5769 166.143 29.5582C166.74 29.5039 167.342 29.4567 167.95 29.4176C168.039 29.412 168.128 29.4039 168.217 29.3986C168.909 29.357 169.609 29.327 170.314 29.3052C170.508 29.2992 170.704 29.296 170.899 29.2914C171.437 29.2787 171.978 29.272 172.523 29.271C172.732 29.2706 172.942 29.2696 173.153 29.271C173.876 29.2752 174.603 29.2861 175.339 29.3101C188.459 29.7408 200.542 33.2326 211.588 39.7822C222.634 46.331 231.925 55.5964 239.459 67.5741C246.993 79.5556 252.019 93.6919 254.537 109.991C257.054 126.285 256.367 140.234 252.476 151.84C249.697 160.13 245.583 166.959 240.133 172.329L267.613 145.246C273.063 139.875 277.177 133.046 279.956 124.757C283.847 113.151 284.534 99.2017 282.017 82.9072C279.499 66.6084 274.473 52.4721 266.939 40.4906C259.405 28.5129 250.114 19.2476 239.068 12.6987C228.022 6.14953 215.938 2.65766 202.819 2.22664C202.09 2.20384 201.362 2.1908 200.634 2.18752C200.422 2.18611 200.212 2.18752 200.002 2.18752C199.458 2.18857 198.917 2.19562 198.38 2.20796C198.184 2.21254 197.987 2.21571 197.792 2.2217C197.111 2.24285 196.433 2.27069 195.763 2.31016C195.741 2.31157 195.719 2.31369 195.698 2.31474C195.606 2.32038 195.517 2.32849 195.426 2.33413C194.107 2.41917 192.79 2.54305 191.479 2.70559C191.297 2.72814 191.114 2.74894 190.933 2.7729C190.269 2.86101 189.61 2.95757 188.959 3.06542C188.858 3.08233 188.759 3.10207 188.658 3.11934C188.104 3.21414 187.554 3.31635 187.009 3.4256C186.332 3.56216 185.658 3.71044 184.987 3.87037C184.82 3.91019 184.653 3.9479 184.487 3.98878C183.866 4.14315 183.25 4.30597 182.641 4.48007C182.533 4.51073 182.428 4.54456 182.322 4.57593C181.631 4.77828 180.945 4.99483 180.263 5.22546C179.81 5.37876 179.36 5.53806 178.914 5.703C178.764 5.75868 178.612 5.81225 178.462 5.86899C177.882 6.08926 177.309 6.31869 176.742 6.55905C176.632 6.60557 176.524 6.65561 176.415 6.70284C175.953 6.9022 175.495 7.10875 175.04 7.32241C174.868 7.40312 174.696 7.48558 174.525 7.56805C174.101 7.77335 173.68 7.98495 173.262 8.20278C173.127 8.27326 172.991 8.34128 172.856 8.41283C172.355 8.67997 171.858 8.95345 171.368 9.23786C171.339 9.25443 171.312 9.2731 171.283 9.28967C170.664 9.64947 170.053 10.0233 169.451 10.4107C166.866 12.0745 164.46 13.9998 162.271 16.156L134.791 43.2395C136.98 41.0831 139.387 39.1579 141.971 37.4942L141.97 37.496Z" fill="#BCBEC0"/>
<path opacity="0.5" d="M267.86 39.1637C275.394 51.1452 280.42 65.2815 282.937 81.5761C285.455 97.8749 284.768 111.824 280.877 123.43C276.982 135.033 270.474 143.779 261.348 149.665C252.223 155.552 241.101 158.282 227.981 157.851C214.862 157.421 202.778 153.929 191.732 147.379C180.686 140.83 171.395 131.565 163.861 119.587C156.327 107.606 151.301 93.4695 148.783 77.1707C146.266 60.8762 146.953 46.9274 150.844 35.3212C154.735 23.715 161.244 14.9723 170.369 9.08528C179.494 3.19866 190.617 0.468743 203.736 0.899764C216.856 1.33043 228.939 4.8223 239.986 11.3715C251.032 17.9207 260.322 27.1825 267.86 39.1641L267.86 39.1637ZM221.721 117.326C233.006 117.697 236.695 105.23 232.786 79.9288C228.878 54.6283 221.28 41.7946 209.996 41.4242C198.708 41.0534 195.021 53.5167 198.93 78.8173C202.838 104.118 210.433 116.956 221.721 117.326Z" fill="url(#paint2_linear_223_64)"/>
<path d="M209.511 42.1861C209.662 42.1861 209.816 42.1886 209.97 42.1939C215.306 42.369 219.856 45.574 223.494 51.72C227.225 58.0229 230.095 67.5536 232.025 80.0465C234.667 97.1485 233.809 108.38 229.474 113.43C227.664 115.539 225.287 116.564 222.205 116.564C222.054 116.564 221.9 116.562 221.746 116.556C216.41 116.381 211.859 113.176 208.222 107.028C204.492 100.726 201.622 91.1946 199.692 78.6995C197.05 61.5986 197.907 50.3681 202.24 45.3199C204.05 43.211 206.428 42.1858 209.512 42.1858M209.511 41.4164C198.602 41.4164 195.078 53.8811 198.93 78.8173C202.838 104.118 210.433 116.956 221.721 117.326C221.883 117.331 222.045 117.334 222.205 117.334C233.111 117.334 236.638 104.865 232.786 79.9292C228.878 54.6286 221.28 41.7949 209.995 41.4245C209.834 41.4192 209.673 41.4165 209.511 41.4164Z" fill="white"/>
<path d="M201.081 0.855699V1.62576C201.944 1.62576 202.828 1.64056 203.71 1.66946C216.635 2.09378 228.708 5.58072 239.592 12.0337C250.481 18.4895 259.772 27.7556 267.207 39.5736C274.65 51.4092 279.686 65.5804 282.175 81.6938C284.662 97.7917 283.979 111.751 280.146 123.185C276.326 134.566 269.86 143.258 260.93 149.019C252.591 154.398 242.399 157.126 230.636 157.126C229.772 157.126 228.887 157.111 228.006 157.082C215.081 156.658 203.009 153.17 192.125 146.717C181.237 140.263 171.948 130.997 164.513 119.178C157.07 107.341 152.034 93.1685 149.544 77.0533C147.058 60.959 147.741 47.0003 151.574 35.5657C155.389 24.1869 161.853 15.4953 170.786 9.73233C179.124 4.35321 189.317 1.62611 201.08 1.62576V0.855699M201.081 0.855699C189.109 0.855699 178.871 3.60006 170.368 9.08527C161.243 14.9722 154.735 23.715 150.843 35.3212C146.953 46.9274 146.265 60.8761 148.783 77.1707C151.301 93.4695 156.326 107.606 163.861 119.587C171.395 131.565 180.685 140.83 191.731 147.379C202.778 153.928 214.861 157.42 227.981 157.851C228.875 157.881 229.76 157.895 230.636 157.895C242.608 157.895 252.845 155.151 261.348 149.665C270.473 143.779 276.982 135.033 280.876 123.43C284.768 111.824 285.454 97.8749 282.937 81.5761C280.419 65.2815 275.394 51.1452 267.859 39.1637C260.321 27.1822 251.031 17.9207 239.985 11.3711C228.938 4.82229 216.855 1.33042 203.735 0.8994C202.85 0.87025 201.965 0.855916 201.08 0.855699H201.081Z" fill="white"/>
</g>
</g>
<defs>
<linearGradient id="paint0_linear_223_64" x1="62.0859" y1="186.204" x2="143.538" y2="177.031" gradientUnits="userSpaceOnUse">
<stop stop-color="#231F20"/>
<stop offset="1" stop-color="#231F20" stop-opacity="0"/>
</linearGradient>
<linearGradient id="paint1_linear_223_64" x1="171.78" y1="125.504" x2="241.469" y2="168.58" gradientUnits="userSpaceOnUse">
<stop stop-color="#231F20"/>
<stop offset="1" stop-color="#231F20" stop-opacity="0"/>
</linearGradient>
<linearGradient id="paint2_linear_223_64" x1="328.248" y1="173.597" x2="163.053" y2="34.8558" gradientUnits="userSpaceOnUse">
<stop stop-color="white" stop-opacity="0.7"/>
<stop offset="0.824" stop-color="#F2FFA4"/>
</linearGradient>
<clipPath id="clip0_223_64">
<rect width="292" height="338" fill="white"/>
</clipPath>
</defs>
</svg>
