<svg xmlns="http://www.w3.org/2000/svg" viewBox="0 0 1500 1500" width="1200" height="800"><path fill="#FFF" d="M0 0h1500v1500H0z"/><g transform="translate(283.0 421.0) rotate(0.0 -20.0 66.5) scale(-1.0998075336816058 1.1177597740948668)"><svg width="36.37" height="118.988" viewBox="0 0 36.37 118.988"><path d="M8.885 118.988H6.25a6.25 6.25 0 1 1 0-12.5h2.575c4.378-.086 6.209-1.126 6.209-7.236 0-2.435-.334-4.97-.688-7.654-.113-.861-.228-1.732-.335-2.62-.715-4.294-1.302-8.223-1.302-12.667 0-7.121 2.018-12.953 5.748-17.058-3.24-3.482-5.748-8.793-5.748-16.889 0-4.538.638-8.518 1.255-12.367l.047-.296c.095-.75.194-1.5.294-2.25.375-2.808.729-5.46.729-7.873 0-6.32-1.752-7.001-6.051-7.08H6.25A6.25 6.25 0 1 1 6.25 0h2.896c6.867.118 18.388 2.818 18.388 19.579 0 3.243-.426 6.437-.838 9.525-.101.75-.2 1.501-.294 2.253l-.03.214-.065.404c-.563 3.521-1.097 6.846-1.097 10.389 0 7.842 3.15 9.783 6.556 10.711a6.249 6.249 0 0 1 4.604 6.03v.309a6.25 6.25 0 0 1-4.733 6.063c-2.992.749-6.427 2.656-6.427 10.833 0 3.542.501 6.826 1.155 10.752.016.095.029.19.041.285.105.887.221 1.757.334 2.617.391 2.965.794 6.032.794 9.286 0 12.331-6.757 19.523-18.537 19.735h-.112z" fill="#6d6e71"/></svg></g><g transform="translate(187.0 134.0) rotate(0.0 509.0 591.5) scale(0.9974202284268684 0.9982381055246531)"><svg width="1020.633" height="1185.088" viewBox="0 0 1020.633 1185.088"><linearGradient id="a" gradientUnits="userSpaceOnUse" x1="264.183" x2="339.235" y1="127.321" y2="127.321"><stop offset=".207" stop-color="#fff"/><stop offset=".318" stop-color="#FFFFE2"/><stop offset=".473" stop-color="#FEFFC0"/><stop offset=".601" stop-color="#FFFFA4"/><stop offset=".686" stop-color="#FEFFA4"/><stop offset="1" stop-color="#fff"/></linearGradient><linearGradient xmlns:xlink="http://www.w3.org/1999/xlink" id="e" x1="367.272" x2="442.302" xlink:href="#a" y1="89.804" y2="89.804"/><linearGradient xmlns:xlink="http://www.w3.org/1999/xlink" id="f" x1="470.339" x2="545.391" xlink:href="#a" y1="52.287" y2="52.287"/><linearGradient xmlns:xlink="http://www.w3.org/1999/xlink" id="g" x1="573.428" x2="648.481" xlink:href="#a" y1="14.765" y2="14.765"/><linearGradient xmlns:xlink="http://www.w3.org/1999/xlink" id="h" x1="760.81" x2="1040.178" xlink:href="#a" y1="115.92" y2="389.957"/><linearGradient xmlns:xlink="http://www.w3.org/1999/xlink" id="i" x1="725.693" x2="1005.061" xlink:href="#a" y1="151.72" y2="425.757"/><linearGradient xmlns:xlink="http://www.w3.org/1999/xlink" id="j" x1="685.665" x2="965.033" xlink:href="#a" y1="192.526" y2="466.563"/><linearGradient xmlns:xlink="http://www.w3.org/1999/xlink" id="k" x1="645.646" x2="925.015" xlink:href="#a" y1="233.324" y2="507.361"/><linearGradient xmlns:xlink="http://www.w3.org/1999/xlink" id="l" x1="610.525" x2="889.893" xlink:href="#a" y1="269.128" y2="543.165"/><linearGradient id="m" gradientUnits="userSpaceOnUse" x1="97.192" x2="1019.805" y1="183.131" y2="654.019"><stop offset=".005" stop-color="#FEFFA4"/><stop offset=".056" stop-color="#FEFFC0"/><stop offset=".126" stop-color="#FFFFE2"/><stop offset=".185" stop-color="#f7f7ff"/><stop offset=".223" stop-color="#fff"/><stop offset=".33" stop-color="#FFFFE2"/><stop offset=".48" stop-color="#FEFFC0"/><stop offset=".604" stop-color="#FFFFA4"/><stop offset=".686" stop-color="#FEFFA4"/><stop offset="1" stop-color="#fff"/></linearGradient><linearGradient id="b"><stop offset="0" stop-color="#23231F"/><stop offset="1" stop-color="#23231F" stop-opacity="0"/></linearGradient><linearGradient xmlns:xlink="http://www.w3.org/1999/xlink" id="n" gradientTransform="matrix(.73415663 .67898015 -.67898015 .73415663 1728.567 -129.52)" gradientUnits="userSpaceOnUse" x1="131.874" x2="52.262" xlink:href="#b" y1="1333.706" y2="1407.528"/><linearGradient xmlns:xlink="http://www.w3.org/1999/xlink" id="c" gradientUnits="userSpaceOnUse" x1="903.155" x2="352.792" xlink:href="#b" y1="-83.726" y2="501.846"/><linearGradient xmlns:xlink="http://www.w3.org/1999/xlink" id="o" x1="1003.041" x2="452.679" xlink:href="#c" y1="10.155" y2="595.726"/><clipPath id="p"><path d="M620.934 924.884c-1.304 24.964 29.56 25.552 35.071 5.511l23.047-71.145-28.103-103.802-43.115-52.572 16.791 62.067-31.79 12.311-192.653-189.177c22.827 7.823 34.376-25.775 9.234-32.959l-18.805-15.802-124.429-22.051L31.499 641.694 0 803.926l36.226 217.357 234.683 163.805 264.939-33.477 33.481-48.865-79.662-27.055z"/></clipPath><linearGradient xmlns:xlink="http://www.w3.org/1999/xlink" id="d" gradientUnits="userSpaceOnUse" x1="630.153" x2="712.151" xlink:href="#b" y1="894.075" y2="894.075"/><linearGradient id="q" gradientUnits="userSpaceOnUse" x1="295.075" x2="450.734" y1="637.083" y2="561.107"><stop offset="0" stop-color="#23231F" stop-opacity="0"/><stop offset="1" stop-color="#23231F"/></linearGradient><linearGradient xmlns:xlink="http://www.w3.org/1999/xlink" id="r" x1="791.786" x2="731.095" xlink:href="#d" y1="282.441" y2="432.143"/><clipPath id="s"><path d="m637.102 47.933-44.474 230.708 200.237 65.017 71.209-25.885 26.978 9.62 16.177 27.643 29.063 4.587 18.189-21.912 66.152-247.283-190.597-73.32-160.639-3.858z"/></clipPath><path d="M661.604 864.346c-.161-15.594-1.836-31.887-4.626-47.577.611 3.91-.727-3.75-.688-3.546-.459-2.41-.948-4.814-1.473-7.21-.747-4.071-1.665-8.124-2.669-12.139-2.986-11.936-6.992-23.613-11.596-35.017-7.055-17.474-15.478-34.193-25.227-50.33-23.096-38.23-54.174-71.562-90.233-97.884-61.863-45.157-138.313-69.422-214.606-67.986-35.588.67-69.955 7.535-103.505 19.167-5.991 2.357-8.828 3.507-18 7.623-57.83 25.95-106.343 66.8-137.519 123.832-30.545 55.896-41.261 120.995-30.799 183.805 22.143 132.941 131.56 238.537 260.994 268.816 65.612 15.349 135.316 12 198.287-12.765 64.512-25.372 116.952-71.768 149.165-132.985.689-1.562.854-1.85 2.626-5.399 6.991-14.004 12.942-28.247 17.613-43.447 9.119-26.478 12.713-57.342 12.259-86.957 0-.066.008.531 0 0zM200.988 564.181c-.407.594-.001.001 0 0 0 0-.055.064 0 0zm-86.49 442.531c.005.005.021.025 0 0 .001.001.003.004 0 0zm4.833 5.789c.012.014.047.055 0 0 .002.003.007.009 0 0zm12.651 13.91c.044.049.003.006 0 0 .006.007 0 0 0 0zm495.56-144.994c-2.876 59.323-27.318 116.964-69.004 159.479-37.759 38.51-85.934 64.351-138.941 74.45-2.172.434-3.301.521-4.604.738-15.461 2.583-27.649 4.367-43.348 4.877.431-.002-.782-.032-1.213-.007-2.866.168-7.702.05-10.53.064-3.297.016-6.579.092-9.869-.113-10.845-.676-21.553-1.404-32.311-2.994-39.693-5.867-78.252-19.134-113.163-38.915-60.476-34.265-109.658-87.457-133.317-153.19-13.324-37.018-23.133-78.514-19.733-117.93 1.638-18.989 4.918-38.077 11.054-56.18C84.77 686.181 134 629.645 198.091 602.171c46.12-19.771 93.294-27.515 143.326-24.4 46.751 2.911 90.878 18.821 131.948 40.512 51.512 27.206 94.275 72.755 121.7 123.76 23.344 43.415 32.986 90.345 32.476 139.375-.005.112.066-6.365 0 0z" fill="#23231F"/><path d="M302.523 1126.547c-11.786 2.085-85.224-16.881-132.121-52.234-28.007-21.112-47.998-39.953-62.654-57.768-30.161-36.661-36.686-64.167-36.661-64.463 72.94 101.423 95.379 127.145 232.537 173.937l-1.102.527z" fill="#3d3a3b"/><path d="M289.849 1123.997c-10.371.548-74.2-16.713-119.204-50.379-77.964-58.323-92.693-107.748-92.779-108.2 75.899 101.699 104.508 115.617 213.467 158.174l-1.485.404z" fill="#514e4e"/><path d="M271.967 1119.426c-28.575-6.026-64.588-20.716-97.612-44.234-44.035-31.359-82.069-71.927-86.905-93.31 67.342 80.387 86.53 94.518 186.641 137.457-.637.026-.813.096-1.45.122l-.674-.034z" fill="#696667"/><path d="M253.581 1113.751c-54.194-13.439-142.06-81.108-156.054-116.783 66.215 71.7 76.958 76.916 160.565 117.51-.979-.104-4.511-.727-4.511-.727z" fill="#827f80"/><path d="M624.102 745.062c-1.868-1.933-3.272-5.352-4.623-7.676C591 688.385 561.61 655.112 518.035 622.542c-52.751-39.429-105.341-53.746-143.74-64.2 28.735-4.329 91.441 17.633 148.233 58.799 45.335 32.861 87.224 78.532 102.695 128.651-.336-.219-.842-.44-1.121-.729" fill="#3d3a3b"/><path d="M616.57 730.397c-2.037-2.121-3.806-5.71-5.436-8.157-14.367-21.556-44.263-66.409-97.205-102.967-51.345-35.454-91.722-47.709-115.847-55.03-3.471-1.053-8.533-1.876-11.355-4.155 87.377 7.355 199.715 90.586 231.157 171.264-.394-.286-.979-.6-1.314-.954" fill="#514e4e"/><path d="M605.83 712.181c-16.498-17.143-29.163-37.496-45.732-54.58-2.762-2.848-17.755-17.949-41.69-35.562-42.143-31.011-84.345-46.354-98.214-51.396-4.496-1.634-10.762-3.374-14.795-5.947 66.387 10.069 165.719 73.669 202.11 148.834-.504-.404-1.231-.882-1.679-1.348" fill="#696667"/><path d="M598.197 700.692c-13.485-13.685-24.245-29.756-37.91-43.283-19.439-19.242-36.222-31.523-41.737-35.559-25.097-18.364-53.375-33.913-84.049-46.212-5.297-2.124-12.474-4.768-17.475-7.517 59.489 11.756 147.286 68.496 183.167 134.225-.599-.496-1.45-1.099-1.996-1.653" fill="#7b7879"/><path d="M590.375 689.915c-10.424-10.483-19.161-22.507-29.884-32.718-11.18-10.646-22.74-21.654-41.795-35.538-13.561-9.881-42.378-29.015-83.015-46.151-2.248-.948-5.177-2.387-7.286-3.614 59.087 14.326 132.89 68.261 164.519 120.231-.762-.663-1.827-1.495-2.539-2.211" fill="#827f80"/><path d="M520.504 931.262 381.272 647.706c-3.997-8.14-13.837-11.499-21.977-7.502l-.461.227c-8.141 3.997-11.499 13.837-7.502 21.977l139.232 283.556c3.997 8.14 13.837 11.499 21.977 7.501l.461-.226c8.14-3.998 11.499-13.837 7.502-21.977zM219.577 705.57c-3.536-4.314-9.146-6.76-15.079-5.957l-.118.016c-.097.013-.189.039-.285.053-.069.011-.136.026-.205.039a16.511 16.511 0 0 0-8.612 4.237c-.005.005-.012.007-.017.013-.009.008-.015.018-.023.026a16.727 16.727 0 0 0-2.117 2.419c-.059.081-.113.165-.171.248a16.641 16.641 0 0 0-1.437 2.518c-.063.136-.12.271-.179.409a16.513 16.513 0 0 0-.864 2.588c-.044.181-.081.36-.119.542a16.515 16.515 0 0 0-.331 2.537c-.015.272-.012.54-.014.813 0 .745.031 1.496.133 2.256l.01.073c.027.205.048.409.083.613l43.355 320.379c1.231 9.095 9.601 15.47 18.696 14.239l.118-.016c9.095-1.231 15.47-9.601 14.239-18.696l-12.943-95.647 102.264-38.813 70.694 75.689c6.287 6.731 16.841 7.091 23.572.804s7.092-16.841.804-23.572L219.574 705.571zm29.53 199.767L230.23 765.843l101.131 108.276z" fill="#23231F"/><rect fill="#3d3a3b" height="349.973" rx="4.783" transform="matrix(.73080592 -.68258531 .68258531 .73080592 -481.742 448.715)" width="9.565" x="323.244" y="660.142"/><rect fill="#514e4e" height="348.321" rx="4.06" transform="matrix(.73080592 -.68258531 .68258531 .73080592 -481.742 448.716)" width="8.139" x="323.958" y="660.968"/><rect fill="#696667" height="344.211" rx="3.217" transform="matrix(.73080592 -.68258531 .68258531 .73080592 -481.742 448.715)" width="6.473" x="324.791" y="663.023"/><rect fill="#7b7879" height="340.709" rx="2.313" transform="matrix(.73080592 -.68258531 .68258531 .73080592 -481.742 448.716)" width="4.65" x="325.702" y="664.774"/><rect fill="#827f80" height="336.599" rx="1.904" transform="matrix(.73080592 -.68258531 .68258531 .73080592 -481.742 448.715)" width="3.831" x="326.112" y="666.829"/><rect fill="#3d3a3b" height="330.23" rx="4.513" transform="matrix(.89686502 -.44230434 .44230434 .89686502 -304.205 277.709)" width="9.026" x="438.868" y="626.039"/><rect fill="#514e4e" height="328.671" rx="3.831" transform="matrix(.89686502 -.44230434 .44230434 .89686502 -304.204 277.707)" width="7.68" x="439.541" y="626.819"/><rect fill="#696667" height="324.793" rx="3.036" transform="matrix(.89686502 -.44230434 .44230434 .89686502 -304.204 277.706)" width="6.107" x="440.327" y="628.758"/><rect fill="#7b7879" height="321.488" rx="2.183" transform="matrix(.89686502 -.44230434 .44230434 .89686502 -304.204 277.707)" width="4.388" x="441.187" y="630.41"/><rect fill="#827f80" height="317.61" rx="1.797" transform="matrix(.89686502 -.44230434 .44230434 .89686502 -304.204 277.706)" width="3.615" x="441.573" y="632.349"/><rect fill="#3d3a3b" height="93.961" rx="4.925" transform="matrix(.3548459 .9349248 -.9349248 .3548459 1028.123 303.535)" width="9.849" x="289.205" y="849.735"/><rect fill="#514e4e" height="90.551" rx="3.504" transform="matrix(.3548459 .9349248 -.9349248 .3548459 1028.124 303.536)" width="7.137" x="290.561" y="851.44"/><rect fill="#696667" height="87.839" rx="2.972" transform="matrix(.3548459 .9349248 -.9349248 .3548459 1028.125 303.536)" width="6.034" x="291.112" y="852.796"/><rect fill="#7b7879" height="85.583" rx="2.228" transform="matrix(.3548459 .9349248 -.9349248 .3548459 1028.125 303.536)" width="4.513" x="291.873" y="853.924"/><rect fill="#827f80" height="81.761" rx="1.586" transform="matrix(.3548459 .9349248 -.9349248 .3548459 1027.968 303.902)" width="3.246" x="292.163" y="855.904"/><g fill="#FEFFA4" opacity=".5"><path d="m329.872 721.418-8.326-31.042 26.686 9.427 8.326 31.041zm-22-82.021-15.47-57.679 26.686 9.427 15.471 57.679zm-29.138-108.634-15.47-57.679 26.686 9.426 15.471 57.679zM249.59 422.105l-15.47-57.68 26.686 9.427 15.471 57.68zM220.453 313.47l-8.333-31.065 26.687 9.427 8.332 31.065z"/></g><path d="m264.183 131.41 48.366-17.604 26.686 9.427-48.366 17.604z" fill="url(#a)" opacity=".5"/><path d="m367.272 93.889 48.344-17.596 26.686 9.426-48.344 17.596z" fill="url(#e)" opacity=".5"/><path d="m470.339 56.375 48.366-17.604 26.686 9.427-48.366 17.604z" fill="url(#f)" opacity=".5"/><path d="M573.428 18.854 621.794 1.25l26.687 9.427-48.366 17.603z" fill="url(#g)" opacity=".5"/><g fill="#FEFFA4" opacity=".5"><path d="m280.935 193.868-16.752-62.458 26.686 9.427 16.753 62.458zm103.089-37.521-16.752-62.458 26.686 9.426 16.753 62.458zm103.067-37.514-16.752-62.458 26.686 9.427 16.753 62.458zm103.09-37.521-16.753-62.458 26.687 9.426 16.752 62.459z"/></g><path d="m648.481 10.677 16.752 62.458 29.451-10.719c30.295-11.027 61.828 5.937 70.393 37.87l8.332 31.065 59.257-21.568 13.667 50.955-59.257 21.568 15.471 57.68 59.257-21.568 13.673 50.979-59.257 21.568 15.471 57.679 59.257-21.568 13.667 50.955-59.257 21.568 15.471 57.679 59.257-21.568 13.673 50.979-59.257 21.568 8.326 31.042c8.571 31.956-9.069 66.791-39.364 77.817l-29.451 10.719 16.753 62.459-48.366 17.604-16.753-62.459-54.723 19.918 16.753 62.459-48.366 17.604-16.753-62.459-54.723 19.918 16.753 62.459-48.344 17.596-16.753-62.459-54.723 19.918 16.753 62.459-48.366 17.604-16.753-62.459-29.451 10.719c-30.318 11.035-61.822-5.913-70.393-37.869l-8.326-31.042-59.257 21.568-13.673-50.979 59.257-21.568-15.471-57.679-59.257 21.568-13.667-50.955 59.257-21.568-15.471-57.679-59.257 21.568-13.673-50.979 59.257-21.568-15.471-57.68-59.257 21.568-13.667-50.955 59.257-21.568-8.332-31.065c-8.565-31.932 9.046-66.783 39.364-77.818l29.451-10.719-16.752-62.458 48.366-17.604 16.752 62.458 54.723-19.918-16.752-62.458 48.344-17.596 16.752 62.458 54.723-19.918-16.752-62.458 48.366-17.604 16.752 62.458 54.723-19.918-16.752-62.458 48.366-17.604z" fill="#808285" opacity=".35"/><g fill="#FEFFA4" opacity=".5"><path d="m755.714 698.47-16.753-62.459 26.686 9.427 16.753 62.459zm-103.09 37.522-16.752-62.459 26.686 9.426 16.753 62.459zm-103.067 37.513-16.752-62.459 26.686 9.427 16.753 62.459zm-103.089 37.521-16.752-62.459 26.686 9.427 16.753 62.459z"/></g><path d="m262.288 711.944-13.673-50.979 26.686 9.427 13.674 50.978zm-29.144-108.658-13.667-50.955 26.686 9.426 13.668 50.956zm-29.138-108.634-13.673-50.979 26.686 9.426 13.674 50.979zm-29.144-108.659-13.667-50.955 26.687 9.427 13.667 50.955z" fill="#fff" opacity=".5"/><path d="m321.546 690.376 26.686 9.427-59.257 21.567-26.687-9.426zm-29.144-108.658 26.686 9.427-59.257 21.568-26.687-9.427zm-29.138-108.634 26.686 9.426-59.257 21.568-26.687-9.426zM234.12 364.425l26.686 9.427-59.257 21.568-26.687-9.427z" fill="#FEFFA4" opacity=".5"/><g fill="#808285" opacity=".5"><path d="m248.615 660.965 59.257-21.568 26.687 9.427-59.258 21.568zm-29.138-108.634 59.257-21.568 26.687 9.426-59.258 21.568zm-29.144-108.658 59.257-21.568 26.687 9.427-59.258 21.567zm-29.138-108.635 59.258-21.568 26.686 9.427-59.257 21.568z"/></g><path d="M212.12 282.405c-8.565-31.932 9.046-66.783 39.364-77.818l26.686 9.427c-30.318 11.035-47.929 45.886-39.364 77.818z" fill="#808285" opacity=".5"/><g fill="#FEFFA4"><path d="m638.547 63.708 29.451-10.719 26.686 9.426-29.451 10.72zM251.484 204.587l29.451-10.719 26.687 9.427-29.451 10.719zm77.817-28.323 54.723-19.917 26.687 9.426-54.723 19.918zm103.067-37.513 54.723-19.918 26.687 9.427-54.723 19.918zm103.089-37.521 54.724-19.918 26.686 9.427-54.723 19.917z" opacity=".5"/><path d="m621.794 1.25 26.687 9.427 16.752 62.458-26.686-9.427zM312.549 113.806l26.686 9.427 16.753 62.458-26.687-9.427zm103.067-37.513 26.686 9.426 16.753 62.459-26.687-9.427zm103.089-37.522 26.686 9.427 16.753 62.458-26.687-9.426z" opacity=".5"/></g><g fill="#808285" opacity=".5"><path d="m816.778 607.688 26.687 9.427-29.451 10.719-26.687-9.426zm-77.817 28.323 26.686 9.427-54.723 19.918-26.686-9.427zm-103.089 37.522 26.686 9.426-54.723 19.918-26.686-9.427zm-103.067 37.513 26.686 9.427-54.723 19.917-26.686-9.426zm-103.089 37.521 26.686 9.427-29.451 10.719-26.686-9.426z"/></g><path d="m746.723 121.923 59.257-21.568 26.687 9.427-59.258 21.568zm29.138 108.635 59.257-21.568 26.686 9.427-59.257 21.568zm29.144 108.658 59.257-21.568 26.686 9.427-59.257 21.568zm29.138 108.634 59.257-21.567 26.686 9.426-59.257 21.568z" fill="#fff" opacity=".5"/><path d="m704.036 52.58 26.686 9.427c16.155 5.707 29.283 19.368 34.355 38.278l-26.686-9.427c-5.072-18.911-18.2-32.572-34.355-38.278z" fill="#FEFFA4" opacity=".5"/><path d="M730.722 62.007c-11.124-3.929-23.684-4.088-36.038.409l-26.686-9.427c12.354-4.496 24.914-4.338 36.038-.409l26.686 9.427z" fill="#FEFFA4" opacity=".5"/><g fill="#FEFFA4" opacity=".85"><path d="m819.647 151.311 26.687 9.426-59.257 21.568-26.687-9.427zm29.144 108.658 26.687 9.427-59.257 21.568-26.687-9.427zm29.138 108.634 26.687 9.427-59.258 21.568-26.686-9.427zm29.144 108.658 26.687 9.427-59.258 21.568-26.686-9.427z"/></g><g opacity=".5"><path d="m738.391 90.858 26.686 9.427 8.332 31.065-26.686-9.427z" fill="url(#h)"/><path d="m760.39 172.878 26.687 9.427 15.47 57.68-26.686-9.427z" fill="url(#i)"/><path d="m789.534 281.537 26.687 9.427 15.47 57.679-26.686-9.427z" fill="url(#j)"/><path d="m818.672 390.171 26.686 9.427 15.471 57.679-26.686-9.427z" fill="url(#k)"/><path d="m847.816 498.829 26.686 9.427 8.326 31.042-26.686-9.427z" fill="url(#l)"/></g><path d="m856.142 529.871 26.686 9.427c8.571 31.956-9.069 66.791-39.364 77.817l-26.686-9.427c30.295-11.027 47.935-45.861 39.364-77.817z" fill="#FEFFA4" opacity=".5"/><g fill="#FEFFA4" opacity=".75"><path d="m787.327 618.408 26.687 9.426 16.752 62.459-26.686-9.427zm-103.089 37.521 26.686 9.427 16.753 62.458-26.687-9.426zM581.149 693.45l26.686 9.427 16.753 62.459-26.687-9.427zm-103.067 37.514 26.686 9.426 16.753 62.459-26.687-9.427z"/></g><path d="M364.211 759.704c-16.149-5.704-29.264-19.364-34.34-38.286l26.686 9.427c5.075 18.922 18.191 32.581 34.34 38.286l-26.686-9.427z" fill="#FEFFA4" opacity=".5"/><path d="m390.898 769.13-26.686-9.427c11.124 3.929 23.688 4.084 36.054-.417l26.686 9.427c-12.366 4.501-24.929 4.346-36.053.417z" fill="#FEFFA4"/><path d="m621.794 1.25 16.752 62.458 29.451-10.719c30.295-11.027 61.828 5.937 70.393 37.87l8.332 31.065 59.257-21.568 13.667 50.955-59.257 21.568 15.471 57.68 59.257-21.568 13.673 50.979-59.257 21.568 15.471 57.679 59.257-21.568 13.667 50.955-59.257 21.568 15.471 57.679 59.257-21.568 13.673 50.979-59.257 21.568 8.326 31.042c8.571 31.956-9.069 66.791-39.364 77.817l-29.451 10.719 16.753 62.459-48.366 17.604-16.753-62.459-54.723 19.918 16.753 62.459-48.366 17.604-16.753-62.459-54.723 19.918 16.753 62.459-48.344 17.596-16.753-62.459-54.723 19.918 16.753 62.459-48.366 17.604-16.753-62.459-29.451 10.719c-30.318 11.035-61.822-5.913-70.393-37.869l-8.326-31.042-59.257 21.568-13.673-50.979 59.257-21.568-15.471-57.679-59.257 21.568-13.667-50.955 59.257-21.568-15.471-57.679-59.257 21.568-13.673-50.979 59.257-21.568-15.471-57.68-59.257 21.568-13.667-50.955 59.257-21.568-8.332-31.065c-8.565-31.932 9.046-66.783 39.364-77.818l29.451-10.719-16.752-62.458 48.366-17.604 16.752 62.458 54.723-19.918-16.752-62.458 48.344-17.596 16.752 62.458 54.723-19.918-16.752-62.458 48.366-17.604 16.752 62.458 54.723-19.918-16.752-62.458L621.794 1.25z" fill="url(#m)" opacity=".5"/><path d="m805.98 100.355 26.687 9.427 13.667 50.955-26.687-9.426zm29.138 108.635 26.686 9.427 13.674 50.979-26.687-9.427zm29.144 108.658 26.686 9.427 13.668 50.955-26.687-9.427zM893.4 426.283l26.686 9.426 13.674 50.979-26.687-9.427z" fill="#414042" opacity=".5"/><g fill="#808285" opacity=".75"><path d="m804.08 680.866 26.686 9.427-48.366 17.604-26.686-9.427zm-103.09 37.522 26.687 9.426-48.366 17.604-26.687-9.426zm-103.089 37.521 26.687 9.427-48.344 17.596-26.687-9.427zm-103.067 37.513 26.687 9.427-48.366 17.604-26.687-9.427z" opacity=".5"/></g><path d="M446.468 812.276a1.245 1.245 0 0 1-1.207-.926l-16.399-61.141-28.17 10.253c-14.737 5.363-30.266 4.46-43.724-2.545-13.94-7.255-23.992-20.102-28.304-36.175l-7.973-29.725-57.976 21.102a1.247 1.247 0 0 1-1.634-.85l-13.673-50.979a1.251 1.251 0 0 1 .78-1.499l58.181-21.176-14.821-55.255-57.976 21.102a1.248 1.248 0 0 1-1.635-.851l-13.667-50.955a1.251 1.251 0 0 1 .78-1.499l58.18-21.176-14.82-55.255-57.976 21.102a1.25 1.25 0 0 1-1.635-.851l-13.673-50.979a1.252 1.252 0 0 1 .78-1.499l58.181-21.176-14.821-55.256-57.976 21.102a1.247 1.247 0 0 1-1.634-.851l-13.667-50.956a1.252 1.252 0 0 1 .78-1.499l58.181-21.176-8.036-29.958c-8.718-32.505 9.291-68.086 40.144-79.316l28.375-10.328-16.455-61.352a1.25 1.25 0 0 1 .779-1.499l48.367-17.604a1.247 1.247 0 0 1 1.634.851l16.399 61.141 52.364-19.059-16.456-61.352a1.251 1.251 0 0 1 .78-1.499l48.344-17.596a1.247 1.247 0 0 1 1.634.851l16.399 61.141 52.365-19.06-16.455-61.352a1.25 1.25 0 0 1 .779-1.499l48.366-17.604a1.254 1.254 0 0 1 1.635.851l16.399 61.141 52.365-19.059-16.456-61.352a1.25 1.25 0 0 1 .779-1.499l48.367-17.6a1.25 1.25 0 0 1 1.635.851l16.4 61.141 28.168-10.253c14.726-5.361 30.253-4.453 43.719 2.557 13.948 7.259 24.002 20.102 28.31 36.164l7.979 29.747 57.976-21.102a1.25 1.25 0 0 1 1.635.851l13.667 50.956a1.25 1.25 0 0 1-.779 1.499l-58.182 21.176 14.821 55.256 57.976-21.102a1.25 1.25 0 0 1 1.635.851l13.673 50.979a1.25 1.25 0 0 1-.779 1.499l-58.181 21.176 14.821 55.255 57.975-21.102a1.25 1.25 0 0 1 1.635.851l13.667 50.956a1.25 1.25 0 0 1-.779 1.499l-58.181 21.175 14.821 55.255 57.975-21.102a1.25 1.25 0 0 1 1.635.851l13.674 50.979a1.25 1.25 0 0 1-.779 1.499l-58.181 21.176 8.028 29.936c8.719 32.505-9.289 68.085-40.143 79.315l-28.375 10.327 16.456 61.353a1.25 1.25 0 0 1-.779 1.499l-48.366 17.604a1.25 1.25 0 0 1-1.635-.851l-16.4-61.141-52.365 19.059 16.456 61.353a1.25 1.25 0 0 1-.779 1.499l-48.366 17.604a1.25 1.25 0 0 1-1.635-.851l-16.398-61.141-52.366 19.059 16.456 61.352a1.25 1.25 0 0 1-.779 1.499l-48.344 17.596a1.25 1.25 0 0 1-1.635-.851l-16.4-61.142-52.364 19.059 16.455 61.353a1.25 1.25 0 0 1-.779 1.499l-48.366 17.604c-.139.05-.284.075-.428.075zm-16.752-64.958a1.245 1.245 0 0 1 1.207.926l16.399 61.141 46.008-16.745-16.455-61.353a1.25 1.25 0 0 1 .779-1.499l54.723-19.917a1.254 1.254 0 0 1 1.635.851l16.399 61.142 45.986-16.738-16.456-61.352a1.25 1.25 0 0 1 .779-1.499l54.724-19.917a1.25 1.25 0 0 1 1.635.851l16.399 61.141 46.008-16.745-16.456-61.353a1.25 1.25 0 0 1 .779-1.499l54.724-19.917a1.25 1.25 0 0 1 1.635.851l16.4 61.141 46.008-16.745-16.456-61.353a1.25 1.25 0 0 1 .779-1.499l29.451-10.719c29.667-10.797 46.975-45.034 38.584-76.318l-8.325-31.042a1.251 1.251 0 0 1 .779-1.499l58.181-21.176-13.023-48.555-57.976 21.102a1.254 1.254 0 0 1-1.635-.851l-15.471-57.679a1.25 1.25 0 0 1 .779-1.499l58.181-21.175-13.018-48.532-57.975 21.102a1.25 1.25 0 0 1-1.635-.851l-15.471-57.679a1.25 1.25 0 0 1 .779-1.499l58.181-21.176-13.023-48.555-57.976 21.102a1.25 1.25 0 0 1-1.635-.851l-15.471-57.68a1.25 1.25 0 0 1 .779-1.499l58.182-21.176-13.018-48.532-57.976 21.102a1.25 1.25 0 0 1-1.635-.851l-8.332-31.064c-4.124-15.377-13.73-27.663-27.05-34.594-12.838-6.68-27.65-7.543-41.709-2.424l-29.45 10.719a1.25 1.25 0 0 1-1.635-.851l-16.4-61.141-46.008 16.745 16.456 61.352a1.25 1.25 0 0 1-.779 1.499l-54.724 19.917a1.25 1.25 0 0 1-1.635-.851l-16.398-61.141-46.009 16.746 16.455 61.352a1.25 1.25 0 0 1-.779 1.499l-54.723 19.918a1.25 1.25 0 0 1-1.635-.851l-16.399-61.141-45.986 16.737 16.456 61.352a1.251 1.251 0 0 1-.78 1.499l-54.723 19.917a1.254 1.254 0 0 1-1.635-.851l-16.399-61.141-46.008 16.746 16.456 61.352a1.252 1.252 0 0 1-.78 1.499l-29.451 10.719c-29.667 10.798-46.975 45.035-38.584 76.319l8.333 31.065a1.251 1.251 0 0 1-.78 1.499l-58.181 21.176 13.018 48.532 57.976-21.102a1.25 1.25 0 0 1 1.635.851l15.471 57.68a1.252 1.252 0 0 1-.78 1.499l-58.181 21.176 13.023 48.555 57.976-21.102a1.25 1.25 0 0 1 1.635.851l15.471 57.679a1.251 1.251 0 0 1-.78 1.499l-58.181 21.176 13.017 48.531 57.976-21.102a1.253 1.253 0 0 1 1.635.851l15.47 57.679a1.25 1.25 0 0 1-.779 1.499l-58.181 21.176 13.023 48.555 57.976-21.102a1.254 1.254 0 0 1 1.635.851l8.326 31.042c4.127 15.388 13.731 27.678 27.042 34.605 12.831 6.678 27.647 7.535 41.715 2.413l29.452-10.719c.138-.05.283-.075.427-.075z" fill="#fff"/><path d="m838.195 903.37 34.88 85.805-107.992 176.645-280.191-91.821 145.873-238.606z" fill="#F2FF48"/><path d="M765.083 1167.698c-.195 0-.392-.03-.585-.093l-280.19-91.821a1.88 1.88 0 0 1-1.018-2.764l145.872-238.605a1.876 1.876 0 0 1 2.188-.805l207.431 67.977c.524.172.947.566 1.154 1.078l34.88 85.805a1.877 1.877 0 0 1-.137 1.687l-107.992 176.645c-.349.57-.962.898-1.603.898zm-277.351-94.745 276.523 90.619 106.723-174.568-34.195-84.12-205.191-67.244-143.859 235.313z" fill="#23231F"/><path d="M801.704 1035.874c-.774-.254-1.681-.299-2.606-.071-.034-.011-1.567.362-4.35.966-9.768 2.191-34.504 7.632-58.519 11.895-12.006 2.097-23.857 3.941-33.518 4.92-4.805.482-9.058.772-12.428.781-3.386.035-5.919-.289-6.94-.623-3.692-1.21-6.971-3.16-10.303-5.802-4.981-3.958-9.928-9.523-16.238-15.904-6.324-6.42-13.958-13.674-24.512-21.006-2.995-2.093-6.198-3.649-9.562-4.752-7.68-2.517-15.926-2.557-23.768-1.319-11.803 1.895-22.802 6.615-30.95 10.819-8.15 4.204-13.47 7.919-13.571 8.022-1.852 1.28-2.192 3.392-.792 4.726.373.362.841.63 1.359.8 1.379.452 3.126.222 4.446-.717l.067-.046c.892-.616 9.996-6.833 21.824-11.685 5.874-2.423 12.454-4.512 18.93-5.457 6.49-.972 12.841-.812 18.644 1.089a29.453 29.453 0 0 1 7.59 3.767c13.45 9.395 22.008 18.57 29.467 26.305 3.738 3.852 7.202 7.381 10.955 10.364 3.724 2.972 7.789 5.45 12.602 7.028 3.117.987 6.897 1.147 11.544 1.053 8.118-.205 18.881-1.497 30.582-3.29 35.121-5.408 78.785-15.53 78.867-15.536 2.218-.52 3.749-2.379 3.338-4.164-.233-1.023-1.063-1.804-2.162-2.164m-55.024-67.296c-10.483-3.435-14.592-13.543-9.116-22.499 5.475-8.956 18.492-13.419 28.975-9.983 10.517 3.447 14.642 13.527 9.167 22.483s-18.508 13.446-29.025 10m23.669-38.715c-14.538-4.764-32.534 1.436-40.104 13.818-7.586 12.409-1.913 26.366 12.625 31.13 14.572 4.775 32.568-1.425 40.155-13.834 7.57-12.382 1.896-26.339-12.676-31.114" fill="#F3F700"/><path d="m802.229 964.555 53.71 10.617-19.363-71.793z" fill="url(#n)"/><path d="m838.195 903.37-10.733 77.56 45.613 8.245z" fill="#F3F700"/><path d="M873.075 991.053c-.11 0-.223-.01-.334-.03l-45.613-8.245a1.878 1.878 0 0 1-1.526-2.105l10.733-77.56a1.877 1.877 0 0 1 3.6-.45l34.88 85.805a1.877 1.877 0 0 1-1.739 2.585zm-43.506-11.65 40.48 7.317-30.955-76.15z" fill="#23231F"/><path d="m386.78 287.636 16.012 5.656c-15.181 5.526-23.998 22.955-19.706 38.956l-16.012-5.656c-4.292-16.001 4.525-33.431 19.706-38.956z" fill="#FEFFA4"/><path d="M383.086 333.498c-.14 0-.28-.023-.417-.071l-16.012-5.656a1.251 1.251 0 0 1-.791-.855c-4.446-16.577 4.744-34.725 20.486-40.455.273-.099.571-.1.844-.004l16.012 5.656a1.252 1.252 0 0 1 .011 2.354c-14.555 5.297-23.045 22.101-18.926 37.458a1.251 1.251 0 0 1-1.207 1.574zm-14.967-7.862 13.239 4.676c-2.868-14.84 4.789-30.42 17.993-36.91l-12.559-4.437c-14.101 5.389-22.358 21.635-18.673 36.67z" fill="#23231F"/><path d="m367.074 326.592 16.012 5.656 58.98 219.893-16.012-5.656z" fill="#FEFFA4"/><path d="M442.066 553.391c-.14 0-.28-.023-.417-.071l-16.012-5.656a1.251 1.251 0 0 1-.791-.855l-58.979-219.893a1.251 1.251 0 0 1 1.624-1.502l16.012 5.656c.388.137.684.457.791.855l58.979 219.893a1.251 1.251 0 0 1-1.207 1.574zm-14.975-7.865 13.153 4.646-58.194-216.964-13.153-4.646z" fill="#23231F"/><path d="m459.254 571.309-16.012-5.656c-8.083-2.855-14.647-9.693-17.188-19.168l16.012 5.656c2.541 9.474 9.105 16.312 17.188 19.168z" fill="#FEFFA4"/><path d="M459.254 572.559c-.139 0-.278-.023-.416-.072l-16.013-5.656c-8.852-3.126-15.405-10.424-17.979-20.022a1.251 1.251 0 0 1 1.624-1.502l16.012 5.656c.388.137.684.457.791.855 2.358 8.79 8.334 15.465 16.397 18.313a1.251 1.251 0 0 1-.416 2.429zm-31.265-24.065c2.729 7.633 8.336 13.39 15.669 15.979l5.188 1.833c-3.604-3.49-6.3-7.994-7.81-13.204z" fill="#23231F"/><path d="M613.455 211.493c-5.569-1.967-11.859-2.044-18.052.21L386.78 287.635l16.012 5.656 208.623-75.932c6.192-2.254 12.482-2.177 18.051-.21l-16.012-5.656z" fill="#FEFFA4"/><path d="M402.792 294.542c-.141 0-.282-.024-.417-.071l-16.011-5.656a1.252 1.252 0 0 1-.011-2.354l208.623-75.933c6.284-2.287 12.817-2.36 18.896-.213l15.986 5.646a1.251 1.251 0 1 1-.807 2.367c-5.525-1.951-11.477-1.88-17.208.207L403.22 294.468c-.138.05-.283.075-.428.075zm-12.308-6.924 12.302 4.346 208.202-75.779a29.166 29.166 0 0 1 7.31-1.655l-5.258-1.857c-5.525-1.952-11.476-1.881-17.208.206l-205.347 74.74z" fill="#23231F"/><path d="m643.977 147.974 16.012 5.656c10.989 3.882 19.915 13.176 23.368 26.05l-16.012-5.656c-3.453-12.873-12.379-22.168-23.368-26.05z" fill="#FEFFA4"/><path d="M683.357 180.93c-.14 0-.28-.023-.416-.071l-16.012-5.656a1.247 1.247 0 0 1-.791-.855c-3.243-12.089-11.472-21.272-22.577-25.195a1.25 1.25 0 1 1 .832-2.357c.652.229.008.003.013.004l15.999 5.651c11.895 4.202 20.7 14.008 24.159 26.905a1.251 1.251 0 0 1-1.207 1.574zm-14.98-7.867 13.077 4.619c-3.63-10.939-11.498-19.206-21.881-22.873l-3.383-1.195c5.717 4.913 9.953 11.589 12.187 19.449z" fill="#23231F"/><path d="M720.69 525.725 437.251 628.889c-8.413 3.062-16.961 2.957-24.531.283l16.012 5.656c7.569 2.674 16.117 2.78 24.53-.282l283.44-103.164-16.012-5.656z" fill="#FEFFA4"/><path d="M440.485 638.098c-4.129 0-8.22-.697-12.17-2.092l-16.012-5.656a1.25 1.25 0 1 1 .833-2.357c7.608 2.687 15.798 2.591 23.687-.279L720.262 524.55a1.26 1.26 0 0 1 .844-.004l16.012 5.656a1.25 1.25 0 0 1 .012 2.354L453.69 635.72c-4.355 1.584-8.801 2.378-13.204 2.378zm-14.81-5.676 3.473 1.227c7.609 2.688 15.799 2.592 23.686-.278l280.165-101.972-12.303-4.346-283.018 103.011c-3.959 1.44-7.993 2.227-12.002 2.358z" fill="#23231F"/><path d="m667.344 174.024 16.012 5.656 80.131 298.752-16.012-5.656z" fill="#FEFFA4"/><path d="M763.486 479.681c-.14 0-.28-.023-.416-.071l-16.012-5.656a1.247 1.247 0 0 1-.791-.855l-80.13-298.751a1.251 1.251 0 0 1 1.623-1.502l16.012 5.656c.389.137.685.457.791.855l80.13 298.751a1.251 1.251 0 0 1-1.207 1.574zm-14.975-7.865 13.152 4.646-79.345-295.823-13.152-4.646z" fill="#23231F"/><path d="m747.475 472.776 16.012 5.656c5.831 21.741-6.158 45.442-26.785 52.949l-16.012-5.656c20.627-7.507 32.616-31.209 26.785-52.949z" fill="#FEFFA4"/><path d="M736.702 532.631c-.141 0-.281-.024-.416-.071l-16.012-5.656a1.25 1.25 0 0 1-.012-2.354c19.997-7.278 31.662-30.359 26.005-51.451a1.251 1.251 0 0 1 1.623-1.502l16.012 5.656c.389.137.685.457.791.855 5.985 22.312-6.38 46.737-27.563 54.448-.139.05-.283.075-.428.075zm-12.51-6.995 12.5 4.416c19.543-7.371 30.973-29.892 25.751-50.663l-13.217-4.669c4.359 20.566-6.435 42.375-25.034 50.917z" fill="#23231F"/><path d="m443.242 565.653 16.012 5.656c-8.084-2.856-14.647-9.693-17.189-19.168l-58.979-219.893c-4.292-16.001 4.525-33.43 19.706-38.956l208.623-75.932c6.192-2.254 12.482-2.177 18.051-.21l-16.012-5.656c-5.569-1.967-11.859-2.044-18.052.21l-208.623 75.932c-15.181 5.526-23.998 22.955-19.706 38.957l58.98 219.893c2.541 9.474 9.105 16.313 17.188 19.168z" fill="url(#c)"/><path d="m763.487 478.431-80.131-298.752c-3.453-12.873-12.379-22.168-23.367-26.049l-16.012-5.656c10.989 3.882 19.915 13.177 23.368 26.05l80.13 298.751c5.831 21.741-6.158 45.442-26.784 52.95L437.252 628.889c-8.413 3.062-16.961 2.957-24.531.283l16.012 5.656c7.569 2.674 16.117 2.78 24.53-.282l283.44-103.164c20.627-7.508 32.616-31.209 26.785-52.95z" fill="url(#o)"/><path d="M619.446 148.257c20.627-7.507 42.067 4.026 47.898 25.767l80.131 298.751c5.831 21.741-6.158 45.442-26.785 52.949L437.25 628.888c-20.627 7.508-42.067-4.026-47.898-25.767L309.221 304.37c-5.831-21.741 6.158-45.442 26.785-52.949zm70.176 302.297-58.979-219.893c-4.292-16.001-20.058-24.483-35.24-18.958L386.78 287.636c-15.181 5.526-23.998 22.955-19.706 38.956l58.979 219.893c4.292 16.001 20.058 24.483 35.24 18.958l208.623-75.933c15.181-5.526 23.998-22.955 19.706-38.956" fill="#FEFFA4"/><path d="M424.453 632.439a36.343 36.343 0 0 1-16.847-4.129c-9.587-4.989-16.498-13.819-19.46-24.864l-80.131-298.751c-5.984-22.313 6.381-46.738 27.565-54.448l283.439-103.164c10.135-3.688 20.813-3.064 30.072 1.754 9.587 4.989 16.498 13.819 19.461 24.864l80.13 298.751c5.985 22.312-6.38 46.737-27.563 54.448l-283.44 103.164c-4.359 1.586-8.821 2.375-13.226 2.375zm195.421-483.007L336.435 252.596c-19.997 7.278-31.663 30.359-26.005 51.451l80.131 298.751c2.778 10.36 9.242 18.632 18.2 23.294 8.63 4.492 18.597 5.068 28.063 1.622l283.44-103.164c19.997-7.278 31.662-30.359 26.005-51.451l-80.13-298.751c-2.779-10.36-9.243-18.632-18.201-23.294-8.631-4.491-18.598-5.067-28.063-1.622zM451.872 568.387c-4.344 0-8.615-1.03-12.543-3.074-7.134-3.713-12.277-10.284-14.482-18.503l-58.979-219.893c-4.446-16.577 4.744-34.725 20.486-40.455l208.623-75.933c7.548-2.746 15.499-2.282 22.393 1.306 7.135 3.713 12.277 10.284 14.481 18.503l58.979 219.893c4.446 16.577-4.743 34.725-20.485 40.455l-208.623 75.933c-3.246 1.181-6.569 1.769-9.849 1.769zm152.95-357.125c-2.992 0-6.024.537-8.99 1.616l-208.623 75.933c-14.555 5.298-23.045 22.101-18.926 37.458l58.979 219.893c2.021 7.534 6.716 13.548 13.222 16.934 6.266 3.26 13.505 3.678 20.382 1.173l208.623-75.933c14.556-5.297 23.046-22.101 18.927-37.458l-58.979-219.893c-2.021-7.534-6.716-13.548-13.221-16.934a24.578 24.578 0 0 0-11.394-2.79z" fill="#23231F"/><g clip-path="url(#p)"><path d="M661.604 864.346c-.161-15.594-1.836-31.887-4.626-47.577.611 3.91-.727-3.75-.688-3.546-.459-2.41-.948-4.814-1.473-7.21-.747-4.071-1.665-8.124-2.669-12.139-2.986-11.936-6.992-23.613-11.596-35.017-7.055-17.474-15.478-34.193-25.227-50.33-23.096-38.23-54.174-71.562-90.233-97.884-61.863-45.157-138.313-69.422-214.606-67.986-35.588.67-69.955 7.535-103.505 19.167-5.991 2.357-8.828 3.507-18 7.623-57.83 25.95-106.343 66.8-137.519 123.832-30.545 55.896-41.261 120.995-30.799 183.805 22.143 132.941 131.56 238.537 260.994 268.816 65.612 15.349 135.316 12 198.287-12.765 64.512-25.372 116.952-71.768 149.165-132.985.689-1.562.854-1.85 2.626-5.399 6.991-14.004 12.942-28.247 17.613-43.447 9.119-26.478 12.713-57.342 12.259-86.957 0-.066.008.531 0 0zM200.988 564.181c-.407.594-.001.001 0 0 0 0-.055.064 0 0zm-86.49 442.531c.005.005.021.025 0 0 .001.001.003.004 0 0zm4.833 5.789c.012.014.047.055 0 0 .002.003.007.009 0 0zm12.651 13.91c.044.049.003.006 0 0 .006.007 0 0 0 0zm495.56-144.994c-2.876 59.323-27.318 116.964-69.004 159.479-37.759 38.51-85.934 64.351-138.941 74.45-2.172.434-3.301.521-4.604.738-15.461 2.583-27.649 4.367-43.348 4.877.431-.002-.782-.032-1.213-.007-2.866.168-7.702.05-10.53.064-3.297.016-6.579.092-9.869-.113-10.845-.676-21.553-1.404-32.311-2.994-39.693-5.867-78.252-19.134-113.163-38.915-60.476-34.265-109.658-87.457-133.317-153.19-13.324-37.018-23.133-78.514-19.733-117.93 1.638-18.989 4.918-38.077 11.054-56.18C84.77 686.181 134 629.645 198.091 602.171c46.12-19.771 93.294-27.515 143.326-24.4 46.751 2.911 90.878 18.821 131.948 40.512 51.512 27.206 94.275 72.755 121.7 123.76 23.344 43.415 32.986 90.345 32.476 139.375-.005.112.066-6.365 0 0z" fill="#23231F"/><path d="M302.523 1126.547c-11.786 2.085-85.224-16.881-132.121-52.234-28.007-21.112-47.998-39.953-62.654-57.768-30.161-36.661-36.686-64.167-36.661-64.463 72.94 101.423 95.379 127.145 232.537 173.937l-1.102.527z" fill="#3d3a3b"/><path d="M289.849 1123.997c-10.371.548-74.2-16.713-119.204-50.379-77.964-58.323-92.693-107.748-92.779-108.2 75.899 101.699 104.508 115.617 213.467 158.174l-1.485.404z" fill="#514e4e"/><path d="M271.967 1119.426c-28.575-6.026-64.588-20.716-97.612-44.234-44.035-31.359-82.069-71.927-86.905-93.31 67.342 80.387 86.53 94.518 186.641 137.457-.637.026-.813.096-1.45.122l-.674-.034z" fill="#696667"/><path d="M253.581 1113.751c-54.194-13.439-142.06-81.108-156.054-116.783 66.215 71.7 76.958 76.916 160.565 117.51-.979-.104-4.511-.727-4.511-.727z" fill="#827f80"/><path d="M624.102 745.062c-1.868-1.933-3.272-5.352-4.623-7.676C591 688.385 561.61 655.112 518.035 622.542c-52.751-39.429-105.341-53.746-143.74-64.2 28.735-4.329 91.441 17.633 148.233 58.799 45.335 32.861 87.224 78.532 102.695 128.651-.336-.219-.842-.44-1.121-.729" fill="#3d3a3b"/><path d="M616.57 730.397c-2.037-2.121-3.806-5.71-5.436-8.157-14.367-21.556-44.263-66.409-97.205-102.967-51.345-35.454-91.722-47.709-115.847-55.03-3.471-1.053-8.533-1.876-11.355-4.155 87.377 7.355 199.715 90.586 231.157 171.264-.394-.286-.979-.6-1.314-.954" fill="#514e4e"/><path d="M605.83 712.181c-16.498-17.143-29.163-37.496-45.732-54.58-2.762-2.848-17.755-17.949-41.69-35.562-42.143-31.011-84.345-46.354-98.214-51.396-4.496-1.634-10.762-3.374-14.795-5.947 66.387 10.069 165.719 73.669 202.11 148.834-.504-.404-1.231-.882-1.679-1.348" fill="#696667"/><path d="M598.197 700.692c-13.485-13.685-24.245-29.756-37.91-43.283-19.439-19.242-36.222-31.523-41.737-35.559-25.097-18.364-53.375-33.913-84.049-46.212-5.297-2.124-12.474-4.768-17.475-7.517 59.489 11.756 147.286 68.496 183.167 134.225-.599-.496-1.45-1.099-1.996-1.653" fill="#7b7879"/><path d="M590.375 689.915c-10.424-10.483-19.161-22.507-29.884-32.718-11.18-10.646-22.74-21.654-41.795-35.538-13.561-9.881-42.378-29.015-83.015-46.151-2.248-.948-5.177-2.387-7.286-3.614 59.087 14.326 132.89 68.261 164.519 120.231-.762-.663-1.827-1.495-2.539-2.211" fill="#827f80"/><path d="M520.504 931.262 381.272 647.706c-3.997-8.14-13.837-11.499-21.977-7.502l-.461.227c-8.141 3.997-11.499 13.837-7.502 21.977l139.232 283.556c3.997 8.14 13.837 11.499 21.977 7.501l.461-.226c8.14-3.998 11.499-13.837 7.502-21.977zM219.577 705.57c-3.536-4.314-9.146-6.76-15.079-5.957l-.118.016c-.097.013-.189.039-.285.053-.069.011-.136.026-.205.039a16.511 16.511 0 0 0-8.612 4.237c-.005.005-.012.007-.017.013-.009.008-.015.018-.023.026a16.727 16.727 0 0 0-2.117 2.419c-.059.081-.113.165-.171.248a16.641 16.641 0 0 0-1.437 2.518c-.063.136-.12.271-.179.409a16.513 16.513 0 0 0-.864 2.588c-.044.181-.081.36-.119.542a16.515 16.515 0 0 0-.331 2.537c-.015.272-.012.54-.014.813 0 .745.031 1.496.133 2.256l.01.073c.027.205.048.409.083.613l43.355 320.379c1.231 9.095 9.601 15.47 18.696 14.239l.118-.016c9.095-1.231 15.47-9.601 14.239-18.696l-12.943-95.647 102.264-38.813 70.694 75.689c6.287 6.731 16.841 7.091 23.572.804s7.092-16.841.804-23.572L219.574 705.571zm29.53 199.767L230.23 765.843l101.131 108.276z" fill="#23231F"/><rect fill="#3d3a3b" height="349.973" rx="4.783" transform="matrix(.73080592 -.68258531 .68258531 .73080592 -481.742 448.715)" width="9.565" x="323.244" y="660.142"/><rect fill="#514e4e" height="348.321" rx="4.06" transform="matrix(.73080592 -.68258531 .68258531 .73080592 -481.742 448.716)" width="8.139" x="323.958" y="660.968"/><rect fill="#696667" height="344.211" rx="3.217" transform="matrix(.73080592 -.68258531 .68258531 .73080592 -481.742 448.715)" width="6.473" x="324.791" y="663.023"/><rect fill="#7b7879" height="340.709" rx="2.313" transform="matrix(.73080592 -.68258531 .68258531 .73080592 -481.742 448.716)" width="4.65" x="325.702" y="664.774"/><rect fill="#827f80" height="336.599" rx="1.904" transform="matrix(.73080592 -.68258531 .68258531 .73080592 -481.742 448.715)" width="3.831" x="326.112" y="666.829"/><rect fill="#3d3a3b" height="330.23" rx="4.513" transform="matrix(.89686502 -.44230434 .44230434 .89686502 -304.205 277.709)" width="9.026" x="438.868" y="626.039"/><rect fill="#514e4e" height="328.671" rx="3.831" transform="matrix(.89686502 -.44230434 .44230434 .89686502 -304.204 277.707)" width="7.68" x="439.541" y="626.819"/><rect fill="#696667" height="324.793" rx="3.036" transform="matrix(.89686502 -.44230434 .44230434 .89686502 -304.204 277.706)" width="6.107" x="440.327" y="628.758"/><rect fill="#7b7879" height="321.488" rx="2.183" transform="matrix(.89686502 -.44230434 .44230434 .89686502 -304.204 277.707)" width="4.388" x="441.187" y="630.41"/><rect fill="#827f80" height="317.61" rx="1.797" transform="matrix(.89686502 -.44230434 .44230434 .89686502 -304.204 277.706)" width="3.615" x="441.573" y="632.349"/><rect fill="#3d3a3b" height="93.961" rx="4.925" transform="matrix(.3548459 .9349248 -.9349248 .3548459 1028.123 303.535)" width="9.849" x="289.205" y="849.735"/><rect fill="#514e4e" height="90.551" rx="3.504" transform="matrix(.3548459 .9349248 -.9349248 .3548459 1028.124 303.536)" width="7.137" x="290.561" y="851.44"/><rect fill="#696667" height="87.839" rx="2.972" transform="matrix(.3548459 .9349248 -.9349248 .3548459 1028.125 303.536)" width="6.034" x="291.112" y="852.796"/><rect fill="#7b7879" height="85.583" rx="2.228" transform="matrix(.3548459 .9349248 -.9349248 .3548459 1028.125 303.536)" width="4.513" x="291.873" y="853.924"/><rect fill="#827f80" height="81.761" rx="1.586" transform="matrix(.3548459 .9349248 -.9349248 .3548459 1027.968 303.902)" width="3.246" x="292.163" y="855.904"/></g><path d="M651.823 938.3c26.4-22.278 46.159-47.272 60.328-74.551l-43.084-13.898c-8.198 23.739-21.885 45.218-38.915 65.321l21.67 23.128z" fill="url(#d)" opacity=".5"/><path d="m414.733 583.935-27.017 14.824 2.927 12.045-82.462 50.96-39.841-5.559 41.255-15.106-6.047-23.809 77.152-37.816-3.017-13.79z" fill="url(#q)" opacity=".5"/><path d="m668.604 290.223-12.972 38.915 7.412 25.943-6.609 20.77c-3.739 11.752 1.001 24.54 11.497 31.015l10.459 6.452-6.082-28.589 61.151 22.237 15.196 15.872 44.322 12.997a63.514 63.514 0 0 0 32.185.932l6.064-1.403-12.555-45.192 58.276-21.733-16.773-68.452z" fill="url(#r)" opacity=".5"/><g clip-path="url(#s)"><path d="m670.943 31.418 134.561-5.273a21.794 21.794 0 0 1 7.972 1.195l-134.561 5.273a21.77 21.77 0 0 0-7.972-1.195z" fill="#F3F700"/><path d="m924.386 330.815-134.561 5.273c10.566-.414 20.086-8.682 23.097-21.274l134.561-5.273c-3.011 12.592-12.531 20.86-23.097 21.274z"/><path d="M789.824 337.339a1.25 1.25 0 0 1-.048-2.499c10.308-.404 19.121-8.568 21.931-20.315a1.25 1.25 0 0 1 1.167-.958l134.561-5.273a1.251 1.251 0 0 1 1.265 1.54c-3.072 12.85-12.823 21.784-24.264 22.232l-134.562 5.273h-.05zm24.081-21.312c-2.222 8.288-7.253 14.85-13.695 18.404l124.128-4.864.049 1.249-.049-1.249c9.831-.385 18.303-7.831 21.502-18.709l-131.935 5.17z" fill="#FEFFA4"/><path d="m678.914 32.614 134.561-5.273 161.89 55.743-134.561 5.273z" fill="#414042"/><path d="M840.804 89.607a1.25 1.25 0 0 1-.407-.068l-161.89-55.743a1.25 1.25 0 0 1 .359-2.431l134.561-5.273c.154-.008.31.017.456.067l161.89 55.743a1.25 1.25 0 0 1-.359 2.431l-134.561 5.273h-.049zM685.623 33.602l155.366 53.497 127.666-5.003-155.366-53.497z" fill="#FEFFA4"/><path d="m858.273 125.174 134.56-5.273-45.349 189.641-134.561 5.273z" fill="#414042"/><path d="M812.923 316.065a1.25 1.25 0 0 1-1.216-1.541l45.35-189.64a1.25 1.25 0 0 1 1.167-.958l134.561-5.273a1.251 1.251 0 0 1 1.265 1.54L948.7 309.834a1.25 1.25 0 0 1-1.167.958l-134.561 5.273h-.049zm46.345-189.678-44.745 187.115 131.966-5.171 44.745-187.115-131.966 5.172z" fill="#FEFFA4"/><path d="m840.804 88.357 134.561-5.273c13.417 4.62 21.227 21.1 17.469 36.818l-134.561 5.273c3.759-15.717-4.051-32.198-17.469-36.818z" fill="#6d6e71"/><path d="M858.273 126.425a1.25 1.25 0 0 1-1.216-1.541c3.607-15.084-3.866-30.94-16.66-35.345a1.25 1.25 0 0 1 .359-2.431l134.561-5.273c.155-.008.31.017.456.067 13.977 4.812 22.176 21.989 18.277 38.29a1.25 1.25 0 0 1-1.167.958l-134.561 5.273h-.049zM845.96 89.406c10.604 6.424 16.512 20.6 13.872 34.457l131.991-5.173c3.077-14.718-4.245-29.931-16.647-34.348L845.96 89.405z" fill="#FEFFA4"/><path d="M840.804 88.357c13.417 4.62 21.227 21.1 17.469 36.818l-45.35 189.64c-3.759 15.717-17.657 24.697-31.074 20.077l-161.89-55.743c-13.417-4.62-21.254-21.083-17.495-36.801l45.35-189.64c3.759-15.717 17.683-24.714 31.101-20.094l161.89 55.743z" fill="#F3F700"/><path d="M788.989 337.35a23.15 23.15 0 0 1-7.548-1.276l-161.89-55.743c-13.987-4.816-22.198-21.986-18.304-38.273l45.35-189.64c2.04-8.531 7.144-15.583 14.002-19.35 5.833-3.203 12.481-3.785 18.722-1.635l161.89 55.743c13.977 4.812 22.176 21.989 18.277 38.29l-45.35 189.64c-2.04 8.53-7.138 15.579-13.985 19.339-3.513 1.929-7.324 2.905-11.164 2.905zM671.784 32.659c-3.431 0-6.838.874-9.98 2.6-6.242 3.428-10.898 9.894-12.774 17.74l-45.35 189.64c-3.604 15.071 3.881 30.919 16.687 35.329l161.89 55.743c5.564 1.917 11.492 1.4 16.693-1.457 6.231-3.422 10.882-9.884 12.758-17.729l45.35-189.64c3.607-15.084-3.866-30.94-16.66-35.345l-161.89-55.743a20.607 20.607 0 0 0-6.723-1.137z" fill="#23231F"/><path d="M840.804 88.357c13.417 4.62 21.227 21.1 17.469 36.818l-45.35 189.64c-3.759 15.717-17.657 24.697-31.074 20.077l-161.89-55.743c-13.417-4.62-21.254-21.083-17.495-36.801l45.35-189.64c3.759-15.717 17.683-24.714 31.101-20.094l161.89 55.743z" fill="none"/><path d="M703.733 199.494c-7.746-16.31-2.861-36.738 10.914-45.638 13.774-8.9 31.213-2.895 38.959 13.415s2.861 36.739-10.913 45.638c-13.775 8.9-31.213 2.895-38.96-13.415m104.774-35.544c-9.241-.946-17.959-7.126-22.837-17.396-4.877-10.27-4.745-22.168-.526-31.797-8.617-9.806-18.832-17.082-29.808-21.706-5.18 9.122-14.088 15.015-24.169 14.722-10.473-.288-19.54-7.177-24.425-17.195-6.189 1.936-12.289 4.667-18.137 8.445-4.577 2.957-8.764 6.391-12.636 10.172.098.196.194.394.288.593 4.849 10.21 5.092 23.023-.313 33.664-5.699 11.231-16.159 16.986-26.603 15.978a112.438 112.438 0 0 0-.88 41.039c10.626-.636 21.204 5.717 26.771 17.439 5.567 11.723 4.58 25.562-1.519 35.731 8.812 9.557 19.182 16.595 30.29 20.887 4.806-10.861 14.542-18.142 25.723-17.83 10.59.3 19.768 7.324 24.616 17.532.099.209.196.418.292.629 4.805-1.839 9.527-4.148 14.104-7.105 5.847-3.778 11.064-8.372 15.758-13.454-4.69-10.144-4.888-22.763.452-33.282 5.138-10.114 14.147-15.796 23.519-16.089 2.465-13.296 2.595-27.255.038-40.977" fill="#FEFFA4"/><path d="M754.635 276.108a1.25 1.25 0 0 1-1.139-.735 48.496 48.496 0 0 0-.281-.607c-4.797-10.101-13.811-16.545-23.523-16.82-.22-.006-.439-.009-.657-.009-10.089 0-19.198 6.497-23.887 17.096-.271.61-.977.9-1.594.66-11.551-4.462-21.899-11.597-30.759-21.206a1.25 1.25 0 0 1-.153-1.49c6.059-10.103 6.632-23.665 1.462-34.552-5.2-10.95-14.986-17.354-25.567-16.728-.602.049-1.204-.412-1.308-1.045-2.268-13.795-1.969-27.756.889-41.496a1.253 1.253 0 0 1 1.344-.99c10.355 1.002 20.073-4.864 25.369-15.299 5.023-9.893 5.138-22.37.298-32.563l-.279-.573a1.251 1.251 0 0 1 .247-1.45c4.094-3.997 8.41-7.471 12.83-10.327 5.614-3.627 11.819-6.517 18.442-8.588a1.253 1.253 0 0 1 1.497.645c4.905 10.061 13.629 16.226 23.336 16.494 9.295.251 17.884-4.999 23.047-14.089a1.249 1.249 0 0 1 1.572-.535c11.485 4.839 21.667 12.252 30.263 22.033.32.365.4.882.205 1.327-4.235 9.669-4.045 21.167.511 30.759 4.519 9.512 12.681 15.751 21.835 16.688.552.057 1 .47 1.102 1.015 2.543 13.645 2.53 27.585-.037 41.434a1.25 1.25 0 0 1-1.19 1.021c-9.301.292-17.69 6.051-22.444 15.407-4.944 9.739-5.109 22.074-.432 32.19a1.25 1.25 0 0 1-.217 1.373c-5.046 5.463-10.428 10.058-15.997 13.656-4.436 2.865-9.125 5.228-14.336 7.223a1.253 1.253 0 0 1-.447.083zm-25.604-20.672c.244 0 .486.003.731.01 10.52.298 20.254 7.113 25.506 17.822 4.618-1.841 8.813-3.995 12.793-6.565 5.188-3.352 10.217-7.605 14.956-12.649-4.71-10.787-4.42-23.285.818-33.603 5.001-9.844 13.763-16.032 23.58-16.722 2.281-12.921 2.29-25.913.027-38.648-9.647-1.34-18.158-8.004-22.901-17.99-4.747-9.993-5.053-21.929-.857-32.095-7.979-8.922-17.334-15.765-27.83-20.361-5.684 9.316-14.839 14.669-24.723 14.388-10.177-.28-19.678-6.736-25.023-16.929-6.03 1.978-11.686 4.66-16.824 7.979-4.05 2.617-8.015 5.774-11.796 9.393 5.062 10.839 4.903 24.055-.429 34.552-5.581 10.998-15.751 17.338-26.712 16.741a110.428 110.428 0 0 0-.824 38.42c.126-.002.252-.003.379-.003 10.879 0 21.145 7.002 26.46 18.196 5.467 11.51 5.026 25.249-1.101 36.094 8.175 8.685 17.62 15.226 28.104 19.463 5.233-10.875 14.929-17.493 25.666-17.493zm.02-37.16c-2.368 0-4.749-.33-7.099-.998-8.195-2.329-15.247-8.616-19.347-17.249-7.992-16.827-2.895-38.011 11.363-47.224 6.521-4.212 14.129-5.391 21.421-3.319 8.195 2.329 15.246 8.616 19.346 17.248 7.992 16.827 2.895 38.012-11.363 47.224-4.42 2.855-9.339 4.317-14.321 4.317zm-.752-67.285c-4.51 0-8.966 1.325-12.973 3.915-13.242 8.556-17.936 28.317-10.463 44.052 3.791 7.983 10.269 13.784 17.771 15.916 6.593 1.873 13.474.802 19.38-3.014 13.242-8.556 17.936-28.317 10.463-44.052-3.791-7.982-10.269-13.783-17.771-15.916a23.38 23.38 0 0 0-6.407-.9z" fill="#23231F"/></g></svg></g><g transform="translate(996.0 875.0) rotate(27.52130533923541 108.5 71.5) scale(1.1131287638628133 1.1150619132279094)"><svg width="194.946" height="128.244" viewBox="0 0 194.946 128.244"><g fill="#6d6e71"><path d="M62.811 109.984a6.217 6.217 0 0 1-3.883-.421L3.668 84.499a6.25 6.25 0 0 1-2.101-9.832l39.946-45.199c2.165-2.449 5.9-3.124 8.553-1.214a6.253 6.253 0 0 1 1.049 9.226L21.014 71.539c-2.227 2.52-1.381 6.476 1.681 7.865l41.112 18.648c2.886 1.309 4.606 4.529 3.704 7.567a6.247 6.247 0 0 1-4.702 4.366zm22.528 18.123a6.25 6.25 0 0 1-7.419-7.402L102.303 4.963a6.25 6.25 0 0 1 12.232 2.576L90.152 123.281a6.251 6.251 0 0 1-4.813 4.826zm64.485-36.723a6.252 6.252 0 0 1-6.076-2.061c-2.066-2.4-1.818-6.04.279-8.413l29.903-33.834c2.227-2.52 1.381-6.476-1.681-7.865l-41.065-18.626c-2.98-1.351-4.724-4.727-3.676-7.826a6.252 6.252 0 0 1 8.51-3.708l55.259 25.065a6.25 6.25 0 0 1 2.101 9.832l-40.183 45.466a6.23 6.23 0 0 1-3.372 1.972z"/></g></svg></g></svg>