<svg width="17" height="17" viewBox="0 0 17 17" fill="none" xmlns="http://www.w3.org/2000/svg">
<g clip-path="url(#clip0_28_174)">
<path d="M9.56248 4.95833C9.75808 4.95833 9.91665 4.79977 9.91665 4.60417C9.91665 4.40857 9.75808 4.25 9.56248 4.25C9.36688 4.25 9.20831 4.40857 9.20831 4.60417C9.20831 4.79977 9.36688 4.95833 9.56248 4.95833Z" fill="black" stroke="black" stroke-width="1.5" stroke-linecap="round" stroke-linejoin="round"/>
<path d="M12.3959 7.79166C12.5915 7.79166 12.75 7.6331 12.75 7.43749C12.75 7.24189 12.5915 7.08333 12.3959 7.08333C12.2003 7.08333 12.0417 7.24189 12.0417 7.43749C12.0417 7.6331 12.2003 7.79166 12.3959 7.79166Z" fill="black" stroke="black" stroke-width="1.5" stroke-linecap="round" stroke-linejoin="round"/>
<path d="M6.02085 5.66666C6.21645 5.66666 6.37502 5.5081 6.37502 5.31249C6.37502 5.11689 6.21645 4.95833 6.02085 4.95833C5.82525 4.95833 5.66669 5.11689 5.66669 5.31249C5.66669 5.5081 5.82525 5.66666 6.02085 5.66666Z" fill="black" stroke="black" stroke-width="1.5" stroke-linecap="round" stroke-linejoin="round"/>
<path d="M4.60417 9.20833C4.79977 9.20833 4.95833 9.04977 4.95833 8.85417C4.95833 8.65857 4.79977 8.5 4.60417 8.5C4.40857 8.5 4.25 8.65857 4.25 8.85417C4.25 9.04977 4.40857 9.20833 4.60417 9.20833Z" fill="black" stroke="black" stroke-width="1.5" stroke-linecap="round" stroke-linejoin="round"/>
<path d="M8.50002 1.41667C4.60419 1.41667 1.41669 4.60417 1.41669 8.50001C1.41669 12.3958 4.60419 15.5833 8.50002 15.5833C9.15594 15.5833 9.66735 15.0549 9.66735 14.3877C9.66735 14.0781 9.53985 13.7962 9.35781 13.5908C9.1524 13.3861 9.04756 13.129 9.04756 12.7939C9.04488 12.638 9.0736 12.4832 9.13203 12.3386C9.19045 12.1941 9.27738 12.0627 9.38763 11.9525C9.49789 11.8422 9.6292 11.7553 9.77376 11.6969C9.91832 11.6385 10.0732 11.6097 10.2291 11.6124H11.6429C13.804 11.6124 15.5777 9.83946 15.5777 7.67834C15.5586 4.25851 12.3682 1.41667 8.50002 1.41667Z" stroke="black" stroke-width="1.5" stroke-linecap="round" stroke-linejoin="round"/>
</g>
<defs>
<clipPath id="clip0_28_174">
<rect width="17" height="17" fill="white"/>
</clipPath>
</defs>
</svg>
