<svg xmlns="http://www.w3.org/2000/svg" viewBox="0 0 1500 1500" width="1200" height="800"><path fill="#FFF" d="M0 0h1500v1500H0z"/><g transform="translate(1149.0 446.0) rotate(15.43300775275668 57.5 36.5) scale(1.012074488682367 1.006729920564872)"><svg width="113.628" height="72.512" viewBox="0 0 113.628 72.512"><path d="M47.367 72.511a8.203 8.203 0 0 1-5.779-2.502L2.319 29.479a8.226 8.226 0 0 1 .509-11.932c3.357-2.929 8.532-2.384 11.632.816l23.679 24.439c5.27 5.439 13.952 5.577 19.391.307L99.45 2.495c2.859-2.769 7.352-3.378 10.611-1.094 4.385 3.072 4.71 9.164 1.063 12.694L53.221 70.192a8.204 8.204 0 0 1-5.855 2.318z" fill="#6d6e71"/></svg></g><g transform="translate(160.0 126.0) rotate(0.0 525.5 652.5) scale(0.9989449772362207 0.9999295068853383)"><svg width="1052.11" height="1305.092" viewBox="0 0 1052.11 1305.092"><clipPath id="a"><path d="M439.168 830.366 545.591 777.1l81.033-96.002 20.306 4.117 108.137 65.533 297.043-94.84-180.462-543.12-763.491 232.518L299.03 878.015z" fill="#727272"/></clipPath><clipPath id="b"><path d="m553.859 221.333-89.515 27.319-291.591 202.162-92.238 37.348-63.904-24.805L0 185.813 457.498 10.012l80.287 23.532z" fill="#727272"/></clipPath><clipPath id="c"><path d="m852.299 294.924-34.395-75.381 56.97-42.699c-8.752-26.919-37.424-41.896-64.517-33.7l-90.939 27.508-26.496-33.571 41.645-111.053L790.094 0l140.552 27.763 76.349 133.611-32.969 119.729-45.115 39.91z" fill="#727272"/></clipPath><clipPath id="d"><path d="M476.681 716.937c24.915 4.386 13.686 36.319-5.79 34.214L395 740.893l30.7-114.484 154.433-29.499-37.77-227.38 10.006-76.281 109.318-22.558 60.732 170.05 111.991 13.394 129.202 45.603 49.092 88.505-16.123 253.33-109.211 58.294-130.247 18.055-38.568-42.145c-23.418-9.007-13.639-41.689 9.007-34.998l93.694-21.396-278.608-98.291-65.969-4.157z" fill="#727272"/></clipPath><path d="m756.184 1303.842-319.587-66.306-270.403-162.474 319.587 66.306z" fill="#404143"/><path d="M756.185 1305.092c-.085 0-.17-.008-.255-.026l-319.587-66.306a1.24 1.24 0 0 1-.39-.153l-270.402-162.475a1.252 1.252 0 0 1-.521-1.527 1.258 1.258 0 0 1 1.418-.769l319.586 66.306c.138.029.27.08.39.153l270.403 162.475a1.25 1.25 0 0 1-.642 2.321zm-319.126-68.736 312.173 64.767-263.913-158.575-312.172-64.768 263.912 158.575z" fill="#FFFBA4"/><path d="m485.781 1141.368-319.587-66.306 160.748-456.453 319.586 66.306z" fill="#23231F"/><path d="M485.782 1142.618c-.084 0-.17-.008-.255-.026l-319.586-66.306a1.25 1.25 0 0 1-.925-1.639l160.747-456.453c.208-.59.819-.935 1.433-.809l319.586 66.306a1.247 1.247 0 0 1 .925 1.639L486.96 1141.783a1.25 1.25 0 0 1-1.178.835zm-317.933-68.489 317.115 65.793 159.909-454.073-317.115-65.793z" fill="#FFFBA4"/><path d="m342.441 928.439-34.201-7.096-40.346 114.566 34.201 7.096z" fill="#F5FF57"/><path d="M302.096 1044.255c-.084 0-.17-.008-.255-.026l-34.201-7.096a1.25 1.25 0 0 1-.925-1.639l40.346-114.566a1.25 1.25 0 0 1 1.433-.809l34.202 7.096a1.25 1.25 0 0 1 .925 1.639l-40.347 114.566a1.25 1.25 0 0 1-1.178.835zm-32.548-9.279 31.73 6.583 39.509-112.187-31.731-6.584-39.508 112.187z" fill="#23231F"/><path d="m419.775 893.993-34.202-7.096-56.916 161.619 34.201 7.096z" fill="#F5FF57"/><path d="M362.859 1056.862c-.084 0-.17-.008-.255-.026l-34.201-7.096a1.25 1.25 0 0 1-.925-1.639l56.917-161.619a1.25 1.25 0 0 1 1.433-.809l34.201 7.096a1.25 1.25 0 0 1 .925 1.639l-56.917 161.619a1.25 1.25 0 0 1-1.178.835zm-32.548-9.279 31.73 6.583 56.079-159.24-31.73-6.583z" fill="#23231F"/><path d="m507.909 828.878-34.201-7.095-84.288 239.34 34.202 7.096z" fill="#F5FF57"/><path d="M423.622 1069.469c-.084 0-.17-.008-.255-.026l-34.201-7.096a1.25 1.25 0 0 1-.925-1.639l84.288-239.34a1.25 1.25 0 0 1 1.433-.809l34.201 7.096a1.25 1.25 0 0 1 .925 1.639l-84.288 239.34a1.25 1.25 0 0 1-1.178.835zm-32.548-9.279 31.73 6.583 83.45-236.961-31.73-6.583z" fill="#23231F"/><path d="m916.931 847.389-160.747 456.453-270.403-162.474 160.747-456.453z" fill="#F5FF57"/><path d="M756.184 1305.092c-.225 0-.447-.061-.644-.179l-270.403-162.475a1.25 1.25 0 0 1-.535-1.486l160.747-456.453a1.248 1.248 0 0 1 1.822-.656l270.402 162.475c.509.306.732.927.535 1.486l-160.746 456.453a1.248 1.248 0 0 1-1.179.835zm-268.886-164.271 268.216 161.16 159.898-454.045-268.215-161.16z" fill="#FFFBA4"/><path d="m697.303 1013.729-71.119-38.737c-21.414 64.346-8.51 134.094 29.495 156.93 22.559 13.555 48.944 7.575 71.599-12.692l-29.976-105.501" fill="#FFFBA4"/><path d="M681.644 1140.517c-9.237 0-18.224-2.486-26.607-7.524-18.666-11.215-32.024-33.852-37.615-63.74-5.551-29.677-2.859-63.293 7.577-94.655a1.25 1.25 0 0 1 1.785-.704l71.118 38.737c.295.161.513.433.604.756l29.977 105.501a1.25 1.25 0 0 1-.369 1.273c-15.059 13.471-31.105 20.355-46.469 20.355zm-54.74-163.71c-9.918 30.56-12.416 63.166-7.025 91.986 5.458 29.176 18.4 51.215 36.445 62.057 21.146 12.706 46.456 8.312 69.539-12.034l-29.618-104.241-69.341-37.769z" fill="#23231F"/><path d="m738.918 895.562-41.614 118.167 29.976 105.501c16.168-14.468 30.445-36.232 40.027-63.439 22.983-65.262 10.273-136.999-28.388-160.229" fill="#F3FF00"/><path d="M727.28 1120.48a1.247 1.247 0 0 1-1.202-.908l-29.977-105.501a1.247 1.247 0 0 1 .023-.757l41.614-118.167a1.248 1.248 0 0 1 1.822-.656c39.082 23.482 52.058 96.027 28.924 161.715-9.36 26.582-23.321 48.698-40.371 63.956-.232.208-.53.318-.834.318zm-28.666-106.711 29.316 103.176c16.065-14.922 29.25-36.162 38.197-61.57 22.497-63.882 10.546-134.198-26.547-157.932l-40.967 116.325z" fill="#23231F"/><path d="M738.918 895.562c-38.661-23.23-88.633 10.843-111.616 76.105-.39 1.107-.741 2.208-1.117 3.324l71.119 38.737 41.614-118.167" fill="#bcbec0"/><path d="M697.303 1014.979c-.206 0-.412-.051-.598-.152l-71.118-38.737a1.25 1.25 0 0 1-.587-1.496l.372-1.121c.245-.741.489-1.479.75-2.22 14.246-40.453 39.468-70.622 67.467-80.702 16.124-5.806 32.021-4.442 45.972 3.94.509.306.732.927.535 1.486l-41.614 118.167a1.248 1.248 0 0 1-1.178.835zM627.7 974.395l68.911 37.535 40.785-115.811c-13.075-7.521-27.905-8.634-42.961-3.215-27.3 9.829-51.956 39.429-65.956 79.18-.255.726-.494 1.448-.733 2.175l-.046.137z" fill="#23231F"/><g clip-path="url(#a)"><path d="m1020.875 604.465-3.338 18.745c-2.924 16.42-15.039 30.662-32.896 36.122l3.338-18.745c17.857-5.46 29.972-19.702 32.896-36.122z" fill="#FFFBA4"/><path d="M984.64 660.581a1.249 1.249 0 0 1-1.23-1.469l3.339-18.745c.082-.462.416-.839.865-.976 16.808-5.139 29.079-18.601 32.028-35.133l.002-.012a1.25 1.25 0 0 1 2.461.439l-3.338 18.745c-3.11 17.467-16.047 31.682-33.762 37.098-.12.037-.243.055-.365.055zm4.437-19.029-2.839 15.938c15.8-5.56 27.239-18.613 30.068-34.5l.718-4.031c-5.84 10.505-15.722 18.658-27.947 22.593z" fill="#23231F"/><path d="M152.398 395.019c-2.768-7.716-3.329-15.599-2.005-23.037l-3.338 18.745c-1.324 7.438-.764 15.321 2.005 23.037l145.923 406.692 3.338-18.745z" fill="#FFFBA4"/><path d="M294.982 821.706a1.25 1.25 0 0 1-1.176-.828L147.883 414.186c-2.744-7.649-3.456-15.837-2.059-23.679l3.338-18.745a1.242 1.242 0 0 1 1.449-1.011 1.25 1.25 0 0 1 1.012 1.45l-.003.018c-1.315 7.409-.64 15.148 1.954 22.378l145.923 406.692c.073.206.092.427.054.642l-3.338 18.745a1.249 1.249 0 0 1-1.231 1.03zM149.021 386.818l-.735 4.128c-1.32 7.413-.646 15.157 1.951 22.396l144.338 402.276 2.457-13.797-145.811-406.379a46.975 46.975 0 0 1-2.2-8.623z" fill="#23231F"/><path d="m987.978 640.586-3.338 18.745-626.613 191.575 3.338-18.745z" fill="#FFFBA4"/><path d="M358.027 852.156a1.249 1.249 0 0 1-1.23-1.469l3.338-18.745c.082-.462.416-.839.865-.976l626.614-191.575a1.248 1.248 0 0 1 1.595 1.415l-3.339 18.745a1.248 1.248 0 0 1-.865.976L358.392 852.102c-.12.037-.243.055-.365.055zm4.435-19.023-2.846 15.98L983.544 658.36l2.847-15.98z" fill="#23231F"/><path d="m361.365 832.161-3.338 18.745c-25.927 7.927-54.162-5.693-63.045-30.45l3.338-18.745c8.883 24.757 37.117 38.377 63.045 30.45z" fill="#FFFBA4"/><path d="M342.97 854.403c-21.517 0-41.824-13.069-49.164-33.524a1.263 1.263 0 0 1-.054-.642l3.338-18.745a1.249 1.249 0 0 1 2.407-.203c8.644 24.09 36.234 37.404 61.502 29.677a1.248 1.248 0 0 1 1.595 1.415l-3.338 18.745a1.248 1.248 0 0 1-.865.976 52.702 52.702 0 0 1-15.422 2.302zm-46.698-34.058c8.685 23.66 35.704 36.8 60.659 29.583l2.853-16.017c-24.532 6.48-50.684-5.581-60.985-27.75l-2.526 14.184z" fill="#23231F"/><path d="M809.9 144.275c25.949-7.933 54.162 5.694 63.045 30.451l145.923 406.692c8.883 24.757-4.941 51.235-30.889 59.169L361.366 832.162c-25.927 7.927-54.162-5.693-63.045-30.45L152.398 395.02c-8.883-24.757 4.962-51.242 30.889-59.169L809.9 144.276z" fill="#FFFBA4"/><path d="M346.308 835.658c-21.517 0-41.824-13.069-49.164-33.524L151.221 395.442c-4.316-12.031-3.567-24.892 2.109-36.213 5.93-11.825 16.438-20.553 29.591-24.574L809.534 143.08c26.524-8.108 55.499 5.897 64.587 31.224l145.923 406.692c4.318 12.036 3.57 24.898-2.105 36.218-5.928 11.82-16.438 20.545-29.595 24.568L361.73 833.357a52.702 52.702 0 0 1-15.422 2.302zm463.957-690.187L183.652 337.045c-12.491 3.819-22.466 12.096-28.086 23.304-5.368 10.705-6.075 22.868-1.991 34.248l145.923 406.692c8.644 24.09 36.234 37.404 61.502 29.677l626.614-191.575c12.496-3.821 22.473-12.095 28.09-23.298 5.367-10.703 6.073-22.867 1.987-34.253L871.768 175.148c-8.643-24.088-36.231-37.4-61.503-29.678z" fill="#23231F"/><path d="M346.308 835.658c-21.517 0-41.824-13.069-49.164-33.524L151.221 395.442c-4.316-12.031-3.567-24.892 2.109-36.213 5.93-11.825 16.438-20.553 29.591-24.574L809.534 143.08c26.524-8.108 55.499 5.897 64.587 31.224l145.923 406.692c4.318 12.036 3.57 24.898-2.105 36.218-5.928 11.82-16.438 20.545-29.595 24.568L361.73 833.357a52.702 52.702 0 0 1-15.422 2.302zm463.957-690.187L183.652 337.045c-12.491 3.819-22.466 12.096-28.086 23.304-5.368 10.705-6.075 22.868-1.991 34.248l145.923 406.692c8.644 24.09 36.234 37.404 61.502 29.677l626.614-191.575c12.496-3.821 22.473-12.095 28.09-23.298 5.367-10.703 6.073-22.867 1.987-34.253L871.768 175.148c-8.643-24.088-36.231-37.4-61.503-29.678z" fill="#23231F"/><path d="m736.814 264.345-449.447 137.41 10.797 30.091 449.447-137.41z" fill="#F5FF57"/><path d="M298.164 433.097c-.515 0-.994-.32-1.177-.828l-10.797-30.091a1.248 1.248 0 0 1 .812-1.617l449.446-137.41a1.25 1.25 0 0 1 1.542.773l10.797 30.091a1.248 1.248 0 0 1-.812 1.617l-449.446 137.41a1.248 1.248 0 0 1-.365.055zm-9.178-30.53 9.952 27.735 447.053-136.678-9.952-27.735z" fill="#23231F"/><path d="m613.722 376.848-305.751 93.478 10.797 30.092 307.008-94.517z" fill="#F5FF57"/><path d="M318.768 501.668c-.515 0-.994-.32-1.177-.828l-10.797-30.091a1.248 1.248 0 0 1 .812-1.617l305.751-93.478a1.252 1.252 0 0 1 1.52.716l12.054 29.052a1.25 1.25 0 0 1-.786 1.674l-307.008 94.517a1.241 1.241 0 0 1-.368.056zm-9.178-30.53 9.951 27.733 304.553-93.761-11.092-26.734z" fill="#23231F"/><path d="M987.979 640.586 361.366 832.161c-25.927 7.927-54.162-5.693-63.045-30.45L152.398 395.019c-2.768-7.716-3.329-15.599-2.005-23.037l-3.338 18.745c-1.324 7.438-.764 15.321 2.005 23.037l145.923 406.692c8.883 24.756 37.117 38.377 63.044 30.45l626.614-191.575c17.857-5.46 29.972-19.702 32.896-36.122l3.338-18.745c-2.924 16.42-15.039 30.662-32.896 36.122z" fill="#727272"/></g><g clip-path="url(#b)"><g fill="#FFFBA4"><path d="M167.296 195.08c-1.974-.443-4.116-.289-6.318.556-8.315 3.192-14.329 14.985-13.453 26.352.645 8.364 4.826 14.162 10.294 15.388l59.505 13.343c-5.469-1.226-9.649-7.024-10.294-15.388-.877-11.367 5.137-23.16 13.452-26.352 2.203-.846 4.345-1 6.319-.557l-59.505-13.343z" opacity=".5"/><path d="M116.006 214.769c-1.975-.443-4.117-.289-6.32.556-8.297 3.186-14.329 14.985-13.452 26.352.645 8.366 4.836 14.16 10.304 15.386l59.504 13.344c-5.467-1.226-9.658-7.021-10.304-15.386-.877-11.367 5.154-23.167 13.453-26.352 2.203-.846 4.344-1 6.319-.557z" opacity=".5"/><path d="M64.724 234.457c-1.978-.443-4.122-.289-6.327.557-8.298 3.185-14.329 14.985-13.453 26.352.645 8.366 4.836 14.16 10.304 15.386l59.504 13.343c-5.467-1.226-9.658-7.02-10.304-15.386-.877-11.367 5.155-23.167 13.453-26.352 2.205-.846 4.349-1 6.327-.556z" opacity=".5"/></g><path d="M451.179 27.304c12.896-4.95 24.477 5.355 25.841 23.045l14.668 190.181-310.886 96.064c-24.485 7.566-37.517 34.213-28.457 58.185l8.653 22.894-111.325 42.734c-12.913 4.957-24.479-5.379-25.841-23.046L7.873 230.438c-1.364-17.69 7.989-36.031 20.902-40.988z" fill="#a7a9ac" opacity=".5"/><path d="M160.998 417.673 49.673 460.407c-3.425 1.315-6.756 1.554-9.826.865l59.504 13.344c3.071.688 6.401.449 9.826-.865l64.573-24.787-12.752-31.29z" fill="#bcbec0" opacity=".81"/><path d="m99.352 474.615-59.505-13.344c-8.505-1.907-15.014-10.93-16.015-23.911l59.505 13.344c1.001 12.98 7.511 22.003 16.015 23.911z" fill="#a7a9ac" opacity=".3"/><path d="m83.337 450.705-59.505-13.344L7.873 230.438l59.504 13.344z" fill="#727272" opacity=".3"/><path d="M67.377 243.782 7.872 230.438c-1.364-17.69 7.989-36.031 20.902-40.988l59.505 13.344c-12.913 4.957-22.267 23.298-20.902 40.988z" fill="#bcbec0" opacity=".3"/><path d="m536.525 63.693 15.959 206.923-59.504-13.344-15.96-206.923z" fill="#808285" opacity=".5"/><path d="M520.509 39.783c8.499 1.906 15.013 10.915 16.016 23.909L477.02 50.348c-1.002-12.994-7.517-22.003-16.016-23.909l59.505 13.344z" fill="#FFFBA4" opacity=".5"/><path d="M461.005 26.44c-3.072-.689-6.402-.449-9.826.864L28.775 189.45l59.504 13.343L510.684 40.648c3.423-1.315 6.754-1.553 9.826-.864L461.006 26.44z" fill="#FFFBA4" opacity=".5"/><path d="M552.484 270.616c1.363 17.666-8.007 36.038-20.902 40.989l-59.505-13.344c12.896-4.95 22.265-23.322 20.902-40.989z" fill="#a7a9ac" opacity=".5"/><path d="M510.684 40.648c12.896-4.95 24.477 5.355 25.841 23.045l15.959 206.923c1.363 17.666-8.007 36.038-20.902 40.989L109.178 473.75c-12.913 4.957-24.479-5.379-25.841-23.046L67.378 243.781c-1.364-17.69 7.989-36.031 20.902-40.988z" fill="#727272" opacity=".5"/><path d="M220.482 208.98c8.297-3.185 15.732 3.445 16.609 14.812.879 11.391-5.136 23.184-13.433 26.369s-15.75-3.439-16.629-14.829c-.877-11.367 5.137-23.16 13.453-26.352z" fill="#F3FF00"/><path d="M219.531 252.206c-2.159 0-4.247-.598-6.121-1.782-4.322-2.732-7.103-8.198-7.626-14.995-.915-11.859 5.479-24.247 14.25-27.615 3.708-1.423 7.502-1.102 10.68.907 4.321 2.731 7.101 8.19 7.624 14.976.915 11.873-5.469 24.269-14.231 27.632-1.527.586-3.068.877-4.575.877zm5.077-42.775c-1.198 0-2.432.238-3.678.717-7.813 2.999-13.49 14.254-12.654 25.089.463 6.002 2.821 10.768 6.47 13.074 2.533 1.601 5.46 1.839 8.464.684 7.804-2.995 13.472-14.257 12.636-25.105-.463-5.991-2.819-10.75-6.468-13.055-1.478-.934-3.089-1.403-4.77-1.403zm-4.126-.45h.01z" fill="#23231F"/><path d="M169.191 228.669c8.298-3.185 15.733 3.445 16.61 14.812.879 11.391-5.136 23.184-13.433 26.369-8.298 3.185-15.75-3.439-16.629-14.829-.877-11.367 5.155-23.167 13.453-26.352z" fill="#F3FF00"/><path d="M168.249 271.892c-2.159 0-4.249-.599-6.125-1.784-4.326-2.734-7.107-8.198-7.632-14.991-.915-11.859 5.479-24.248 14.251-27.615 3.712-1.424 7.503-1.101 10.68.907 4.322 2.731 7.101 8.19 7.624 14.976.915 11.873-5.469 24.269-14.231 27.632-1.524.585-3.063.875-4.566.875zm5.068-42.773c-1.197 0-2.432.238-3.678.717-7.814 2.999-13.491 14.254-12.655 25.089.463 5.998 2.823 10.762 6.476 13.07 2.535 1.603 5.46 1.84 8.459.688 7.804-2.995 13.472-14.258 12.636-25.106-.463-5.991-2.819-10.749-6.467-13.055-1.478-.934-3.089-1.403-4.771-1.403z" fill="#23231F"/><path d="M117.902 248.357c8.297-3.185 15.75 3.439 16.626 14.806.879 11.391-5.153 23.191-13.45 26.376-8.298 3.185-15.75-3.439-16.629-14.829-.877-11.367 5.155-23.167 13.453-26.352z" fill="#F3FF00"/><path d="M116.959 291.581c-2.16 0-4.249-.599-6.125-1.785-4.326-2.734-7.108-8.198-7.632-14.991-.914-11.86 5.479-24.248 14.251-27.615 3.715-1.426 7.513-1.102 10.695.91 4.323 2.733 7.103 8.188 7.625 14.966.916 11.873-5.476 24.271-14.248 27.639-1.524.585-3.063.875-4.566.875zm5.072-42.774c-1.199 0-2.434.239-3.682.718-7.813 2.999-13.49 14.254-12.655 25.089.463 5.998 2.823 10.761 6.476 13.07 2.533 1.602 5.462 1.84 8.459.688 7.813-2.999 13.489-14.264 12.652-25.112-.461-5.983-2.819-10.738-6.469-13.045-1.481-.936-3.097-1.407-4.781-1.407zm-4.13-.449h.01z" fill="#23231F"/><path d="M102.784 476.229c-3.228 0-6.349-.894-9.148-2.664-6.54-4.133-10.748-12.431-11.545-22.765L66.132 243.877c-1.401-18.167 8.334-37.12 21.7-42.251L510.236 39.481l.448 1.167-.448-1.167c5.56-2.134 11.237-1.653 15.993 1.353 6.538 4.132 10.745 12.429 11.542 22.763L553.73 270.52c1.402 18.167-8.333 37.121-21.7 42.252L109.626 474.917c-2.284.877-4.59 1.312-6.843 1.312zM517.103 40.652c-1.946 0-3.948.386-5.971 1.163L88.728 203.96c-12.407 4.763-21.427 22.583-20.104 39.725l15.959 206.923c.736 9.54 4.522 17.137 10.389 20.844 4.13 2.61 8.888 3.001 13.759 1.131l422.403-162.146c12.408-4.763 21.427-22.583 20.104-39.726L535.279 63.788c-.735-9.539-4.521-17.135-10.386-20.842-2.416-1.527-5.048-2.295-7.79-2.295z" fill="#fff"/></g><path d="m464.949 248.646-91.943 28.75L160.84 418.547l10.782 32.644z" fill="#727272" opacity=".1"/><path d="m938.75 359.333-20.146-60.038-6.612 4.074-63.242-14.036zM803.534 147.376s1.293 14.869 13.576 29.737c12.283 14.869 32.97 30.384 32.97 30.384l35.555 1.293-15.001-36.706c-8.829-21.602-32.188-33.436-54.828-27.776l-12.271 3.068z" fill="#727272"/><g clip-path="url(#c)"><path d="M880.289 202.711c-29.301-6.765-57.663-39.636-63.347-73.416-3.455-20.532 2.253-36.674 13.835-44.667l-38.945 26.878c-11.581 7.993-17.289 24.135-13.835 44.667 5.684 33.781 34.047 66.651 63.347 73.416 11.507 2.656 21.45.892 28.939-4.276l38.945-26.877c-7.489 5.168-17.432 6.932-28.939 4.276z" fill="#87898A"/><path d="M851.654 231.841c-3.373 0-6.897-.417-10.539-1.258-29.62-6.838-58.386-40.142-64.124-74.24-3.382-20.104 1.949-37.179 14.262-45.677l38.921-26.86.024-.018a1.02 1.02 0 0 1 1.16 1.68c-11.644 8.035-16.656 24.356-13.409 43.657 5.613 33.357 33.683 65.922 62.57 72.591 10.854 2.505 20.572 1.085 28.109-4.108l.02-.014a1.02 1.02 0 0 1 1.16 1.68c-.464.32-.009.005-.013.009l-38.932 26.869c-5.47 3.775-11.991 5.688-19.21 5.688zM822.25 91.755l-29.837 20.592c-11.643 8.036-16.655 24.356-13.408 43.657 5.613 33.357 33.682 65.921 62.569 72.59 10.862 2.507 20.59 1.083 28.13-4.122l29.803-20.568c-5.882 1.471-12.449 1.418-19.446-.198-29.62-6.838-58.387-40.143-64.125-74.242-2.53-15.038-.183-28.383 6.314-37.709z" fill="#23231F"/><path d="m952.224 196.396 38.945-26.878-40.232 106.974-38.945 26.877z" fill="#6d6e71"/><path d="M911.992 304.39a1.02 1.02 0 0 1-.955-1.38l40.232-106.973c.073-.195.204-.363.375-.481l38.945-26.878a1.02 1.02 0 0 1 1.535 1.2l-40.232 106.973a1.018 1.018 0 0 1-.375.481l-38.945 26.878a1.019 1.019 0 0 1-.58.181zm41.075-107.335-38.972 103.623 35.999-24.845 38.972-103.623z" fill="#23231F"/><path d="m750.108 33.453 38.945-26.877L910.226 34.55l-38.945 26.878z" fill="#87898A"/><path d="M871.281 62.449c-.077 0-.153-.009-.229-.026L749.88 34.448a1.02 1.02 0 0 1-.35-1.835l38.944-26.878c.237-.163.531-.218.81-.154l121.173 27.975a1.02 1.02 0 0 1 .35 1.835l-38.945 26.877a1.02 1.02 0 0 1-.58.181zm-118.688-29.47 118.479 27.353 36.67-25.307L789.263 7.672 752.594 32.98z" fill="#23231F"/><path d="m871.281 61.428 38.945-26.878 80.943 134.968-38.945 26.878z" fill="#bcbec0"/><path d="M952.224 197.417a1.019 1.019 0 0 1-.876-.496L870.406 61.953a1.02 1.02 0 0 1 .295-1.365l38.945-26.877a1.019 1.019 0 0 1 1.456.316l80.942 134.968a1.02 1.02 0 0 1-.295 1.365l-38.945 26.878a1.02 1.02 0 0 1-.58.181zM872.649 61.724l79.891 133.213 37.262-25.716-79.891-133.213-37.262 25.715z" fill="#23231F"/><path d="m871.281 61.428 80.944 134.968-40.232 106.973-121.172-27.975-80.923-134.944L750.11 33.453l121.172 27.975zm-29.937 168.16c29.3 6.764 48.463-15.134 42.779-48.915-5.688-33.8-34.067-66.675-63.367-73.44-29.3-6.764-48.446 15.139-42.758 48.939 5.684 33.78 34.047 66.651 63.347 73.416" fill="#F3FF00"/><path d="M911.993 304.619c-.094 0-.188-.01-.282-.032l-121.172-27.975a1.25 1.25 0 0 1-.791-.575l-80.924-134.944a1.252 1.252 0 0 1-.098-1.083l40.213-106.997a1.247 1.247 0 0 1 1.451-.778L871.562 60.21c.331.076.616.284.791.575l80.943 134.968c.196.327.232.726.098 1.083l-40.232 106.973a1.25 1.25 0 0 1-1.169.81zm-120.374-30.324 119.588 27.61 39.635-105.384-80.359-133.995-119.588-27.609-39.615 105.407 80.34 133.971zm59.968-42.239c-3.376 0-6.897-.413-10.523-1.25-29.702-6.857-58.546-40.245-64.298-74.426-3.034-18.032.868-33.688 10.708-42.952 8.339-7.853 20.262-10.485 33.564-7.413 29.712 6.86 58.565 40.258 64.318 74.45 3.031 18.015-.873 33.659-10.711 42.922-6.071 5.717-14.041 8.669-23.059 8.669zm-9.961-3.686c12.47 2.877 23.588.462 31.306-6.803 9.22-8.68 12.85-23.51 9.96-40.687-5.601-33.285-33.601-65.776-62.416-72.43-12.464-2.877-23.576-.464-31.289 6.797-9.22 8.682-12.849 23.522-9.956 40.716 5.6 33.274 33.59 65.755 62.396 72.406z" fill="#23231F"/></g><path d="M710.293 871.821s25.924 48.882 46.83 80.709c39 59.373 84.402 102.447 84.402 102.447l23.284-62.283c-53.666-46.548-107.35-93.096-122.82-139.7zM471.37 748.024s2.548 11.511 9.214 26.511c6.667 15 15.195 16.489 15.195 16.489l46.556-14.872c-21.101-2.095-36.779-22.771-53.992-52.537z" fill="#727272" opacity=".5"/><path d="M993.675 613.384c-6.625-27.401-18.75-54.875-40.2-72.9-4.875-3.95-10.475-7.575-16.326-10.225-1.299-.575-4.399-1.776-6.475-2.45-10.075-3.325-21.975-3.55-32.375.15.05-.025-1.075.55-1.275.25l-1.5-2.25c-.825-1.25-1.7-2.475-2.575-3.7-2.1-2.9-4.35-5.675-6.7-8.35-5.825-6.55-12.425-12.5-19.85-16.925-9.45-5.725-20.5-8.825-31.375-8.575-10.95.35-20.95 4.225-30.275 10.625-.8.551-1.65 1.45-2.524 1.825-1.3.575-1.276.225-2.576-.724a108.029 108.029 0 0 0-6.949-4.6c-19.35-12-44.05-12.975-64.175-1.4-5.2-29.4-10.4-58.824-15.6-88.225-2.625-14.875-5.575-29.7-7.875-44.625-1.475-5.65-2.775-11.175-5.225-16.525-2.75-6.1-6.475-11.8-10.85-16.75-6.45-7.3-14.4-12.625-23.3-16.125-2.65-1.05-6.15-1.95-8.375-2.425a49.14 49.14 0 0 0-11.475-1c-8.275.2-17.4 3-24.775 7.925-4.575 3.075-9.375 7.325-13 12.15-3.3 4.375-5.825 9.45-7.6 14.675-.3.825-.55 1.65-.775 2.475-.225.775-.45 1.55-.65 2.35-.075.275-.45 2.075-.475 2.15-.375 1.875-.7 4.025-.925 5.651-1.1 9.974.475 19.75 1.65 29.625 2.075 17.15 3.425 34.375 5.45 51.525 3.725 31.975 8.4 63.824 13.475 95.6 2.075 12.95 3.85 25.95 5.85 38.925 2.15 14.6 4.5 29.125 5.025 43.95.425 12.4.575 27.5-6.175 38.3-.075.125-.15.225-.225.35-1.85 1.8-6.525.825-8.925.475-3.325-.525-6.625-1.3-9.875-2.175-6.125-1.7-12.075-4-18.175-5.625a805.31 805.31 0 0 0-10.2-3.3c-17.075-5.475-35.675-10.049-54.075-9.775-.3 0-1.4.05-1.525.05-1.075.05-2.125.125-3.175.2-4.3.275-8.625.8-12.9 1.375-7.4 1.025-14.65 3.175-21.325 6.7-5.05 2.625-9.75 6.05-14.1 9.775-1.125.975-2.2 1.95-3.25 3-.65.65-1.275 1.3-1.875 1.95-.25.25-1.2 1.35-1.275 1.425-5.3 6.225-9.075 13.275-12.1 20.95-.725 1.875-1.65 4.4-2.1 5.825-1.5 4.625-2.725 9.575-3.25 14.25-.2 1.825-.375 4.55-.375 5.775-.125 15.875 7.675 29.325 20.15 37.825 5.175 3.525 4.325 3.65 10.125 5.85 3.05 1.175 17.775-21.8 11.475-27.8-4-3.774-5.625-4-8.9-8.875-3.95-5.85 2.275-17.825 5.125-23.825 3.2-6.775 7.825-11.65 14.5-14.625 7.475-3.325 15.725-4.75 23.8-5.2 31.275-1.75 59.4 16.5 89.775 20.625 11.8 1.6 23.85-.125 33.325-8.175 4.4-3.75 7.8-8.875 10.35-14.1 5.9-12.125 7.725-26.125 8.2-39.55.45-13.5-.6-27.075-2.325-40.45-1.8-13.725-4.15-27.375-6.075-41.1-2.45-17.4-4.85-34.8-7.225-52.225-3.475-25.575-6.875-51.174-10.125-76.799-1.1-8.6-2.175-17.2-3.225-25.8-.875-7.325-1.775-14.65-2.6-21.975-.525-4.55-.6-9.075.85-13.5 5.9-18.05 26.6-13.525 35.625-1.1 5.775 7.9 6.525 18.25 8.2 27.725 4.625 26.225 9.275 52.475 13.9 78.7l6.525 36.9c1.2 6.7 2.375 13.4 3.55 20.1 1.775 10.025 2.625 22.2 13.85 25.5 10.975 3.225 16.175-6.6 23.1-13.175 7.5-7.125 17.9-10.8 27.975-9.05 11.125 1.974 18.724 9.425 27 16.7 2.7 2.425 7.3 4.625 11.1 4.25 1.05-.1 3.375-.525 4.301-.85 1.45-.525 2.8-1.25 4.075-2.125 2.15-1.425 3.675-3.2 5.4-5.15 4.375-4.975 9.675-8.95 16.05-10.55 7.7-1.925 15.425.375 21.9 4.825 5.9 4.05 10.775 9.575 14.95 15.5 3.8 5.375 6.475 11.325 9.85 16.95 5.2 8.575 16.75 11.425 24.075 3.9 9.974-9.075 23.7-2.875 32.35 5.1 10.575 9.7 17.375 23.35 22.125 37 4.698 13.529 7.637 27.736 9.326 42.185 2.428 20.768 35.015 11.874 31.417-12.644-1.115-7.598-2.545-15.138-4.343-22.59z" fill="#727272" opacity=".3"/><g clip-path="url(#d)"><g fill="#191A15"><path d="m613.426 297.073-.111-.004.111.004zm0 0c.1.004.169.006 0 0zM435.853 656.631c.018-.022.034-.046.052-.069-.062.078-.068.086-.052.069zm60.469-27.746c.034-.003.068-.002.102-.004.123-.012.134-.014-.102.004zm64.125-287.371c.022-.15.042-.308.064-.454-.055.366-.07.474-.064.454z"/><path d="M987.968 582.365c-8.484-26.988-22.752-53.745-46.162-70.544-5.322-3.67-11.382-6.983-17.639-9.299-1.393-.516-4.697-1.532-6.899-2.082-10.688-2.779-23.123-2.329-33.759 1.925.051-.02-1.097.615-1.314.334a232.705 232.705 0 0 0-1.691-2.161 173.808 173.808 0 0 0-2.898-3.563 108.397 108.397 0 0 0-7.498-7.959c-6.438-6.208-13.666-11.792-21.687-15.803-10.191-5.182-21.892-7.658-33.225-6.823-11.406.971-21.61 5.394-30.969 12.297-.801.591-1.654 1.53-2.54 1.965-1.316.646-1.313.294-2.732-.575a103.475 103.475 0 0 0-7.509-4.203c-20.886-10.918-46.699-10.513-67.027 2.156-7.132-29.078-14.262-58.156-21.393-87.235-3.603-14.692-7.542-29.348-10.823-44.114-1.849-5.547-3.539-10.999-6.396-16.217-3.225-5.929-7.45-11.418-12.294-16.107-7.172-6.943-15.764-11.811-25.25-14.812-2.833-.896-6.53-1.604-8.874-1.964a54.724 54.724 0 0 0-12.026-.354c-8.635.656-17.996 3.956-25.409 9.298-4.587 3.306-9.361 7.824-12.86 12.838-3.182 4.561-5.523 9.757-7.074 15.092a45.69 45.69 0 0 0-.669 2.497 58.698 58.698 0 0 0-.529 2.387c-.055.279-.356 2.102-.377 2.173a92.545 92.545 0 0 0-.632 5.688c-.563 10.018 1.635 19.707 3.446 29.5 3.142 16.999 5.572 34.119 8.655 51.13 5.751 31.721 12.472 63.268 19.619 94.701 2.917 12.827 5.523 25.712 8.367 38.553 3.077 14.469 6.388 28.833 7.776 43.614 1.171 12.467 2.214 27.736-4.419 38.93-1.844 1.897-6.775 1.18-9.282.97-3.51-.331-6.995-.92-10.449-1.622-6.469-1.348-12.82-3.309-19.289-4.603a745.17 745.17 0 0 0-10.83-2.723c-18.112-4.528-37.8-8.07-56.985-6.769-.317.03-1.455.127-1.588.141-1.101.112-2.2.235-3.297.38-4.48.5-8.948 1.265-13.379 2.089-7.657 1.423-15.1 3.991-21.87 7.863-5.093 2.912-9.81 6.585-14.13 10.554a58.914 58.914 0 0 0-3.226 3.175 73.397 73.397 0 0 0-1.847 2.057c-.225.26-1.155 1.402-1.235 1.492-5.172 6.492-8.692 13.749-11.414 21.586-.656 1.898-1.46 4.484-1.857 5.936-1.3 4.691-2.286 9.71-2.56 14.397-.11 1.832-.115 4.559-.051 5.788.793 15.857 9.696 28.855 23.204 36.643 5.621 3.24 11.713 5.611 17.905 7.506a167.87 167.87 0 0 0 9.81 2.664c2.12.499 4.242.989 6.373 1.443 2.431.518 10.378 1.954 10.363 1.952 1.197.172 2.395.345 3.592.52 2.146.314 4.29.641 6.432.977 3.553.558 7.102 1.141 10.645 1.759 7.313 1.277 14.661 2.615 21.81 4.639 9.645 2.731 18.344 8.414 26.864 13.555 12.981 7.833 25.681 16.15 38.263 24.605 9.995 6.717 19.475 13.91 29.208 20.994 26.774 19.483 55.288 37.313 85.852 50.226 16.122 6.793 32.804 11.71 50.2 13.825 17.722 2.154 35.597 2.357 53.406 1.309 33.465-1.968 67.169-8.123 98.757-19.458 18.698-6.71 39.385-15.157 52.188-31.095 12.952-15.967 19.908-36.933 24.89-56.528 6.876-27.047 10.014-55.158 10.985-83.02.21-6.034.275-12.068.261-18.105-.258-32.384-3.26-65.358-13.014-96.384zM883.7 506.454c-.002-.024-.002-.029 0 0zM603.483 643.233c-.018.033-.026.046 0 0zm-111.402 79.586c.016 0 .135.595 0 0zm114.992 50.726.123.082zm356.66-44.53c-2.054 17.438-5.114 34.83-10.171 51.667-2.378 7.918-5.2 15.734-8.883 23.145-3.985 8.018-10.243 14.191-17.672 19.031-15.486 10.089-34.447 15.594-52.241 20.017-12.835 3.191-26.299 5.738-39.52 6.716-19.074 1.411-51.416 3.409-73.401.32-34.846-4.896-65.536-21.68-94.586-40.548a540.207 540.207 0 0 1-23.136-15.951c-5.485-3.99-10.746-8.349-16.319-12.197a1318.037 1318.037 0 0 0-23.489-15.844c-14.854-9.789-29.844-19.545-45.524-27.973-7.332-3.941-14.697-7.079-22.768-9.116-12.851-3.354-25.817-5.458-38.967-7.285-8.402-1.167-16.695-2.787-24.847-5.173-5.487-1.606-12.281-3.45-15.985-8.118-4.464-5.627-.245-16.128 2.387-22.271 2.947-6.938 7.497-12.061 14.274-15.398 7.613-3.75 16.132-5.632 24.53-6.532 32.525-3.486 62.937 13.183 94.882 15.609 12.4.942 24.866-1.44 34.275-10.009 4.377-3.986 7.633-9.29 9.989-14.663 5.45-12.431 6.552-26.5 6.253-39.92-.302-13.529-2.177-27-4.771-40.267-2.662-13.616-5.923-27.115-8.725-40.705a12309.181 12309.181 0 0 1-10.554-51.738c-5.112-25.352-10.141-50.72-15.024-76.117a4518.574 4518.574 0 0 1-4.855-25.579c-1.353-7.263-2.708-14.526-4.007-21.798-.808-4.52-1.154-9.044.103-13.537 5.132-18.343 26.975-14.975 37.119-3.082 6.481 7.581 7.857 17.857 10.157 27.236l19.084 77.818 8.945 36.477 4.873 19.869c2.43 9.908 4.011 22.021 15.921 24.683 11.649 2.602 16.496-7.475 23.334-14.421 7.426-7.541 18.058-11.802 28.662-10.594 11.733 1.337 20.095 8.357 29.143 15.174 2.949 2.271 7.896 4.207 11.834 3.615 1.092-.164 3.476-.709 4.435-1.09 1.489-.592 2.833-1.402 4.131-2.337 2.155-1.552 3.632-3.392 5.317-5.431 4.281-5.211 9.578-9.487 16.137-11.427 7.938-2.349 16.119-.491 23.132 3.582 6.406 3.732 11.812 8.96 16.507 14.65 4.27 5.159 7.399 10.957 11.26 16.374 5.918 8.291 18.137 10.474 25.327 2.564 9.905-9.609 24.563-4.191 34.072 3.288 11.588 9.115 19.476 22.346 25.219 35.73 13.854 32.287 17.044 69.172 16.899 103.944-.055 13.101-.656 26.206-1.884 39.251-.255 2.706-.885 8.456-.874 8.359zm3.488-62.119c.311-.259.043-.034 0 0zm8.677-3.092c.066-.007.218-.023 0 0z"/><path d="M606.269 636.227c-.007.026-.006.023 0 0zm0 0zm-185.498 55.936a.408.408 0 0 0 .006-.037l-.006.037zm-.022.134zm.022-.134-.022.135.022-.135zm-.037.226c-.017.103-.013.076 0 0z"/></g><path d="M957.724 564.186s26.113 54.744 21.709 136.23c-4.43 81.948-28.126 111.367-33.35 115.465-5.224 4.099 21.709-38.069 25.17-113.263 2.475-53.776-5.034-96.588-10.382-116.409-5.349-19.821-3.146-22.023-3.146-22.023z" fill="#838383"/><path d="M960.308 574.045s23.112 50.473 18.497 126.452c-4.751 78.223-24.82 103.314-28.99 106.946-5.007 4.361 18.466-29.734 21.927-104.928 2.475-53.776-4.056-88.751-8.34-108.829-4.507-21.12-3.094-19.64-3.094-19.64z" fill="#5e5b5c"/><path d="M964.887 589.178s18.005 47.358 13.446 111.47c-5.033 70.765-20.583 97.05-24.711 99.932-5.444 3.801 15.527-23.103 18.987-98.297 2.475-53.776-2.725-73.132-5.542-94.572-2.813-21.412-2.18-18.533-2.18-18.533z" fill="#696667"/><path d="M967.885 602.623s4.471 12.799 7.54 37.066c2.012 15.91 3.807 36.752 1.999 62.14-2.34 32.852-6.113 49.31-9.539 62.503-3.888 14.973-7.439 24.499-9.902 26.528-3.285 2.705 3.017-6.896 8.631-32.251 3.146-14.21 6.25-31.751 6.904-58.778 1.181-48.785-.727-56.961-3.543-78.402-2.813-21.412-2.089-18.805-2.089-18.805z" fill="#727070"/><path d="M970.338 615.524s1.655 4.532 4.724 28.799c2.012 15.91 3.626 30.483 1.817 55.871-2.34 32.852-5.204 46.766-8.631 59.959-3.888 14.973-5.105 18.896-6.904 21.531-2.544 3.725 1.927-6.169 7.54-31.524 3.146-14.21 4.797-27.481 5.451-54.509 1.181-48.785-1.363-54.69-2.635-66.5-2.312-21.471-1.363-13.627-1.363-13.627z" fill="#7b7879"/><path d="M434.222 715.63c1.844-.549-1.011-8.859-1.258-14.498-.247-5.638.4-16.818 3.639-24.973s10.657-20.793 9.413-21.467-5.6 2.995-7.893 5.746-7.91 13.527-9.744 20.978-3.095 16.736-1.49 23.27 3.095 9.056 4.471 10.088 2.147 1.07 2.863.857z" fill="#838383"/><path d="M432.619 711.965c1.699-.506-.63-5.797-.858-10.993-.228-5.195 1.046-17.298 4.068-24.797 4.47-11.095 9.204-17.762 8.057-18.383s-3.806 2.054-5.918 4.589-7.288 12.464-8.978 19.329c-1.69 6.866-2.852 15.421-1.373 21.442s4.343 9.009 5.003 8.813z" fill="#5e5b5c"/><path d="M431.056 705.587c.391-.391.371-2.223.156-7.118s1.142-15.594 3.989-22.661c4.211-10.454 7.26-13.99 6.18-14.574-1.08-.585-2.312 1.132-4.302 3.52-1.99 2.389-6.122 10.668-7.715 17.137-1.592 6.469-2.596 12-1.203 17.673s2.436 6.482 2.894 6.023z" fill="#696667"/><path d="M430.431 702.615c.326-.357.335-1.479.156-5.945s1.351-13.592 3.724-20.038c3.511-9.537 5.994-13.916 5.152-13.296-1.288.949-1.663 2.212-3.322 4.391s-4.774 8.727-6.102 14.628-2.758 10.773-1.596 15.948c1.161 5.175 1.605 4.73 1.987 4.312z" fill="#727070"/><path d="M429.921 699.144c.269-.294.173-4.253.588-8.057.399-3.665 1.017-8.031 2.974-13.348 2.896-7.867 4.603-11.059 3.908-10.547-1.062.783-5.457 10.257-6.861 15.045-3.375 11.512-.924 17.252-.608 16.907z" fill="#7b7879"/><path d="M688.344 513.292a3.54 3.54 0 0 1-4.278-2.601l-40.038-163.846a3.54 3.54 0 1 1 6.879-1.677l40.038 163.846a3.54 3.54 0 0 1-2.601 4.278z" fill="#838383"/><path d="m688.206 512.696-.014.003a3.005 3.005 0 0 1-3.631-2.208l-40.002-163.698a3.005 3.005 0 0 1 2.208-3.631l.014-.003a3.005 3.005 0 0 1 3.631 2.208l40.002 163.698a3.005 3.005 0 0 1-2.208 3.631z" fill="#979796"/><path d="m687.852 511.217-.027.007a2.38 2.38 0 0 1-2.877-1.75L645.372 347.52a2.381 2.381 0 0 1 1.749-2.877l.027-.007a2.381 2.381 0 0 1 2.877 1.749l39.576 161.954a2.38 2.38 0 0 1-1.75 2.877z" fill="#696667"/><path d="m687.54 509.959-.017.004a1.712 1.712 0 0 1-2.069-1.258l-39.279-160.736a1.712 1.712 0 0 1 1.258-2.069l.017-.004a1.712 1.712 0 0 1 2.069 1.258l39.279 160.736a1.712 1.712 0 0 1-1.258 2.069z" fill="#7b7879"/><path d="m687.179 508.481-.017.004a1.41 1.41 0 0 1-1.703-1.035l-38.702-158.369a1.41 1.41 0 0 1 1.035-1.703l.017-.004a1.41 1.41 0 0 1 1.703 1.035l38.702 158.369a1.41 1.41 0 0 1-1.035 1.703z" fill="#827f80"/><path d="M614.743 642.94c1.057-.969 2.896-4.639 3.235-5.832 5.067-17.823 4.826-30.679 1.25-48.169l-45.682-223.433c-2.123-12.498-1.075-30.902 3.361-40.157 6.199-12.935 2.027-11.087.179-9.24-13.106 13.106-15.167 35.585-11.234 54.812l46.827 228.371c2.389 11.65 2.557 21.185-.534 35.252-.554 2.522-3.227 7.691-2.38 10.051.484 1.35 3.433-.237 4.979-1.655z" fill="#838383"/><path d="M618.356 633.071c3.172-11.103 3.664-26.745.088-44.235l-45.557-221.705c-2.123-12.498-2.027-19.562.176-31.723 2.557-14.114 8.283-19.65 3.701-15.597-13.882 12.28-12.777 36.569-10.12 51.022l46.827 228.371c2.389 11.65 2.152 20.385.038 32.898-.43 2.546-2.697 6.716-1.85 9.076.484 1.35 4.07 1.088 6.697-8.107z" fill="#5e5b5c"/><path d="M618.532 626.286c1.85-12.601 2.254-21.017-1.322-38.508l-44.764-218.445c-2.123-12.498-3.084-18.505-.881-30.665 2.557-14.114 5.918-16.478 1.498-12.248-8.195 7.843-8.019 31.018-5.361 45.47l46.827 228.371c2.389 11.65 1.888 15.715.654 26.289-.299 2.565-1.674 6.785-1.322 10.222.146 1.427 3.281-1.025 4.67-10.486z" fill="#696667"/><path d="M618.796 622.585c1.85-12.601 1.285-18.638-2.291-36.128l-44.5-215.89c-2.123-12.498-3.701-18.329-1.498-30.489 2.557-14.114 1.9-11.44 1.234-10.134-4.494 8.812-5.816 26.7-3.158 41.153l46.827 228.371c2.389 11.65 1.8 14.393.566 24.967-.299 2.565-.705 4.847-.352 8.283.146 1.427 1.783-.672 3.172-10.134z" fill="#727070"/><path d="M618.444 620.47c1.85-12.601 1.549-14.497-2.027-31.987l-44.764-217.74c-2.123-12.498-3.437-13.394-2.203-23.351 1.764-14.235.779-9.862.352-8.459-1.85 6.08-3.26 17.8-.603 32.253l46.827 228.371c2.389 11.65 1.976 14.393 1.007 23.469-.274 2.568.02 6.906 1.41-2.555z" fill="#7b7879"/></g></svg></g><g transform="translate(278.0 736.0) rotate(0.0 25.5 46.5) scale(0.9793190852007605 0.999033193683532)"><svg width="52.077" height="93.09" viewBox="0 0 52.077 93.09"><path d="M31.077 2.106C29.672.702 27.833 0 25.994 0s-3.679.702-5.083 2.106L2.301 20.714c-2.753 2.752-3.157 7.281-.551 10.173a7.187 7.187 0 0 0 10.43.279l2.534-2.534c1.51-1.509 4.091-.44 4.091 1.695v55.169c0 3.893 2.916 7.381 6.804 7.584a7.188 7.188 0 0 0 7.574-7.179V30.328c0-2.135 2.581-3.204 4.091-1.694l2.338 2.338c2.459 2.459 6.375 3.053 9.255 1.103A7.192 7.192 0 0 0 49.971 21z" fill="#6d6e71"/></svg></g><g transform="translate(1081.0 1123.0) rotate(0.0 44.0 44.0) scale(0.9987969037295985 0.9987969037295985)"><svg width="88.106" height="88.106" viewBox="0 0 88.106 88.106"><path d="M79.817 36.207H57.574a5.673 5.673 0 0 1-5.673-5.673V8.289c0-4.249-3.183-8.057-7.426-8.278a7.846 7.846 0 0 0-8.266 7.835v22.688a5.673 5.673 0 0 1-5.673 5.673H8.29c-4.248 0-8.056 3.181-8.278 7.423a7.846 7.846 0 0 0 7.835 8.269h22.689a5.673 5.673 0 0 1 5.673 5.673v22.245c0 4.249 3.183 8.057 7.426 8.278a7.846 7.846 0 0 0 8.266-7.835V57.572a5.673 5.673 0 0 1 5.673-5.673h22.687a7.847 7.847 0 0 0 7.835-8.269c-.223-4.242-4.03-7.423-8.278-7.423z" fill="#6d6e71"/></svg></g></svg>