<svg width="15" height="16" viewBox="0 0 15 16" fill="none" xmlns="http://www.w3.org/2000/svg">
<path d="M13.75 10.9152V5.24855C13.7497 5.00012 13.6842 4.75612 13.5598 4.54104C13.4355 4.32595 13.2568 4.14735 13.0417 4.02313L8.08333 1.1898C7.86797 1.06546 7.62368 1 7.375 1C7.12632 1 6.88203 1.06546 6.66667 1.1898L1.70833 4.02313C1.49319 4.14735 1.31449 4.32595 1.19016 4.54104C1.06583 4.75612 1.00025 5.00012 1 5.24855V10.9152C1.00025 11.1636 1.06583 11.4076 1.19016 11.6227C1.31449 11.8378 1.49319 12.0164 1.70833 12.1406L6.66667 14.974C6.88203 15.0983 7.12632 15.1638 7.375 15.1638C7.62368 15.1638 7.86797 15.0983 8.08333 14.974L13.0417 12.1406C13.2568 12.0164 13.4355 11.8378 13.5598 11.6227C13.6842 11.4076 13.7497 11.1636 13.75 10.9152Z" stroke="black" stroke-width="1.5" stroke-linecap="round" stroke-linejoin="round"/>
<path d="M7.37496 10.9152C8.93977 10.9152 10.2083 9.64668 10.2083 8.08187C10.2083 6.51706 8.93977 5.24854 7.37496 5.24854C5.81015 5.24854 4.54163 6.51706 4.54163 8.08187C4.54163 9.64668 5.81015 10.9152 7.37496 10.9152Z" stroke="black" stroke-width="1.5" stroke-linecap="round" stroke-linejoin="round"/>
</svg>
