<svg xmlns="http://www.w3.org/2000/svg" viewBox="0 0 1200 800" width="1200" height="800"><path fill="#FFF" d="M0 0h1200v800H0z"/><g transform="translate(385.0 120.0) rotate(0.0 215.0 280.0) scale(0.418378287918208 0.41827940765660454)"><svg width="1027.778" height="1338.818" viewBox="0 0 1027.778 1338.818"><linearGradient id="b" gradientUnits="userSpaceOnUse" x1="291.276" x2="587.942" y1="536.79" y2="858.456"><stop offset="0" stop-color="#231f20"/><stop offset="1" stop-color="#231f20" stop-opacity="0"/></linearGradient><clipPath id="c"><path d="m140.226 866.474-2.171-74.252c-3.474-57.752 41.468-102.042 93.358-108.773l22.797-2.605L326.445 888.5l57.429 19.834 104.458 10.184 33.577-231.507-20.998-169.706c-3.588-28.999 11.003-57.224 36.737-71.064l26.254-14.119 14.146-19.312 78.748-329.307L184.81 0 0 839.527l121.02 31.7z"/></clipPath><linearGradient id="d" gradientUnits="userSpaceOnUse" x1="428.937" x2="624.451" y1="501.002" y2="501.002"><stop offset="0" stop-color="#FFFFE9"/><stop offset="1" stop-color="#FFFFE9"/></linearGradient><linearGradient id="a" gradientUnits="userSpaceOnUse" x1="23.359" x2="587.335" y1="462.437" y2="462.437"><stop offset="0" stop-color="#FFFFE9"/><stop offset="1" stop-color="#FFFFE9"/></linearGradient><linearGradient xmlns:xlink="http://www.w3.org/1999/xlink" id="e" x1="557.288" x2="709.294" xlink:href="#a" y1="120.81" y2="120.81"/><linearGradient xmlns:xlink="http://www.w3.org/1999/xlink" id="f" x1="681.672" x2="629.805" xlink:href="#b" y1="665.591" y2="970.47"/><linearGradient xmlns:xlink="http://www.w3.org/1999/xlink" id="g" x1="288.994" x2="148.214" xlink:href="#b" y1="114.924" y2="306.275"/><clipPath id="h"><path d="m179.508 99.407-3.447 14.412 26.334 2.394 65.917 58.743 22.532 51.691-98.081 53.017-92.78 11.929L49.617 188.21v-58.319l83.502-41.088z"/></clipPath><linearGradient xmlns:xlink="http://www.w3.org/1999/xlink" id="i" x1="728.555" x2="770.229" xlink:href="#b" y1="895.23" y2="953.063"/><clipPath id="j"><path d="M663.424 781.025c12.362-12.71 35.099 10.333 20.231 24.006 3.241 1.26 71.3-12.279 71.3-12.279s-1.529-37.731-1.811-50.315c-.458-20.425-15.229-54.849-15.229-54.849l224.441 11.759 65.422 261.584-142.6 327.485-278.784 50.402-91.555-184.96 13.254-187.625 50.366-119.288 84.964-65.919z"/></clipPath><path d="m228.307 99.84 44.4 112.387-92.088 55.08-46.047-114.479z" fill="#FFFB48"/><path d="M180.619 268.557a1.244 1.244 0 0 1-1.16-.783l-46.047-114.479c-.234-.582 0-1.246.544-1.555l93.735-52.988a1.251 1.251 0 0 1 1.778.629l44.399 112.387a1.249 1.249 0 0 1-.521 1.531l-92.087 55.08a1.243 1.243 0 0 1-.642.178zM136.14 153.378l45.093 112.105 89.921-53.785-43.481-110.063-91.532 51.743z"/><path d="M220.483 148.454c-.295.168-.576.375-.836.617s-.502.521-.72.829-.412.648-.577 1.013a6.986 6.986 0 0 0-.409 1.17l-10.46 40.474c-.171.663-.392 1.285-.656 1.862s-.573 1.108-.918 1.59-.727.914-1.139 1.293-.853.705-1.318.972a6.7 6.7 0 0 1-1.438.621 6.398 6.398 0 0 1-3.121.134 7.15 7.15 0 0 1-1.602-.535l-19.267-9a4.662 4.662 0 0 0-1.042-.349 4.32 4.32 0 0 0-2.063.072c-.33.094-.65.229-.953.402-.257.147-.503.322-.734.523s-.446.429-.643.683-.376.533-.532.837-.291.633-.4.985c-.252.812-.351 1.657-.316 2.486s.203 1.643.486 2.394.681 1.439 1.176 2.016 1.084 1.043 1.751 1.352l31.931 14.846c.315.145.632.249.948.313s.631.088.94.074.614-.066.908-.153.58-.212.852-.37l.011-.006.011-.006.01-.006.01-.007c.279-.162.543-.358.789-.585s.474-.486.679-.775.388-.607.545-.952.287-.719.386-1.117l14.391-55.891c.227-.877.281-1.784.186-2.662s-.339-1.728-.708-2.49-.864-1.437-1.459-1.965a4.692 4.692 0 0 0-2.068-1.087 3.623 3.623 0 0 0-1.367-.051c-.221.035-.438.091-.649.166s-.417.17-.616.283" fill="#FFFFE9"/><path d="m134.572 152.828 46.047 114.479-78.377 6.525-45.225-111.024z"/><path d="M102.242 275.082a1.25 1.25 0 0 1-1.157-.778L55.86 163.28a1.25 1.25 0 0 1 .998-1.712l77.555-9.979a1.246 1.246 0 0 1 1.319.773l46.047 114.479a1.25 1.25 0 0 1-1.056 1.713l-78.377 6.525a1.205 1.205 0 0 1-.104.004zM58.788 163.84l44.266 108.67 75.774-6.309-45.054-112.01-74.986 9.648z" fill="#FFFFE9"/><path d="m149.651 111.153 78.656-11.313-93.735 52.988-77.555 9.98z" fill="#FFFFE9"/><path d="M57.016 164.058a1.25 1.25 0 0 1-.608-2.341l92.634-51.654c.134-.074.28-.124.431-.146l78.656-11.313a1.249 1.249 0 0 1 .793 2.325l-93.735 52.988c-.141.08-.295.131-.456.152l-77.555 9.979c-.054.007-.107.01-.161.01zm93.042-51.7-86.766 48.383 70.878-9.121 87.734-49.596z" fill="#231f20"/><path d="m239.481 1039.053 9.054 23.25c-2.064-5.3-7.167-9.143-13.636-9.795-35.333-3.617-64.242-24.54-75.83-54.299l-9.054-23.25c11.589 29.759 40.497 50.682 75.83 54.299 6.468.652 11.572 4.494 13.636 9.795z" fill="#F7EA00"/><path d="M248.535 1063.554c-.5 0-.973-.302-1.165-.797-1.933-4.965-6.76-8.416-12.596-9.004-35.602-3.646-65.056-24.754-76.869-55.09l-9.054-23.25a1.25 1.25 0 1 1 2.33-.906c11.471 29.456 40.13 49.96 74.792 53.509 6.774.683 12.397 4.739 14.673 10.585l9.047 23.231.007.019a1.25 1.25 0 0 1-1.164 1.703zm-90.124-70.478 1.823 4.681c11.471 29.456 40.13 49.96 74.792 53.509 3.482.351 6.66 1.594 9.236 3.513l-5.947-15.271c-1.933-4.965-6.76-8.416-12.596-9.004-28.194-2.887-52.534-16.727-67.308-37.427z" fill="#231f20"/><path d="M339.621 1023.819 272.4 1086.5c-3.511 3.273-7.71 5.017-11.863 5.453-7.726.812-15.29-2.903-17.948-9.728l9.054 23.25c2.658 6.824 10.222 10.54 17.948 9.728 4.154-.437 8.352-2.18 11.863-5.453l67.221-62.681-9.055-23.25z" fill="#F7EA00"/><path d="M267.48 1116.565c-7.678 0-14.481-4.166-17-10.635l-9.055-23.252a1.25 1.25 0 0 1 2.33-.906c2.354 6.045 9.197 9.718 16.652 8.938 4.161-.438 8.013-2.209 11.141-5.124l67.22-62.682a1.25 1.25 0 0 1 2.017.46l9.055 23.25a1.25 1.25 0 0 1-.312 1.368l-67.221 62.682c-3.527 3.288-7.879 5.288-12.584 5.782-.753.079-1.502.118-2.242.118zm-20.668-26.943 5.998 15.401c2.354 6.045 9.202 9.723 16.652 8.938 4.162-.438 8.014-2.209 11.141-5.124l66.602-62.104-8.078-20.742-65.872 61.424c-3.528 3.288-7.88 5.288-12.584 5.782-5.194.545-10.146-.828-13.857-3.575z" fill="#231f20"/><path d="m652.165 986.802-300.561 31.59c-4.464.469-8.738 2.393-11.983 5.428l9.054 23.25c3.246-3.035 7.519-4.958 11.983-5.428l300.56-31.59-9.054-23.25z" fill="#F7EA00"/><path d="M348.675 1048.319a1.25 1.25 0 0 1-1.164-.796l-9.055-23.25a1.25 1.25 0 0 1 .312-1.367c3.436-3.212 7.949-5.257 12.706-5.758l300.561-31.59a1.242 1.242 0 0 1 1.296.79l9.054 23.25a1.25 1.25 0 0 1-1.035 1.697l-300.56 31.59c-4.22.444-8.219 2.255-11.261 5.098a1.25 1.25 0 0 1-.854.337zm-7.575-24.146 8.1 20.801a22.173 22.173 0 0 1 11.327-4.576l298.932-31.419-8.113-20.835-299.611 31.49c-3.937.414-7.681 2.018-10.635 4.539z" fill="#231f20"/><path d="M759.007 907.992 753.489 745.4c-.32-9.432-2.203-18.365-5.417-26.618l-9.054-23.25c3.214 8.253 5.097 17.186 5.417 26.618l5.518 162.592c1.714 50.499-42.055 96.202-97.787 102.059l9.054 23.25c55.733-5.858 99.502-51.561 97.788-102.059z" fill="#F7EA00"/><path d="M661.218 1011.302a1.25 1.25 0 0 1-1.164-.797L651 987.255a1.25 1.25 0 0 1 1.035-1.697c54.993-5.779 98.358-50.986 96.669-100.773l-5.518-162.593c-.309-9.071-2.094-17.864-5.306-26.138l-.027-.069a1.25 1.25 0 1 1 2.347-.864l9.037 23.208c3.333 8.559 5.184 17.652 5.501 27.029l5.519 162.592c1.733 51.07-42.636 97.431-98.906 103.345a1.167 1.167 0 0 1-.132.007zm-7.298-23.439 8.116 20.843c54.544-6.195 97.401-51.169 95.722-100.671l-5.519-162.592c-.309-9.094-2.103-17.911-5.333-26.207l-1.815-4.661c.309 2.487.507 5 .593 7.534l5.518 162.592c1.717 50.578-41.784 96.536-97.281 103.162z" fill="#231f20"/><path d="M640.439 641.299c55.733-5.858 102.281 30.331 103.996 80.851l5.518 162.592c1.714 50.498-42.055 96.202-97.788 102.059l-300.561 31.59c-4.464.469-8.738 2.393-11.983 5.427l-67.221 62.681c-3.511 3.273-7.71 5.017-11.863 5.453-9.421.99-18.602-4.752-18.938-14.656l-1.134-33.417c-.261-7.689-6.316-13.785-14.621-14.622-45.123-4.619-79.769-37.464-81.243-80.891l-5.518-162.592c-1.715-50.52 42.056-96.202 97.788-102.059l403.567-42.417z" fill="#FFFFE9"/><path d="M258.408 1093.316c-4.771 0-9.288-1.597-12.652-4.524-3.382-2.943-5.251-6.903-5.406-11.452l-1.134-33.417c-.241-7.125-5.792-12.644-13.497-13.42-22.318-2.285-42.824-11.605-57.74-26.244-15.164-14.883-23.909-34.717-24.626-55.85l-5.518-162.592c-1.733-51.07 42.636-97.431 98.906-103.345l403.566-42.417c28.87-3.036 56.899 5.218 76.919 22.639 17.569 15.288 27.676 36.388 28.457 59.414l5.519 162.592c1.733 51.07-42.636 97.431-98.906 103.345l-300.561 31.59c-4.22.444-8.219 2.255-11.26 5.098l-67.222 62.683c-3.527 3.288-7.879 5.287-12.584 5.782-.757.079-1.512.119-2.26.119zm382.03-452.018.131 1.243-403.566 42.417c-54.994 5.779-98.359 50.986-96.669 100.774l5.518 162.592c1.434 42.238 34.381 75.008 80.121 79.69 8.84.891 15.462 7.545 15.743 15.823l1.134 33.417c.13 3.837 1.703 7.174 4.547 9.65 3.372 2.933 8.118 4.32 13.01 3.805 4.162-.438 8.015-2.209 11.141-5.124l67.221-62.682c3.435-3.211 7.947-5.256 12.705-5.757l300.561-31.59c54.993-5.779 98.359-50.987 96.67-100.774l-5.519-162.592c-.758-22.324-10.56-42.784-27.6-57.612-19.499-16.967-46.842-25.001-75.017-22.038l-.131-1.243z" fill="#231f20"/><path d="m657.713 780.807-428.567 45.045.925 27.262 428.567-45.045z" fill="#F7EA00"/><path d="M230.071 854.363a1.247 1.247 0 0 1-1.249-1.208l-.926-27.262a1.25 1.25 0 0 1 1.119-1.285l428.567-45.044a1.247 1.247 0 0 1 1.38 1.201l.925 27.262a1.25 1.25 0 0 1-1.118 1.285l-428.567 45.044a1.15 1.15 0 0 1-.131.007zm.363-27.391.84 24.757 426.074-44.781-.84-24.757-426.075 44.781z" fill="#231f20"/><path d="M547.936 843.644 230.88 876.968l.926 27.262 317.055-33.324z" fill="#F7EA00"/><path d="M231.806 905.48a1.247 1.247 0 0 1-1.249-1.208l-.925-27.263a1.25 1.25 0 0 1 1.119-1.285l317.056-33.323c.354-.037.69.073.951.3.262.229.417.555.429.901l.925 27.262a1.25 1.25 0 0 1-1.118 1.285l-317.056 33.324a1.15 1.15 0 0 1-.131.007zm.363-27.392.84 24.758 314.563-33.062-.84-24.757z" fill="#231f20"/><path d="m688.36 671.896-149.663 71.666-58.327 150.846c-10.216 26.421-40.017 39.442-66.345 28.988l-61.011-24.225 45.059 7.197c31.213 4.985 60.966-15.019 68.128-45.805l42.637-183.28 179.523-5.386z" fill="url(#b)" opacity=".5"/><path d="m855.1 604.65-100.032 54.145a43.612 43.612 0 0 1-3.037 1.494 7.592 7.592 0 0 0-.558.274l100.032-54.145c.181-.098.367-.189.558-.274a43.612 43.612 0 0 0 3.037-1.494z" fill="#414042"/><path d="M751.473 661.813a1.25 1.25 0 0 1-.596-2.349l100.032-54.145c.214-.114.429-.221.651-.318.997-.444 1.99-.933 2.943-1.449a1.249 1.249 0 1 1 1.189 2.199l-100.033 54.145a44.794 44.794 0 0 1-3.124 1.537 6.228 6.228 0 0 0-.471.23c-.189.103-.393.15-.594.15z" fill="#FFFFE9"/><path d="M845.946 650.433c-2.115.335-4.48-.138-6.774-1.665l-43.959-29.362-100.032 54.145 43.958 29.362c2.295 1.527 4.66 2 6.775 1.665a8.11 8.11 0 0 0 2.596-.879l100.032-54.145c-.8.433-1.674.733-2.596.878z" fill="#414042"/><path d="M744.597 705.932c-2.086 0-4.185-.671-6.149-1.978l-43.961-29.364a1.253 1.253 0 0 1-.555-1.097c.021-.438.269-.833.654-1.042l100.033-54.145a1.246 1.246 0 0 1 1.289.061l43.959 29.362c1.906 1.268 3.942 1.772 5.884 1.47a6.839 6.839 0 0 0 2.194-.743 1.25 1.25 0 0 1 1.19 2.197l-.016.009-100.018 54.137a9.355 9.355 0 0 1-2.994 1.014 9.617 9.617 0 0 1-1.514.119zM697.6 673.663l42.234 28.211c1.907 1.268 3.942 1.774 5.885 1.47a6.876 6.876 0 0 0 2.196-.744l94.388-51.089c-1.303-.311-2.589-.881-3.822-1.701l-43.334-28.945-97.547 52.799z" fill="#FFFFE9"/><path d="m788.392 617.751-153.174 24.26-100.032 54.145 153.174-24.26c2.265-.359 4.703.23 6.821 1.655l100.032-54.145c-2.118-1.424-4.555-2.014-6.821-1.655z"/><path d="M535.185 697.406a1.25 1.25 0 0 1-.594-2.35l100.032-54.145c.124-.067.26-.113.399-.135l153.174-24.261c2.588-.414 5.329.248 7.714 1.853.363.244.572.66.552 1.097-.021.438-.27.831-.654 1.04L695.775 674.65a1.25 1.25 0 0 1-1.293-.063c-1.858-1.25-3.965-1.768-5.927-1.458L535.381 697.39a1.178 1.178 0 0 1-.196.016zm100.44-54.193-93.422 50.566 145.961-23.118c2.356-.376 4.839.139 7.063 1.443l97.323-52.679c-1.308-.489-2.665-.646-3.963-.44z" fill="#FFFFE9"/><path d="m466.515 483.148 100.032-54.145c-19.377 10.488-29.291 34.953-22.772 61.022L443.743 544.17c-6.518-26.069 3.395-50.534 22.772-61.022z" fill="#808285"/><path d="M443.743 545.421a1.25 1.25 0 0 1-1.213-.946c-6.453-25.807 3.168-51.478 23.391-62.426l100.008-54.131a1.253 1.253 0 0 1 1.718.491 1.25 1.25 0 0 1-.505 1.694c-19.221 10.403-28.331 34.92-22.154 59.62a1.25 1.25 0 0 1-.618 1.402L444.338 545.27c-.186.1-.39.15-.595.15zm110.469-108.318-87.102 47.146c-18.813 10.182-27.939 33.886-22.527 58.047l97.751-52.909c-4.655-19.816.128-39.446 11.878-52.283zm-87.696 46.046h.01z" fill="#FFFFE9"/><path d="M786.423 391.649c28.407-4.499 57.879 17.666 65.844 49.517l25.626 102.488c6.848 27.389-4.465 52.993-25.83 62.49-3.935 1.741-5.835 6.443-4.628 11.271l5.269 21.074c1.561 6.244-1.951 11.183-6.758 11.944-2.115.335-4.48-.138-6.774-1.665l-43.959-29.362c-2.117-1.425-4.556-2.014-6.821-1.655l-153.174 24.26c-28.386 4.496-57.858-17.669-65.817-49.498l-25.626-102.488c-7.964-31.851 8.601-61.308 36.987-65.804l205.661-32.573z"/><path d="M844.629 651.787c-2.086 0-4.185-.671-6.149-1.978l-43.96-29.364c-1.863-1.252-3.971-1.771-5.932-1.46l-153.174 24.261a48.445 48.445 0 0 1-7.548.592c-26.485.002-52.279-21.434-59.678-51.021L542.562 490.33c-4.24-16.96-1.735-34.153 6.874-47.17 7.262-10.978 18.317-18.142 31.131-20.171l205.66-32.573c28.984-4.598 59.148 18.04 67.252 50.448l25.626 102.488c6.908 27.628-4.003 53.919-26.534 63.936-3.384 1.497-4.996 5.537-3.924 9.826l5.27 21.072c.852 3.406.376 6.709-1.339 9.302-1.506 2.277-3.792 3.762-6.437 4.181a9.604 9.604 0 0 1-1.513.119zm-54.911-35.39c2.118 0 4.271.679 6.193 1.972l43.955 29.36c1.908 1.269 3.946 1.774 5.885 1.47 1.943-.309 3.628-1.406 4.742-3.091 1.323-2.001 1.678-4.599.998-7.315l-5.27-21.073c-1.351-5.404.894-10.753 5.336-12.719 21.399-9.513 31.73-34.615 25.122-61.043l-25.626-102.489c-7.797-31.183-36.699-52.974-64.436-48.585l-205.66 32.573c-12.112 1.919-22.566 8.695-29.436 19.082-8.224 12.433-10.605 28.902-6.534 45.185l25.626 102.486c7.121 28.48 31.862 49.127 57.225 49.13 2.396 0 4.792-.184 7.185-.563l153.174-24.261a9.658 9.658 0 0 1 1.521-.119zm-3.295-224.748h.01z" fill="#FFFFE9"/><path d="M844.629 651.787c-2.086 0-4.185-.671-6.149-1.978l-43.96-29.364c-1.863-1.252-3.971-1.771-5.932-1.46l-153.174 24.261a48.445 48.445 0 0 1-7.548.592c-26.485.002-52.279-21.434-59.678-51.021L542.562 490.33c-4.24-16.96-1.735-34.153 6.874-47.17 7.262-10.978 18.317-18.142 31.131-20.171l205.66-32.573c28.984-4.598 59.148 18.04 67.252 50.448l25.626 102.488c6.908 27.628-4.003 53.919-26.534 63.936-3.384 1.497-4.996 5.537-3.924 9.826l5.27 21.072c.852 3.406.376 6.709-1.339 9.302-1.506 2.277-3.792 3.762-6.437 4.181a9.604 9.604 0 0 1-1.513.119zm-54.911-35.39c2.118 0 4.271.679 6.193 1.972l43.955 29.36c1.908 1.269 3.946 1.774 5.885 1.47 1.943-.309 3.628-1.406 4.742-3.091 1.323-2.001 1.678-4.599.998-7.315l-5.27-21.073c-1.351-5.404.894-10.753 5.336-12.719 21.399-9.513 31.73-34.615 25.122-61.043l-25.626-102.489c-7.797-31.183-36.699-52.974-64.436-48.585l-205.66 32.573c-12.112 1.919-22.566 8.695-29.436 19.082-8.224 12.433-10.605 28.902-6.534 45.185l25.626 102.486c7.121 28.48 31.862 49.127 57.225 49.13 2.396 0 4.792-.184 7.185-.563l153.174-24.261a9.658 9.658 0 0 1 1.521-.119zm-3.295-224.748h.01z" fill="#FFFFE9"/><path d="M651.558 504.459c-8.754 1.386-13.842 10.461-11.392 20.258s11.521 16.65 20.274 15.264c8.755-1.387 13.843-10.462 11.388-20.279-2.45-9.797-11.515-16.63-20.27-15.243" fill="#FFFB48"/><path d="M658.187 541.407c-8.545 0-16.858-6.883-19.235-16.387-1.364-5.457-.55-11 2.234-15.209 2.371-3.584 5.985-5.924 10.176-6.587 9.352-1.476 19.079 5.774 21.679 16.175 1.367 5.466.554 11.017-2.231 15.229-2.371 3.584-5.984 5.924-10.175 6.587a15.63 15.63 0 0 1-2.447.192zm-4.347-35.877c-.696 0-1.393.053-2.088.163-3.489.553-6.502 2.505-8.481 5.497-2.397 3.626-3.088 8.445-1.894 13.224 2.298 9.186 10.756 15.604 18.866 14.332 3.489-.553 6.501-2.505 8.479-5.497 2.399-3.628 3.089-8.455 1.892-13.243-2.097-8.39-9.351-14.476-16.774-14.476zm-2.283-1.071h.01z" fill="#FFFFE9"/><path d="M705.593 495.9c-8.738 1.384-13.842 10.461-11.392 20.258 2.455 9.817 11.537 16.648 20.274 15.264 8.755-1.387 13.86-10.465 11.406-20.282-2.45-9.797-11.533-16.627-20.288-15.241" fill="#FFFB48"/><path d="M712.222 532.849c-8.545 0-16.857-6.883-19.233-16.388-1.363-5.45-.548-10.992 2.237-15.203 2.373-3.588 5.985-5.929 10.173-6.592 9.37-1.484 19.096 5.771 21.695 16.172 1.365 5.461.551 11.01-2.236 15.223-2.374 3.59-5.991 5.932-10.187 6.596-.815.13-1.633.192-2.449.192zm-4.34-35.878c-.697 0-1.396.054-2.093.164-3.486.553-6.497 2.506-8.479 5.502-2.398 3.628-3.091 8.445-1.896 13.218 2.296 9.188 10.759 15.604 18.866 14.333 3.494-.554 6.51-2.509 8.492-5.506 2.401-3.63 3.092-8.455 1.896-13.237-2.097-8.389-9.355-14.474-16.786-14.474zm-2.288-1.07h.01z" fill="#FFFFE9"/><path d="M759.629 487.342c-8.738 1.384-13.843 10.461-11.393 20.258 2.455 9.817 11.538 16.648 20.275 15.264 8.755-1.387 13.859-10.465 11.405-20.281-2.45-9.797-11.532-16.627-20.287-15.241" fill="#FFFB48"/><path d="M766.259 524.291c-8.546 0-16.859-6.883-19.236-16.387-1.362-5.452-.547-10.995 2.239-15.206 2.372-3.587 5.985-5.928 10.172-6.591 9.358-1.492 19.095 5.771 21.695 16.171 1.365 5.463.55 11.012-2.236 15.225-2.374 3.589-5.991 5.932-10.187 6.596a15.63 15.63 0 0 1-2.447.192zm-4.342-35.879c-.698 0-1.396.054-2.093.164-3.485.553-6.496 2.506-8.478 5.501-2.4 3.628-3.092 8.446-1.898 13.221 2.297 9.186 10.755 15.604 18.867 14.332 3.493-.554 6.51-2.509 8.492-5.506 2.4-3.63 3.092-8.455 1.896-13.239-2.098-8.388-9.356-14.473-16.786-14.473zm-2.288-1.07h.01z" fill="#FFFFE9"/><path d="m569.401 592.514-25.626-102.488-100.032 54.145 25.626 102.488c7.958 31.829 37.431 53.994 65.817 49.498l100.032-54.145c-28.386 4.496-57.858-17.669-65.817-49.498z" fill="#414042"/><path d="M527.834 697.982c-26.486.002-52.28-21.433-59.678-51.021L442.53 544.473a1.25 1.25 0 0 1 .618-1.402l100.033-54.145a1.249 1.249 0 0 1 1.808.796l25.626 102.487c7.794 31.171 36.69 52.961 64.409 48.567a1.25 1.25 0 0 1 .79 2.334l-100.032 54.145c-.124.067-.26.113-.399.135a48.445 48.445 0 0 1-7.548.592zm-82.643-153.174 25.391 101.548c7.774 31.092 36.535 52.858 64.199 48.598l94.475-51.137c-26.977.813-53.539-20.896-61.067-51l-25.235-100.925-97.762 52.916z" fill="#FFFFE9"/><g clip-path="url(#c)"><path d="M251.386 577.102a31.312 31.312 0 0 1-2.803-.577c-10.1-2.576-18.01-8.962-23.737-18.764-6.302-10.786-10.41-22.824-10.128-37.285.224-11.768 2.999-23.049 8.299-33.867.163-.349.356-.691.566-1.032.075-.113.21-.196.45-.448 1.315 1.475 2.634 2.931 3.944 4.427 14.576 16.669 29.157 33.317 43.712 50.003.923 1.056 1.913 1.654 3.01 1.827 1.057.167 2.211-.06 3.496-.651 23.809-11.005 47.64-21.964 71.471-32.923.461-.198.944-.349 1.73-.662-.425 1.887-.741 3.436-1.126 4.997-.749 3.102-1.53 6.2-2.284 9.322-1.454 6.005-2.891 12.012-4.344 18.015-.762 3.162-2.55 5.041-5.104 6.112-14.253 6.034-28.504 12.131-42.762 18.185-8.554 3.632-17.088 7.393-25.671 10.855-6.318 2.567-12.604 3.436-18.717 2.468m56.506 39.756c-.507-.08-1.01-.172-1.51-.276-13.544-2.873-23.603-11.531-30.107-25.633-.149-.294-.238-.641-.426-1.211 2.002-.908 3.93-1.788 5.85-2.627 19.568-8.58 39.116-17.142 58.672-25.744 2.249-.974 4.471-2.118 6.692-3.263 1.773-.924 2.569-2.835 3.053-4.837 2.191-8.984 4.307-18 6.47-27.008a13593.59 13593.59 0 0 1 8.76-36.351c2.044-8.404 4.104-16.806 6.148-25.21.138-.54.304-1.053.569-2.009.543.544.863.822 1.153 1.159 5.763 6.317 11.526 12.632 17.284 18.968 1.625 1.795 2.19 4.088 1.422 6.979l-9.057 34.205a4863.994 4863.994 0 0 1-3.947 15.002c-3.145 11.887-6.102 23.825-9.5 35.651-2.98 10.418-8.254 19.35-15.508 26.659-10.217 10.268-21.605 15.031-33.747 15.831-4.114.252-8.297.344-12.271-.285m15.003-109.073c-.379-.06-.687-.311-1.02-.677-6.273-6.937-12.57-13.836-18.851-20.733-.656-.707-1.296-1.41-1.982-2.059-.713-.674-.667-1.54-.38-2.596.347-1.317.593-2.629.891-3.953l.064.01c2.603-10.81 5.201-21.599 7.772-32.414.253-1.123.805-1.576 1.608-1.969a7088.323 7088.323 0 0 0 29.749-13.741c.36-.175.657-.23.921-.188.353.056.648.284.96.631a7400.87 7400.87 0 0 0 20.888 22.988c.573.631.715 1.255.472 2.256-2.973 12.226-5.896 24.461-8.895 36.661-.166.66-.824 1.512-1.346 1.761-9.967 4.656-19.926 9.209-29.884 13.825-.384.184-.694.24-.968.196m62.002 65.466c-.627-.099-.668-.634-.385-1.714 2.307-8.903 4.569-17.834 6.864-26.76 2.193-8.547 4.364-17.076 6.573-25.621 2.588-10.002 5.126-20.011 7.794-30 .977-3.668.478-6.325-1.642-8.655-16.744-18.342-33.407-36.754-50.085-55.168-.31-.32-.575-.694-1.017-1.241.662-.353 1.119-.613 1.584-.83 8.02-3.696 16.026-7.332 24.033-11.114 1.337-.633 2.526-.861 3.615-.689 1.216.193 2.304.887 3.325 2.079 13.019 15.237 26.109 30.382 39.103 45.656 3.594 4.206 7.286 8.345 10.333 13.129 6.037 9.456 7.923 21.018 6.604 33.881-1.526 14.741-7.301 27.812-15.326 39.8-10.879 16.231-24.607 25.029-40.657 27.225-.294.044-.53.052-.715.023m-102.647-47.4c-1.149-.182-2.165-.856-3.091-1.943-11.753-13.77-23.515-27.499-35.251-41.265-4.342-5.094-8.895-9.991-12.834-15.541-7.576-10.676-9.851-23.983-7.656-39.179 1.998-13.732 7.605-25.915 15.147-37.085 10.829-16.011 24.445-24.682 40.331-26.883.274-.039.54-.038.802-.018.129.02.239.121.43.235-.434 1.926-.83 3.9-1.316 5.839-.999 3.914-2.078 7.817-3.061 11.734-2.922 11.486-5.795 22.979-8.701 34.469l-7.017 27.587a306.799 306.799 0 0 1-1.425 5.365c-.862 3.085-.299 5.459 1.48 7.382 5.459 5.894 10.852 11.86 16.266 17.809 11.366 12.46 22.726 24.942 34.087 37.423.334.364.622.784 1.08 1.335-.661.352-1.108.635-1.573.852-8.24 3.785-16.48 7.572-24.704 11.361-1.096.504-2.086.666-2.993.523m30.939-95.721c.163-.867.245-1.457.376-2.039 2.477-10.248 4.957-20.516 7.465-30.758.695-2.862 2.39-4.547 4.655-5.518 6.33-2.697 12.645-5.396 18.976-8.092a34930.467 34930.467 0 0 1 48.35-20.687c6.879-2.92 13.676-3.947 20.29-2.899 1.204.191 2.404.451 3.595.78 8.781 2.451 15.879 7.939 21.281 16.151 5.943 9.066 10.116 19.411 11.288 31.629 1.346 14.178-1.316 28.053-7.789 41.492-.276.559-.558 1.075-.998 1.92-1.225-1.358-2.304-2.547-3.379-3.756-11.598-13.204-23.195-26.407-34.808-39.615-3.244-3.693-6.492-7.366-9.71-11.096-.904-1.055-1.895-1.649-2.988-1.822-1.075-.17-2.249.064-3.538.663-23.703 10.979-47.434 21.934-71.169 32.909-.538.246-1.111.426-1.897.738m-20.705 44.476c-.47-.427-.814-.669-1.125-.989-5.719-6.288-11.43-12.617-17.175-18.867-1.846-1.996-2.331-4.421-1.465-7.671 2.388-8.974 4.644-17.947 6.996-26.906 3.167-12.133 6.378-24.238 9.574-36.347 1.742-6.623 3.377-13.284 5.276-19.862 3.958-13.65 11.028-24.646 21.309-32.763 9.011-7.135 18.632-10.474 28.595-11.057 4.071-.226 8.204-.327 12.122.293.2.032.4.064.599.101 10.544 1.857 19.225 7.555 25.861 16.939 2.065 2.945 3.797 6.254 5.684 9.4-.097.212-.216.444-.314.656-1.945.877-3.874 1.756-5.813 2.613-21.057 9.279-42.119 18.578-63.194 27.792-2.73 1.188-4.379 3.192-5.181 6.598-3.046 13.067-6.215 26.093-9.356 39.144a30938.312 30938.312 0 0 1-9.018 37.496c-.951 3.922-1.905 7.864-2.872 11.785-.121.459-.273.913-.504 1.645m67.661-171.225a54.165 54.165 0 0 0-5.725-.592c-9.117-.446-18.259.703-27.394 4.327-16.255 6.424-29.57 18.113-38.963 36.389-1.16 2.268-2.213 2.954-4.251 3.068-15.297.922-29.552 7.331-42.667 19.384-6.545 6.009-12.112 13.065-16.85 21.168-7.965 13.639-13.519 28.095-15.269 43.903-1.581 14.172.069 27.151 5.241 38.817.409.917.464 1.633-.106 2.686-6.441 11.968-10.725 24.63-12.483 38.109-1.453 11.095-1.484 21.938.821 32.154 3.257 14.48 9.091 26.98 18.15 36.685 7.134 7.613 15.556 12.542 25.449 14.338.341.061.682.117 1.024.171 4.051.642 8.163.825 12.375.246.265-.038.508-.049.726-.015.462.073.82.353 1.075 1.027 2.164 5.83 4.924 11.15 8.29 15.922 8.852 12.541 20.294 20.234 33.217 22.613 7.721 1.098 14.31 1.165 21.027.006 22.416-3.868 40.81-16.686 53.593-41.885.297-.576 1.116-1.112 1.667-1.192 2.274-.346 4.533-.404 6.807-.751 15.485-2.347 29.661-9.661 42.224-23.028 4.354-4.631 8.004-9.975 11.399-15.589 8.149-13.422 13.872-27.811 15.898-43.512 1.94-15.029.335-28.874-5.419-41.132-.57-1.234-.493-2.094.228-3.372 5.816-10.3 9.918-21.268 12.156-32.966 1.957-10.309 2.37-20.406.807-30.151-2.027-12.851-6.311-24.253-12.808-34.031-8.546-12.891-19.267-20.848-32.542-22.95-4.275-.677-8.818-.747-13.635-.179a2.134 2.134 0 0 1-.598.001c-.521-.083-.852-.42-1.137-1.087-1.089-2.625-2.169-5.289-3.463-7.738-9.102-17.231-21.715-28.13-38.861-30.846" fill="#FFFFE9" opacity=".25"/><path d="M557.288 81.223a38.353 38.353 0 0 0-6.302-1.55L243.248 30.932l38.994 13.19L589.98 92.863c2.177.345 4.28.866 6.302 1.549l-38.994-13.19z" fill="#FFFFE9" opacity=".5"/><path d="M589.98 92.863c26.497 4.197 41.932 34.436 34.471 67.534l-156.52 694.4c-7.461 33.099-34.994 56.532-61.49 52.336L98.703 858.392c-26.516-4.2-41.932-34.436-34.471-67.534l156.52-694.401c7.461-33.099 34.975-56.535 61.49-52.335z" fill="#a7a9ac" opacity=".35"/><path d="M181.758 83.268c7.461-33.099 34.975-56.535 61.49-52.335l38.994 13.19c-26.516-4.2-54.03 19.237-61.49 52.335zM59.709 845.202l38.994 13.19c-26.516-4.2-41.932-34.436-34.471-67.534l-38.994-13.19c-7.461 33.099 7.956 63.335 34.471 67.534z" fill="#6d6e71" opacity=".5"/><path d="m428.937 841.607 38.994 13.19c-7.461 33.099-34.994 56.532-61.49 52.336l-38.994-13.19c26.497 4.197 54.03-19.237 61.49-52.336z" fill="#FFFFE9" opacity=".6"/><path d="m585.457 147.207 38.994 13.19-156.52 694.4-38.994-13.19z" fill="url(#d)" opacity=".5"/><path d="m25.238 777.668 156.52-694.4 38.994 13.189-156.52 694.4z" fill="#FFFFE9" opacity=".5"/><path d="M550.986 79.673c26.497 4.197 41.932 34.436 34.471 67.534l-156.52 694.4c-7.461 33.099-34.994 56.532-61.49 52.336L59.709 845.202c-26.516-4.2-41.932-34.436-34.471-67.534l156.52-694.4c7.461-33.099 34.975-56.535 61.49-52.335l307.738 48.741z" fill="url(#a)" opacity=".5"/><path d="M230.18 566.499a31.312 31.312 0 0 1-2.803-.577c-10.1-2.576-18.01-8.962-23.737-18.764-6.302-10.786-10.41-22.824-10.128-37.285.224-11.768 2.999-23.049 8.299-33.867.163-.349.356-.691.566-1.032.075-.113.21-.196.45-.448 1.315 1.475 2.634 2.931 3.944 4.427 14.576 16.669 29.157 33.317 43.712 50.003.923 1.056 1.913 1.654 3.01 1.827 1.057.167 2.211-.06 3.496-.651 23.809-11.005 47.64-21.964 71.471-32.923.461-.198.944-.349 1.73-.662-.425 1.887-.741 3.436-1.126 4.997-.749 3.102-1.53 6.2-2.284 9.322-1.454 6.005-2.891 12.012-4.344 18.015-.762 3.162-2.55 5.041-5.104 6.112-14.253 6.034-28.504 12.131-42.762 18.185-8.554 3.632-17.088 7.393-25.671 10.855-6.318 2.567-12.604 3.436-18.717 2.468m56.506 39.756c-.507-.08-1.01-.172-1.51-.276-13.544-2.873-23.603-11.531-30.107-25.633-.149-.294-.238-.641-.426-1.211 2.002-.908 3.93-1.788 5.85-2.627 19.568-8.58 39.116-17.142 58.672-25.744 2.249-.974 4.471-2.118 6.692-3.263 1.773-.924 2.569-2.835 3.053-4.837 2.191-8.984 4.307-18 6.47-27.008a13593.59 13593.59 0 0 1 8.76-36.351c2.044-8.404 4.104-16.806 6.148-25.21.138-.54.304-1.053.569-2.009.543.544.863.822 1.153 1.159 5.763 6.317 11.526 12.632 17.284 18.968 1.625 1.795 2.19 4.088 1.422 6.979l-9.057 34.205a4863.994 4863.994 0 0 1-3.947 15.002c-3.145 11.887-6.102 23.825-9.5 35.651-2.98 10.418-8.254 19.35-15.508 26.659-10.217 10.268-21.605 15.031-33.747 15.831-4.114.252-8.297.344-12.271-.285m15.003-109.073c-.379-.06-.687-.311-1.02-.677-6.273-6.937-12.57-13.836-18.851-20.733-.656-.707-1.296-1.41-1.982-2.059-.713-.674-.667-1.54-.38-2.596.347-1.317.593-2.629.891-3.953l.064.01c2.603-10.81 5.201-21.599 7.772-32.414.253-1.123.805-1.576 1.608-1.969a7088.323 7088.323 0 0 0 29.749-13.741c.36-.175.657-.23.921-.188.353.056.648.284.96.631a7400.87 7400.87 0 0 0 20.888 22.988c.573.631.715 1.255.472 2.256-2.973 12.226-5.896 24.461-8.895 36.661-.166.66-.824 1.512-1.346 1.761-9.967 4.656-19.926 9.209-29.884 13.825-.384.184-.694.24-.968.196m62.002 65.466c-.627-.099-.668-.634-.385-1.714 2.307-8.903 4.569-17.834 6.864-26.76 2.193-8.547 4.364-17.076 6.573-25.621 2.588-10.002 5.126-20.011 7.794-30 .977-3.668.478-6.325-1.642-8.655-16.744-18.342-33.407-36.754-50.085-55.168-.31-.32-.575-.694-1.017-1.241.662-.353 1.119-.613 1.584-.83 8.02-3.696 16.026-7.332 24.033-11.114 1.337-.633 2.526-.861 3.615-.689 1.216.193 2.304.887 3.325 2.079 13.019 15.237 26.109 30.382 39.103 45.656 3.594 4.206 7.286 8.345 10.333 13.129 6.037 9.456 7.923 21.018 6.604 33.881-1.526 14.741-7.301 27.812-15.326 39.8-10.879 16.231-24.607 25.029-40.657 27.225-.294.044-.53.052-.715.023m-102.647-47.4c-1.149-.182-2.165-.856-3.091-1.943-11.753-13.77-23.515-27.499-35.251-41.265-4.342-5.094-8.895-9.991-12.834-15.541-7.576-10.676-9.851-23.983-7.656-39.179 1.998-13.732 7.605-25.915 15.147-37.085 10.829-16.011 24.445-24.682 40.331-26.883.274-.039.54-.038.802-.018.129.02.239.121.43.235-.434 1.926-.83 3.9-1.316 5.839-.999 3.914-2.078 7.817-3.061 11.734-2.922 11.486-5.795 22.979-8.701 34.469l-7.017 27.587a306.799 306.799 0 0 1-1.425 5.365c-.862 3.085-.299 5.459 1.48 7.382 5.459 5.894 10.852 11.86 16.266 17.809 11.366 12.46 22.726 24.942 34.087 37.423.334.364.622.784 1.08 1.335-.661.352-1.108.635-1.573.852-8.24 3.785-16.48 7.572-24.704 11.361-1.096.504-2.086.666-2.993.523m30.939-95.721c.163-.867.245-1.457.376-2.039 2.477-10.248 4.957-20.516 7.465-30.758.695-2.862 2.39-4.547 4.655-5.518 6.33-2.697 12.645-5.396 18.976-8.092a34930.467 34930.467 0 0 1 48.35-20.687c6.879-2.92 13.676-3.947 20.29-2.899 1.204.191 2.404.451 3.595.78 8.781 2.451 15.879 7.939 21.281 16.151 5.943 9.066 10.116 19.411 11.288 31.629 1.346 14.178-1.316 28.053-7.789 41.492-.276.559-.558 1.075-.998 1.92-1.225-1.358-2.304-2.547-3.379-3.756-11.598-13.204-23.195-26.407-34.808-39.615-3.244-3.693-6.492-7.366-9.71-11.096-.904-1.055-1.895-1.649-2.988-1.822-1.075-.17-2.249.064-3.538.663-23.703 10.979-47.434 21.934-71.169 32.909-.538.246-1.111.426-1.897.738m-20.705 44.476c-.47-.427-.814-.669-1.125-.989-5.719-6.288-11.43-12.617-17.175-18.867-1.846-1.996-2.331-4.421-1.465-7.671 2.388-8.974 4.644-17.947 6.996-26.906 3.167-12.133 6.378-24.238 9.574-36.347 1.742-6.623 3.377-13.284 5.276-19.862 3.958-13.65 11.028-24.646 21.309-32.763 9.011-7.135 18.632-10.474 28.595-11.057 4.071-.226 8.204-.327 12.122.293.2.032.4.064.599.101 10.544 1.857 19.225 7.555 25.861 16.939 2.065 2.945 3.797 6.254 5.684 9.4-.097.212-.216.444-.314.656-1.945.877-3.874 1.756-5.813 2.613-21.057 9.279-42.119 18.578-63.194 27.792-2.73 1.188-4.379 3.192-5.181 6.598-3.046 13.067-6.215 26.093-9.356 39.144a30938.312 30938.312 0 0 1-9.018 37.496c-.951 3.922-1.905 7.864-2.872 11.785-.121.459-.273.913-.504 1.645m67.661-171.225a54.165 54.165 0 0 0-5.725-.592c-9.117-.446-18.259.703-27.394 4.327-16.255 6.424-29.57 18.113-38.963 36.389-1.16 2.268-2.213 2.954-4.251 3.068-15.297.922-29.552 7.331-42.667 19.384-6.545 6.009-12.112 13.065-16.85 21.168-7.965 13.639-13.519 28.095-15.269 43.903-1.581 14.172.069 27.151 5.241 38.817.409.917.464 1.633-.106 2.686-6.441 11.968-10.725 24.63-12.483 38.109-1.453 11.095-1.484 21.938.821 32.154 3.257 14.48 9.091 26.98 18.15 36.685 7.134 7.613 15.556 12.542 25.449 14.338.341.061.682.117 1.024.171 4.051.642 8.163.825 12.375.246.265-.038.508-.049.726-.015.462.073.82.353 1.075 1.027 2.164 5.83 4.924 11.15 8.29 15.922 8.852 12.541 20.294 20.234 33.217 22.613 7.721 1.098 14.31 1.165 21.027.006 22.416-3.868 40.81-16.686 53.593-41.885.297-.576 1.116-1.112 1.667-1.192 2.274-.346 4.533-.404 6.807-.751 15.485-2.347 29.661-9.661 42.224-23.028 4.354-4.631 8.004-9.975 11.399-15.589 8.149-13.422 13.872-27.811 15.898-43.512 1.94-15.029.335-28.874-5.419-41.132-.57-1.234-.493-2.094.228-3.372 5.816-10.3 9.918-21.268 12.156-32.966 1.957-10.309 2.37-20.406.807-30.151-2.027-12.851-6.311-24.253-12.808-34.031-8.546-12.891-19.267-20.848-32.542-22.95-4.275-.677-8.818-.747-13.635-.179a2.134 2.134 0 0 1-.598.001c-.521-.083-.852-.42-1.137-1.087-1.089-2.625-2.169-5.289-3.463-7.738-9.102-17.231-21.715-28.13-38.861-30.846" fill="#FFFFE9"/><path d="m557.288 81.223 38.994 13.19c22.577 7.637 35.017 35.606 28.169 65.985l-38.994-13.19c6.847-30.379-5.592-58.348-28.169-65.985z" fill="none"/><path d="M596.282 94.412a38.275 38.275 0 0 0-6.302-1.549l-38.994-13.19c2.178.345 4.28.866 6.302 1.549l38.994 13.19zM92.394 856.84 53.4 843.65a38.462 38.462 0 0 0 6.309 1.551l38.994 13.19a38.462 38.462 0 0 1-6.309-1.551z" fill="none"/><path d="M367.447 893.943 59.709 845.202a38.462 38.462 0 0 1-6.309-1.551l38.994 13.19a38.36 38.36 0 0 0 6.309 1.551l307.738 48.741z" fill="#6d6e71" opacity=".35"/><path d="m557.288 81.223 38.994 13.19c22.577 7.637 35.017 35.606 28.169 65.985l-38.994-13.19c6.847-30.379-5.592-58.348-28.169-65.985z" fill="url(#e)" opacity=".75"/><g fill="#FFFFE9"><path d="m432.205 95.972 38.994 13.19c5.438 1.839 8.451 8.629 6.804 15.936-1.793 7.956-8.462 13.65-14.831 12.641l-38.994-13.19c6.369 1.009 13.038-4.685 14.831-12.641 1.647-7.308-1.366-14.097-6.804-15.936z" opacity=".5"/><path d="m378.928 124.265-38.994-13.19a9.13 9.13 0 0 0 1.502.369l38.994 13.19a9.13 9.13 0 0 1-1.502-.369z"/><path d="m424.178 124.55 38.994 13.189-82.742-13.105-38.993-13.189z"/><path d="M430.703 95.603c6.369 1.009 10.099 8.35 8.306 16.306s-8.462 13.65-14.831 12.641l-82.742-13.105c-6.369-1.009-10.099-8.35-8.306-16.306s8.462-13.65 14.83-12.641l82.742 13.105z"/></g><path d="M425.649 125.915a10.63 10.63 0 0 1-1.667-.131l-82.742-13.105c-2.922-.463-5.508-2.158-7.283-4.774-2.378-3.506-3.124-8.259-2.046-13.04 1.941-8.611 9.234-14.714 16.245-13.601l82.742 13.104c2.922.463 5.509 2.158 7.284 4.775 2.378 3.506 3.124 8.259 2.046 13.04-1.788 7.93-8.11 13.731-14.579 13.731zM346.457 83.63c-5.32 0-10.576 4.991-12.107 11.784-.926 4.109-.315 8.15 1.677 11.087 1.403 2.067 3.341 3.35 5.605 3.709l82.742 13.105c5.741.897 11.759-4.331 13.417-11.682.926-4.109.315-8.15-1.677-11.087-1.402-2.068-3.341-3.351-5.605-3.71l-82.742-13.104a8.49 8.49 0 0 0-1.309-.103z" fill="#231f20"/><path d="M373.609 895.676c-2.12 0-4.241-.163-6.358-.499l-307.738-48.74c-11.266-1.784-20.835-8.056-27.672-18.136-9.205-13.57-12.056-32.126-7.822-50.907l156.52-694.401c7.591-33.679 35.804-57.596 62.905-53.295l307.737 48.74c11.262 1.783 20.829 8.056 27.667 18.138 9.207 13.574 12.061 32.129 7.828 50.905l-156.52 694.401c-6.998 31.047-31.529 53.793-56.547 53.793zM237.054 31.697c-23.871 0-47.334 21.932-54.077 51.845L26.457 777.943c-4.082 18.11-1.366 35.953 7.453 48.954 6.439 9.493 15.428 15.396 25.994 17.07l307.738 48.74c25.82 4.086 52.768-18.958 60.076-51.375l156.519-694.4c4.082-18.105 1.363-35.948-7.458-48.953-6.44-9.496-15.427-15.399-25.988-17.072l-307.738-48.74c-1.995-.315-4-.47-5.999-.47z" fill="#FFFFE9"/></g><path d="M685.957 802.083s-30.356 34.295-35 81.667c-6.168 62.919-1.841 102.537-1.841 102.537l-33.923 3.492s-5.986-37.415-2.57-77.695c3.384-39.9 32.5-94.167 32.5-94.167l40.833-15.833z" fill="url(#f)" opacity=".5"/><path d="m254.209 680.844 30.498-2.511 75.834 222.084-34.096-11.918z" fill="#FFFFE9" opacity=".1"/><path d="m270.865 212.454-91.058 87.96h-45.216l16.631-71.116z" fill="url(#g)" opacity=".5"/><g clip-path="url(#h)"><path d="m228.307 99.84 44.4 112.387-92.088 55.08-46.047-114.479z" fill="#FFFB48"/><path d="M180.619 268.557a1.244 1.244 0 0 1-1.16-.783l-46.047-114.479c-.234-.582 0-1.246.544-1.555l93.735-52.988a1.251 1.251 0 0 1 1.778.629l44.399 112.387a1.249 1.249 0 0 1-.521 1.531l-92.087 55.08a1.243 1.243 0 0 1-.642.178zM136.14 153.378l45.093 112.105 89.921-53.785-43.481-110.063-91.532 51.743z"/><path d="M220.483 148.454c-.295.168-.576.375-.836.617s-.502.521-.72.829-.412.648-.577 1.013a6.986 6.986 0 0 0-.409 1.17l-10.46 40.474c-.171.663-.392 1.285-.656 1.862s-.573 1.108-.918 1.59-.727.914-1.139 1.293-.853.705-1.318.972a6.7 6.7 0 0 1-1.438.621 6.398 6.398 0 0 1-3.121.134 7.15 7.15 0 0 1-1.602-.535l-19.267-9a4.662 4.662 0 0 0-1.042-.349 4.32 4.32 0 0 0-2.063.072c-.33.094-.65.229-.953.402-.257.147-.503.322-.734.523s-.446.429-.643.683-.376.533-.532.837-.291.633-.4.985c-.252.812-.351 1.657-.316 2.486s.203 1.643.486 2.394.681 1.439 1.176 2.016 1.084 1.043 1.751 1.352l31.931 14.846c.315.145.632.249.948.313s.631.088.94.074.614-.066.908-.153.58-.212.852-.37l.011-.006.011-.006.01-.006.01-.007c.279-.162.543-.358.789-.585s.474-.486.679-.775.388-.607.545-.952.287-.719.386-1.117l14.391-55.891c.227-.877.281-1.784.186-2.662s-.339-1.728-.708-2.49-.864-1.437-1.459-1.965a4.692 4.692 0 0 0-2.068-1.087 3.623 3.623 0 0 0-1.367-.051c-.221.035-.438.091-.649.166s-.417.17-.616.283" fill="#FFFFE9"/><path d="M208.397 217.383c-.337 0-.679-.034-1.017-.104a5.595 5.595 0 0 1-1.223-.402l-31.933-14.847a6.391 6.391 0 0 1-2.174-1.673 8.002 8.002 0 0 1-1.395-2.386 8.93 8.93 0 0 1-.566-2.785 8.578 8.578 0 0 1 .371-2.907 7.42 7.42 0 0 1 .483-1.188c.188-.365.408-.712.655-1.03.243-.313.515-.602.808-.858s.608-.48.939-.668a5.535 5.535 0 0 1 3.888-.614c.448.093.893.242 1.32.443l19.265 8.998c.434.203.879.353 1.325.443a5.121 5.121 0 0 0 2.514-.107c.398-.119.792-.29 1.168-.507a6.175 6.175 0 0 0 1.097-.809c.351-.323.676-.693.967-1.101.302-.422.571-.887.799-1.385a9.814 9.814 0 0 0 .582-1.651l10.46-40.476c.122-.477.284-.939.481-1.375a7.5 7.5 0 0 1 .694-1.216c.269-.38.568-.725.891-1.024a5.704 5.704 0 0 1 1.069-.789h.003a4.96 4.96 0 0 1 1.683-.595c.303-.049.612-.068.914-.057.309.011.622.052.93.123.957.218 1.838.679 2.617 1.369a7.481 7.481 0 0 1 1.755 2.355c.437.903.715 1.879.826 2.9a8.663 8.663 0 0 1-.219 3.11l-14.391 55.89a7.817 7.817 0 0 1-.458 1.322 6.93 6.93 0 0 1-.666 1.161c-.25.354-.536.68-.848.968a5.803 5.803 0 0 1-1.012.751l-.036.021a5.032 5.032 0 0 1-2.565.698zm-32.307-27.079c-.037 0-.074 0-.11.002a3.022 3.022 0 0 0-1.398.4 3.265 3.265 0 0 0-.53.378 3.675 3.675 0 0 0-.478.509c-.152.196-.29.413-.408.643a4.912 4.912 0 0 0-.318.783 6.095 6.095 0 0 0-.261 2.064 6.45 6.45 0 0 0 .407 2.005c.234.618.564 1.187.956 1.645a3.92 3.92 0 0 0 1.326 1.029l31.934 14.847c.219.102.444.176.667.221a2.538 2.538 0 0 0 1.245-.052c.196-.059.39-.142.575-.249l.02-.012.028-.017c.202-.117.393-.26.569-.423.185-.171.355-.366.508-.581.161-.226.304-.476.426-.745.127-.28.232-.584.312-.903l14.394-55.899a6.184 6.184 0 0 0 .154-2.218 6.428 6.428 0 0 0-.59-2.079 5.04 5.04 0 0 0-1.164-1.574 3.417 3.417 0 0 0-1.517-.804 2.375 2.375 0 0 0-.457-.062 2.439 2.439 0 0 0-.436.027c-.145.023-.287.06-.426.109a2.696 2.696 0 0 0-.417.191c-.21.12-.413.27-.601.445a4.084 4.084 0 0 0-.551.636 4.924 4.924 0 0 0-.46.808c-.138.303-.25.626-.337.964l-10.46 40.478a12.3 12.3 0 0 1-.731 2.07 10.85 10.85 0 0 1-1.038 1.797 9.617 9.617 0 0 1-1.307 1.485c-.479.44-.998.822-1.542 1.135a7.998 7.998 0 0 1-1.704.737 7.799 7.799 0 0 1-1.833.311 7.778 7.778 0 0 1-1.895-.15 8.444 8.444 0 0 1-1.884-.628l-19.266-8.999a3.423 3.423 0 0 0-.766-.258 3.14 3.14 0 0 0-.637-.066z" fill="#231f20"/><path d="m134.572 152.828 46.047 114.479-78.377 6.525-45.225-111.024z"/><path d="M102.242 275.082a1.25 1.25 0 0 1-1.157-.778L55.86 163.28a1.25 1.25 0 0 1 .998-1.712l77.555-9.979a1.246 1.246 0 0 1 1.319.773l46.047 114.479a1.25 1.25 0 0 1-1.056 1.713l-78.377 6.525a1.205 1.205 0 0 1-.104.004zM58.788 163.84l44.266 108.67 75.774-6.309-45.054-112.01-74.986 9.648z" fill="#FFFFE9"/><path d="m149.651 111.153 78.656-11.313-93.735 52.988-77.555 9.98z" fill="#FFFFE9"/><path d="M57.016 164.058a1.25 1.25 0 0 1-.608-2.341l92.634-51.654c.134-.074.28-.124.431-.146l78.656-11.313a1.249 1.249 0 0 1 .793 2.325l-93.735 52.988c-.141.08-.295.131-.456.152l-77.555 9.979c-.054.007-.107.01-.161.01zm93.042-51.7-86.766 48.383 70.878-9.121 87.734-49.596z" fill="#231f20"/></g><path d="M704.49 922.682s-1.397 21.281 5.491 30.752 21.947 22.626 21.947 22.626l2.282-2.621a105.002 105.002 0 0 0 25.658-74.483l-2.523-47.756-52.854 71.481z" fill="url(#i)" opacity=".35"/><g clip-path="url(#j)"><g fill="#191616"><path d="M803.297 817.229c.183.037 1.03.141 0 0z"/><path d="M856.713 895.697c0-31.032-13.05-66.583-45.078-76.555l.547.168c-18.794-6.097-39.205-1.058-54.858 9.991-29.383 19.589-46.773 56.859-52.633 90.575-1.752 10.077 7.298 18.602 16.401 17.785.783-.136.995-.16.635-.071 12.658-.974 15.166-19.213 17.372-28.067 6.182-24.814 23.28-56.664 51.163-61.57 26.867-4.727 34.798 24.957 35.097 45.394.251 14.632-1.737 29.975-7.054 43.65-4.733 12.172-12.617 21.267-22.031 30.075-15.36 14.369-32.624 26.993-46.805 42.597-11.723 12.9-20.605 27.733-26.475 44.219-5.827 16.369-10.253 35.307-6.018 52.644 3.68 15.061 15.239 25.426 30.777 27.335 11.767 1.309 23.378-4.211 22.383-16.829-.418-4.639-3.169-9.074-6.651-10.881-1.359-.751-2.267-1.396-4.241-1.958-1.582-.45-3.818-.791-4.492-.794-5.424-.021-6.636-4.907-7.822-9.655-3.217-12.875 3.085-27.962 8.4-39.403 10.767-23.175 31.083-37.931 50.079-53.926 12.546-10.543 24.388-22.258 32.846-36.202 12.126-19.991 18.782-45.499 18.458-68.524zM754.36 1056.378c.036-.09-.036.091 0 0 0 0-.002.006 0 0zm-1.447 3.546c.011-.025.396-.961.513-1.25-.162.42-.342.834-.513 1.25zm123.251-339.757c-.033-.011-.294-.098 0 0z"/><path d="M996.13 892.977c-6.429-74.474-45.623-147.163-119.301-172.574-15.117-5.102-33.717-8.899-47.562-8.774-7.953-.214-15.838.144-23.712.962-2.507.26-7.821.874-9.339 1.108-11.51 1.777-22.885 4.458-33.909 8.216-117.348 41.857-200.728 161.597-226.517 280.267-14.497 63.327-15.833 132.696 8.993 193.709 22.844 56.146 70.378 101.085 131.671 109.46 69.173 9.453 135.043-24.512 185.136-69.574 53.906-48.493 94.489-113.986 116.364-182.879 7.578-23.866 12.717-48.347 16.503-73.071 3.901-25.722 4.902-58.559 1.675-86.851zM841.49 712.502c-.135-.013-.49-.064 0 0zm-163.077 562.392.064.007-.064-.007zm289.094-339.393-.124 7.939c-4.425 103.328-54.279 210.196-134.082 276.688-46.15 38.452-113.047 70.742-173.634 50.027-71.918-24.59-100.311-103.077-103.03-172.976-3.254-83.669 27.712-167.548 76.225-234.847 39.78-55.185 99.717-109.661 169.962-118.544 29.311-3.707 59.155.046 85.117 14.683 19.506 11.313 34.36 27.611 47.009 46.002 25.662 37.31 33.248 86.738 32.558 131.028zM876.45 720.263c.128.044.251.095.38.14.402.135.828.261 1.224.398l-1.604-.538z"/></g><path d="M950.01 1086.172c-18.563 66.038-112.339 178.053-192.838 191.388 19.689-11.067 40.601-19.877 59.545-32.315 15.593-10.238 36.066-28.528 41.585-34.081 12.246-12.322 28.034-29.058 46.648-54.708 11.285-15.551 23.834-34.068 36.616-57.758q7.827-14.506 9.436-16.165c-.298 1.092-.687 2.549-.993 3.639" fill="#3d3a3b"/><path d="M944.045 1099.662c-12.913 32.333-36.736 68.407-65.977 99.977-30.316 32.731-66.451 60.57-102.104 71.4 2.201-1.697 5.301-3.768 7.765-5.054 46.269-24.155 78.551-57.977 89.159-69.091 9.869-10.339 17.145-19.756 24.381-29.325 12.217-16.155 24.283-34.818 48.245-74.167-.441 1.878-.853 4.433-1.47 6.262" fill="#514e4e"/><path d="M936.527 1113.303c-5.932 21.083-30.615 55.698-58.296 85.56-28.324 30.556-59.778 56.16-76.675 59.223 37.949-28.958 55.844-43.17 73.856-63.268 8.522-9.509 17.07-19.67 27.781-34.563 9.201-12.793 19.727-28.837 33.531-48.766-.059.544-.049 1.287-.197 1.814" fill="#696667"/><path d="M931.326 1122.962c-17.127 42.805-86.47 117.68-119.673 129.22 9.548-8.411 20.274-15.348 29.766-23.829 14.296-12.774 21.471-19.185 35.118-34.147 13.534-14.838 22.938-27.372 28.557-34.861 9.557-12.737 17.632-26.496 27.088-39.303-.257.876-.516 2.073-.856 2.921" fill="#7b7879"/><path d="M925.897 1132.435c-8.454 18.367-27.559 44.173-48.728 67.041-19.113 20.647-39.911 38.932-56.007 46.57 18.381-17.382 38.558-32.83 55.586-51.668 18.65-20.633 33.556-44.145 50.71-65.928-.469 1.196-1.026 2.819-1.563 3.985" fill="#827f80"/><path d="M776.538 729.856c-45.123 18.811-74.763 36.086-121.168 83.382q-23.561 24.014-82.26 123.955c.03-.541 17.61-68.89 89.577-141.301 49.703-50.009 111.123-70.877 118.629-68.189-1.434.646-3.328 1.548-4.779 2.153" fill="#3d3a3b"/><path d="M752.109 738.551c-8.079 5.344-13.479 7.77-19.282 11.056-14.447 8.179-43.758 27.278-77.737 63.287-31.438 33.316-46.699 59.602-74.403 107.32 4.808-19.695 33.927-72.768 66.861-107.882 59.811-63.769 103.826-74.466 104.071-74.362z" fill="#514e4e"/><path d="M731.484 749.01c-.291.246-.744.489-1.063.698-28.021 18.398-39.373 28.498-56.556 43.787-4.538 4.037-17.213 15.976-36.862 39.58-19.034 22.864-34.958 49.055-41.758 60.239-2.267 3.728-4.798 9.185-8.008 12.14 21.508-55.552 86.64-134.114 145.713-158.026-.44.475-.972 1.165-1.466 1.583" fill="#696667"/><path d="M719.748 756.022c-9.728 8.168-20.619 14.819-30.201 23.178-11.662 10.173-22.678 19.782-36.664 35.15-24.534 26.956-43.191 55.096-50.073 65.944q-8.514 13.418-10.675 15.942c21.384-52.634 85.742-123.19 129.932-142.444-.696.669-1.579 1.61-2.319 2.231" fill="#7b7879"/><path d="M835.332 940.127c-1.272 20.986-24.392 39.926-41.274 53.755-32.803 26.872-49.246 52.056-54.871 65.65-.329.796-1.574-3.585-1.094-5.781 1.094-5 1.444-15.683 16.563-35.938 14.002-18.759 32.656-28.125 51.659-47.916 9.265-9.65 16.868-20.669 26.491-29.953.486-.469 1.689-.706 2.229-.301.137.102.259.318.298.485" fill="#3d3a3b"/><path d="M830.94 949.614c.008.062-1.064 8.169-12.471 20.755-.781.862-2.122 2.264-2.917 3.069-13.154 13.327-28.683 24.685-42.147 37.655-2.814 2.711-11.658 11.706-20.469 23.906-10.146 14.05-12.54 16.442-12.02 13.942 2.02-9.723 4.745-19.43 17.647-34.213 14.528-16.646 32.212-28.258 47.915-43.593 7.497-7.322 13.719-15.404 15.391-17.167 3.211-3.386 7.05-6.781 8.031-6.985 1.147-.239 1.036 2.604 1.04 2.631" fill="#514e4e"/><path d="M829.008 951.269c.002 6.867-10.437 18.221-10.882 18.701a111.985 111.985 0 0 1-2.906 3.043l-.852.839c-12.27 12.081-26.497 21.892-39.028 33.669-11.76 11.052-19.697 25.476-31.886 36.15 2.517-8.911 4.69-16.606 17.114-30.319 12.278-13.551 27.41-23.855 40.928-35.996 8.27-7.427 14.859-16.459 22.964-24.043.166-.155 4.175-3.659 4.178-3.658.174.033.369.703.369 1.613" fill="#696667"/><path d="M827.429 953.024c-.186 3.099-2.151 8.633-10.461 17.401-1.649 1.741-1.891 1.973-4.199 4.202-11.46 11.066-24.612 20.153-36.259 31-11.082 10.321-19.591 22.996-30.585 33.397 2.768-8.496 4.597-14.109 16.659-26.981 12.191-13.009 27.122-22.864 40.16-34.898 7.961-7.348 14.347-16.197 22.301-23.553.621-.574 1.412-1.604 2.225-1.374.237.067.175.559.16.805" fill="#7b7879"/><path d="M826.507 955.825c-3.906 11.407-17.874 22.541-30.198 32.365-13.724 10.94-21.818 19.003-25.708 22.878-8.426 8.394-15.648 17.871-23.838 26.477 2.672-7.573 4.782-13.554 15.975-25.379 12.25-12.941 27.353-22.589 40.199-34.842 7.849-7.487 14.68-15.962 22.655-23.327.312-.288.683-.971 1.1-.891.648.124-.176 2.692-.185 2.718" fill="#827f80"/><path d="M788.97 828.048c-.342.343-.905.681-1.325.924-14.141 8.175-19.994 11.558-30.302 22.229-11.572 11.98-19.918 26.621-23.06 32.132-2.514 4.411-2.611 4.509-4.22 6.152-1.121-2.703 5.068-24.825 21.948-42.73 17.624-18.694 35.178-20.752 37.068-19.871.201.094.519.306.519.528 0 .268-.439.445-.628.635" fill="#3d3a3b"/><path d="M785.958 829.002c-.353.35-.884.759-1.306 1.023-11.906 7.458-18.464 11.567-27.756 21.435-7.508 7.974-13.988 16.817-21.01 28.672-3.832 6.469-4.641 7.331-4.945 7.299-2.328-.246 6.165-28.858 27.867-46.862 15.207-12.616 26.542-13.04 27.272-12.677.188.093.454.331.444.541-.012.241-.396.4-.567.569" fill="#514e4e"/><path d="M781.607 830.442c-.101.519-2.263 2.027-5.845 4.525-8.219 5.732-14.03 10.799-20.727 18.072-7.723 8.387-13.715 17.707-16.595 22.186-4.894 7.612-5.294 8.234-5.719 8.308-.196.034-.487-.154-.572-.333-.237-.502 3.688-18.158 19.89-35.733 13.522-14.669 28.028-18.467 29.308-17.636.167.108.298.415.26.611" fill="#696667"/><path d="M777.689 832.378q-.151.41-6.126 5.067c-6.328 4.932-11.635 9.827-16.7 15.403-5.146 5.666-10.386 12.521-15.575 20.376-1.174 1.777-4.293 6.498-4.829 6.751-.2.095-.594.166-.737-.003-.741-.873 5.311-17.779 16.79-30.411 14.953-16.455 26.723-18.254 27.115-17.903.161.145.137.517.062.72" fill="#7b7879"/><path d="M774.318 834.285q-.181.329-7.178 6.285c-4.971 4.231-9.837 9.067-14.462 14.375-1.181 1.355-5.404 6.3-10.178 13.048q-6.05 8.552-7.222 8.969c3.555-22.727 36.443-46.595 39.191-43.553.179.198-.024.641-.15.877" fill="#827f80"/><path d="M732.488 1210.406c-7.853-2.636-12.083-11.141-9.446-18.994l1.886-5.617c2.636-7.853 11.141-12.083 18.994-9.446 7.853 2.636 12.083 11.141 9.446 18.994l-1.886 5.617c-2.636 7.853-11.141 12.083-18.994 9.446z" fill="#231f20"/><path d="M745.088 1181.845c-.229.639-.917 1.094-1.454 1.364-.17.085-.418.147-.602.195-1.703.442-4.206 1.205-6.453 2.327-2.169 1.083-4.041 2.693-6.33 3.562-.365.139-1.614.483-2.383-.906-2.607-4.707 4.186-14.02 12.436-11.731 4.969 1.379 5.035 4.492 4.786 5.188" fill="#3d3a3b"/><path d="M743.823 1181.595c-.169.563-1.011 1.008-1.288 1.154-1.961 1.037-4.117 1.622-6.094 2.624-1.841.934-3.488 2.218-5.419 2.987-.563.225-1.883.75-2.693-.59-2.292-3.791 3.448-12.833 11.735-10.488.766.217 4.502 1.839 3.759 4.312" fill="#514e4e"/><path d="M741.588 1181.507c-.253.429-.624.772-2.052 1.56-.06.033-7.865 3.984-8.24 4.119-.312.112-1.89.585-2.338-1.135-1.062-4.075 5.527-10.484 11.119-7.537 1.494.788 2.102 1.99 1.512 2.993" fill="#696667"/><path d="M740.143 1181.032c-.164.667-1.468 1.981-6.75 4.453-2.469 1.155-2.964.545-3.23.217-1.597-1.971 2.278-7.486 6.91-7.045 2.619.249 3.271 1.557 3.07 2.376" fill="#7b7879"/><path d="M739.042 1181.371c-.129.526-1.158 1.563-5.323 3.512-1.947.911-2.338.43-2.547.171-1.259-1.554 1.796-5.904 5.45-5.556 2.066.197 2.579 1.228 2.421 1.873" fill="#827f80"/></g></svg></g></svg>