<svg xmlns="http://www.w3.org/2000/svg" x="0px" y="0px" width="100" height="100" viewBox="0 0 24 24">
<path d="M 9 3 C 7.9069372 3 7 3.9069372 7 5 L 7 19 C 7 20.093063 7.9069372 21 9 21 L 19 21 C 20.093063 21 21 20.093063 21 19 L 21 5 C 21 3.9069372 20.093063 3 19 3 L 9 3 z M 3 4 L 3 20 L 5 20 L 5 4 L 3 4 z M 9 5 L 19 5 L 19 19 L 9 19 L 9 5 z M 14 7 C 13.09268 7 12.285626 7.3807818 11.767578 7.9570312 C 11.24953 8.5332807 11 9.2676667 11 10 L 13 10 C 13 9.7323333 13.099658 9.4667193 13.255859 9.2929688 C 13.412061 9.1192182 13.60432 9 14 9 C 14.405657 9 14.599267 9.1177154 14.75 9.2832031 C 14.900733 9.4486909 15 9.7041124 15 10 C 15 10.565334 14.729421 10.903363 14.244141 11.462891 C 13.758861 12.022418 13 12.797755 13 14 L 15 14 C 15 13.665245 15.241139 13.366909 15.755859 12.773438 C 16.270579 12.179964 17 11.285666 17 10 C 17 9.2568876 16.752033 8.5122622 16.228516 7.9375 C 15.704999 7.3627378 14.897343 7 14 7 z M 13 15 L 13 17 L 15 17 L 15 15 L 13 15 z"></path>
</svg>