<svg width="17" height="17" viewBox="0 0 17 17" fill="none" xmlns="http://www.w3.org/2000/svg">
<path d="M6.375 2.125H2.83333C2.44213 2.125 2.125 2.44213 2.125 2.83333V14.1667C2.125 14.5579 2.44213 14.875 2.83333 14.875H6.375C6.7662 14.875 7.08333 14.5579 7.08333 14.1667V2.83333C7.08333 2.44213 6.7662 2.125 6.375 2.125Z" stroke="black" stroke-width="1.5" stroke-linecap="round" stroke-linejoin="round"/>
<path d="M14.1667 2.125H10.625C10.2338 2.125 9.91669 2.44213 9.91669 2.83333V6.375C9.91669 6.7662 10.2338 7.08333 10.625 7.08333H14.1667C14.5579 7.08333 14.875 6.7662 14.875 6.375V2.83333C14.875 2.44213 14.5579 2.125 14.1667 2.125Z" stroke="black" stroke-width="1.5" stroke-linecap="round" stroke-linejoin="round"/>
<path d="M14.1667 9.91666H10.625C10.2338 9.91666 9.91669 10.2338 9.91669 10.625V14.1667C9.91669 14.5579 10.2338 14.875 10.625 14.875H14.1667C14.5579 14.875 14.875 14.5579 14.875 14.1667V10.625C14.875 10.2338 14.5579 9.91666 14.1667 9.91666Z" stroke="black" stroke-width="1.5" stroke-linecap="round" stroke-linejoin="round"/>
</svg>
