<svg xmlns="http://www.w3.org/2000/svg" viewBox="0 0 1200 800" width="1200" height="800"><path fill="#FFF" d="M0 0h1200v800H0z"/><g transform="translate(327.0 120.0) rotate(0.0 273.0 280.0) scale(0.4866626794791462 0.4866349195314401)"><svg width="1121.927" height="1150.76" viewBox="0 0 1121.927 1150.76"><clipPath id="c"><path d="m676.721 394.009-38.295 68.496c-24.008 42.942-69.381 73.889-130.071 82.418C392.082 557.5 257.082 478.75 210.042 374.336c-22.285-54.6-19.069-107.404 4.169-148.968l38.295-68.496c-23.237 41.564-26.454 94.368-4.169 148.968 45.3 110.988 178.858 187.376 298.313 170.587 60.69-8.529 106.063-39.477 130.071-82.418z"/></clipPath><clipPath id="d"><path d="M344.292 142.957c119.435-16.786 253.006 59.581 298.313 170.587 45.3 110.988-14.147 220.33-134.249 231.38-102.731 9.452-253.013-59.6-298.313-170.587-45.307-111.006 12.245-218.336 134.249-231.38z"/></clipPath><clipPath id="e"><ellipse cx="464.619" cy="275.444" rx="189.146" ry="243" transform="matrix(.48799677 -.87284543 .87284543 .48799677 -2.532 546.57)"/></clipPath><linearGradient id="f" gradientTransform="matrix(.48799677 .87284543 -.87284543 .48799677 478.308 -264.512)" gradientUnits="userSpaceOnUse" x1="206.834" x2="597.724" y1="382.016" y2="220.414"><stop offset="0" stop-color="#fff"/><stop offset="1" stop-color="#F7FF71"/></linearGradient><linearGradient id="a"><stop offset="0" stop-color="#23231F"/><stop offset="1" stop-color="#23231F" stop-opacity="0"/></linearGradient><linearGradient xmlns:xlink="http://www.w3.org/1999/xlink" id="b" gradientUnits="userSpaceOnUse" x1="930.915" x2="1120.677" xlink:href="#a" y1="583.597" y2="583.597"/><linearGradient xmlns:xlink="http://www.w3.org/1999/xlink" id="g" x1="822.439" x2="946.136" xlink:href="#b" y1="547.9" y2="547.9"/><linearGradient xmlns:xlink="http://www.w3.org/1999/xlink" id="h" x1="835.291" x2="889.896" xlink:href="#b" y1="533.872" y2="533.872"/><linearGradient xmlns:xlink="http://www.w3.org/1999/xlink" id="i" x1="265.975" x2="252.267" xlink:href="#b" y1="816.321" y2="870.388"/><linearGradient id="j" gradientUnits="userSpaceOnUse" x1="524.95" x2="585" y1="525.308" y2="525.308"><stop offset="0" stop-color="#23231F" stop-opacity="0"/><stop offset="1" stop-color="#23231F"/></linearGradient><linearGradient xmlns:xlink="http://www.w3.org/1999/xlink" id="k" gradientUnits="userSpaceOnUse" x1="210.588" x2="225.028" xlink:href="#a" y1="313.929" y2="357.168"/><clipPath id="l"><path d="M255.037 804.005c2.305 2.567.488 1.071 5.153 5.874 2.201 2.267 1.466 9.196-.426 11.976-5.439 7.99-14.732 7.96-18.958 4.101-.933 18.403 6.513 37.4 3.019 55.49-2.141 11.085-4.611 54.69-4.122 64.307l14.607 32.43c2.201 6.044 5.471 7.096-.292 11.462-4.589 3.477-12.499 7.827-13.856 13.71 10.197-6.615 19.459 4.282 19.485 14.195.015 5.476-1.571 7.302-5.338 10.702-3.258 2.94 3.179 12.372 1.249 16.818-1.611 3.714-10.057 6.352-13.762 8.666-8.822 5.51-18.744 8.18-28.451 11.594-16.298 5.733-32.569 9.283-49.651 11.737-9.865 1.417-19.609 1.72-29.56 2.154-5.944.259-15.609 2.39-21.292 1.056-5.448-1.279-11.228-11.062-15.429-15.2-6.563-6.463-11.476-13.347-16.296-21.137-10.797-17.449-18.382-36.463-25.851-55.578-7.211-18.456-11.378-37.069-16.731-56.048-.843-2.988-3.235-8.544-3.209-11.469.036-4.066 3.784-8.388 5.543-11.865 5.089-10.064 9.985-20.37 15.007-30.438 4.31-8.641 8.343-17.633 13.139-25.991 5.845-10.186 12.891-17.92 21.29-26.104 7.881-7.678 15.68-15.42 21.982-24.543 3.805-5.507 8.395-9.863 12.81-14.726 1.798-1.98 3.378-5.626 6.093-6.55 2.762-.94 9.566.417 12.741.446 5.651.052 16.327-6.166 21.915-5.606 6.534.655 75.898 10.926 82.564 13.726 4.41 1.853 5.531 10.491 6.625 14.814z"/></clipPath><linearGradient id="m" gradientUnits="userSpaceOnUse" x1="778.828" x2="750.078" y1="833.002" y2="980.502"><stop offset="0"/><stop offset="1" stop-color="#23231F" stop-opacity="0"/></linearGradient><clipPath id="n"><path d="m198.594 359.812-6.1-19.097 25.005-26.965 15.853-7.509 12.19-9.377 57.377-34.434a43.573 43.573 0 0 0 17.952-44.058L278.75 0 40 36.25 0 135l126.25 215L190 385z"/></clipPath><path d="m165.345 351.233-75.34-82.741c5.887 6.465 16.183 8.096 25.749 3.3l75.339 82.741c-9.566 4.796-19.862 3.165-25.749-3.3z" fill="#23231F"/><path d="M179.779 358.562c-5.939 0-11.468-2.216-15.358-6.488l-75.339-82.741a1.25 1.25 0 1 1 1.849-1.683c5.68 6.237 15.431 7.453 24.264 3.024a1.25 1.25 0 0 1 1.484.276l75.339 82.741a1.253 1.253 0 0 1-.364 1.959c-3.902 1.956-7.977 2.912-11.876 2.912zm-13.509-8.171c5.358 5.884 14.337 7.299 22.753 3.724l-73.566-80.793c-6.124 2.825-12.606 3.22-18.122 1.362z" fill="#23231F"/><path d="M298.293 119.53a17.984 17.984 0 0 0-3.478-5.665l-75.34-82.741a17.944 17.944 0 0 1 3.478 5.665l50.905 132.094 75.34 82.741z" fill="#808285"/><path d="M349.198 252.873a1.25 1.25 0 0 1-.925-.408l-75.339-82.741a1.272 1.272 0 0 1-.242-.392L221.787 37.239a16.735 16.735 0 0 0-3.236-5.273 1.25 1.25 0 1 1 1.849-1.683l75.339 82.741a19.208 19.208 0 0 1 3.72 6.057l50.905 132.094a1.25 1.25 0 0 1-1.166 1.699zm-74.258-84.659 70.694 77.639-48.508-125.874a16.735 16.735 0 0 0-3.236-5.273l-68.607-75.347 49.656 128.854z" fill="#23231F"/><path d="m259.873 199.541 75.339 82.741-144.118 72.251-75.339-82.741z" fill="#414042"/><path d="M191.095 355.783c-.344 0-.682-.142-.925-.408l-75.339-82.741a1.253 1.253 0 0 1 .364-1.959l144.118-72.252a1.25 1.25 0 0 1 1.484.276l75.339 82.741a1.253 1.253 0 0 1-.364 1.959l-144.118 72.252c-.178.089-.37.133-.56.133zM117.79 272.17l73.591 80.821 141.797-71.088-73.591-80.821z" fill="#23231F"/><path d="m273.858 168.882 75.339 82.741c4.218 10.946-2.043 24.671-13.985 30.658l-75.339-82.741c11.942-5.987 18.203-19.713 13.985-30.658z" fill="#6d6e71"/><path d="M335.213 283.531c-.344 0-.682-.142-.925-.408l-75.34-82.741a1.253 1.253 0 0 1 .364-1.959c11.364-5.697 17.365-18.747 13.379-29.092a1.25 1.25 0 0 1 2.091-1.291l75.339 82.741c.104.115.187.247.242.392 4.436 11.511-2.109 25.968-14.592 32.225-.178.089-.37.133-.56.133zm-73.337-83.648 73.612 80.843c10.743-5.863 16.351-18.387 12.625-28.439l-71.862-78.922c1.221 9.958-4.505 20.859-14.375 26.518z" fill="#23231F"/><path d="M273.858 168.882c4.218 10.946-2.043 24.671-13.985 30.658l-144.118 72.252c-11.942 5.987-25.022 1.958-29.24-8.988L35.61 130.711c-4.211-10.928 2.03-24.644 13.972-30.631L193.7 27.828c11.942-5.987 25.042-1.968 29.253 8.96l50.905 132.093z" fill="#F6FFBF"/><g fill="#23231F"><path d="M104.452 275.809c-2.769 0-5.471-.48-7.978-1.45-5.189-2.007-9.14-5.951-11.126-11.105L34.443 131.161c-4.432-11.502 2.107-25.945 14.578-32.198L193.14 26.711c6.537-3.278 13.78-3.806 19.871-1.45 5.183 2.005 9.129 5.939 11.109 11.078l50.905 132.093c4.436 11.511-2.109 25.968-14.592 32.225l-144.118 72.252c-3.837 1.923-7.917 2.899-11.863 2.899zM205.016 26.307c-3.564 0-7.264.888-10.756 2.639L50.142 101.198c-11.353 5.692-17.349 18.73-13.366 29.064l50.905 132.093c1.729 4.488 5.173 7.923 9.695 9.672 5.424 2.099 11.919 1.606 17.818-1.352l144.118-72.252c11.364-5.697 17.365-18.747 13.379-29.092L221.786 37.238c-1.724-4.472-5.161-7.898-9.678-9.645-2.223-.86-4.625-1.286-7.093-1.286z"/><path d="M104.452 275.809c-2.769 0-5.471-.48-7.978-1.45-5.189-2.007-9.14-5.951-11.126-11.105L34.443 131.161c-4.432-11.502 2.107-25.945 14.578-32.198L193.14 26.711c6.537-3.278 13.78-3.806 19.871-1.45 5.183 2.005 9.129 5.939 11.109 11.078l50.905 132.093c4.436 11.511-2.109 25.968-14.592 32.225l-144.118 72.252c-3.837 1.923-7.917 2.899-11.863 2.899zM205.016 26.307c-3.564 0-7.264.888-10.756 2.639L50.142 101.198c-11.353 5.692-17.349 18.73-13.366 29.064l50.905 132.093c1.729 4.488 5.173 7.923 9.695 9.672 5.424 2.099 11.919 1.606 17.818-1.352l144.118-72.252c11.364-5.697 17.365-18.747 13.379-29.092L221.786 37.238c-1.724-4.472-5.161-7.898-9.678-9.645-2.223-.86-4.625-1.286-7.093-1.286z"/><path d="M145.259 149.208c-12.268 0-23.971-7.154-29.151-19.108-6.955-16.05.443-34.766 16.493-41.721 7.775-3.369 16.396-3.509 24.276-.394s14.075 9.113 17.445 16.887c6.955 16.05-.443 34.765-16.493 41.721a31.547 31.547 0 0 1-12.57 2.615zm-.051-60.961c-3.945 0-7.884.809-11.613 2.425-7.162 3.104-12.687 8.811-15.556 16.07s-2.741 15.201.363 22.363c6.407 14.785 23.648 21.601 38.433 15.193 14.785-6.407 21.6-23.648 15.193-38.433-3.104-7.162-8.811-12.687-16.07-15.556a29.194 29.194 0 0 0-10.75-2.062zm-19.77 142.382a1.248 1.248 0 0 1-1.147-.753c-12.894-29.754.822-64.45 30.576-77.345l9.32-4.039.497 1.147-.497-1.147c14.413-6.246 30.396-6.506 45.005-.731 14.608 5.775 26.094 16.893 32.34 31.307a1.248 1.248 0 0 1-.649 1.644l-114.947 49.814a1.243 1.243 0 0 1-.497.103zm62.121-84.516c-7.602 0-15.193 1.56-22.378 4.673l-9.32 4.039c-28.106 12.18-41.268 44.677-29.761 72.904l112.628-48.809c-6.084-13.245-16.857-23.458-30.456-28.834-6.705-2.651-13.714-3.974-20.714-3.974zm-34.577 507.93 22.802-16.489c-4.648 3.361-8.511 7.594-11.509 12.462-3.002 4.874-5.136 10.385-6.322 16.293-1.187 5.914-1.423 12.224-.628 18.691.796 6.471 2.623 13.096 5.562 19.634l-22.833 16.099c-2.916-6.493-4.725-13.074-5.508-19.504-.782-6.426-.538-12.698.651-18.577 1.188-5.874 3.32-11.354 6.314-16.203 2.991-4.844 6.841-9.057 11.471-12.405z"/></g><path d="m139.535 722.629-.621-1.384c-2.904-6.467-4.791-13.151-5.608-19.865-.791-6.496-.567-12.881.667-18.976 1.223-6.044 3.401-11.633 6.475-16.612 3.129-5.067 7.099-9.361 11.802-12.762l22.802-16.489 1.465 2.026-.023.017c-4.444 3.218-8.196 7.285-11.154 12.088-2.926 4.751-4.999 10.095-6.161 15.883-1.178 5.867-1.384 12.022-.613 18.293.8 6.508 2.638 12.992 5.462 19.274l.423.94-24.915 17.567zm13.447-68.586.732 1.013c-4.436 3.208-8.184 7.262-11.14 12.049-2.919 4.727-4.989 10.041-6.152 15.794-1.18 5.833-1.394 11.949-.635 18.178.728 5.985 2.342 11.949 4.8 17.75l20.744-14.626c-2.692-6.216-4.456-12.619-5.246-19.05-.804-6.537-.587-12.96.643-19.09 1.22-6.079 3.401-11.698 6.483-16.702.468-.76.955-1.503 1.461-2.228l-10.957 7.923-.732-1.013z" fill="#F7FF71"/><path d="M326.743 583.036c4.009-1.397 8.21-2.182 12.501-2.377 4.287-.195 8.663.199 13.027 1.156 4.36.957 8.708 2.478 12.941 4.539 4.231 2.06 8.348 4.66 12.25 7.778 3.903 3.122 8.017 5.721 12.239 7.777 4.219 2.054 8.545 3.565 12.875 4.511 4.326.945 8.655 1.325 12.884 1.12s8.35-.995 12.272-2.391l243.258-86.556c5.877-2.091 12.127-2.648 18.396-1.866 6.261.781 12.544 2.897 18.496 6.154 5.947 3.254 11.567 7.649 16.511 12.992a71.59 71.59 0 0 1 12.454 18.687l163.571 355.623-542.723 227.787-154.082-342.747-40.725-90.59c-3.464-7.705-5.384-15.532-5.89-23.084-.506-7.546.401-14.814 2.587-21.412 2.183-6.59 5.643-12.508 10.246-17.367 4.596-4.851 10.331-8.645 17.074-10.995l139.839-48.741z" fill="#F7FF71"/><path d="M357.694 1139.222a1.25 1.25 0 0 1-1.141-.738L161.747 705.147c-3.448-7.669-5.466-15.58-5.997-23.513-.514-7.671.377-15.036 2.647-21.889 2.273-6.862 5.814-12.862 10.525-17.833 4.873-5.143 10.784-8.95 17.57-11.316l139.839-48.741c4.073-1.42 8.398-2.242 12.855-2.445 4.375-.199 8.867.2 13.351 1.184 4.469.981 8.917 2.541 13.22 4.636 4.356 2.121 8.556 4.787 12.483 7.925 3.784 3.026 7.823 5.593 12.006 7.63 4.11 2.001 8.347 3.486 12.594 4.414 4.231.924 8.456 1.292 12.557 1.093 4.145-.201 8.153-.982 11.913-2.32l243.258-86.557c5.931-2.11 12.314-2.759 18.97-1.928 6.387.797 12.76 2.916 18.941 6.298 6.154 3.368 11.816 7.822 16.828 13.24a72.631 72.631 0 0 1 12.672 19.013L901.55 909.661a1.248 1.248 0 0 1-.652 1.675l-542.723 227.788a1.252 1.252 0 0 1-.483.098zm-30.951-556.186.411 1.18-139.839 48.741c-6.405 2.232-11.983 5.824-16.578 10.674-4.456 4.704-7.809 10.39-9.967 16.9-2.168 6.544-3.018 13.588-2.526 20.936.512 7.635 2.457 15.258 5.783 22.655l194.306 432.226L898.74 909.532 735.709 555.084a70.121 70.121 0 0 0-12.236-18.36c-4.828-5.219-10.277-9.507-16.193-12.744-5.904-3.231-11.977-5.253-18.051-6.01-6.267-.782-12.262-.175-17.823 1.803L428.148 606.33c-3.991 1.42-8.24 2.248-12.63 2.461-4.319.211-8.765-.176-13.211-1.147-4.441-.97-8.867-2.521-13.155-4.608-4.349-2.117-8.545-4.784-12.472-7.925-3.783-3.023-7.827-5.59-12.017-7.63-4.125-2.009-8.386-3.503-12.662-4.442-4.272-.938-8.546-1.318-12.702-1.129-4.215.192-8.302.968-12.146 2.308l-.411-1.18z" fill="#F7FF71"/><path d="m568.728 136.342-42.881 211.616c-3.34 16.481-12.969 28.237-21.66 26.632l417.195 77.049c8.691 1.605 18.32-10.15 21.66-26.632l42.881-211.616z" fill="#e6e7e8"/><path d="M922.988 453.036c-.613 0-1.224-.055-1.833-.167L503.959 375.82l.454-2.458c7.981 1.475 17.043-10.033 20.208-25.651l43.125-212.82L987.4 212.394l-43.134 212.863c-3.267 16.124-12.366 27.78-21.279 27.78zm-411.805-78.425 410.426 75.799c7.979 1.473 17.043-10.034 20.208-25.651l42.629-210.369-414.736-76.595-42.638 210.412c-2.605 12.857-8.919 22.873-15.889 26.404z" fill="#23231F"/><path d="M921.046 451.418c-9.537-2.378-14.299-19.092-10.621-37.242l9.641-47.578c3.41-16.828-.997-32.297-9.818-34.496L493.366 255.11c8.821 2.199 13.228 17.668 9.817 34.496l-9.641 47.578c-3.678 18.15 1.084 34.864 10.621 37.242.192.048.384.09.577.125l416.881 76.991a9.877 9.877 0 0 1-.576-.125z" fill="#F6FFBF"/><path d="M921.624 452.793c-.075 0-.152-.007-.229-.021s-.007-.001-.01-.002l-416.87-76.989c-.218-.04-.437-.088-.653-.142-10.175-2.537-15.354-19.899-11.543-38.703l9.641-47.578c3.222-15.901-.851-31.03-8.895-33.035a1.25 1.25 0 0 1 .53-2.442l416.882 76.992c9.698 2.415 14.416 18.21 10.816 35.974l-9.641 47.578c-3.488 17.214.952 33.598 9.697 35.78.168.042.336.078.504.109a1.25 1.25 0 0 1-.227 2.48zM499.458 257.506c5.556 6.114 7.728 18.645 4.951 32.349l-9.641 47.578c-3.489 17.215.953 33.6 9.699 35.781.167.042.334.078.502.109l409.9 75.702c-6.125-6.53-8.653-20.371-5.669-35.097l9.641-47.578c3.222-15.901-.852-31.029-8.896-33.035l-410.487-75.808z" fill="#23231F"/><path d="m798.809 783.642-417.195-77.05-1.296-.323 417.196 77.05z" fill="#e6e7e8"/><path d="m798.582 784.871-417.195-77.049-1.371-.34.529-2.442 417.196 77.049 1.371.34z" fill="#23231F"/><path d="M489.494 254.251c-9.397-1.736-19.802 10.967-23.412 28.787L380.319 706.27l417.195 77.049 85.763-423.232c3.611-17.82 14.016-30.522 23.412-28.787z" fill="#e6e7e8"/><path d="M797.515 784.569c-.075 0-.152-.007-.228-.021l-417.195-77.05a1.25 1.25 0 0 1-.998-1.478l85.763-423.232c3.763-18.573 14.687-31.647 24.865-29.768l417.179 77.047.016.003a1.249 1.249 0 1 1-.454 2.458c-8.679-1.602-18.529 10.871-21.96 27.806L798.74 783.566a1.25 1.25 0 0 1-1.224 1.002zm-415.719-79.298 414.737 76.595 85.519-422.028c2.844-14.035 9.778-24.931 17.388-28.606L489.267 255.48c-8.675-1.604-18.529 10.871-21.96 27.806l-85.51 421.985z" fill="#23231F"/><path d="M775.789 407.42c-8.142-1.627-13.862 5.506-19.399 12.422-5.343 6.647-10.393 12.929-17.468 11.515s-9.138-9.118-11.318-17.268c-2.249-8.473-4.578-17.215-12.72-18.842-8.124-1.624-13.862 5.506-19.399 12.422-5.324 6.651-10.374 12.933-17.449 11.518-7.093-1.418-9.137-9.118-11.318-17.268-2.249-8.473-4.577-17.215-12.719-18.842-8.124-1.624-13.862 5.506-19.399 12.422-5.324 6.651-10.375 12.933-17.449 11.518s-9.137-9.118-11.318-17.268c-2.249-8.473-4.578-17.215-12.72-18.842s-13.862 5.506-19.398 12.423c-5.325 6.65-10.375 12.933-17.449 11.518-7.094-1.418-9.138-9.118-11.3-17.265-2.268-8.476-4.596-17.218-12.72-18.842l-.646 3.025c7.076 1.414 9.124 9.086 11.306 17.235 2.249 8.473 4.577 17.216 12.719 18.843s13.862-5.508 19.399-12.424c5.323-6.649 10.367-12.903 17.442-11.489 7.094 1.418 9.144 9.09 11.326 17.239 2.248 8.472 4.576 17.216 12.718 18.843s13.862-5.508 19.399-12.424c5.323-6.649 10.367-12.903 17.443-11.489 7.093 1.418 9.143 9.09 11.325 17.239 2.249 8.473 4.577 17.216 12.718 18.843s13.862-5.508 19.399-12.424c5.324-6.649 10.368-12.903 17.443-11.489 7.094 1.418 9.143 9.09 11.325 17.239 2.249 8.473 4.577 17.216 12.719 18.843s13.862-5.508 19.398-12.424c5.343-6.645 10.368-12.903 17.462-11.485 7.093 1.418 9.143 9.09 11.325 17.239 2.249 8.473 4.596 17.22 12.738 18.847l.64-2.997c-7.094-1.418-9.156-9.122-11.318-17.268-2.269-8.477-4.596-17.218-12.738-18.846m-11.996 56.162c-8.142-1.627-13.862 5.506-19.399 12.422-5.343 6.645-10.393 12.927-17.467 11.513-7.094-1.418-9.138-9.118-11.319-17.267-2.249-8.473-4.578-17.215-12.72-18.842-8.124-1.624-13.862 5.506-19.399 12.422-5.323 6.649-10.373 12.931-17.449 11.517-7.093-1.418-9.137-9.118-11.319-17.267-2.249-8.473-4.577-17.215-12.719-18.842s-13.862 5.506-19.399 12.422c-5.323 6.649-10.374 12.931-17.449 11.517s-9.137-9.118-11.319-17.267c-2.249-8.473-4.578-17.215-12.72-18.842s-13.862 5.506-19.398 12.423c-5.324 6.649-10.374 12.931-17.449 11.517-7.094-1.418-9.138-9.118-11.3-17.263-2.268-8.476-4.596-17.218-12.72-18.842l-.646 3.023c7.076 1.414 9.124 9.088 11.306 17.237 2.249 8.473 4.578 17.215 12.72 18.842s13.862-5.506 19.399-12.422c5.323-6.649 10.368-12.905 17.442-11.491 7.094 1.418 9.143 9.092 11.325 17.241 2.248 8.472 4.577 17.215 12.719 18.842s13.862-5.506 19.399-12.422c5.323-6.649 10.368-12.905 17.443-11.491s9.142 9.091 11.324 17.24c2.249 8.473 4.578 17.215 12.719 18.842 8.142 1.627 13.862-5.506 19.399-12.422 5.324-6.649 10.369-12.905 17.443-11.491 7.094 1.418 9.142 9.091 11.324 17.24 2.249 8.473 4.578 17.215 12.72 18.842s13.862-5.506 19.398-12.423c5.343-6.645 10.369-12.905 17.463-11.487 7.093 1.418 9.142 9.091 11.324 17.24 2.249 8.473 4.596 17.218 12.738 18.846l.64-2.997c-7.094-1.418-9.156-9.122-11.319-17.267-2.269-8.477-4.596-17.218-12.738-18.846m-11.995 56.16c-8.142-1.627-13.862 5.506-19.399 12.422-5.343 6.647-10.393 12.929-17.468 11.515-7.094-1.418-9.138-9.118-11.318-17.268-2.249-8.473-4.578-17.215-12.72-18.842-8.124-1.624-13.862 5.506-19.399 12.422-5.324 6.651-10.374 12.933-17.449 11.518-7.093-1.418-9.137-9.118-11.318-17.268-2.249-8.473-4.577-17.215-12.719-18.842s-13.862 5.506-19.399 12.422c-5.324 6.651-10.375 12.933-17.449 11.518-7.094-1.418-9.137-9.118-11.318-17.268-2.249-8.473-4.578-17.215-12.72-18.842s-13.862 5.506-19.398 12.423c-5.325 6.65-10.375 12.933-17.449 11.518-7.094-1.418-9.138-9.118-11.3-17.265-2.268-8.476-4.596-17.218-12.72-18.842l-.646 3.025c7.076 1.414 9.124 9.086 11.306 17.235 2.249 8.474 4.577 17.216 12.719 18.843s13.862-5.506 19.399-12.424c5.323-6.649 10.367-12.903 17.442-11.489 7.094 1.418 9.144 9.09 11.326 17.239 2.248 8.474 4.576 17.216 12.718 18.843s13.862-5.506 19.399-12.424c5.323-6.649 10.367-12.903 17.443-11.489s9.143 9.09 11.325 17.239c2.249 8.474 4.577 17.216 12.718 18.843 8.142 1.627 13.862-5.506 19.399-12.424 5.324-6.649 10.368-12.903 17.443-11.489 7.094 1.418 9.143 9.09 11.325 17.239 2.249 8.474 4.577 17.216 12.719 18.843s13.862-5.506 19.398-12.424c5.343-6.645 10.368-12.903 17.462-11.485s9.143 9.09 11.325 17.239c2.249 8.474 4.596 17.22 12.738 18.847l.64-2.997c-7.094-1.418-9.156-9.122-11.318-17.268-2.269-8.477-4.596-17.218-12.738-18.846m-11.997 56.161c-8.142-1.627-13.862 5.506-19.399 12.422-5.343 6.645-10.393 12.927-17.467 11.513-7.094-1.418-9.138-9.118-11.319-17.267-2.249-8.473-4.578-17.215-12.72-18.842-8.124-1.624-13.862 5.506-19.399 12.422-5.323 6.649-10.373 12.931-17.449 11.517-7.093-1.418-9.137-9.118-11.319-17.267-2.249-8.473-4.577-17.215-12.719-18.842-8.124-1.624-13.862 5.506-19.399 12.422-5.323 6.649-10.374 12.931-17.449 11.517-7.094-1.418-9.137-9.118-11.319-17.267-2.249-8.473-4.578-17.215-12.72-18.842s-13.862 5.506-19.398 12.423c-5.324 6.649-10.374 12.931-17.449 11.517-7.094-1.418-9.138-9.118-11.3-17.263-2.268-8.476-4.596-17.218-12.72-18.842l-.646 3.023c7.076 1.414 9.124 9.088 11.306 17.237 2.249 8.473 4.578 17.215 12.72 18.842s13.862-5.506 19.399-12.422c5.323-6.649 10.368-12.905 17.442-11.491 7.094 1.418 9.143 9.092 11.325 17.241 2.248 8.472 4.577 17.215 12.719 18.842s13.862-5.506 19.399-12.422c5.323-6.649 10.368-12.905 17.443-11.491s9.142 9.091 11.324 17.24c2.249 8.473 4.578 17.215 12.719 18.842s13.862-5.506 19.399-12.422c5.324-6.649 10.369-12.905 17.443-11.491 7.094 1.418 9.142 9.091 11.324 17.24 2.249 8.473 4.578 17.215 12.72 18.842s13.862-5.506 19.398-12.423c5.343-6.645 10.369-12.905 17.463-11.487s9.142 9.091 11.324 17.24c2.249 8.473 4.596 17.218 12.738 18.846l.64-2.997c-7.094-1.418-9.156-9.122-11.319-17.267-2.269-8.477-4.596-17.218-12.738-18.846m-11.994 56.16c-8.142-1.627-13.862 5.506-19.399 12.424-5.343 6.645-10.393 12.927-17.467 11.513-7.094-1.418-9.138-9.118-11.319-17.267-2.249-8.474-4.577-17.216-12.719-18.843-8.124-1.624-13.862 5.506-19.399 12.424-5.323 6.649-10.373 12.931-17.449 11.517-7.093-1.418-9.137-9.118-11.319-17.267-2.249-8.474-4.576-17.216-12.718-18.843-8.124-1.624-13.862 5.506-19.399 12.424-5.323 6.649-10.374 12.931-17.449 11.517-7.094-1.418-9.137-9.118-11.319-17.267-2.249-8.474-4.577-17.216-12.719-18.843s-13.862 5.506-19.398 12.424c-5.324 6.649-10.374 12.931-17.449 11.517-7.094-1.418-9.138-9.118-11.3-17.263-2.267-8.478-4.596-17.22-12.719-18.843l-.646 3.025c7.076 1.414 9.124 9.086 11.306 17.237 2.249 8.473 4.578 17.215 12.72 18.842s13.862-5.506 19.399-12.422c5.324-6.651 10.368-12.905 17.442-11.491 7.094 1.418 9.144 9.09 11.325 17.241 2.248 8.472 4.577 17.215 12.719 18.842s13.862-5.506 19.399-12.422c5.324-6.651 10.368-12.905 17.443-11.491 7.093 1.418 9.143 9.09 11.324 17.24 2.249 8.473 4.578 17.215 12.719 18.842 8.142 1.627 13.862-5.506 19.399-12.422 5.325-6.65 10.369-12.905 17.443-11.491 7.094 1.418 9.143 9.09 11.324 17.24 2.249 8.473 4.578 17.215 12.72 18.842s13.862-5.506 19.398-12.423c5.343-6.647 10.369-12.905 17.463-11.487 7.093 1.418 9.143 9.09 11.324 17.24 2.249 8.473 4.596 17.218 12.738 18.846l.64-2.997c-7.094-1.418-9.156-9.122-11.319-17.267-2.268-8.478-4.596-17.22-12.738-18.847" fill="#F6FFBF"/><path d="M242.006 174.271a436.697 436.697 0 0 1 4.389-7.428 149.328 149.328 0 0 0-4.389 7.428z" fill="none"/><g fill="#a7a9ac" opacity=".5"><path d="m676.721 394.009-38.295 68.496c-24.008 42.942-69.381 73.889-130.071 82.418C392.082 557.5 257.082 478.75 210.042 374.336c-22.285-54.6-19.069-107.404 4.169-148.968l38.295-68.496c-23.237 41.564-26.454 94.368-4.169 148.968 45.3 110.988 178.858 187.376 298.313 170.587 60.69-8.529 106.063-39.477 130.071-82.418z"/><g clip-path="url(#c)"><path d="m680.9 245.047-38.295 68.496c45.3 110.988-14.814 214.594-134.249 231.38l38.295-68.496C666.086 459.641 726.2 356.035 680.9 245.047zm-36.295 188.597L606.31 502.14m-59.659-25.713-38.295 68.496c-119.456 16.788-253.013-59.6-298.313-170.587l38.295-68.496c45.3 110.988 178.858 187.376 298.313 170.587zm-120.365-12.101-38.295 68.497m-68.725-129.698-38.295 68.496"/><path d="m248.337 305.84-38.295 68.496c-45.307-111.006 14.794-214.591 134.249-231.38l38.295-68.496C263.13 91.248 203.029 194.834 248.337 305.84zm-11.876-105.593-38.295 68.497"/><path d="m676.721 394.009-38.295 68.496c-24.008 42.942-69.381 73.889-130.071 82.418-119.456 16.788-253.013-59.6-298.313-170.587-22.285-54.6-19.069-107.404 4.169-148.968l38.295-68.496c-23.237 41.564-26.454 94.368-4.169 148.968 45.3 110.988 178.858 187.376 298.313 170.587 60.69-8.529 106.063-39.477 130.071-82.418z"/></g></g><path d="m667.744 411.453-19.147 34.248c23.327-41.724 26.604-94.703 4.286-149.383C607.5 185.126 473.231 108.346 353.595 125.16c-60.804 8.545-106.313 39.64-130.415 82.751l19.147-34.248c24.102-43.111 69.611-74.206 130.415-82.751C492.378 74.098 626.646 150.878 672.03 262.07c22.318 54.68 19.041 107.659-4.286 149.383z" fill="#23231F"/><path d="m649.688 446.311-2.182-1.22c24.135-43.168 25.633-95.836 4.22-148.301-45.181-110.695-178.843-187.133-297.957-170.393-58.497 8.221-104.487 37.386-129.498 82.123l-2.182-1.22 19.147-34.248c12.334-22.062 29.781-40.492 51.857-54.777 22.833-14.776 49.573-24.399 79.476-28.602 120.175-16.89 255.033 60.235 300.619 171.924 21.707 53.183 20.161 106.62-4.352 150.465l-1.091-.61 1.091.61-19.147 34.248zM387.076 121.6c110.714 0 225.596 72.89 266.964 174.245 17.699 43.364 19.939 86.897 6.875 125.261l5.738-10.264c24.135-43.168 25.633-95.836 4.22-148.301C625.692 151.846 492.03 75.409 372.916 92.148c-58.497 8.221-104.487 37.386-129.498 82.123l-5.746 10.277c10.15-12.253 22.282-22.972 36.273-32.026 22.834-14.776 49.573-24.399 79.476-28.602 11.12-1.563 22.366-2.321 33.655-2.321z" fill="#F7FF71"/><path d="M246.395 166.843c24.966-39.553 68.801-67.844 126.347-75.932 119.636-16.814 253.904 59.966 299.288 171.158 20.005 49.015 19.435 96.658 2.302 136.058 32.958-62.256 25.114-125.973-6.323-180.417-55.233-86.219-160.881-144.995-263.58-145.82-11.23.617-22.327 2.079-33.19 4.467-65.642 12.383-97.902 45.882-124.843 90.486z" fill="#58595b"/><g opacity=".5"><path d="M344.292 142.957c119.435-16.786 253.006 59.581 298.313 170.587 45.3 110.988-14.147 220.33-134.249 231.38-102.731 9.452-253.013-59.6-298.313-170.587-45.307-111.006 12.245-218.336 134.249-231.38z" fill="#fff"/><g clip-path="url(#d)"><ellipse cx="426.324" cy="343.94" fill="#fff" rx="189.146" ry="243" transform="matrix(.48799677 -.87284543 .87284543 .48799677 -81.926 548.215)"/></g></g><path d="M679.614 391.673c12.678-30.825 19.35-63.593 14.696-97.51-14.295-104.194-108.456-185.743-205.9-212.612-48.001-13.236-100.546-14.193-147.697 3.101-64.125 23.519-95.293 84.928-126.588 140.868-24.883 44.436-23.951 101.238-3.961 149.003 2.801-20.957 9.147-41.254 9.815-62.49.729-23.189-4.187-46.097 1.956-68.973 4.509-16.792 7.419-37.75 18.186-51.506 30.451-38.898 91.33-50.975 138.051-50.911 80.776.111 161.003 37.966 215.504 97.054 46.085 49.964 85.266 133.415 54.074 200.701-9.858 21.265-26.345 39.278-48.417 47.983-32.493 12.815-59.608 32.301-86.656 55.604 8.443-7.273 39.19-7.985 51.236-13.391 17.692-7.941 33.748-19.154 47.728-32.557 29.441-28.225 52.564-66.899 67.973-104.365zM224.533 209.43c-.221.298-.439.598-.658.897.219-.3.437-.599.658-.897zm5.737-7.264c-.237.283-.472.567-.708.851.236-.284.471-.569.708-.851zm-10.995 14.84c-.203.312-.403.625-.604.939.2-.314.401-.626.604-.939zm16.45-20.975c.251-.267.499-.535.752-.8-.253.265-.501.533-.752.8zm408.25 255.478zm1.806-4.136zm1.682-4.194zm1.556-4.25c.257-.734.505-1.472.751-2.211-.142.427-.272.859-.417 1.284-.107.311-.225.617-.333.928zm1.728-5.216c-.093.302-.197.599-.292.9.234-.741.459-1.486.682-2.232-.132.443-.254.891-.39 1.332zm1.016-3.47zm-9.719 25.349c.339-.69.673-1.384 1.002-2.079-.168.356-.326.716-.496 1.07-.164.339-.34.671-.506 1.009zm-2.05 4.012z" fill="#F7FF71" opacity=".5"/><path d="m685.194 421.206-19.147 34.248c-26.079 46.646-75.316 80.292-141.097 89.537-129.469 18.196-274.758-64.886-323.856-185.179-24.152-59.174-20.608-116.505 4.635-161.656l19.147-34.248c-25.243 45.151-28.787 102.481-4.635 161.656 49.098 120.292 194.387 203.374 323.856 185.179 65.78-9.245 115.018-42.891 141.097-89.537z" fill="#FBFF84"/><path d="M488.71 548.74c-119.767 0-244.03-78.832-288.773-188.455-23.479-57.525-21.809-115.32 4.701-162.738l19.147-34.248a1.25 1.25 0 1 1 2.182 1.22c-26.132 46.741-27.754 103.767-4.569 160.573 48.9 119.807 193.585 202.533 322.524 184.413 63.317-8.899 113.1-40.474 140.18-88.909a1.25 1.25 0 1 1 2.182 1.22l-19.147 34.248c-13.338 23.856-32.203 43.785-56.072 59.233-24.692 15.98-53.606 26.387-85.941 30.932-12.029 1.691-24.202 2.511-36.414 2.511zM212.019 189.467l-5.199 9.299c-26.132 46.741-27.754 103.767-4.569 160.573 48.9 119.807 193.586 202.533 322.524 184.413 63.317-8.898 113.1-40.474 140.18-88.909l5.205-9.31c-11.121 13.618-24.484 25.507-39.948 35.515-24.692 15.98-53.606 26.387-85.941 30.932-130.005 18.271-275.882-65.143-325.187-185.944-19.312-47.315-21.609-94.813-7.065-136.569z" fill="#23231F"/><path d="M689.834 259.567c-5.933-14.536-13.281-28.521-21.825-41.857 31.437 54.445 39.282 118.161 6.323 180.417a149.119 149.119 0 0 1-14.02 25.232c-25.439 36.88-67.93 63.105-122.966 70.84-119.656 16.816-253.924-59.964-299.3-171.137-22.214-54.427-19.064-107.157 3.961-148.791a149.328 149.328 0 0 1 4.389-7.428c26.941-44.604 59.201-78.104 124.843-90.486 10.862-2.387 21.96-3.85 33.19-4.467-12.894-.104-25.743.693-38.439 2.477-101.368 14.247-163.445 86.422-162.05 174.827.387 24.506 5.644 50.258 16.302 76.37 49.097 120.292 194.387 203.374 323.856 185.179 29.681-4.171 55.981-13.323 78.319-26.383 75.082-43.899 105.257-132.082 67.417-224.793z" fill="#23231F"/><path d="M507.857 514.491c-119.767.003-244.03-78.832-288.773-188.455-10.479-25.674-15.995-51.521-16.394-76.823-.699-44.304 14.105-84.445 42.813-116.083 29.32-32.312 70.923-53.061 120.313-60.002 12.502-1.757 25.497-2.595 38.623-2.489l.058 2.498c-11.315.621-22.414 2.115-32.99 4.439-65.324 12.323-96.827 44.855-124.042 89.911a148.843 148.843 0 0 0-4.365 7.387c-23.816 43.063-25.2 95.522-3.898 147.714 45.177 110.685 178.847 187.113 297.969 170.372 52.565-7.387 95.932-32.358 122.112-70.312a148.387 148.387 0 0 0 13.903-25.021c30.015-56.703 27.777-120.347-6.26-179.294l2.135-1.299c8.709 13.595 16.088 27.745 21.93 42.059 18.429 45.153 21.428 90.641 8.674 131.546-12.475 40.006-38.968 72.787-76.617 94.799-23.114 13.514-49.618 22.443-78.776 26.541-12.029 1.691-24.202 2.511-36.414 2.511zM372.58 74.789c-2.152.245-4.291.517-6.416.815-97.705 13.732-162.395 83.484-160.974 173.57.395 24.99 5.848 50.532 16.209 75.917 44.372 108.714 167.626 186.897 286.406 186.904 12.12 0 24.179-.813 36.118-2.49 28.834-4.052 55.031-12.875 77.862-26.224 76.301-44.611 103.182-134.325 66.891-223.241a242.243 242.243 0 0 0-2.216-5.252c5.747 16.566 9.131 33.325 10.106 50.129 1.87 32.222-5.239 63.779-21.13 93.795a150.366 150.366 0 0 1-14.096 25.357c-26.582 38.537-70.556 63.883-123.821 71.368-11.121 1.563-22.374 2.321-33.664 2.321-110.723.003-225.603-72.879-266.968-174.224-21.594-52.906-20.164-106.131 4.025-149.869a150.662 150.662 0 0 1 4.426-7.49c15.647-25.906 30.514-43.689 48.191-57.64 21.056-16.617 46.399-27.545 77.477-33.407.523-.115 1.047-.228 1.573-.339z" fill="#23231F"/><g opacity=".5"><ellipse cx="464.619" cy="275.444" fill="#F7FF71" rx="189.146" ry="243" transform="matrix(.48799677 -.87284543 .87284543 .48799677 -2.532 546.57)"/><g clip-path="url(#e)"><ellipse cx="464.619" cy="275.444" fill="url(#f)" rx="189.146" ry="243" transform="matrix(.48799677 -.87284543 .87284543 .48799677 -2.532 546.57)"/></g></g><path d="M512.922 480.005c-48.137 0-98.13-13.72-143.856-39.87-56.584-32.359-99.87-79.884-121.885-133.822-21.967-53.821-20.148-107.666 5.122-151.615 25.49-44.331 71.697-73.266 130.111-81.475 58.039-8.157 121.165 5.169 177.749 37.524 56.589 32.358 99.879 79.885 121.895 133.828 21.964 53.812 20.141 107.655-5.132 151.609-25.493 44.336-71.697 73.273-130.1 81.481-11.139 1.565-22.472 2.34-33.903 2.34zM382.587 74.46l.174 1.238c-57.633 8.1-103.194 36.598-128.291 80.246-24.877 43.266-26.644 96.332-4.975 149.424 40.86 100.111 154.357 172.108 263.728 172.115 11.16 0 22.261-.748 33.254-2.293 57.623-8.099 103.181-36.599 128.281-80.252 24.88-43.271 26.651-96.335 4.985-149.418-45.03-110.326-178.254-186.508-296.982-169.822z" fill="#fff"/><path d="m931.564 576.438 31.43 27.757a16.662 16.662 0 0 0-4.955-3.008c-1.869-.737-3.946-1.2-6.213-1.371-2.269-.171-4.727-.048-7.354.386-2.63.435-5.429 1.183-8.377 2.262l-31.486-27.906c2.947-1.064 5.746-1.797 8.377-2.218 2.629-.421 5.091-.53 7.364-.346s4.355.658 6.231 1.406a16.972 16.972 0 0 1 4.982 3.038z" fill="#23231F"/><path d="M962.994 605.445c-.294 0-.589-.103-.827-.313l-.009-.008a15.459 15.459 0 0 0-4.577-2.774c-1.762-.695-3.729-1.127-5.848-1.287-2.19-.165-4.563-.039-7.056.373-2.584.427-5.326 1.169-8.151 2.203a1.252 1.252 0 0 1-1.259-.238l-31.486-27.906a1.252 1.252 0 0 1 .404-2.112c2.969-1.072 5.864-1.838 8.604-2.277 2.692-.43 5.269-.551 7.662-.358 2.373.191 4.591.693 6.594 1.49a18.237 18.237 0 0 1 5.346 3.262l31.426 27.753.004.003a1.25 1.25 0 0 1-.828 2.187zm-55.943-30.393 29.32 25.986c2.724-.957 5.377-1.652 7.898-2.069 2.689-.445 5.264-.579 7.652-.4 1.161.087 2.285.25 3.365.485l-24.549-21.679a15.733 15.733 0 0 0-4.617-2.813c-1.77-.705-3.745-1.15-5.869-1.321-2.194-.176-4.571-.064-7.067.335-1.966.314-4.021.81-6.134 1.477z" fill="#F7FF71"/><path d="m375.932 801.15-7.856 42.684-41.424 225.09L203.61 795.225l-40.724-90.59-22.833 16.099 40.4 89.965 147.313 328.045c3.287 7.319 10.971 11.63 18.93 10.621s52.018-274.813 52.018-274.813l8.082-42.7-30.865-30.701z" fill="#23231F"/><path d="M344.349 1150.763c-7.61 0-14.534-4.406-17.723-11.508l-187.713-418.01a1.25 1.25 0 0 1 .42-1.534l22.833-16.099a1.25 1.25 0 0 1 1.86.509l162.122 360.633 48.554-263.831a1.248 1.248 0 0 1 2.111-.66l30.865 30.701c.294.292.424.711.347 1.119l-60.101 317.513a1.252 1.252 0 0 1-1.071 1.008c-.84.107-1.677.159-2.505.159zM141.616 721.161l187.291 417.07c2.958 6.588 9.606 10.511 16.735 9.983l59.804-315.945-28.713-28.561-48.85 265.441a1.25 1.25 0 0 1-2.369.286L162.369 706.528l-20.752 14.632z" fill="#F7FF71"/><path d="M904.61 574.559 425.317 745.915l31.124 30.456 479.655-173.906z" fill="#23231F"/><path d="M456.441 777.621a1.25 1.25 0 0 1-.875-.357l-31.124-30.457a1.25 1.25 0 0 1 .453-2.071L904.188 573.38a1.25 1.25 0 0 1 1.25.241l31.486 27.906a1.251 1.251 0 0 1-.403 2.111L456.866 777.544a1.234 1.234 0 0 1-.426.075zm-28.822-31.202 29.135 28.51 476.94-172.922-29.36-26.021L427.619 746.42z" fill="#F7FF71"/><path d="m406.798 831.852-30.865-30.701c1.013-5.505 3.157-11.187 6.168-16.745 3.013-5.564 6.892-11 11.37-16.009 4.478-5.01 9.553-9.589 14.954-13.437 5.398-3.846 11.118-6.96 16.893-9.044l31.124 30.456c-5.78 2.115-11.513 5.259-16.927 9.134-5.417 3.877-10.512 8.481-15.014 13.514-4.501 5.032-8.407 10.487-11.448 16.064-3.038 5.572-5.212 11.262-6.254 16.77z" fill="#23231F"/><path d="M406.798 833.102c-.326 0-.644-.127-.882-.364l-30.865-30.701a1.253 1.253 0 0 1-.348-1.113c1.015-5.514 3.134-11.272 6.298-17.114 3.046-5.624 6.927-11.09 11.537-16.247 4.607-5.154 9.708-9.738 15.16-13.622 5.654-4.029 11.438-7.124 17.194-9.202a1.25 1.25 0 0 1 1.299.282l31.124 30.457a1.25 1.25 0 0 1-.445 2.067c-5.548 2.03-11.142 5.05-16.629 8.976-5.319 3.806-10.302 8.291-14.81 13.331-4.505 5.035-8.301 10.361-11.282 15.829-3.068 5.626-5.128 11.145-6.123 16.404a1.25 1.25 0 0 1-1.228 1.018zm-29.512-32.369 28.772 28.619c1.161-4.82 3.139-9.811 5.897-14.868 3.073-5.637 6.981-11.12 11.614-16.299 4.631-5.176 9.751-9.784 15.218-13.697 5.068-3.626 10.236-6.509 15.389-8.585l-29.168-28.542c-5.3 1.995-10.631 4.891-15.858 8.616-5.302 3.777-10.263 8.236-14.747 13.252-4.48 5.012-8.25 10.318-11.203 15.771-2.915 5.383-4.903 10.672-5.914 15.732z" fill="#F7FF71"/><path d="M936.096 602.465c6.014-2.202 11.407-3.024 16.007-2.626 4.591.397 8.392 2.007 11.236 4.67 2.838 2.657 4.722 6.362 5.488 10.955.765 4.583.416 10.052-1.211 16.249l-78.058 297.448-542.862 220.205 52.018-274.813 8.083-42.7c1.042-5.507 3.216-11.197 6.254-16.77 3.041-5.577 6.946-11.032 11.448-16.064s9.597-9.637 15.014-13.514c5.414-3.874 11.146-7.018 16.927-9.134l479.655-173.906z" fill="#23231F"/><path d="M346.697 1150.615a1.25 1.25 0 0 1-1.228-1.482L405.57 831.62c1.044-5.515 3.192-11.28 6.385-17.135 3.073-5.637 6.981-11.12 11.614-16.299 4.631-5.176 9.751-9.784 15.218-13.697 5.67-4.057 11.465-7.183 17.225-9.291L935.671 601.29c6.05-2.215 11.614-3.123 16.541-2.697 4.854.419 8.885 2.102 11.983 5.003 3.083 2.887 5.057 6.811 5.866 11.662.817 4.895.401 10.538-1.234 16.772l-78.058 297.447a1.25 1.25 0 0 1-.739.841l-542.863 220.205a1.241 1.241 0 0 1-.47.092zm603.099-549.624c-4.01 0-8.463.887-13.271 2.648l-.004.001-479.655 173.906c-5.544 2.029-11.139 5.049-16.625 8.975-5.319 3.806-10.302 8.291-14.81 13.331-4.505 5.035-8.301 10.361-11.282 15.829-3.068 5.626-5.128 11.145-6.123 16.404l-59.675 315.26 540.158-219.108 77.899-296.842c1.545-5.89 1.945-11.181 1.187-15.726-.717-4.297-2.436-7.745-5.11-10.249-2.678-2.508-6.208-3.967-10.489-4.337a25.52 25.52 0 0 0-2.199-.093zm-13.7 1.474h.01z" fill="#F7FF71"/><path d="M936.096 602.465c6.014-2.202 11.407-3.024 16.007-2.626 4.591.397 8.392 2.007 11.236 4.67 2.838 2.657 4.722 6.362 5.488 10.955.765 4.583.416 10.052-1.211 16.249l-78.058 297.448-542.862 220.205 52.018-274.813 8.083-42.7c1.042-5.507 3.216-11.197 6.254-16.77 3.041-5.577 6.946-11.032 11.448-16.064s9.597-9.637 15.014-13.514c5.414-3.874 11.146-7.018 16.927-9.134l479.655-173.906z" fill="#23231F"/><path d="M346.697 1150.615a1.25 1.25 0 0 1-1.228-1.482L405.57 831.62c1.044-5.515 3.192-11.28 6.385-17.135 3.073-5.637 6.981-11.12 11.614-16.299 4.631-5.176 9.751-9.784 15.218-13.697 5.67-4.057 11.465-7.183 17.225-9.291L935.671 601.29c6.05-2.215 11.614-3.123 16.541-2.697 4.854.419 8.885 2.102 11.983 5.003 3.083 2.887 5.057 6.811 5.866 11.662.817 4.895.401 10.538-1.234 16.772l-78.058 297.447a1.25 1.25 0 0 1-.739.841l-542.863 220.205a1.241 1.241 0 0 1-.47.092zm603.099-549.624c-4.01 0-8.463.887-13.271 2.648l-.004.001-479.655 173.906c-5.544 2.029-11.139 5.049-16.625 8.975-5.319 3.806-10.302 8.291-14.81 13.331-4.505 5.035-8.301 10.361-11.282 15.829-3.068 5.626-5.128 11.145-6.123 16.404l-59.675 315.26 540.158-219.108 77.899-296.842c1.545-5.89 1.945-11.181 1.187-15.726-.717-4.297-2.436-7.745-5.11-10.249-2.678-2.508-6.208-3.967-10.489-4.337a25.52 25.52 0 0 0-2.199-.093zm-13.7 1.474h.01z" fill="#F7FF71"/><path d="m822.439 505.285 63.418-38.412 60.139 88.417-39.458 73.638z" fill="#F7FF71"/><path d="M906.538 630.178c-.412 0-.8-.204-1.033-.547l-84.098-123.643a1.25 1.25 0 0 1 .386-1.772l63.417-38.413a1.249 1.249 0 0 1 1.681.366l60.139 88.418c.262.385.288.883.068 1.293l-39.458 73.637a1.251 1.251 0 0 1-1.102.66zm-82.323-124.506 82.197 120.847 38.126-71.151-59.047-86.811z" fill="#23231F"/><path d="m1057.259 487.404-117.69 221.523c-2.114 3.975-5.091 7.117-8.654 9.275l63.417-38.413c3.563-2.158 6.539-5.3 8.654-9.275l117.691-221.523z" fill="#F7FF71"/><path d="M930.916 719.453a1.25 1.25 0 0 1-.649-2.32c3.398-2.058 6.233-5.099 8.198-8.792l117.69-221.523c.106-.199.263-.366.456-.483l63.418-38.413a1.25 1.25 0 0 1 1.751 1.656l-117.691 221.523c-2.177 4.092-5.327 7.466-9.11 9.757l-63.417 38.413a1.242 1.242 0 0 1-.646.181zm127.285-231.158L940.672 709.514a26.77 26.77 0 0 1-1.21 2.05l54.222-32.843c3.398-2.058 6.233-5.099 8.198-8.793l115.563-217.517z" fill="#23231F"/><path d="m1003.692 446.076 63.418-38.412 53.566 41.328-63.417 38.412z" fill="#e6e7e8"/><path d="M1057.259 488.654c-.271 0-.54-.088-.764-.26l-53.567-41.328a1.248 1.248 0 0 1 .116-2.059l63.417-38.413a1.25 1.25 0 0 1 1.411.079l53.567 41.328a1.248 1.248 0 0 1-.116 2.059l-63.417 38.413c-.2.121-.424.181-.647.181zM1005.9 446.2l51.444 39.691 61.125-37.024-51.445-39.691-61.125 37.024z" fill="#23231F"/><path d="m1003.692 446.076 53.567 41.328-117.691 221.524c-4.613 8.672-13.33 13.381-23.284 12.551a35.653 35.653 0 0 1-2.555-.345c-9.07-1.599-17.84-7.583-23.797-16.352L776.714 538.318l45.725-33.032 84.098 123.642z" fill="#F7FF71"/><path d="M918.541 722.823c-.779 0-1.565-.033-2.36-.099a36.973 36.973 0 0 1-2.668-.36c-9.492-1.674-18.463-7.826-24.615-16.881L775.68 539.019a1.25 1.25 0 0 1 .302-1.716l45.725-33.032a1.249 1.249 0 0 1 1.765.31l82.933 121.929 96.182-181.022a1.248 1.248 0 0 1 1.867-.403l53.567 41.328a1.25 1.25 0 0 1 .34 1.576L940.67 709.512c-4.495 8.451-12.656 13.309-22.131 13.309zm-140.11-184.205 112.535 165.46c5.774 8.5 14.15 14.267 22.981 15.824.735.13 1.542.239 2.465.333 9.419.785 17.673-3.66 22.053-11.895l117.195-220.591-51.559-39.779-96.46 181.544a1.249 1.249 0 0 1-2.138.117l-83.375-122.579-43.698 31.567z" fill="#23231F"/><path d="m777.335 660.725 89.324-30.546-28.8 102.201z" fill="#23231F"/><path d="M660.311 423.359a149.119 149.119 0 0 0 14.02-25.232c-1.117 2.11-2.238 4.22-3.449 6.325-3.48 6.234-7.021 12.563-10.571 18.906z" fill="none"/><path d="m1057.259 487.404-117.69 221.523c-2.114 3.975-5.091 7.117-8.654 9.275l63.417-38.413c3.563-2.158 6.539-5.3 8.654-9.275l117.691-221.523z" fill="url(#b)" opacity=".3"/><path d="m822.439 505.285 63.418-38.412 60.279 88.623-39.598 73.432z" fill="url(#g)" opacity=".3"/><path d="m876.089 387.674-43.228 214.209-31.1 7.799-33.9-86.2 94.5-109.4z" fill="#e6e7e8"/><path d="m832.403 601.8 34.14-166.23 2.449.503-34.14 166.23z"/><path d="m889.896 473.462-29.662 82.243-24.943 45.167 24.666-119.94 25.9-14.059z" fill="url(#h)" opacity=".3"/><path d="m233.608 932.096 2.282-1.02 73.75 165-2.282 1.02z" fill="#F7FF71"/><path d="M257.329 807.487c28.428 22.274 25.824 62.922 7.286 78.796l-16.444-21.504c8.342-4.531 9.447-17.292-7.734-39.834l16.891-17.458z" fill="url(#i)" opacity=".3"/><path d="m585 505.625-60.05 39.366 49.425-11.866z" fill="url(#j)" opacity=".3"/><path d="m235.586 312.314-12.253 19.769-16.666 38.334L190 328.75l27.5-15z" fill="url(#k)" opacity=".3"/><g clip-path="url(#l)"><path d="M288.405 877.629c-.181-2.686-.503-6.265-.866-8.933-.399-2.933-1.146-6.81-1.674-9.723-.568-3.133-1.688-7.246-2.704-10.264-1.404-4.171-3.42-9.707-5.377-13.649-1.365-2.748-3.347-6.333-4.914-8.971-.997-1.678-2.533-3.784-3.624-5.403-1.797-2.667-4.676-5.872-6.799-8.288-1.172-1.334-2.915-2.944-4.17-4.199-2.167-2.166-4.48-3.937-8.679-7.152-.15-.115-3.752-2.856-9.956-6.186-2.933-1.574-7.033-3.301-10.109-4.582l-2.345-.892a154.585 154.585 0 0 0-4.256-1.442c-.633-.201-1.259-.415-1.9-.602a134.04 134.04 0 0 0-2.712-.82 64.17 64.17 0 0 0-5.627-1.324c-3.145-.576-7.364-1.221-10.545-1.55-2.596-.268-6.08-.466-8.69-.437-5.616.064-11.423.129-21.113 1.804-6.2 1.072-12.753 2.825-19.477 5.211-2.644.938-9.693 3.619-18.012 8.237-8.073 4.481-14.158 9.136-16.449 10.889-2.783 2.13-8.405 6.679-14.784 13.223-6.51 6.678-10.89 12.483-12.995 15.273-1.741 2.308-6.305 8.592-11.071 17.082-4.518 8.049-7.538 15.085-8.936 18.562-1.123 2.794-4.107 10.215-6.682 19.967-2.532 9.588-3.707 17.381-4.182 21.174-2.737 21.849-.829 36.721.293 45.12.602 4.505 3.149 20.486 10.674 36.998 1.058 2.321 2.535 5.39 3.796 7.607 1.846 3.245 4.449 7.495 6.549 10.582 2.819 4.144 7.789 10.108 11.117 13.356 3.344 3.263 7.925 7.733 15.463 12.67 2.361 1.546 5.608 3.462 8.122 4.745a81.997 81.997 0 0 0 3.199 1.523 80.514 80.514 0 0 0 6.263 2.706l2.349.893c2.15.783 7.185 2.617 12.562 3.775 2.467.531 8.243 1.775 15.408 2.248 2.638.174 8.126.536 16.135.066 9.288-.546 17.246-2.018 17.325-2.033 4.387-.819 17.737-3.312 36.977-11.34 8.493-3.544 15.35-7.327 17.603-8.57.031-.017 3.141-1.737 6.731-4.039 1.855-1.19 4.26-2.882 6.056-4.159.161-.119.639-.571.777-.712 3.135-3.192 4.104-10.317-.171-17.898-.032-.057-5.871-10.431-15.789-5.415.155-.079-.798.57-7.317 5.296-9.968 7.123-21.022 11.844-24.733 13.425-3.228 1.376-8.5 3.469-15.288 5.628-6.7 2.131-11.944 3.243-13.919 3.662-2.11.448-13.26 2.655-25.549 2.168-5.349-.212-9.217-.861-10.631-1.131-2.713-.516-4.39-.916-6.071-1.418a66.785 66.785 0 0 1-3.669-1.219c-4.199-1.754-7.031-3.485-7.606-3.848-1.428-.901-3.329-2.116-4.674-3.138-1.723-1.309-3.975-3.124-5.539-4.62-4.271-4.085-6.754-7.185-7.855-8.67-3.208-4.329-5.464-7.681-8.197-12.993-6.693-13.007-9.334-26.268-9.795-28.794-1.5-8.216-1.837-10.771-2.4-20.118-.44-7.305.162-16.858.168-16.942.495-6.175.852-10.637 2.454-18.885 1.751-9.015 3.846-15.414 4.74-18.147 5.294-16.176 12.749-28.428 15.709-32.946 7.28-11.111 14.755-19.567 22.821-26.646 8.761-7.688 17.999-13.63 28.244-18.166 14.968-6.627 27.9-7.485 32.15-7.767 3.451-.229 9.504-.044 12.455.38 6.657.957 8.483 1.461 13.047 3.022 1.045.418 3.09 1.324 3.09 1.324.296.136 2.503 1.268 4.639 2.486.027.015 2.738 1.581 5.903 4.105 6.442 5.138 10.273 10.582 11.909 12.907 1.791 2.545 5.468 8.616 7.892 15.232 1.072 2.926 3.582 9.778 5.002 19.839 1.479 10.483 1.094 19.709.941 22.287-.327 5.509-.426 7.172-1.08 12.139-.833 6.324-2.039 11.574-2.05 11.623-.992 4.175-1.848 7.78-2.904 10.923-2.251 6.702-2.855 8.503-5.688 14.662-1.313 2.855-3.657 7.077-4.536 8.421a140.361 140.361 0 0 1-4.806 6.862c-.715.951-1.815 2.101-2.607 2.988-1.564 1.752-3.797 3.64-5.994 5.039-.118-1.308-.155-2.914.002-4.963.195-2.546.678-6.007.91-7.67.505-3.619 1.097-7.224 1.641-10.837.063-.415 1.113-7.09 3.582-22.248.287-1.765.749-4.106.958-5.882.476-4.049 1.531-9.389 2.187-13.412-.008.048-.07.083-.101.125.031-.043.093-.077.101-.125l.821-5.058c.679-4.861.68-5.94.684-9.516.002-2.527-.433-5.409-.667-6.958-.519-3.438-2.108-8.83-4.487-13.127-1.375-2.482-2.516-4.231-3.941-6.035-2.303-2.918-4.376-4.814-5.161-5.494-1.143-.991-3.271-2.836-6.378-4.71-2.866-1.729-4.3-2.325-7.446-3.63l-2.355-.895c-2.688-.957-7.182-2.554-13.953-3.026-3.407-.237-8.557-.382-13.739.277a56.35 56.35 0 0 0-2.685.412c-.105.019-.208.052-.316.057-.197.01-.386.069-.577.104-2.251.411-6.42 1.175-11.515 2.677-4.986 1.47-8.063 2.794-10.31 3.76-8.16 3.51-14.696 8.593-17.272 11.043-2.019 1.921-4.581 4.62-6.428 6.707-.998 1.127-2.132 2.793-3.043 3.992-1.644 2.166-2.847 4.344-5.243 8.683-2.504 4.533-6.143 13.908-8.038 21.335-.475 1.861-1.146 4.335-1.534 6.217a417.696 417.696 0 0 0-2.525 13.504c-.597 3.549-.806 7.459-.945 10.047-.167 3.116-.001 8.051.187 10.08.484 5.226.696 7.155 1.944 12.945 1.31 6.076 4.068 13.587 6.862 18.691.915 1.672 2.619 4.783 5.043 8.036 2.88 3.865 5.312 6.243 6.224 7.086 2.296 2.122 4.279 3.954 8.223 6.49 19.139 12.309 50.384 10.674 67.551-4.543.02-.018 1.875-1.723 4.067-4.33 2.654 2.028 5.134 3.067 6.614 3.676l2.349.893c2.642.942 10.684 3.808 21.936-.458 8.609-3.264 14.847-9.331 18.527-13.47 3.806-4.282 6.608-8.651 6.633-8.691 1.846-2.977 4.179-7.026 5.845-10.107.88-1.628 1.915-3.873 2.637-5.577.744-1.758 1.74-4.101 2.423-5.883.703-1.834 1.537-4.317 2.196-6.168.675-1.897 1.369-4.494 1.953-6.421.728-2.405 2.423-9.451 3.136-13.593 1.558-9.046 1.847-11.397 2.483-21.593.309-4.946.228-11.575-.104-16.52zm-91.502 80.217c-2.865-1.089-4.985-.333-6.027 1.717.021-.041.03-.096.052-.137-.343.627-.723 1.233-1.052 1.868-.088.17-.357.687-.584 1.281-.061.16-.099.287-.15.432-4.343 7.706-10.228 9.385-18.308 10.743-3.923.659-9.699 1.609-13.546-.1-3.265-1.45-5.854-4.754-7.779-7.649-4.212-6.335-6.656-13.996-7.706-21.491-.875-6.248-.973-11.971-.307-18.008.013-.121 1.492-12.637 4.937-23.992 1.982-6.532 4.108-11.571 6.89-16.338 3.759-6.438 7.316-9.692 9.441-11.636 1.753-1.603 5.643-4.705 12.003-7.459.724-.314 3.376-1.419 7.08-2.466 2.592-.733 8.354-1.859 8.562-1.895 0 0 4.073-.603 7.984-.457 2.053.077 3.195.243 4.272.535 1.71.835 2.802 1.766 3.994 3.081 1.546 1.706 2.459 4.037 2.898 5.158.01.026 1.007 2.703 1.212 6.099.176 2.92.032 4.063-.394 7.457q-.033.203 0 0l-.821 5.061c-3.293 20.122-3.436 21.012-4.37 26.8-1.92 11.86-2.935 18.287-3.742 23.712-.481 3.229-.918 6.481-1.112 8.284-.289 2.686-.42 4.348-.43 7.095l.137 3.59c-.261-.124-.524-.292-.784-.39l-2.349-.893zm12.688-67.971c-.012-.027-.006-.049-.013-.075.007.026 0 .048.013.075z" fill="#161314"/><path d="M205.67 796.066c-78.805 5.967-106.928 71.994-118.937 100.189 7.899-69.406 89.706-117.055 128.558-100.781-2.887.162-6.738.373-9.621.591" fill="#23231F"/><path d="M205.617 795.41c-70.676 6.566-101.043 58.603-117.736 97.173 6.536-57.767 80.118-110.099 120.143-97.358-.722.056-1.686.118-2.407.185" fill="#3d3a3b"/><path d="M192.19 796.379c-65.007 13.779-89.836 64.569-101.768 88.977 3.796-42.018 67.923-97.289 103.963-89.606-.659.189-1.532.458-2.195.629" fill="#514e4e"/><path d="M177.877 799.254c-22.858 8.093-56.356 24.778-83.244 76.019-1.296-4.285 12.306-32.067 29.691-48.12 30.187-27.873 53.782-29.162 53.944-29.104.262.094.652.44.595.713-.068.323-.682.36-.985.492" fill="#696667"/><path d="M166.401 803.13c-.633.507-1.71.81-2.443 1.157-6.098 2.887-21.888 11.178-36.757 25.777-14.717 14.45-24.112 29.589-25.135 31.268-.949 1.557-2.097 4.112-3.811 4.736 19.182-43.024 51.685-58.874 69.352-64.493-.362.467-.745 1.187-1.207 1.556" fill="#7b7879"/><path d="M193.635 848.781c-.784.095-.933.108-1.333.154-51.283 5.943-52.948 48.855-52.764 49.265.106.236.484.53.732.457 1.355-.402 1.393-2.99 1.99-4.271 10.032-21.528 22.29-36.113 52.357-42.298 3.025-.712 10.177-1.231 12.2-1.839 1.753-.527-.266-1.169-13.182-1.468m78.917 90.737c-8.475 29.723-32.76 41.917-34.638 36.058-.224-.698.598-1.328 1.393-1.938 2.588-1.985 5.588-3.346 8.145-5.379 11.976-9.518 17.36-19.125 26.279-35.042-.332 1.894-.681 4.444-1.179 6.301" fill="#3d3a3b"/><path d="M271.723 939.235c-7.324 29.98-30.502 40.319-32.254 36.302-.131-.3.104-.765.236-1.065.255-.581 1.654-1.449 3.591-2.651 12.768-7.92 21.914-22.642 28.592-33.393-.049.242-.106.566-.165.806" fill="#514e4e"/><path d="M268.45 947.951c-2.96 7.549-7.967 15.362-13.068 20.391-8.776 8.653-14.735 7.096-14.768 7.054-.214-.27.052-.833.238-1.124.325-.507 1.159-.795 1.655-1.136.073-.05 7.546-5.275 12.807-11.056 5.481-6.022 9.615-13.078 14.826-19.308-.499 1.556-1.094 3.657-1.691 5.178" fill="#5e5b5c"/><path d="M268.024 947.669c-9.286 24.36-24.679 28.337-25.676 27.302-.241-.25-.026-.843.139-1.149.242-.451.938-.741 1.339-1.058 1.693-1.338 7.541-6.048 11.699-10.477 1.419-1.512 3.191-3.64 4.512-5.238 2.202-2.663 3.981-5.639 6.153-8.324.54-.668 1.535-1.294 2.13-1.914-.089.258-.199.604-.296.858" fill="#696667"/><path d="M193.951 849.564c-1.451.201-3.651.454-5.216.649-12.824 1.595-24.344 7.089-29.621 11.518-9.903 8.314-15.315 17.965-18.096 32.271 1.55-.938 2.509-3.416 3.388-5 8.471-15.248 19.318-30.701 50.113-37.458 5.675-1.271 8.175-1.975-.569-1.981" fill="#514e4e"/><path d="M188.193 852.553c-14.539 5.491-18.446 6.967-25.682 12.98-1.862 1.547-5.328 4.428-9.265 9.332-4.013 4.999-6.419 11.106-10.897 15.784 3.082-16.479 14.225-36.775 49.81-39.88-1.193.528-2.745 1.323-3.966 1.784" fill="#696667"/><path d="M186.597 852.216c-4.27 2.161-8.833 3.685-13.037 5.989-2.526 1.385-7.228 3.962-11.107 7.246-2.708 2.292-5.265 4.456-9.281 9.343-3.725 4.532-6.336 9.854-10.161 14.315 2.943-14.765 13.034-33.217 44.391-37.272-.241.114-.567.258-.805.379" fill="#7b7879"/><path d="M209.504 969.049c-1.575.755-4.09 2.559-5.988 4.056-1.834 1.446-3.381 3.204-5.146 4.726-2.853 2.461-5.824 3.68-11.774 4.831-10.297 1.992-11.88 2.298-12.22 3.253-.091.255.184.644.397.811.24.189 29.994 2.903 36.328-14.149.772-1.849.564-4.453-1.598-3.528" fill="#3d3a3b"/><path d="M209.625 969.276c-1.383.49-3.205 1.815-4.656 2.96q-1.399 1.104-5.954 5.414c-3.049 2.884-6.024 4.205-12.244 5.434q-9.493 1.876-9.839 2.567c-.133.266-.044.775.176.975.214.195 27.861 2.051 33.905-14.287.197-.699 1.603-3.98-1.389-3.064" fill="#514e4e"/><path d="M206.616 971.333q-.788.541-4.195 3.227c-2.738 2.159-4.858 5.057-8.028 6.697-4.975 2.574-10.855 1.903-15.846 4.42.25.072 26.339 3.35 32.376-13.575 1.232-3.385-.94-2.629-1.165-2.572-.471.118-3.026 1.712-3.142 1.804z" fill="#696667"/><path d="m209.924 969.858-12.355 9.833c-.943.723-4.48 3.185-10.41 4.504.182.035 18.477 2.776 23.67-12.33.212-1.384.348-2.792-.904-2.007" fill="#7b7879"/><path d="M162.179 1044.365c70.027-7.598 89.337-29.774 89.355-29.979 3.456-1.862 7.418 1.605 3.692 4.739-19.663 14.354-61.53 31.675-93.046 25.24z" fill="#3d3a3b"/><path d="M179.866 1044.316c65.695-17.07 71.763-29.444 71.853-29.512 3.661-2.75 5.781 1.875 3.411 4.149-22.708 16.391-60.364 27.646-75.264 25.363z" fill="#514e4e"/><path d="M193.881 1042.448c56.208-21.282 51.431-21.198 58.259-27.439 1.531-1.377 6.219.303 2.891 3.773-21.645 15.444-69.817 26.947-61.15 23.665z" fill="#696667"/><path d="M208.594 1038.281c6.202-3.569 16.858-6.931 23.32-9.961 17.562-8.234 20.529-12.955 20.532-12.982 3.257-1.432 3.687 1.81 2.431 3.187-16.113 11.29-34.996 16.576-46.284 19.756z" fill="#7b7879"/></g><path d="M810.943 827.598 494.776 950.523l-4.448 21.651 315.373-123.378z" fill="#23231F"/><path d="M490.328 973.424a1.251 1.251 0 0 1-1.225-1.501l4.448-21.651a1.25 1.25 0 0 1 .771-.914l316.167-122.925a1.25 1.25 0 0 1 1.666 1.465l-5.242 21.198a1.25 1.25 0 0 1-.758.864L490.782 973.338a1.24 1.24 0 0 1-.455.086zm5.535-21.982-3.848 18.73 312.627-122.304 4.509-18.232z" fill="#F7FF71"/><path d="m721.578 898.531-235.119 92.475-4.396 21.396 234.524-92.8z" fill="#23231F"/><path d="M482.063 1013.652a1.251 1.251 0 0 1-1.225-1.501l4.396-21.396c.085-.414.374-.757.767-.912l235.119-92.475a1.25 1.25 0 0 1 1.673 1.451l-4.991 21.071a1.249 1.249 0 0 1-.756.874l-234.524 92.8a1.249 1.249 0 0 1-.46.088zm5.484-21.73-3.794 18.467 231.768-91.71 4.29-18.11-232.264 91.352z" fill="#F7FF71"/><path d="m754.39 817.557-48.519 180.67 88.1-33.836 7.022-147.472z" fill="url(#m)" opacity=".3"/><path d="M964.112 964.135c-3.638-11.874-10.112-23.129-17.434-31.911L616.391 501.289a6.234 6.234 0 0 0-.617-.69c-3.908-3.772-11.071-2.376-15.758-1.111-5.564 1.501-10.88 3.996-15.747 7.064-8.575 5.405-18.691 14.397-18.481 25.483.011.581.053 1.161.127 1.738.143 1.116.504 2.098 1.064 2.933l207.266 309.15 95.078 141.814c.037.056.078.11.116.165 12.136 17.149 28.179 33.009 49.473 37.517 36.924 7.816 54.565-30.646 45.199-61.216z" fill="#1A1B17"/><path d="M952.084 969.865c4.355 20.081-8.583 29.237-21.063 21.157-17.078-11.058-30.049-51.02-14.196-55.985 11.88-3.721 30.993 15.158 35.259 34.829" fill="#22221E"/><path d="M950.714 970.038c4.536 18.522-7.546 28.103-19.156 20.624-18.413-11.862-27.794-50.486-12.869-52.985 10.421-1.744 27.246 12.846 32.025 32.361" fill="#22221E"/><path d="M949.597 970.222c4.89 19.153-7.365 26.494-17.524 20.072-16.346-10.333-28.699-49.014-11.723-50.195 9.534-.663 24.903 13.106 29.247 30.123" fill="#23231F"/><path d="M948.447 970.447c4.641 17.159-5.306 25.804-15.844 19.489-14.687-8.8-25.041-40.637-15.177-46.664 7.461-4.559 25.605 7.15 31.021 27.175" fill="#3d3a3b"/><path d="M947.762 974.642c2.165 13.919-7.287 20.636-17.437 12.392-12.938-10.509-19.743-36.227-10.707-40.468 8.222-3.858 25.561 11.468 28.144 28.076" fill="#514e4e"/><path d="M946.299 975.049c2.009 11.107-4.676 18.691-15.055 11.377-9.871-6.956-20.011-33.084-9.728-36.925 7.457-2.785 22.048 10.433 24.783 25.548" fill="#696667"/><path d="M945.127 975.412c1.539 9.841-4.134 16.58-12.949 10.415-8.476-5.928-11.543-17.426-12.551-21.204-1.049-3.934-.091-8.094.37-9.7.349-1.218 2.006-2.336 3.203-2.752 6.437-2.235 19.951 10.609 21.927 23.241" fill="#7b7879"/><path d="M798.125 645 597.5 715.625l111.075 137.912 44.498-35.885v-15.861c0-18.72 12.229-35.243 30.132-40.714l1.905-.582a42.572 42.572 0 0 1 36.559 5.633l6.046 4.156L798.127 645z" fill="#23231F"/><path d="m588.029 691.308 240.015-87.615 5.581-1.64 34.744 24.282-261.68 92.987zm.321 36.695 276.551-99.067" fill="#23231F"/><path d="m587.935 726.828 276.544-99.087.844 2.353-276.544 99.088z" fill="#F7FF71"/><path d="m549.25 701.603 283.52-100.921" fill="#23231F"/><path d="M548.829 700.422 832.352 599.51l.838 2.355-283.523 100.913z" fill="#F7FF71"/><g clip-path="url(#n)"><path d="m165.345 351.233-75.34-82.741c5.887 6.465 16.183 8.096 25.749 3.3l75.339 82.741c-9.566 4.796-19.862 3.165-25.749-3.3z" fill="#23231F"/><path d="M179.779 358.562c-5.939 0-11.468-2.216-15.358-6.488l-75.339-82.741a1.25 1.25 0 1 1 1.849-1.683c5.68 6.237 15.431 7.453 24.264 3.024a1.25 1.25 0 0 1 1.484.276l75.339 82.741a1.253 1.253 0 0 1-.364 1.959c-3.902 1.956-7.977 2.912-11.876 2.912zm-13.509-8.171c5.358 5.884 14.337 7.299 22.753 3.724l-73.566-80.793c-6.124 2.825-12.606 3.22-18.122 1.362z" fill="#23231F"/><path d="M298.293 119.53a17.984 17.984 0 0 0-3.478-5.665l-75.34-82.741a17.944 17.944 0 0 1 3.478 5.665l50.905 132.094 75.34 82.741z" fill="#808285"/><path d="M349.198 252.873a1.25 1.25 0 0 1-.925-.408l-75.339-82.741a1.272 1.272 0 0 1-.242-.392L221.787 37.239a16.735 16.735 0 0 0-3.236-5.273 1.25 1.25 0 1 1 1.849-1.683l75.339 82.741a19.208 19.208 0 0 1 3.72 6.057l50.905 132.094a1.25 1.25 0 0 1-1.166 1.699zm-74.258-84.659 70.694 77.639-48.508-125.874a16.735 16.735 0 0 0-3.236-5.273l-68.607-75.347 49.656 128.854z" fill="#23231F"/><path d="m259.873 199.541 75.339 82.741-144.118 72.251-75.339-82.741z" fill="#414042"/><path d="M191.095 355.783c-.344 0-.682-.142-.925-.408l-75.339-82.741a1.253 1.253 0 0 1 .364-1.959l144.118-72.252a1.25 1.25 0 0 1 1.484.276l75.339 82.741a1.253 1.253 0 0 1-.364 1.959l-144.118 72.252c-.178.089-.37.133-.56.133zM117.79 272.17l73.591 80.821 141.797-71.088-73.591-80.821z" fill="#23231F"/><path d="m273.858 168.882 75.339 82.741c4.218 10.946-2.043 24.671-13.985 30.658l-75.339-82.741c11.942-5.987 18.203-19.713 13.985-30.658z" fill="#6d6e71"/><path d="M335.213 283.531c-.344 0-.682-.142-.925-.408l-75.34-82.741a1.253 1.253 0 0 1 .364-1.959c11.364-5.697 17.365-18.747 13.379-29.092a1.25 1.25 0 0 1 2.091-1.291l75.339 82.741c.104.115.187.247.242.392 4.436 11.511-2.109 25.968-14.592 32.225-.178.089-.37.133-.56.133zm-73.337-83.648 73.612 80.843c10.743-5.863 16.351-18.387 12.625-28.439l-71.862-78.922c1.221 9.958-4.505 20.859-14.375 26.518z" fill="#23231F"/><path d="M273.858 168.882c4.218 10.946-2.043 24.671-13.985 30.658l-144.118 72.252c-11.942 5.987-25.022 1.958-29.24-8.988L35.61 130.711c-4.211-10.928 2.03-24.644 13.972-30.631L193.7 27.828c11.942-5.987 25.042-1.968 29.253 8.96l50.905 132.093z" fill="#F6FFBF"/><path d="M104.452 275.809c-2.769 0-5.471-.48-7.978-1.45-5.189-2.007-9.14-5.951-11.126-11.105L34.443 131.161c-4.432-11.502 2.107-25.945 14.578-32.198L193.14 26.711c6.537-3.278 13.78-3.806 19.871-1.45 5.183 2.005 9.129 5.939 11.109 11.078l50.905 132.093c4.436 11.511-2.109 25.968-14.592 32.225l-144.118 72.252c-3.837 1.923-7.917 2.899-11.863 2.899zM205.016 26.307c-3.564 0-7.264.888-10.756 2.639L50.142 101.198c-11.353 5.692-17.349 18.73-13.366 29.064l50.905 132.093c1.729 4.488 5.173 7.923 9.695 9.672 5.424 2.099 11.919 1.606 17.818-1.352l144.118-72.252c11.364-5.697 17.365-18.747 13.379-29.092L221.786 37.238c-1.724-4.472-5.161-7.898-9.678-9.645-2.223-.86-4.625-1.286-7.093-1.286z" fill="#23231F"/><path d="M104.452 275.809c-2.769 0-5.471-.48-7.978-1.45-5.189-2.007-9.14-5.951-11.126-11.105L34.443 131.161c-4.432-11.502 2.107-25.945 14.578-32.198L193.14 26.711c6.537-3.278 13.78-3.806 19.871-1.45 5.183 2.005 9.129 5.939 11.109 11.078l50.905 132.093c4.436 11.511-2.109 25.968-14.592 32.225l-144.118 72.252c-3.837 1.923-7.917 2.899-11.863 2.899zM205.016 26.307c-3.564 0-7.264.888-10.756 2.639L50.142 101.198c-11.353 5.692-17.349 18.73-13.366 29.064l50.905 132.093c1.729 4.488 5.173 7.923 9.695 9.672 5.424 2.099 11.919 1.606 17.818-1.352l144.118-72.252c11.364-5.697 17.365-18.747 13.379-29.092L221.786 37.238c-1.724-4.472-5.161-7.898-9.678-9.645-2.223-.86-4.625-1.286-7.093-1.286z" fill="#23231F"/><circle cx="145.214" cy="117.485" fill="#F6FFBF" r="30.473"/><path d="M145.259 149.208c-12.268 0-23.971-7.154-29.151-19.108-6.955-16.05.443-34.766 16.493-41.721 7.775-3.369 16.396-3.509 24.276-.394s14.075 9.113 17.445 16.887c6.955 16.05-.443 34.765-16.493 41.721a31.547 31.547 0 0 1-12.57 2.615zm-.051-60.961c-3.945 0-7.884.809-11.613 2.425-7.162 3.104-12.687 8.811-15.556 16.07s-2.741 15.201.363 22.363c6.407 14.785 23.648 21.601 38.433 15.193 14.785-6.407 21.6-23.648 15.193-38.433-3.104-7.162-8.811-12.687-16.07-15.556a29.194 29.194 0 0 0-10.75-2.062z" fill="#23231F"/><path d="m155.364 153.679 9.32-4.04c29.15-12.631 63.069.778 75.7 29.927l-114.946 49.813c-12.632-29.149.777-63.068 29.926-75.7z" fill="#F6FFBF"/><path d="M125.438 230.629a1.248 1.248 0 0 1-1.147-.753c-12.894-29.754.822-64.45 30.576-77.345l9.32-4.039.497 1.147-.497-1.147c14.413-6.246 30.396-6.506 45.005-.731 14.608 5.775 26.094 16.893 32.34 31.307a1.248 1.248 0 0 1-.649 1.644l-114.947 49.814a1.243 1.243 0 0 1-.497.103zm62.121-84.516c-7.602 0-15.193 1.56-22.378 4.673l-9.32 4.039c-28.106 12.18-41.268 44.677-29.761 72.904l112.628-48.809c-6.084-13.245-16.857-23.458-30.456-28.834-6.705-2.651-13.714-3.974-20.714-3.974z" fill="#23231F"/></g></svg></g></svg>