<svg width="27" height="25" viewBox="0 0 27 25" fill="none" xmlns="http://www.w3.org/2000/svg">
<ellipse cx="5.38794" cy="18.8578" rx="5.38794" ry="5.5464" fill="#FBE159"/>
<ellipse cx="12.9944" cy="5.5464" rx="5.38794" ry="5.5464" fill="#FBE159"/>
<ellipse cx="21.2348" cy="19.1747" rx="5.38794" ry="5.5464" fill="#FBE159"/>
<path d="M9.50811 14.8961L8.24036 14.2622L10.7759 19.3332C10.7759 19.3332 10.8425 18.0477 11.0928 17.2731C11.2377 16.8246 11.2461 16.5079 11.5682 16.1638C11.7036 16.0192 11.8097 15.9707 11.9644 15.8469C12.1191 15.7231 12.1862 15.6241 12.3605 15.53C12.9078 15.2344 13.9452 15.6884 13.9452 15.6884L14.2622 16.0054C14.2622 16.0054 14.767 16.8161 15.0545 17.59C15.3421 18.364 15.5299 19.6501 15.5299 19.6501L16.1638 21.3933L19.3332 14.1037L17.4315 14.5791L16.0053 14.8961C15.4483 15.0198 15.1847 15.1086 14.7376 14.8961C14.301 14.6886 14.144 14.3859 13.9452 13.9453C13.6398 13.2683 13.9452 12.0436 13.9452 12.0436L14.7376 11.2513L15.5299 10.459L10.7759 10.6174L12.2021 12.0436C12.2021 12.0436 12.5705 13.3005 12.2021 13.9453C11.87 14.5265 10.7759 14.8961 10.7759 14.8961H9.50811Z" fill="#FBE159"/>
</svg>
