<svg xmlns="http://www.w3.org/2000/svg" viewBox="0 0 1200 800" width="1200" height="800"><path fill="#FFF" d="M0 0h1200v800H0z"/><g transform="translate(366.0 120.0) rotate(0.0 234.0 280.0) scale(0.4278724135661154 0.4278604380374042)"><svg width="1093.784" height="1308.838" viewBox="0 0 1093.784 1308.838"><clipPath id="b"><path d="M939.744 546.885 840.08 688.444l-131.521 18.479-317.244 429.13 184.115 172.785 518.354-600.499z"/></clipPath><linearGradient id="c" gradientUnits="userSpaceOnUse" x1="739.651" x2="742.862" y1="676.156" y2="1168.996"><stop offset=".085" stop-color="#fff" stop-opacity=".8"/><stop offset=".862" stop-color="#FFFCA4" stop-opacity=".8"/></linearGradient><linearGradient id="d" gradientUnits="userSpaceOnUse" x1="659.616" x2="880.468" y1="825.901" y2="1002.582"><stop offset="0" stop-color="#FFFCA4"/><stop offset=".638" stop-color="#fff"/><stop offset="1" stop-color="#FFFDB4"/></linearGradient><linearGradient id="e" gradientUnits="userSpaceOnUse" x1="421.509" x2="609.463" y1="1183.097" y2="1183.097"><stop offset="0" stop-color="#fff"/><stop offset=".755" stop-color="#FFFCA4"/></linearGradient><linearGradient id="f" gradientUnits="userSpaceOnUse" x1="618.625" x2="648.204" y1="716.407" y2="589.703"><stop offset=".333" stop-color="#231f20" stop-opacity="0"/><stop offset=".769" stop-color="#231f20"/></linearGradient><linearGradient id="a" gradientUnits="userSpaceOnUse" x1="860.033" x2="828.984" y1="734.598" y2="585.424"><stop offset=".181" stop-color="#231f20" stop-opacity="0"/><stop offset="1" stop-color="#231f20"/></linearGradient><clipPath id="g"><path d="M320.353 311.497c18.722 3.878 42.125 4.681 69.272-18.187l13.239 188.157-55.398 65.21 79.202 141.965 67.247 26.899c15.476-22.955 26.578-49.342 19.181-90.237l204.228 30.256 3.782 29.038-35.529 22.628 178.942 23.259 224.156-342.211-146.486-265.279L808.695 0 472.712 41.998l-174.56 256.613 22.202 12.887z"/></clipPath><linearGradient xmlns:xlink="http://www.w3.org/1999/xlink" id="h" x1="681.658" x2="441.67" xlink:href="#a" y1="388.496" y2="126.009"/><linearGradient id="i" gradientUnits="userSpaceOnUse" x1="373.149" x2="401.399" y1="436.605" y2="575.81"><stop offset=".231" stop-color="#231f20"/><stop offset=".667" stop-color="#231f20" stop-opacity="0"/></linearGradient><path d="m686.622 695.221-87.64 51.957c9.986-5.92 21.404-9.326 33.703-10.039l87.64-51.956c-12.299.713-23.717 4.119-33.703 10.039z" fill="#bcbec0"/><path d="M598.983 748.427a1.25 1.25 0 0 1-.638-2.325l87.64-51.957c10.204-6.049 21.734-9.485 34.268-10.212a1.25 1.25 0 0 1 .71 2.323l-87.641 51.957a1.252 1.252 0 0 1-.565.173c-12.13.703-23.279 4.022-33.138 9.866-.2.119-.419.175-.636.175zm88.276-52.131-71.442 42.354c5.267-1.473 10.773-2.389 16.49-2.741l82.612-48.976c-10.022 1.27-19.305 4.41-27.66 9.363z" fill="#231f20"/><path d="m288.927 356.475 87.64-51.956c17.13-10.155 29.415-27.474 35.434-49.33l-87.64 51.957c-6.019 21.855-18.304 39.174-35.434 49.33z" fill="#bcbec0"/><path d="M288.928 357.725a1.25 1.25 0 0 1-.638-2.325c16.798-9.958 28.855-26.759 34.867-48.586.086-.312.29-.578.568-.743l87.64-51.957a1.249 1.249 0 0 1 1.842 1.408c-6.187 22.463-18.636 39.778-36.002 50.073l-87.64 51.957c-.2.119-.42.175-.637.175zm36.503-49.761c-4.261 15.194-11.402 28.013-21.001 37.867l71.5-42.388c16.015-9.494 27.719-25.206 33.985-45.564z" fill="#231f20"/><path d="m333.57 487.826-87.64 51.957c42.263-25.055 105.392-2.01 146.921 55.906 44.921 62.648 47.567 142.473 5.855 178.254a70.706 70.706 0 0 1-9.986 7.17l87.64-51.956a70.706 70.706 0 0 0 9.986-7.17c41.712-35.781 39.066-115.606-5.855-178.254-41.528-57.916-104.658-80.961-146.921-55.906z" fill="#414042"/><path d="M388.72 782.362a1.25 1.25 0 0 1-.638-2.325 69.725 69.725 0 0 0 9.81-7.043c41.159-35.306 38.442-114.519-6.057-176.577-40.641-56.678-103.091-80.563-145.268-55.559a1.25 1.25 0 0 1-1.275-2.15l87.641-51.957.638 1.075-.638-1.075c43.3-25.669 107.173-1.487 148.574 56.252 45.235 63.085 47.771 143.802 5.654 179.931a72.271 72.271 0 0 1-10.162 7.296l-87.641 51.957c-.2.119-.42.175-.637.175zM283.91 528.496c37.456 0 79.703 24.272 109.955 66.463 43.462 60.613 47.504 137.506 10.396 175.485l71.46-42.364a69.774 69.774 0 0 0 9.809-7.043c41.159-35.307 38.441-114.519-6.057-176.577-40.64-56.678-103.092-80.563-145.267-55.559l-71.545 42.414c6.816-1.894 13.943-2.819 21.248-2.819z" fill="#231f20"/><path d="m522.276 1004.381 87.64-51.956a215.548 215.548 0 0 1-17.165 9.139l-87.64 51.957a215.051 215.051 0 0 0 17.165-9.139z" fill="#bcbec0"/><path d="M505.112 1014.77a1.252 1.252 0 0 1-.639-2.326l87.64-51.957a1.37 1.37 0 0 1 .1-.053 215.301 215.301 0 0 0 17.066-9.085 1.249 1.249 0 1 1 1.274 2.15l-87.64 51.956a217.552 217.552 0 0 1-17.266 9.192 1.237 1.237 0 0 1-.537.122z" fill="#231f20"/><path d="m199.373 264.993-87.64 51.957c-9.366 5.552-18.365 11.936-26.901 19.259-13.85 11.88-25.802 25.625-36.258 40.618l87.64-51.956c10.456-14.993 22.408-28.737 36.258-40.618 8.536-7.322 17.535-13.706 26.901-19.259z" fill="#bcbec0"/><g fill="#231f20"><path d="M48.574 378.076a1.249 1.249 0 0 1-1.026-1.964c11.021-15.803 23.291-29.547 36.469-40.852 8.347-7.16 17.458-13.682 27.078-19.385l87.64-51.957a1.25 1.25 0 1 1 1.275 2.151c-9.498 5.63-18.489 12.068-26.724 19.132-13.019 11.168-25.147 24.755-36.047 40.384-.102.146-.234.27-.388.36l-87.64 51.957a1.246 1.246 0 0 1-.637.175zm124.759-96.193-60.964 36.142c-9.496 5.629-18.487 12.066-26.724 19.132-11.661 10.003-22.608 21.949-32.599 35.564l82.297-48.789c10.98-15.708 23.198-29.377 36.314-40.629.555-.476 1.113-.949 1.675-1.42zm270.813 621.333-87.64 51.957c11.006-6.525 24.013-10.09 38.641-9.992 39.269.208 80.175 26.758 108.284 65.96a191.75 191.75 0 0 1 1.68 2.38l87.64-51.956a202.99 202.99 0 0 0-1.68-2.38c-28.109-39.201-69.015-65.752-108.284-65.96-14.628-.098-27.635 3.468-38.641 9.992z"/><path d="M505.112 1014.77c-.397 0-.786-.188-1.027-.536a179.446 179.446 0 0 0-1.67-2.365c-28.8-40.167-69.906-65.241-107.275-65.439-14.057-.116-26.849 3.209-37.997 9.818a1.249 1.249 0 1 1-1.274-2.15l87.641-51.957c11.384-6.749 24.397-10.169 38.687-10.169.2 0 .4 0 .6.002 38.154.202 80.033 25.676 109.292 66.481.567.791 1.134 1.595 1.691 2.396a1.25 1.25 0 0 1-.389 1.789l-87.64 51.956a1.245 1.245 0 0 1-.636.175zm-110.558-70.842c.2 0 .4 0 .6.002 38.154.202 80.033 25.676 109.292 66.481.342.477.685.959 1.025 1.442l85.483-50.677c-.298-.423-.599-.846-.898-1.264-28.801-40.166-69.906-65.241-107.275-65.438-14.054-.118-26.849 3.209-37.996 9.818l-71.59 42.441c6.736-1.865 13.873-2.804 21.36-2.804z"/></g><path d="m46.489 564.452 87.64-51.956c17.777-10.539 31.008-29.056 36.583-54.496 9.157-41.825-4.699-91.606-32.85-130.866a195.454 195.454 0 0 0-1.648-2.265l-87.64 51.957c.555.752 1.103 1.504 1.648 2.265 28.151 39.26 42.007 89.041 32.85 130.866-5.575 25.439-18.807 43.957-36.583 54.496z" fill="#727272"/><path d="M46.49 565.702a1.25 1.25 0 0 1-.638-2.325l.041-.024c18.199-10.805 30.633-29.361 35.959-53.664 8.726-39.855-3.783-89.619-32.645-129.87a182.025 182.025 0 0 0-1.639-2.25 1.252 1.252 0 0 1 .368-1.818l87.64-51.957a1.248 1.248 0 0 1 1.643.333c.559.757 1.11 1.514 1.659 2.279 29.261 40.809 41.928 91.335 33.055 131.861-5.482 25.016-18.334 44.139-37.167 55.304l-87.641 51.957c-.2.119-.419.175-.636.175zm3.907-188.503c.281.386.561.773.841 1.164 29.262 40.809 41.928 91.335 33.056 131.861-3.883 17.718-11.464 32.48-22.247 43.552l71.445-42.355c18.221-10.802 30.669-29.367 35.999-53.688 8.726-39.855-3.783-89.619-32.645-129.87-.322-.449-.645-.896-.97-1.34l-85.48 50.676z" fill="#231f20"/><path d="m273.583 886.251-87.64 51.957c42.076 36.316 87.311 62.77 132.528 78.488l87.64-51.956c-45.217-15.718-90.452-42.172-132.528-78.488z" fill="#6d6e71"/><path d="M318.471 1017.946c-.138 0-.277-.023-.411-.069-46.355-16.113-91.081-42.6-132.934-78.722a1.25 1.25 0 0 1 .179-2.022l87.641-51.957a1.25 1.25 0 0 1 1.454.129c41.614 35.917 86.066 62.245 132.122 78.253a1.25 1.25 0 0 1 .227 2.256l-87.641 51.957a1.248 1.248 0 0 1-.638.175zm-130.393-79.55c41.068 35.194 84.881 61.071 130.255 76.929l84.837-50.295c-45.202-16.1-88.827-42.077-129.723-77.245l-85.37 50.611z" fill="#231f20"/><path d="M88.89 522.389 1.25 574.346c3.203 51.757 15.889 106.132 38.156 159.498l87.64-51.956C104.78 628.523 92.094 574.147 88.89 522.39z" fill="#414042"/><path d="M39.406 735.094a1.25 1.25 0 0 1-1.154-.768C16.161 681.38 3.292 627.581.002 574.423a1.25 1.25 0 0 1 .61-1.152l87.641-51.957a1.25 1.25 0 0 1 1.885.998c3.272 52.88 16.078 106.407 38.062 159.094a1.25 1.25 0 0 1-.516 1.557l-87.64 51.957a1.248 1.248 0 0 1-.638.175zM2.545 575.031c3.32 52.185 15.922 104.999 37.462 157.003l85.468-50.669c-21.556-51.947-34.234-104.699-37.701-156.861z" fill="#231f20"/><path d="M230.689 249.855c-20.822 8.063-40.515 19.213-58.216 34.398-13.85 11.88-25.802 25.625-36.258 40.618.555.752 1.103 1.504 1.648 2.265 28.151 39.26 42.007 89.041 32.85 130.866-9.666 44.103-42.343 67.403-81.823 64.389 3.203 51.757 15.889 106.132 38.156 159.498 38.435-3.408 83.795 20.349 116.117 65.426 32.298 45.043 42.582 98.889 30.42 138.938 42.076 36.316 87.311 62.77 132.528 78.488 6.735-42.6 35.186-71.793 76.675-71.516 39.269.208 80.175 26.758 108.284 65.96a191.75 191.75 0 0 1 1.68 2.38c15.805-7.533 30.857-16.954 44.707-28.835 17.701-15.184 32.295-33.447 44.417-53.642-27.471-38.991-40.937-88.025-31.869-129.305 8.712-39.792 36.108-62.617 70.319-64.599-4.352-51.897-17.94-106.118-41.199-159.195-34.919-2.872-73.25-26.073-101.547-65.538-28.323-39.499-39.788-85.744-34.016-123.522-41.585-37.355-86.492-64.712-131.561-81.738-9.889 35.903-36.685 59.565-74.094 59.335-38.84-.241-79.144-26.195-107.219-64.669zm98.775 423.429c-44.946-62.682-47.592-142.507-5.88-178.288s111.961-13.946 156.906 48.736c44.921 62.648 47.567 142.473 5.855 178.254s-111.961 13.946-156.882-48.702" fill="#FFFA48"/><path d="M406.112 965.989c-.138 0-.277-.023-.411-.069-46.354-16.113-91.08-42.599-132.935-78.722a1.25 1.25 0 0 1-.379-1.31c12.398-40.828.528-94.936-30.24-137.846-30.758-42.897-75.887-68.382-114.991-64.909a1.244 1.244 0 0 1-1.264-.764c-22.09-52.945-34.959-106.744-38.249-159.902a1.252 1.252 0 0 1 1.343-1.323c40.413 3.096 71.258-21.211 80.506-63.41 8.726-39.855-3.783-89.619-32.645-129.87a181.95 181.95 0 0 0-1.638-2.25 1.25 1.25 0 0 1-.02-1.458c11.021-15.802 23.291-29.546 36.47-40.852 16.824-14.432 36.533-26.078 58.579-34.614a1.248 1.248 0 0 1 1.461.429c28.71 39.345 69.41 63.928 106.217 64.155l.527.001c35.244 0 62.27-21.803 72.354-58.418a1.248 1.248 0 0 1 1.647-.837c46.601 17.605 90.997 45.187 131.955 81.978.313.281.464.702.4 1.119-5.952 38.958 6.683 84.792 33.796 122.604 27.074 37.757 64.694 62.064 100.634 65.021.458.038.858.323 1.042.744 22.907 52.275 36.803 105.97 41.3 159.593.028.336-.081.669-.301.924a1.256 1.256 0 0 1-.872.429c-35.035 2.03-60.894 25.813-69.17 63.619-8.611 39.201 3.524 88.369 31.669 128.318.285.404.304.939.05 1.363-12.831 21.374-27.861 39.525-44.675 53.947-13.184 11.309-28.318 21.071-44.983 29.015a1.25 1.25 0 0 1-1.564-.415c-.55-.791-1.11-1.584-1.669-2.365-28.801-40.166-69.906-65.241-107.275-65.438-39.655-.277-68.521 26.734-75.433 70.461a1.25 1.25 0 0 1-1.235 1.055zm-131.099-80.156c41.017 35.285 84.775 61.26 130.107 77.234 3.573-20.9 12.349-38.535 25.432-51.068 13.685-13.109 31.536-20.028 51.655-20.028.196 0 .392 0 .588.002 38.154.202 80.033 25.676 109.292 66.481.361.503.723 1.013 1.081 1.523 16.089-7.765 30.712-17.248 43.477-28.198 16.427-14.091 31.141-31.799 43.74-52.642-13.586-19.453-23.731-41.406-29.357-63.538-5.881-23.137-6.657-45.99-2.242-66.087 8.43-38.503 34.619-62.898 70.187-65.496-4.566-52.695-18.253-105.454-40.693-156.85-36.435-3.287-74.406-27.905-101.715-65.991-27.331-38.116-40.14-84.326-34.336-123.77-40.215-36.025-83.736-63.123-129.393-80.566-10.684 36.967-38.383 58.931-74.388 58.933l-.546-.001c-18.964-.117-39.121-6.404-58.293-18.182-18.287-11.233-35.336-27.203-49.358-46.224-21.421 8.401-40.582 19.781-56.962 33.833-12.815 10.993-24.767 24.331-35.534 39.651.377.516.752 1.033 1.125 1.554 29.262 40.809 41.928 91.335 33.056 131.861-4.732 21.593-15.173 39.086-30.192 50.589-14.271 10.929-32.064 16.058-51.514 14.878 3.395 52.136 16.048 104.889 37.622 156.832 19.186-1.485 39.961 3.607 60.151 14.758 21.037 11.618 40.463 29.344 56.178 51.26 15.696 21.89 26.792 46.722 32.09 71.812 5.092 24.118 4.656 47.415-1.255 67.437zm163.383-145.385c-3.605 0-7.279-.224-11.019-.674-35.484-4.273-72.467-28.858-98.929-65.762-45.249-63.104-47.796-143.836-5.678-179.965 16.076-13.79 36.746-19.611 59.776-16.839 35.489 4.274 72.483 28.871 98.959 65.795 45.235 63.085 47.771 143.802 5.654 179.931-13.467 11.552-30.162 17.514-48.764 17.514zM330.48 672.555c26.061 36.345 62.396 60.546 97.196 64.737 22.321 2.688 42.325-2.933 57.856-16.255 41.159-35.307 38.441-114.519-6.057-176.577-26.076-36.365-62.422-60.578-97.227-64.77-22.315-2.688-42.32 2.933-57.85 16.254-41.159 35.306-38.431 114.534 6.082 176.611z"/><path d="m127.046 681.887-87.64 51.957c38.434-3.408 83.795 20.349 116.117 65.426 32.298 45.043 42.582 98.889 30.42 138.938l87.64-51.956c12.161-40.049 1.877-93.895-30.42-138.938-32.322-45.077-77.683-68.834-116.117-65.426z" fill="#231f20"/><path d="M185.943 939.458a1.251 1.251 0 0 1-1.196-1.614c12.398-40.829.528-94.937-30.24-137.846-30.759-42.898-75.898-68.376-114.991-64.909-.586.053-1.121-.307-1.3-.862s.05-1.161.553-1.458l87.64-51.957c.161-.095.341-.153.527-.17 19.432-1.722 40.553 3.353 61.065 14.682 21.037 11.618 40.463 29.344 56.178 51.26 15.696 21.89 26.792 46.722 32.09 71.812 5.159 24.432 4.644 48.021-1.489 68.218-.091.299-.29.553-.559.712l-87.64 51.957a1.252 1.252 0 0 1-.638.175zM46.8 732.27c17.303 0 35.662 5.125 53.561 15.01 21.037 11.619 40.463 29.344 56.178 51.261 15.696 21.889 26.792 46.722 32.09 71.812 4.901 23.215 4.681 45.668-.614 65.173l84.513-50.102c12.168-40.774.272-94.635-30.379-137.383-30.686-42.795-75.679-68.252-114.709-64.934L44.461 732.3a86.87 86.87 0 0 1 2.342-.031z" fill="#231f20"/><g clip-path="url(#b)"><path d="M887.565 619.618a125.758 125.758 0 0 1-2.942-5.631c-20.084-41.025 2.414-57.138 50.258-35.985 45.677 20.195 97.931 67.043 120.05 106.946a125.758 125.758 0 0 1 2.942 5.631c20.1 41.031-2.414 57.138-50.258 35.985-45.677-20.194-97.933-67.044-120.05-106.946z" fill="#bcbec0" opacity=".2"/><path d="M1007.615 726.564c-45.677-20.194-97.933-67.044-120.05-106.946a125.758 125.758 0 0 1-2.942-5.631c-8.886-18.151-9.437-31.425-3.145-38.753l-455.765 530.814c-6.292 7.328-5.741 20.602 3.145 38.753.91 1.858 1.893 3.738 2.942 5.631 22.117 39.902 74.373 86.752 120.05 106.946 26.678 11.795 45.48 12.005 53.41 2.769l455.765-530.814c-7.93 9.236-26.733 9.026-53.41-2.769z" fill="url(#c)" opacity=".7"/><path d="M1061.025 729.333 605.26 1260.147c6.292-7.328 5.74-20.602-3.152-38.754a125.758 125.758 0 0 0-2.942-5.631c-22.119-39.903-74.373-86.752-120.05-106.946-26.676-11.794-45.473-12.003-53.402-2.768l455.765-530.814c7.929-9.235 26.726-9.026 53.402 2.768 45.677 20.195 97.931 67.043 120.05 106.946a125.758 125.758 0 0 1 2.942 5.631c8.892 18.152 9.444 31.426 3.152 38.754z" fill="url(#d)" opacity=".7"/><path d="M431.8 1150.431a125.758 125.758 0 0 1-2.942-5.631c-20.084-41.025 2.414-57.138 50.258-35.985 45.677 20.195 97.931 67.043 120.05 106.946a125.758 125.758 0 0 1 2.942 5.631c20.1 41.031-2.414 57.138-50.258 35.985-45.677-20.194-97.933-67.044-120.05-106.946z" fill="url(#e)" opacity=".5"/><g fill="#fff"><path d="m606.208 1260.961-1.896-1.629.024-.028c6.126-7.176 4.938-20.441-3.351-37.362-.89-1.818-1.87-3.694-2.913-5.575-22.066-39.808-74.54-86.548-119.461-106.409-25.156-11.122-44.089-12.25-51.949-3.097l-1.896-1.629 455.765-530.813c8.627-10.048 28.621-9.16 54.856 2.439 45.353 20.051 98.343 67.263 120.638 107.483a126.924 126.924 0 0 1 2.971 5.688c8.894 18.156 9.924 32.028 2.978 40.118l-455.758 530.806-.007.008zm-162.735-162.675c9.707 0 22.022 3.14 36.148 9.385 45.353 20.051 98.343 67.263 120.637 107.483a127.37 127.37 0 0 1 2.972 5.688c6.29 12.839 8.646 23.536 7.031 31.561l449.815-523.885.948.814-.948-.814c6.154-7.168 4.973-20.446-3.327-37.39a125.091 125.091 0 0 0-2.913-5.575c-22.066-39.808-74.541-86.548-119.462-106.409-25.156-11.122-44.089-12.25-51.949-3.097l-449.872 523.949c3.125-1.141 6.785-1.71 10.918-1.71z"/><path d="M587.497 1267.89c-9.728 0-22.061-3.139-36.153-9.369-45.355-20.052-98.345-67.264-120.638-107.483a126.069 126.069 0 0 1-2.971-5.688c-9.047-18.479-9.876-32.975-2.336-40.815 8.937-9.291 28.699-8.147 54.222 3.137 45.353 20.051 98.343 67.263 120.637 107.483a127.37 127.37 0 0 1 2.972 5.688c9.052 18.479 9.885 32.974 2.345 40.814-4.003 4.164-10.183 6.232-18.078 6.233zm-144.038-167.146c-7.157 0-12.707 1.832-16.258 5.524-6.759 7.027-5.771 20.516 2.779 37.982a124.722 124.722 0 0 0 2.913 5.575c22.064 39.807 74.538 86.548 119.462 106.409 24.511 10.836 43.252 12.182 51.418 3.689 6.758-7.027 5.768-20.517-2.788-37.982-.89-1.818-1.87-3.694-2.913-5.575-22.066-39.808-74.54-86.548-119.461-106.409-13.846-6.122-25.854-9.214-35.151-9.214z"/></g></g><path d="m513.095 625.304 173.527 69.917 65.141-5.972-22.5-57.5z" fill="url(#f)" opacity=".5"/><path d="M920.826 569.744c-10.558 42.987-21.691 99.498-49.063 152.005-30.638-18.045-66.812-14.778-110.542-4.958l84.663-95.196 74.941-51.851z" fill="url(#a)" opacity=".5"/><g clip-path="url(#g)"><path d="M725.143 569.082 840.08 688.444l-317.779 39.019-114.937-119.362z" fill="#231f20"/><path d="M522.301 728.713a1.25 1.25 0 0 1-.9-.383L406.464 608.968a1.25 1.25 0 0 1 .748-2.108l317.779-39.018c.387-.048.78.09 1.053.374l114.937 119.362a1.25 1.25 0 0 1-.748 2.108l-317.779 39.018a1.304 1.304 0 0 1-.152.009zM410 609.036l112.768 117.11 314.676-38.637-112.768-117.11z"/><path d="M725.733 204.588 840.67 323.95c-21.062-21.873-53.245-33.041-91.591-28.333-76.862 9.437-149.38 79.091-161.972 155.574-6.31 38.326 3.625 71.095 24.78 93.064L496.95 424.893c-21.155-21.97-31.09-54.738-24.78-93.064 12.592-76.483 85.111-146.136 161.972-155.574 38.346-4.708 70.529 6.46 91.591 28.333z" fill="#F0F700"/><path d="M611.887 545.505c-.328 0-.655-.128-.9-.383L496.05 425.76c-22.365-23.226-31.284-56.657-25.113-94.135 12.656-76.87 85.801-147.126 163.053-156.611 37.484-4.602 70.386 5.593 92.644 28.707l114.882 119.306.055.057a1.25 1.25 0 0 1-1.801 1.735c-21.699-22.534-53.852-32.463-90.538-27.959-76.227 9.359-148.403 78.684-160.892 154.536-6.039 36.68 2.643 69.351 24.447 91.994a1.25 1.25 0 0 1-.9 2.118zm39.392-369.07c-5.535 0-11.201.351-16.984 1.061-76.227 9.359-148.403 78.684-160.891 154.536-6.04 36.68 2.643 69.351 24.447 91.994l100.124 103.979c-12.596-21.324-16.886-47.955-12.101-77.017 12.657-76.871 85.802-147.126 163.054-156.611 29.033-3.563 55.32 1.749 76.038 15.065L724.834 205.455c-18.278-18.981-43.979-29.021-73.554-29.021z"/><path d="m815.319 21.38 114.937 119.362 113.802 254.342-114.937-119.362z" fill="#727272"/><path d="M1044.058 396.334c-.33 0-.658-.13-.901-.383L928.22 276.589a1.264 1.264 0 0 1-.241-.356L814.177 21.891a1.25 1.25 0 0 1 2.042-1.378l114.937 119.362c.1.104.182.225.241.356l113.802 254.342a1.25 1.25 0 0 1-1.141 1.761zM930.172 275.012l109.821 114.049-110.789-247.609L819.383 27.403z"/><path d="m929.121 275.722 114.937 119.362-203.978 293.36-114.937-119.362z" fill="#F0F700"/><path d="M840.08 689.695c-.338 0-.664-.137-.9-.383L724.243 569.95a1.25 1.25 0 0 1-.126-1.581l203.978-293.36a1.25 1.25 0 0 1 1.927-.154l114.937 119.362a1.25 1.25 0 0 1 .126 1.581l-203.978 293.36a1.25 1.25 0 0 1-.927.533c-.033.002-.066.004-.099.004zM726.755 568.954 839.924 686.48l202.522-291.268-113.169-117.526-202.522 291.267z"/><path d="M725.733 204.588 840.67 323.95c-21.062-21.873-53.245-33.041-91.591-28.333-76.862 9.437-149.38 79.091-161.972 155.574-6.31 38.326 3.625 71.095 24.78 93.064L496.95 424.893c-21.155-21.97-31.09-54.738-24.78-93.064 12.592-76.483 85.111-146.136 161.972-155.574 38.346-4.708 70.529 6.46 91.591 28.333z" fill="url(#h)" opacity=".5"/><path d="m815.319 21.38 113.802 254.342-203.978 293.36-317.78 39.018-113.801-254.342 203.977-293.36zM588.541 453.226c76.862-9.437 149.38-79.091 161.972-155.574s-39.509-130.835-116.371-121.397c-76.862 9.437-149.38 79.091-161.972 155.574s39.509 130.835 116.371 121.397" fill="#FFFCA4"/><path d="M407.364 609.35a1.25 1.25 0 0 1-1.141-.74L292.422 354.269a1.25 1.25 0 0 1 .115-1.224l203.976-293.36c.203-.292.521-.484.874-.527l317.78-39.019a1.243 1.243 0 0 1 1.293.73l113.802 254.342c.179.4.135.865-.115 1.224L726.169 569.796a1.252 1.252 0 0 1-.874.527l-317.779 39.018a1.321 1.321 0 0 1-.153.009zM294.992 353.892l113.136 252.855 316.308-38.837 203.255-292.322L814.554 22.733 498.245 61.571 294.991 353.893zm276.395 101.655c-30.314 0-56.672-10.341-75.439-29.894-22.288-23.222-31.17-56.615-25.01-94.028 12.656-76.87 85.801-147.126 163.053-156.611 37.553-4.611 70.486 5.622 92.745 28.813 22.289 23.222 31.171 56.615 25.011 94.029-12.656 76.87-85.801 147.126-163.053 156.611a142.081 142.081 0 0 1-17.307 1.081zm17.002-3.563.152 1.241-.152-1.241c76.227-9.359 148.403-78.684 160.891-154.536 6.029-36.618-2.618-69.252-24.348-91.892-21.7-22.608-53.89-32.577-90.637-28.062-76.228 9.359-148.403 78.684-160.891 154.536-6.029 36.617 2.618 69.251 24.347 91.891 21.7 22.609 53.886 32.578 90.638 28.063z"/></g><path d="m402.864 481.467-16.716 75.691-16.582-36.642z" fill="url(#i)" opacity=".5"/></svg></g></svg>