<svg xmlns="http://www.w3.org/2000/svg" x="0px" y="0px" width="100" height="100" viewBox="0 0 24 24">
    <path d="M20,3H4C2.9,3,2.01,3.9,2.01,5L2.001,20.584c0,0.891,1.077,1.338,1.707,0.708L6,19h14c1.1,0,2-0.9,2-2V5 C22,3.9,21.1,3,20,3z M13,16.5c0,0.276-0.224,0.5-0.5,0.5h-1c-0.276,0-0.5-0.224-0.5-0.5v-1c0-0.276,0.224-0.5,0.5-0.5h1 c0.276,0,0.5,0.224,0.5,0.5V16.5z M13,13h-2c0-0.975,2-2.946,2-4c0-0.01-0.011-1-1-1c-0.826,0-1,0.835-1,1c0,0.552-0.448,1-1,1 S9,9.552,9,9c0-1.21,0.954-3,3-3c1.878,0,3,1.525,3,3C15,10.422,13,12.014,13,13z"></path>
</svg>