<svg xmlns="http://www.w3.org/2000/svg" viewBox="0 0 1200 800" width="1200" height="800"><path fill="#FFF" d="M0 0h1200v800H0z"/><g transform="translate(335.0 120.0) rotate(0.0 265.5 280.0) scale(0.4275703135757198 0.4275096342349715)"><svg width="1241.901" height="1309.912" viewBox="0 0 1241.901 1309.912"><linearGradient id="a" gradientUnits="userSpaceOnUse" x1="-167.034" x2="407.747" y1="431.168" y2="697.623"><stop offset=".144" stop-color="#231f20" stop-opacity="0"/><stop offset="1" stop-color="#231f20" stop-opacity=".3"/></linearGradient><linearGradient id="b" gradientUnits="userSpaceOnUse" x1="-200.372" x2="699.628" y1="742.122" y2="312.122"><stop offset="0" stop-color="#231f20" stop-opacity="0"/><stop offset="1" stop-color="#231f20"/></linearGradient><clipPath id="e"><path d="m986.901 517.412-51.244 198.743-62.5 61.25-101.838-53.469 50.937-102.339c6.428-17.726 12.878-52.789-5.549-56.788L778.96 576.07l-43.4 156.03-54.716 60.746-107.667-51.186 14.41-69.433-53.885 27.075-6.076 18.227-45.721 80.71-75.004-43.327-157.5 77.5 172.5 420 110 57.5 710-272.5z"/></clipPath><linearGradient xmlns:xlink="http://www.w3.org/1999/xlink" id="f" x1="561.921" x2="469.761" xlink:href="#a" y1="1176.685" y2="1259.014"/><linearGradient xmlns:xlink="http://www.w3.org/1999/xlink" id="g" gradientTransform="matrix(.99939751 -.03470763 .03470763 .99939751 -130.647 -32.062)" x1="934.196" x2="1048.763" xlink:href="#b" y1="484.22" y2="484.22"/><linearGradient xmlns:xlink="http://www.w3.org/1999/xlink" id="h" gradientTransform="matrix(.99939751 -.03470763 .03470763 .99939751 -130.647 -32.062)" x1="934.196" x2="1002.492" xlink:href="#b" y1="361.395" y2="361.395"/><linearGradient id="i" gradientUnits="userSpaceOnUse" x1="355.239" x2="680.17" y1="1072.762" y2="917.36"><stop offset=".144" stop-color="#231f20" stop-opacity="0"/><stop offset="1" stop-color="#231f20" stop-opacity=".6"/></linearGradient><linearGradient xmlns:xlink="http://www.w3.org/1999/xlink" id="j" x1="387.635" x2="642.841" xlink:href="#a" y1="594.363" y2="712.671"/><linearGradient xmlns:xlink="http://www.w3.org/1999/xlink" id="k" x1="623.687" x2="824.809" xlink:href="#a" y1="574.924" y2="769.286"/><linearGradient xmlns:xlink="http://www.w3.org/1999/xlink" id="l" x1="797.732" x2="1018.874" xlink:href="#a" y1="553.695" y2="767.403"/><clipPath id="m"><path d="M513.953 230.168 616.499 280.1 470.548 773.446l-102.562-49.927z"/></clipPath><clipPath id="n"><path d="m569.97 172.832 102.546 49.932-56.017 57.336-102.546-49.932z"/></clipPath><clipPath id="o"><path d="M672.516 222.764 526.565 716.11l-56.017 57.336L616.499 280.1z"/></clipPath><linearGradient id="c" gradientUnits="userSpaceOnUse" x1="424.002" x2="672.516" y1="444.471" y2="444.471"><stop offset="0" stop-color="#fff"/><stop offset=".755" stop-color="#FFFBA4"/></linearGradient><clipPath id="p"><path d="m569.97 172.832 102.546 49.932L526.565 716.11l-102.563-49.927z"/></clipPath><linearGradient id="d" gradientUnits="userSpaceOnUse" x1="424.002" x2="672.516" y1="444.471" y2="444.471"><stop offset="0" stop-color="#fff" stop-opacity=".7"/><stop offset=".824" stop-color="#FFFBA4"/></linearGradient><linearGradient xmlns:xlink="http://www.w3.org/1999/xlink" id="q" x1="367.986" x2="569.97" xlink:href="#c" y1="448.175" y2="448.175"/><clipPath id="r"><path d="m424.002 666.183-56.016 57.336 145.967-493.351 56.017-57.336z"/></clipPath><linearGradient xmlns:xlink="http://www.w3.org/1999/xlink" id="s" x1="367.986" x2="526.565" xlink:href="#c" y1="719.814" y2="719.814"/><clipPath id="t"><path d="m526.565 716.11-56.017 57.336-102.562-49.927 56.016-57.336z"/></clipPath><clipPath id="u"><path d="m752.552 120.426 102.547 49.933-179.551 616.837-102.562-49.927z"/></clipPath><clipPath id="v"><path d="m808.569 63.09 102.546 49.932-56.016 57.337-102.547-49.933z"/></clipPath><clipPath id="w"><path d="M911.115 113.022 731.565 729.86l-56.017 57.336 179.551-616.837z"/></clipPath><linearGradient xmlns:xlink="http://www.w3.org/1999/xlink" id="x" x1="629.002" x2="911.115" xlink:href="#c" y1="396.475" y2="396.475"/><clipPath id="y"><path d="m808.569 63.09 102.546 49.932-179.55 616.838-102.563-49.927z"/></clipPath><linearGradient xmlns:xlink="http://www.w3.org/1999/xlink" id="z" x1="629.002" x2="911.115" xlink:href="#d" y1="396.475" y2="396.475"/><linearGradient xmlns:xlink="http://www.w3.org/1999/xlink" id="A" x1="572.986" x2="808.569" xlink:href="#c" y1="400.179" y2="400.179"/><clipPath id="B"><path d="m629.002 679.933-56.016 57.336 179.566-616.843 56.017-57.336z"/></clipPath><linearGradient xmlns:xlink="http://www.w3.org/1999/xlink" id="C" x1="572.986" x2="731.565" xlink:href="#c" y1="733.564" y2="733.564"/><clipPath id="D"><path d="m731.565 729.86-56.017 57.336-102.562-49.927 56.016-57.336z"/></clipPath><clipPath id="E"><path d="m965.066 58.586 102.546 49.933-193.73 665.344-102.563-49.927z"/></clipPath><clipPath id="F"><path d="m1021.083 1.25 102.546 49.933-56.017 57.336-102.546-49.933z"/></clipPath><clipPath id="G"><path d="M1123.629 51.183 929.898 716.527l-56.016 57.336 193.73-665.344z"/></clipPath><linearGradient xmlns:xlink="http://www.w3.org/1999/xlink" id="H" x1="827.335" x2="1123.629" xlink:href="#c" y1="358.888" y2="358.888"/><clipPath id="I"><path d="m1021.083 1.25 102.546 49.933-193.731 665.344-102.563-49.928z"/></clipPath><linearGradient xmlns:xlink="http://www.w3.org/1999/xlink" id="J" x1="827.335" x2="1123.629" xlink:href="#d" y1="358.888" y2="358.888"/><linearGradient xmlns:xlink="http://www.w3.org/1999/xlink" id="K" x1="771.319" x2="1021.083" xlink:href="#c" y1="362.593" y2="362.593"/><clipPath id="L"><path d="m827.335 666.599-56.016 57.337 193.747-665.35 56.017-57.336z"/></clipPath><linearGradient xmlns:xlink="http://www.w3.org/1999/xlink" id="M" x1="771.319" x2="929.898" xlink:href="#c" y1="720.231" y2="720.231"/><clipPath id="N"><path d="m929.898 716.527-56.016 57.336-102.563-49.927 56.016-57.337z"/></clipPath><clipPath id="O"><path d="m964.754 355.146-49.471 67.58-17.226 2.651-63.606-22.086-28.511-29.355 23.308-174.683 145.173 110.873z"/></clipPath><linearGradient xmlns:xlink="http://www.w3.org/1999/xlink" id="P" x1="445.003" x2="733.389" xlink:href="#a" y1="1135.12" y2="1268.809"/><clipPath id="Q"><path d="m848.054 973.642-205-10-77.5 115-15 120 197.5 65 142.5-15 55-245z"/></clipPath><clipPath id="R"><path d="m801.36 1046.168 127.177-4.984-42.646 178.334-127.177 4.984z"/></clipPath><clipPath id="S"><path d="M784.917 1011.547c12.615 4.344 19.976 19.844 16.443 34.621l-42.646 178.334c-3.534 14.777-16.624 23.235-29.239 18.892l-152.238-52.42c-12.594-4.336-19.955-19.837-16.422-34.614l42.646-178.334c3.534-14.777 16.624-23.235 29.218-18.899z"/></clipPath><clipPath id="T"><path d="m591.531 672.145-59.024 28.517 44.802-149.408-97.495-59.997-82.913 31.155 44.779 224.932-63.111 85.146 112.495 7.5 89.995 138.743-131.242 82.233-252.672-.844L17.061 868.664 0 614.65l13.852-179.604 155.332-118.31 85.312 14.487 166.332-36.933 266.264 168.441-9.258 31.582-59.775 85.979z"/></clipPath><radialGradient id="U" cx="491.754" cy="544.626" gradientTransform="matrix(.82956423 .55841131 -.38586221 .57322888 294.021 -42.259)" gradientUnits="userSpaceOnUse" r="166.528"><stop offset="0" stop-color="#FFFBA4"/><stop offset=".899" stop-color="#FFFBA4" stop-opacity="0"/></radialGradient><path d="M562.798 639.115c-10.222-50.871-39.399-89.613-78.181-110.958l-51.589-28.392c38.783 21.344 67.959 60.086 78.181 110.957 20.217 100.61-41.361 210.566-137.537 245.594-47.547 17.316-94.649 13.078-132.568-7.791l51.589 28.392c37.919 20.87 85.021 25.107 132.568 7.791 96.177-35.027 157.754-144.983 137.537-245.593z" fill="#414042"/><path d="M365.84 896.771c-25.969 0-51.083-6.283-73.751-18.758L240.5 849.62a1.25 1.25 0 0 1 1.205-2.191c39.218 21.583 85.932 24.321 131.538 7.712 95.467-34.77 156.808-144.305 136.74-244.174-9.823-48.885-37.368-87.988-77.559-110.108a1.25 1.25 0 0 1 1.205-2.191l51.589 28.393c40.847 22.481 68.834 62.188 78.805 111.807 20.301 101.03-41.756 211.84-138.336 247.014-19.966 7.272-40.154 10.888-59.848 10.888zm-100.17-36.152 27.624 15.203c39.216 21.583 85.933 24.322 131.538 7.712 95.467-34.769 156.809-144.304 136.74-244.173-9.823-48.884-37.367-87.988-77.559-110.108l-27.561-15.168c28.453 23.267 47.995 56.649 55.981 96.392 20.301 101.03-41.756 211.84-138.336 247.015-36.885 13.434-74.5 14.391-108.429 3.128z" fill="#FFFBA4"/><path d="m507.053 365.248 51.589 28.393c-67.17-36.968-150.607-44.476-234.832-13.801C153.442 441.887 44.364 636.663 80.176 814.884c18.108 90.114 69.791 158.741 138.49 196.55l-51.589-28.393c-68.699-37.81-120.383-106.437-138.49-196.55-35.812-178.221 73.266-372.997 243.634-435.044 84.225-30.674 167.662-23.167 234.832 13.801z" fill="#414042"/><path d="M218.666 1012.684c-.204 0-.41-.05-.602-.155l-51.589-28.393c-35.03-19.279-64.85-45.868-88.63-79.028-24.61-34.317-41.596-74.143-50.483-118.372-17.379-86.488-1.527-179.515 44.635-261.944 46.162-82.43 117.118-144.41 199.797-174.521 81.743-29.77 165.506-24.841 235.862 13.88l51.589 28.393a1.25 1.25 0 0 1-1.205 2.191c-69.716-38.369-152.749-43.241-233.802-13.722C154.699 442.759 45.763 637.282 81.402 814.637c17.457 86.877 66.42 156.379 137.867 195.701a1.25 1.25 0 0 1-.604 2.345zm158.806-679.137c-34.493 0-69.836 6.333-104.822 19.074C103.11 414.367-5.826 608.89 29.813 786.245c17.458 86.878 66.42 156.379 137.867 195.702l19.699 10.842c-22.038-16.434-41.445-36.279-57.945-59.287-24.611-34.317-41.596-74.143-50.483-118.372-17.379-86.488-1.527-179.515 44.635-261.944 46.162-82.43 117.118-144.409 199.797-174.521 69.26-25.224 139.971-25.537 202.746-1.492l-19.678-10.83c-39.623-21.807-83.561-32.796-128.979-32.796z" fill="#FFFBA4"/><path d="M697.133 590.191c35.812 178.221-73.266 372.997-243.634 435.044s-337.51-32.13-373.322-210.351 73.266-372.997 243.634-435.044 337.51 32.13 373.322 210.351zm-134.334 48.924c-20.217-100.61-114.573-153.776-210.75-118.749S194.295 665.349 214.512 765.959s114.573 153.776 210.75 118.749 157.754-144.983 137.537-245.593" fill="#E5F700"/><path d="M348.207 1045.659c-46.576 0-91.579-11.466-132.096-34.215-34.535-19.39-63.925-45.932-87.353-78.888-24.246-34.106-41.004-73.614-49.808-117.425-17.379-86.488-1.527-179.515 44.635-261.944 46.162-82.43 117.118-144.409 199.797-174.521 82.595-30.081 167.052-24.767 237.815 14.966 34.535 19.391 63.925 45.932 87.353 78.888 24.246 34.107 41.004 73.614 49.808 117.425 17.379 86.488 1.528 179.515-44.634 261.944-46.163 82.43-117.119 144.41-199.798 174.521-35.304 12.857-70.95 19.249-105.72 19.249zm80.891-683.739c-34.485 0-69.833 6.338-104.859 19.094C154.7 442.76 45.764 637.283 81.403 814.638c17.279 85.99 65.555 155.109 135.933 194.625 40.13 22.532 84.728 33.89 130.877 33.892 34.486.001 69.833-6.338 104.859-19.094 169.539-61.746 278.475-256.269 242.836-433.624-17.279-85.99-65.555-155.11-135.933-194.626-40.13-22.532-84.727-33.892-130.877-33.892zM365.82 896.783c-26.385 0-51.881-6.496-74.836-19.385-40.235-22.591-67.829-62.08-77.697-111.191-20.302-101.03 41.755-211.84 138.335-247.014 46.779-17.036 94.617-14.023 134.705 8.485 40.235 22.591 67.829 62.08 77.698 111.191 20.301 101.03-41.756 211.84-138.336 247.014-19.991 7.281-40.178 10.9-59.869 10.9zm45.665-385.987c-19.404 0-39.297 3.567-59.008 10.746-95.467 34.769-156.808 144.304-136.739 244.173 9.723 48.386 36.88 87.275 76.47 109.503 39.441 22.146 86.543 25.101 132.626 8.317 95.467-34.769 156.809-144.304 136.74-244.173-9.724-48.386-36.881-87.275-76.471-109.504-22.572-12.673-47.656-19.062-73.618-19.062z" fill="#FFFBA4"/><path d="m57.685 559.459 58.724 9.645 114.755 63.427 9.725-19.188-164.233-93.322c-7.874 14.826-14.414 28.207-18.971 39.439z" fill="url(#a)"/><path d="m314.439 640.41-79.34-23.788L23.788 488.769l79.341 23.788zm-128.58-305.784c-23.795 8.881-46.12 21.389-66.589 36.815-39.623 29.858-72.326 70.652-95.481 117.328l79.34 23.788c23.155-46.677 55.858-87.471 95.481-117.329 20.47-15.425 42.794-27.933 66.589-36.815z" fill="#FFFC48"/><path d="M103.129 513.807a1.24 1.24 0 0 1-.359-.053l-79.34-23.788a1.254 1.254 0 0 1-.761-1.753c23.604-47.582 56.748-88.307 95.85-117.771 20.963-15.798 43.473-28.243 66.903-36.988.258-.096.537-.104.797-.026l79.341 23.788a1.25 1.25 0 0 1 .078 2.368c-23.205 8.661-45.503 20.989-66.275 36.642-38.791 29.231-71.681 69.649-95.113 116.886a1.25 1.25 0 0 1-1.12.694zM25.57 487.998l76.909 23.06c23.573-47.18 56.536-87.558 95.379-116.828 19.936-15.022 41.271-27.014 63.464-35.674l-75.419-22.611c-23.063 8.653-45.228 20.931-65.881 36.495-38.428 28.957-71.064 68.895-94.452 115.559z" fill="#FFFBA4"/><path d="M198.61 395.228c20.47-15.425 42.794-27.933 66.589-36.815l49.24 281.996-211.31-127.853c23.155-46.677 55.858-87.471 95.481-117.329z" fill="#231f20"/><path d="M314.439 641.66c-.224 0-.448-.06-.647-.181L102.481 513.626a1.25 1.25 0 0 1-.473-1.625c23.604-47.58 56.752-88.308 95.85-117.771 20.964-15.798 43.474-28.243 66.904-36.988a1.248 1.248 0 0 1 1.669.956l49.239 281.997a1.252 1.252 0 0 1-1.231 1.465zM104.76 512.083l207.975 125.834-48.507-277.803c-22.698 8.631-44.516 20.776-64.866 36.112-38.509 29.019-71.202 69.062-94.602 115.856zm93.85-116.855h.01z" fill="#FFFBA4"/><path d="m314.439 641.41-79.34-23.788L23.788 489.769l79.341 23.788z" fill="url(#b)"/><path d="M314.439 641.66c-.119 0-.239-.017-.359-.053l-79.341-23.787a1.236 1.236 0 0 1-.288-.128L23.141 489.839a1.25 1.25 0 0 1 1.007-2.266l79.34 23.787c.101.03.197.073.288.128l211.311 127.853a1.25 1.25 0 0 1-.648 2.319zm-78.829-26.189 69.768 20.917-202.76-122.679-69.768-20.917zm740.259-60.955L767.866 654.862c-4.125 1.99-8.248 3.565-12.172 4.708-3.926 1.144-7.654 1.858-10.988 2.124-3.336.267-6.276.087-8.623-.557-2.349-.645-4.103-1.755-5.061-3.347l-.077-.133-.073-.133a4.303 4.303 0 0 1-.134-.271l211.338 459.512.056.117a2.509 2.509 0 0 0 .124.228l.068.112c.851 1.346 2.531 2.214 4.835 2.631 2.302.417 5.23.383 8.582-.071 3.349-.454 7.123-1.329 11.123-2.598 3.998-1.268 8.224-2.932 12.479-4.961l214.594-102.393-218.069-455.313z" fill="#FFFBA4"/><path d="M950.803 1121.396c-1.419 0-2.71-.104-3.865-.313-2.734-.495-4.642-1.569-5.669-3.192l-.331-.613L729.6 657.768a1.25 1.25 0 0 1 2.275-1.037l.214.406c.771 1.281 2.225 2.218 4.326 2.795 2.195.603 4.952.777 8.192.517 3.298-.264 6.911-.963 10.737-2.078 3.981-1.16 8.012-2.719 11.979-4.633l208.003-100.347a1.251 1.251 0 0 1 1.67.586l218.069 455.313a1.251 1.251 0 0 1-.589 1.669l-214.595 102.393c-4.214 2.01-8.466 3.701-12.639 5.025-4.049 1.285-7.862 2.175-11.333 2.646-1.847.25-3.554.375-5.107.375zm-7.521-5.014.061.107c.668 1.058 2.052 1.773 4.041 2.133 2.132.386 4.965.358 8.191-.08 3.329-.451 7.001-1.31 10.913-2.551 4.063-1.29 8.208-2.938 12.318-4.898l213.465-101.854-216.987-453.054-206.874 99.802c-4.091 1.974-8.251 3.583-12.365 4.782-3.989 1.163-7.77 1.893-11.237 2.17-3.532.283-6.576.082-9.054-.598a14.32 14.32 0 0 1-1.532-.512l208.992 454.412-1.021.754 1.089-.614z" fill="#231f20"/><path d="M1043.875 1043.695 827.506 581.642c.783 1.672.707 3.655-.102 5.813-.808 2.156-2.35 4.487-4.5 6.857-2.149 2.367-4.907 4.773-8.153 7.082-3.244 2.308-6.977 4.519-11.077 6.498l-47.163 22.767c-4.376 2.112-8.354 4.464-11.808 6.913-3.452 2.448-6.379 4.992-8.657 7.491-2.276 2.497-3.904 4.948-4.761 7.213-.856 2.262-.942 4.339-.137 6.091l211.265 459.543c-.688-1.497-.464-3.34.542-5.399 1.007-2.06 2.798-4.336 5.24-6.695 2.444-2.361 5.54-4.804 9.154-7.196 3.616-2.394 7.75-4.734 12.266-6.891l48.67-23.235c4.231-2.02 8.111-4.221 11.509-6.476 3.4-2.255 6.319-4.566 8.626-6.802 2.31-2.238 4.007-4.403 4.961-6.366.955-1.964 1.164-3.726.495-5.155z" fill="#E5F700"/><path d="M942.414 1119.161a1.25 1.25 0 0 1-1.137-.728L730.012 658.89c-.934-2.03-.899-4.404.104-7.055.909-2.406 2.594-4.967 5.006-7.614 2.374-2.604 5.354-5.184 8.858-7.668 3.61-2.561 7.644-4.922 11.987-7.019l47.163-22.767c3.946-1.905 7.612-4.056 10.896-6.391 3.155-2.244 5.831-4.566 7.952-6.903 2.074-2.285 3.506-4.457 4.255-6.455.709-1.89.759-3.516.146-4.833l-.005-.011a1.25 1.25 0 1 1 2.264-1.06c.292.625.002.005.004.007l216.364 462.045c.822 1.757.653 3.854-.502 6.232-1.014 2.086-2.769 4.346-5.215 6.717-2.396 2.322-5.358 4.66-8.805 6.947-3.554 2.357-7.478 4.565-11.663 6.562l-48.669 23.235c-4.364 2.083-8.439 4.373-12.113 6.805-3.529 2.335-6.549 4.708-8.977 7.052-2.334 2.254-4.058 4.448-4.985 6.345-.861 1.763-1.039 3.219-.529 4.327a1.25 1.25 0 0 1-1.134 1.773zM828.779 587.309a12.43 12.43 0 0 1-.205.586c-.86 2.295-2.457 4.737-4.744 7.258-2.243 2.47-5.054 4.912-8.354 7.26-3.397 2.417-7.186 4.639-11.259 6.605l-47.163 22.767c-4.218 2.037-8.13 4.327-11.627 6.807-3.358 2.381-6.203 4.842-8.457 7.313-2.199 2.412-3.718 4.704-4.516 6.813-.757 2.002-.813 3.727-.17 5.127l209.165 454.976c.113-.282.241-.568.383-.858 1.069-2.186 2.918-4.556 5.495-7.045 2.536-2.45 5.677-4.919 9.333-7.339 3.77-2.496 7.947-4.843 12.417-6.976l48.669-23.235c4.08-1.948 7.901-4.097 11.356-6.39 3.319-2.203 6.161-4.443 8.447-6.659 2.205-2.137 3.833-4.217 4.707-6.015.81-1.666.973-3.039.486-4.079L828.778 587.308z" fill="#231f20"/><path d="M825.814 578.045c-.985-1.797-2.847-3.068-5.372-3.824-2.528-.758-5.72-1.001-9.359-.745-3.642.257-7.731 1.014-12.047 2.258-4.318 1.243-8.863 2.973-13.415 5.171L258.142 835.702l167.012 393.458 95.72 46.27 481.178-229.845c4.699-2.244 9.359-4.072 13.76-5.456 4.399-1.382 8.538-2.319 12.196-2.784 3.655-.464 6.83-.457 9.306.05 2.473.506 4.249 1.51 5.112 3.038L825.815 578.045z" fill="#FFFBA4"/><g fill="#231f20"><path d="M520.874 1276.68c-.187 0-.372-.042-.544-.125l-95.719-46.271a1.25 1.25 0 0 1-.606-.637L256.992 836.189a1.25 1.25 0 0 1 .606-1.614l527.479-254.797c4.514-2.181 9.094-3.946 13.612-5.247 4.38-1.261 8.521-2.036 12.306-2.303 3.848-.269 7.145-.003 9.807.795 2.927.876 4.982 2.364 6.109 4.421a.913.913 0 0 1 .035.07l216.611 462.388a1.25 1.25 0 0 1-2.22 1.145c-.821-1.452-2.777-2.122-4.274-2.428-2.298-.47-5.374-.482-8.898-.035-3.642.463-7.673 1.383-11.979 2.736-4.482 1.409-9.057 3.223-13.596 5.391l-481.178 229.845a1.241 1.241 0 0 1-.539.122zm-94.752-48.441 94.755 45.805 480.636-229.586c4.645-2.219 9.329-4.076 13.924-5.52 4.448-1.397 8.624-2.35 12.414-2.832 3.844-.488 7.112-.466 9.714.066.604.124 1.17.274 1.696.452L824.7 578.614c-.805-1.443-2.357-2.518-4.616-3.195-2.371-.711-5.368-.944-8.913-.695-3.61.254-7.577.999-11.79 2.211-4.383 1.262-8.829 2.977-13.216 5.096L259.759 836.31l166.363 391.93z"/><path d="m425.155 1229.159 79.081-6.013 16.638 52.283z"/><path d="M520.874 1276.68c-.185 0-.371-.041-.544-.125l-95.719-46.271a1.25 1.25 0 0 1 .449-2.372l79.081-6.014a1.256 1.256 0 0 1 1.286.868l16.638 52.284a1.25 1.25 0 0 1-1.191 1.629zm-90.996-46.626 88.924 42.986-15.457-48.573z"/></g><path d="M1193.939 1009.83 975.87 554.517l.468.961 218.002 455.173z" fill="#e6e7e8"/><path d="M1194.34 1011.902c-.463 0-.908-.259-1.125-.703l-.4-.821-.003-.008-218.069-455.313a1.25 1.25 0 0 1 2.251-1.087l.468.962 218.005 455.18a1.25 1.25 0 0 1-1.126 1.791z" fill="#231f20"/><g clip-path="url(#e)"><path d="M975.869 554.516 767.866 654.862c-4.125 1.99-8.248 3.565-12.172 4.708-3.926 1.144-7.654 1.858-10.988 2.124-3.336.267-6.276.087-8.623-.557-2.349-.645-4.103-1.755-5.061-3.347l-.077-.133-.073-.133a4.303 4.303 0 0 1-.134-.271l211.338 459.512.056.117a2.509 2.509 0 0 0 .124.228l.068.112c.851 1.346 2.531 2.214 4.835 2.631 2.302.417 5.23.383 8.582-.071 3.349-.454 7.123-1.329 11.123-2.598 3.998-1.268 8.224-2.932 12.479-4.961l214.594-102.393-218.069-455.313z" fill="#FFFBA4"/><path d="M950.803 1121.396c-1.419 0-2.71-.104-3.865-.313-2.734-.495-4.642-1.569-5.669-3.192l-.331-.613L729.6 657.768a1.25 1.25 0 0 1 2.275-1.037l.214.406c.771 1.281 2.225 2.218 4.326 2.795 2.195.603 4.952.777 8.192.517 3.298-.264 6.911-.963 10.737-2.078 3.981-1.16 8.012-2.719 11.979-4.633l208.003-100.347a1.251 1.251 0 0 1 1.67.586l218.069 455.313a1.251 1.251 0 0 1-.589 1.669l-214.595 102.393c-4.214 2.01-8.466 3.701-12.639 5.025-4.049 1.285-7.862 2.175-11.333 2.646-1.847.25-3.554.375-5.107.375zm-7.521-5.014.061.107c.668 1.058 2.052 1.773 4.041 2.133 2.132.386 4.965.358 8.191-.08 3.329-.451 7.001-1.31 10.913-2.551 4.063-1.29 8.208-2.938 12.318-4.898l213.465-101.854-216.987-453.054-206.874 99.802c-4.091 1.974-8.251 3.583-12.365 4.782-3.989 1.163-7.77 1.893-11.237 2.17-3.532.283-6.576.082-9.054-.598a14.32 14.32 0 0 1-1.532-.512l208.992 454.412-1.021.754 1.089-.614z" fill="#231f20"/><path d="m1043.875 1043.695-72.932-155.746-106.597 60.149 78.067 169.811c-.688-1.497-.464-3.34.542-5.399 1.007-2.06 2.798-4.336 5.24-6.695 2.444-2.361 5.54-4.804 9.154-7.196 3.616-2.394 7.75-4.734 12.266-6.891l48.67-23.235c4.231-2.02 8.111-4.221 11.509-6.476 3.4-2.255 6.319-4.566 8.626-6.802 2.31-2.238 4.007-4.403 4.961-6.366.955-1.964 1.164-3.726.495-5.155z" fill="#E5F700"/><path d="M942.414 1119.161a1.25 1.25 0 0 1-1.137-.728c0-.001 0-.003-.002-.004L863.21 948.621a1.251 1.251 0 0 1 .521-1.611l106.598-60.149a1.249 1.249 0 0 1 1.746.558l72.932 155.746c.822 1.757.653 3.854-.502 6.232-1.014 2.086-2.769 4.346-5.215 6.717-2.396 2.322-5.358 4.66-8.805 6.947-3.554 2.357-7.478 4.565-11.663 6.562l-48.669 23.235c-4.364 2.083-8.439 4.373-12.113 6.805-3.529 2.335-6.549 4.708-8.977 7.052-2.334 2.254-4.058 4.449-4.985 6.345-.861 1.763-1.039 3.219-.529 4.327a1.25 1.25 0 0 1-1.134 1.773zm-76.452-170.539 75.487 164.199c.113-.282.241-.568.383-.858 1.069-2.186 2.918-4.556 5.495-7.045 2.536-2.45 5.677-4.919 9.333-7.339 3.77-2.496 7.947-4.843 12.417-6.976l48.669-23.235c4.08-1.948 7.901-4.097 11.356-6.39 3.319-2.203 6.161-4.443 8.447-6.659 2.205-2.137 3.833-4.217 4.707-6.015.81-1.666.973-3.038.486-4.079l-72.36-154.524-104.421 58.921z" fill="#231f20"/><path d="M921.492 844.169a4.266 4.266 0 0 1-2.743-7.533l109.951-92.205a4.266 4.266 0 0 1 5.481 6.536L924.23 843.172a4.247 4.247 0 0 1-2.738.997z" fill="#FFFC48"/><path d="M825.814 578.045c-.985-1.797-2.847-3.068-5.372-3.824-2.528-.758-5.72-1.001-9.359-.745-3.642.257-7.731 1.014-12.047 2.258-4.318 1.243-8.863 2.973-13.415 5.171L258.142 835.702l167.012 393.458 95.72 46.27 481.178-229.845c4.699-2.244 9.359-4.072 13.76-5.456 4.399-1.382 8.538-2.319 12.196-2.784 3.655-.464 6.83-.457 9.306.05 2.473.506 4.249 1.51 5.112 3.038L825.815 578.045z" fill="#FFFBA4"/><path d="M520.874 1276.68c-.187 0-.372-.042-.544-.125l-95.719-46.271a1.25 1.25 0 0 1-.606-.637L256.992 836.189a1.25 1.25 0 0 1 .606-1.614l527.479-254.797c4.514-2.181 9.094-3.946 13.612-5.247 4.38-1.261 8.521-2.036 12.306-2.303 3.848-.269 7.145-.003 9.807.795 2.927.876 4.982 2.364 6.109 4.421a.913.913 0 0 1 .035.07l216.611 462.388a1.25 1.25 0 0 1-2.22 1.145c-.821-1.452-2.777-2.122-4.274-2.428-2.298-.47-5.374-.482-8.898-.035-3.642.463-7.673 1.383-11.979 2.736-4.482 1.409-9.057 3.223-13.596 5.391l-481.178 229.845a1.241 1.241 0 0 1-.539.122zm-94.752-48.441 94.755 45.805 480.636-229.586c4.645-2.219 9.329-4.076 13.924-5.52 4.448-1.397 8.624-2.35 12.414-2.832 3.844-.488 7.112-.466 9.714.066.604.124 1.17.274 1.696.452L824.7 578.614c-.805-1.443-2.357-2.518-4.616-3.195-2.371-.711-5.368-.944-8.913-.695-3.61.254-7.577.999-11.79 2.211-4.383 1.262-8.829 2.977-13.216 5.096L259.759 836.31l166.363 391.93z" fill="#231f20"/><path d="M499.495 1090.546a4.264 4.264 0 0 1-3.735-6.314l55.161-100.706a4.259 4.259 0 0 1 2.69-2.085l31.555-8.018 19.36-45.64a4.263 4.263 0 0 1 2.971-2.493l28.372-6.514 30.784-64.114a4.266 4.266 0 0 1 5.403-2.124l26.875 10.547 53.125-9.775c10.791-10.244 100.994-94.688 137.717-92.073 6.808.486 16.729 5.666 25.34 11.027l7.358 15.228c-9.503-6.81-25.498-17.189-33.304-17.744a18.018 18.018 0 0 0-1.328-.046c-29.634 0-104.185 65.146-130.811 90.654a4.274 4.274 0 0 1-2.18 1.113l-55.571 10.225a4.299 4.299 0 0 1-2.329-.225l-24.321-9.543-29.956 62.393a4.272 4.272 0 0 1-2.891 2.312l-28.252 6.487-19.336 45.583a4.257 4.257 0 0 1-2.876 2.468l-31.807 8.081-54.27 99.077a4.261 4.261 0 0 1-3.745 2.217z" fill="#FFFC48"/><path d="m435.657 1227.404 95-21.25-9.783 69.275z" fill="url(#f)"/><g fill="#231f20"><path d="m425.155 1229.159 79.081-6.013 16.638 52.283z"/><path d="M520.874 1276.68c-.185 0-.371-.041-.544-.125l-95.719-46.271a1.25 1.25 0 0 1 .449-2.372l79.081-6.014a1.256 1.256 0 0 1 1.286.868l16.638 52.284a1.25 1.25 0 0 1-1.191 1.629zm-90.996-46.626 88.924 42.986-15.457-48.573z"/></g></g><path d="m964.439 313.179-78.233 50.801 49.931 104.565z" fill="#E5F700"/><path d="M936.136 469.795c-.476 0-.918-.272-1.127-.711l-49.931-104.565a1.25 1.25 0 0 1 .447-1.587l78.232-50.801a1.251 1.251 0 0 1 1.91 1.273L937.365 468.77a1.25 1.25 0 0 1-1.23 1.026zm-48.329-105.364L935.6 464.519l27.09-148.714z" fill="#231f20"/><path d="m886.206 363.98-68.066 7.796 117.997 96.769z" fill="#E5F700"/><path d="M936.137 469.795a1.25 1.25 0 0 1-.793-.284l-117.997-96.769a1.249 1.249 0 0 1 .651-2.208l68.066-7.796a1.242 1.242 0 0 1 1.271.703l49.931 104.565a1.25 1.25 0 0 1-1.127 1.788zm-114.921-97.113 111.375 91.338-47.129-98.697z" fill="#231f20"/><path d="m964.439 313.179-39.116 25.401-39.117 25.4-48.777-143.237z" fill="#FFFC48"/><path d="M886.207 365.23a1.251 1.251 0 0 1-1.183-.847l-48.777-143.237a1.25 1.25 0 0 1 1.919-1.413l127.01 92.436a1.252 1.252 0 0 1-.054 2.059l-78.232 50.801a1.252 1.252 0 0 1-.681.202zm-46.322-141.154 46.988 137.981 75.361-48.937-122.35-89.044z" fill="#231f20"/><path d="m886.206 363.98-34.033 3.898-34.033 3.898 19.289-151.033z" fill="#FFFC48"/><path d="M818.14 373.026a1.254 1.254 0 0 1-1.241-1.408l19.289-151.033a1.25 1.25 0 0 1 1.114-1.085 1.242 1.242 0 0 1 1.31.841l48.777 143.237a1.25 1.25 0 0 1-1.041 1.644l-68.066 7.796a1.153 1.153 0 0 1-.143.008zm19.846-146.772-18.403 144.099 64.94-7.438-46.537-136.66z" fill="#231f20"/><path d="m886.206 363.98-68.066 7.796 117.997 96.769z" fill="url(#g)" opacity=".5"/><path d="m886.206 363.98-34.033 3.898-34.033 3.898 19.289-151.033z" fill="url(#h)" opacity=".5"/><path d="m827.132 580.475 21.075 44.987 10.584 22.592 21.261 45.384 21.386 45.651 10.74 22.926 21.576 46.056 21.704 46.329 10.9 23.268 21.898 46.744 22.029 47.023 11.064 23.617 22.228 47.447-.035-.074-.037-.073-.038-.073-.04-.072-216.47-462.075.046.085.044.085.043.086.041.086z" fill="#e6e7e8"/><path d="M1043.579 1043.75c-.466 0-.913-.262-1.128-.709l.07-.046-.075.036-.043-.092h-.002a9.54 9.54 0 0 1-.105-.199l-216.47-462.075a1.25 1.25 0 0 1 2.226-1.134l.062.115.048.093.058.116.044.092 216.446 462.024a1.25 1.25 0 0 1-1.131 1.781z" fill="#231f20"/><path d="M1042.425 1040.433 825.814 578.045l1.144 2.088 216.469 462.075z" fill="#e6e7e8"/><path d="M1043.428 1043.458c-.438 0-.86-.229-1.09-.636l-1.002-1.775c-.016-.027-.029-.055-.043-.084L824.682 578.575a1.25 1.25 0 0 1 2.228-1.131l1.144 2.088 216.505 462.146a1.25 1.25 0 0 1-1.131 1.78z" fill="#231f20"/><path d="M565.756 956.137s-32.042 55.773-74.294 89.575c-42.253 33.802-108.167 74.365-108.167 74.365l-49.013-98.026 212.953-84.505z" fill="url(#i)"/><path d="m443.047 746.705 61.865 33.063 27.992-27.183 44.405-201.331-72.327 163.199z" fill="url(#j)"/><path d="m623.289 743.184 94.576 53.485 27.992-27.183 53.178-193.753-141.944 66.045z" fill="url(#k)"/><path d="m810.221 737.093 102.076 50.985 32.992-37.183 46.084-167.905-15.504-28.474-127.726 58.53z" fill="url(#l)"/><g opacity=".5"><path d="M513.953 230.168 616.499 280.1 470.548 773.446l-102.562-49.927z" fill="#a7a9ac"/><g clip-path="url(#m)"><path d="M513.953 230.168 616.499 280.1 470.548 773.446l-102.562-49.927z" fill="#a7a9ac"/></g></g><g opacity=".5"><path d="m569.97 172.832 102.546 49.932-56.017 57.336-102.546-49.932z" fill="#d1d3d4"/><g clip-path="url(#n)"><path d="m569.97 172.832 102.546 49.932-56.017 57.336-102.546-49.932z" fill="#d1d3d4"/></g></g><g opacity=".5"><path d="M672.516 222.764 526.565 716.11l-56.017 57.336L616.499 280.1z" fill="#bcbec0"/><g clip-path="url(#o)"><path d="M672.516 222.764 526.565 716.11l-56.017 57.336L616.499 280.1z" fill="#bcbec0"/></g></g><g opacity=".5"><path d="m569.97 172.832 102.546 49.932L526.565 716.11l-102.563-49.927z" fill="url(#c)"/><g clip-path="url(#p)"><path d="m569.97 172.832 102.546 49.932L526.565 716.11l-102.563-49.927z" fill="url(#d)"/></g></g><g opacity=".5"><path d="m424.002 666.183-56.016 57.336 145.967-493.351 56.017-57.336z" fill="url(#q)"/><g clip-path="url(#r)"><path d="m424.002 666.183-56.016 57.336 145.967-493.351 56.017-57.336z" fill="url(#q)"/></g></g><path d="M526.565 717.36c-.188 0-.375-.042-.547-.126l-102.562-49.928a1.249 1.249 0 0 1-.651-1.479l145.967-493.351a1.251 1.251 0 0 1 1.745-.77l102.547 49.933c.55.268.825.893.651 1.479L527.764 716.464a1.248 1.248 0 0 1-1.198.896zm-101.063-51.838 100.283 48.818 145.232-490.916-100.268-48.823-145.248 490.92z" fill="#fff"/><g opacity=".5"><path d="m526.565 716.11-56.017 57.336-102.562-49.927 56.016-57.336z" fill="url(#s)"/><g clip-path="url(#t)"><path d="m526.565 716.11-56.017 57.336-102.562-49.927 56.016-57.336z" fill="url(#s)"/></g></g><g opacity=".5"><path d="m752.552 120.426 102.547 49.933-179.551 616.837-102.562-49.927z" fill="#a7a9ac"/><g clip-path="url(#u)"><path d="m752.552 120.426 102.547 49.933-179.551 616.837-102.562-49.927z" fill="#a7a9ac"/></g></g><g opacity=".5"><path d="m808.569 63.09 102.546 49.932-56.016 57.337-102.547-49.933z" fill="#d1d3d4"/><g clip-path="url(#v)"><path d="m808.569 63.09 102.546 49.932-56.016 57.337-102.547-49.933z" fill="#d1d3d4"/></g></g><g opacity=".5"><path d="M911.115 113.022 731.565 729.86l-56.017 57.336 179.551-616.837z" fill="#bcbec0"/><g clip-path="url(#w)"><path d="M911.115 113.022 731.565 729.86l-56.017 57.336 179.551-616.837z" fill="#bcbec0"/></g></g><g opacity=".5"><path d="m808.569 63.09 102.546 49.932-179.55 616.838-102.563-49.927z" fill="url(#x)"/><g clip-path="url(#y)"><path d="m808.569 63.09 102.546 49.932-179.55 616.838-102.563-49.927z" fill="url(#z)"/></g></g><g opacity=".5"><path d="m629.002 679.933-56.016 57.336 179.566-616.843 56.017-57.336z" fill="url(#A)"/><g clip-path="url(#B)"><path d="m629.002 679.933-56.016 57.336 179.566-616.843 56.017-57.336z" fill="url(#A)"/></g></g><path d="M731.565 731.11c-.188 0-.375-.042-.547-.126l-102.562-49.928a1.25 1.25 0 0 1-.653-1.473L807.369 62.74a1.247 1.247 0 0 1 1.747-.774l102.547 49.933c.548.267.823.889.653 1.473L732.765 730.21a1.247 1.247 0 0 1-1.2.9zm-101.067-51.84 100.281 48.817 178.842-614.402-100.266-48.822z" fill="#fff"/><g opacity=".5"><path d="m731.565 729.86-56.017 57.336-102.562-49.927 56.016-57.336z" fill="url(#C)"/><g clip-path="url(#D)"><path d="m731.565 729.86-56.017 57.336-102.562-49.927 56.016-57.336z" fill="url(#C)"/></g></g><g opacity=".5"><path d="m965.066 58.586 102.546 49.933-193.73 665.344-102.563-49.927z" fill="#a7a9ac"/><g clip-path="url(#E)"><path d="m965.066 58.586 102.546 49.933-193.73 665.344-102.563-49.927z" fill="#a7a9ac"/></g></g><g opacity=".5"><path d="m1021.083 1.25 102.546 49.933-56.017 57.336-102.546-49.933z" fill="#d1d3d4"/><g clip-path="url(#F)"><path d="m1021.083 1.25 102.546 49.933-56.017 57.336-102.546-49.933z" fill="#d1d3d4"/></g></g><g opacity=".5"><path d="M1123.629 51.183 929.898 716.527l-56.016 57.336 193.73-665.344z" fill="#bcbec0"/><g clip-path="url(#G)"><path d="M1123.629 51.183 929.898 716.527l-56.016 57.336 193.73-665.344z" fill="#bcbec0"/></g></g><g opacity=".5"><path d="m1021.083 1.25 102.546 49.933-193.731 665.344-102.563-49.928z" fill="url(#H)"/><g clip-path="url(#I)"><path d="m1021.083 1.25 102.546 49.933-193.731 665.344-102.563-49.928z" fill="url(#J)"/></g></g><g opacity=".5"><path d="m827.335 666.599-56.016 57.337 193.747-665.35 56.017-57.336z" fill="url(#K)"/><g clip-path="url(#L)"><path d="m827.335 666.599-56.016 57.337 193.747-665.35 56.017-57.336z" fill="url(#K)"/></g></g><path d="M929.898 717.777c-.188 0-.375-.042-.547-.126l-102.562-49.927a1.25 1.25 0 0 1-.653-1.474L1019.882.9a1.25 1.25 0 0 1 1.747-.774l102.546 49.933c.548.267.823.889.653 1.474l-193.73 665.344a1.25 1.25 0 0 1-1.2.9zm-101.067-51.84 100.281 48.817 193.021-662.909-100.264-48.822z" fill="#fff"/><g opacity=".5"><path d="m929.898 716.527-56.016 57.336-102.563-49.927 56.016-57.337z" fill="url(#M)"/><g clip-path="url(#N)"><path d="m929.898 716.527-56.016 57.336-102.563-49.927 56.016-57.337z" fill="url(#M)"/></g></g><path d="M470.548 774.696c-.186 0-.373-.041-.547-.126l-102.562-49.927a1.25 1.25 0 0 1-.348-1.997l56.017-57.336c.377-.386.96-.486 1.441-.25l102.562 49.928a1.25 1.25 0 0 1 .348 1.997l-56.017 57.336a1.247 1.247 0 0 1-.895.376zM370.09 723.153l100.194 48.774 54.176-55.452L424.266 667.7l-54.176 55.452zm305.458 65.293c-.186 0-.373-.041-.547-.126l-102.562-49.927a1.25 1.25 0 0 1-.348-1.997l56.017-57.336a1.247 1.247 0 0 1 1.441-.25l102.562 49.928a1.25 1.25 0 0 1 .348 1.997l-56.017 57.336a1.247 1.247 0 0 1-.895.376zM575.09 736.903l100.194 48.774 54.176-55.452-100.194-48.775-54.176 55.452zm298.791 38.21c-.186 0-.373-.041-.547-.126l-102.562-49.928a1.25 1.25 0 0 1-.348-1.997l56.017-57.336a1.25 1.25 0 0 1 1.441-.25l102.562 49.927a1.25 1.25 0 0 1 .348 1.997l-56.017 57.336a1.247 1.247 0 0 1-.895.376zM773.423 723.57l100.194 48.775 54.176-55.452-100.194-48.774-54.176 55.452z" fill="#fff"/><g clip-path="url(#O)"><path d="m964.439 313.179-78.233 50.801 49.931 104.565z" fill="#E5F700"/><path d="M936.136 469.795c-.476 0-.918-.272-1.127-.711l-49.931-104.565a1.25 1.25 0 0 1 .447-1.587l78.232-50.801a1.251 1.251 0 0 1 1.91 1.273L937.365 468.77a1.25 1.25 0 0 1-1.23 1.026zm-48.329-105.364L935.6 464.519l27.09-148.714z" fill="#231f20"/><path d="m886.206 363.98-68.066 7.796 117.997 96.769z" fill="#E5F700"/><path d="M936.137 469.795a1.25 1.25 0 0 1-.793-.284l-117.997-96.769a1.249 1.249 0 0 1 .651-2.208l68.066-7.796a1.242 1.242 0 0 1 1.271.703l49.931 104.565a1.25 1.25 0 0 1-1.127 1.788zm-114.921-97.113 111.375 91.338-47.129-98.697z" fill="#231f20"/><path d="m964.439 313.179-39.116 25.401-39.117 25.4-48.777-143.237z" fill="#FFFC48"/><path d="M886.207 365.23a1.251 1.251 0 0 1-1.183-.847l-48.777-143.237a1.25 1.25 0 0 1 1.919-1.413l127.01 92.436a1.252 1.252 0 0 1-.054 2.059l-78.232 50.801a1.252 1.252 0 0 1-.681.202zm-46.322-141.154 46.988 137.981 75.361-48.937-122.35-89.044z" fill="#231f20"/><path d="m886.206 363.98-34.033 3.898-34.033 3.898 19.289-151.033z" fill="#FFFC48"/><path d="M818.14 373.026a1.254 1.254 0 0 1-1.241-1.408l19.289-151.033a1.25 1.25 0 0 1 1.114-1.085 1.242 1.242 0 0 1 1.31.841l48.777 143.237a1.25 1.25 0 0 1-1.041 1.644l-68.066 7.796a1.153 1.153 0 0 1-.143.008zm19.846-146.772-18.403 144.099 64.94-7.438-46.537-136.66z" fill="#231f20"/><path d="m886.206 363.98-68.066 7.796 117.997 96.769z" fill="url(#g)" opacity=".5"/><path d="m886.206 363.98-34.033 3.898-34.033 3.898 19.289-151.033z" fill="url(#h)" opacity=".5"/></g><path d="m566.111 1181.093 42.273 52.99 48.822-23.815z" fill="url(#P)"/><g clip-path="url(#Q)"><path d="m625.203 958.006 127.177-4.984c2.459-.096 4.978.26 7.476 1.121l-127.177 4.984a20.445 20.445 0 0 0-7.476-1.121z" fill="#6d6e71"/><path d="m864.147 1239.534-127.177 4.984c9.943-.39 18.913-8.174 21.744-20.016l127.177-4.984c-2.832 11.842-11.801 19.626-21.744 20.016z" fill="#231f20"/><path d="M736.968 1245.767a1.25 1.25 0 0 1-.048-2.499c9.673-.379 17.942-8.038 20.578-19.057a1.25 1.25 0 0 1 1.167-.958l127.177-4.984c.396-.005.766.153 1.015.456.248.302.341.704.25 1.084-2.899 12.122-12.106 20.551-22.911 20.974l-.049-1.249.049 1.249-127.178 4.984h-.05zm22.728-20.053c-2.071 7.676-6.704 13.779-12.645 17.157l117.047-4.587c9.195-.36 17.123-7.299 20.146-17.451l-124.549 4.881z" fill="#FFFBA4"/><path d="m632.68 959.127 127.177-4.984 152.238 52.42-127.178 4.984z" fill="#808285"/><path d="M784.918 1012.797a1.25 1.25 0 0 1-.407-.068l-152.238-52.42a1.25 1.25 0 0 1 .359-2.431l127.178-4.983c.155-.007.31.017.456.067l152.237 52.419a1.25 1.25 0 0 1-.359 2.431l-127.177 4.984h-.049zm-145.529-52.682 145.715 50.173 120.282-4.714-145.714-50.173-120.283 4.713z" fill="#FFFBA4"/><path d="m801.36 1046.168 127.177-4.984-42.646 178.334-127.177 4.984z" fill="#414042"/><path d="M758.714 1225.752a1.25 1.25 0 0 1-1.216-1.541l42.646-178.334c.13-.545.607-.937 1.167-.958l127.177-4.984c.383-.004.766.153 1.015.456.248.302.341.704.25 1.084l-42.646 178.334c-.13.545-.607.937-1.167.958l-127.177 4.984h-.049zm43.641-178.372-42.041 175.809 124.582-4.882 42.041-175.809z" fill="#FFFBA4"/><g clip-path="url(#R)" fill="#FFFC48"><path d="M868.465 1133.474c1.325-.052 2.286.885 2.783 2.453.496 1.568.514 3.728-.064 6.144l-8.86 37.048c-.578 2.416-1.639 4.618-2.907 6.277-1.263 1.637-2.689 2.646-4.015 2.698l-6.778.266c-1.325.052-2.292-.863-2.783-2.453-.496-1.568-.514-3.728.064-6.144l8.86-37.048c.578-2.416 1.639-4.618 2.901-6.255 1.263-1.637 2.695-2.668 4.02-2.72l6.778-.266m-21.547 62.026 6.778-.266c4.825-.211 10.433-7.483 12.534-16.269l8.86-37.048c2.101-8.786-.102-15.752-4.922-15.563l-6.778.266c-4.808.188-10.428 7.461-12.529 16.247l-8.86 37.048c-2.101 8.786.114 15.751 4.917 15.585m-9.012-114.176c1.325-.052 2.286.885 2.783 2.454.491 1.59.514 3.728-.064 6.144l-8.865 37.069c-.578 2.416-1.639 4.618-2.901 6.255-1.264 1.639-2.695 2.669-4.02 2.721l-6.778.266c-1.314.051-2.275-.885-2.783-2.454-.496-1.568-.514-3.728.064-6.144l8.865-37.069c.578-2.416 1.633-4.596 2.901-6.255 1.275-1.639 2.706-2.669 4.02-2.721zm-21.547 62.028 6.778-.266c4.82-.189 10.433-7.483 12.541-16.248l8.865-37.069c2.085-8.764-.118-15.73-4.934-15.562l-6.778.266c-4.814.209-10.421 7.481-12.529 16.247l-8.865 37.069c-2.084 8.764.113 15.752 4.922 15.564m-9.156 63.116c.709-.028 1.56-.759 2.208-2.002l70.406-136.093c.912-1.773 1.048-3.896.317-4.777a.977.977 0 0 0-.801-.36c-.711.028-1.566.759-2.206 2.003l-70.406 136.093c-.924 1.772-1.059 3.895-.317 4.777a.97.97 0 0 0 .798.359"/></g><path d="m784.917 1011.547 127.177-4.984c12.615 4.344 19.976 19.844 16.443 34.621l-127.177 4.984c3.534-14.777-3.828-30.277-16.443-34.621z" fill="#6d6e71"/><path d="M801.36 1047.418a1.249 1.249 0 0 1-1.216-1.541c3.383-14.145-3.63-29.015-15.634-33.149a1.25 1.25 0 0 1 .359-2.431l127.177-4.984c.149-.008.309.017.456.067 13.187 4.541 20.925 20.732 17.251 36.094a1.25 1.25 0 0 1-1.167.958l-127.177 4.984h-.049zm-11.344-34.82c9.85 6.103 15.327 19.32 12.901 32.258l124.608-4.883c2.854-13.778-4.009-28.007-15.62-32.151l-121.89 4.777z" fill="#FFFBA4"/><path d="M784.917 1011.547c12.615 4.344 19.976 19.844 16.443 34.621l-42.646 178.334c-3.534 14.777-16.624 23.235-29.239 18.892l-152.238-52.42c-12.594-4.336-19.955-19.837-16.422-34.614l42.646-178.334c3.534-14.777 16.624-23.235 29.218-18.899z" fill="#231f20"/><path d="M736.184 1245.778c-2.385 0-4.78-.399-7.116-1.203l-152.238-52.419c-13.174-4.537-20.903-20.726-17.229-36.087l42.646-178.334c1.923-8.042 6.735-14.693 13.204-18.245 5.498-3.02 11.762-3.567 17.637-1.545l152.238 52.42c13.186 4.541 20.925 20.732 17.251 36.094l-42.646 178.334c-1.923 8.041-6.734 14.689-13.201 18.24-3.319 1.823-6.919 2.746-10.545 2.746zM625.993 959.247c-3.21 0-6.397.818-9.34 2.434-5.852 3.214-10.216 9.277-11.976 16.635l-42.646 178.334c-3.383 14.145 3.62 29.012 15.612 33.142l152.238 52.419c5.211 1.794 10.769 1.308 15.644-1.37 5.85-3.212 10.214-9.274 11.973-16.63l42.646-178.334c3.383-14.144-3.632-29.014-15.634-33.148l-152.238-52.42a19.263 19.263 0 0 0-6.279-1.062z" fill="#FFFBA4"/><g clip-path="url(#S)"><path d="M772.209 1037.457 632.643 989.4l-11.108 46.448 139.567 48.056z" fill="#414042"/><path d="M761.102 1085.154c-.137 0-.274-.022-.407-.068l-139.566-48.057a1.252 1.252 0 0 1-.809-1.473l11.106-46.447a1.25 1.25 0 0 1 1.623-.891l139.566 48.057c.608.21.958.847.809 1.473l-11.106 46.447a1.25 1.25 0 0 1-1.216.959zm-138.087-50.119 137.191 47.239 10.522-44.004-137.191-47.239z" fill="#FFFBA4"/><path d="m648.381 1064.447-25.279-8.704c-3.236-1.114-6.579 1.066-7.486 4.856l-7.828 32.735c-.906 3.79.971 7.743 4.206 8.857l25.279 8.704c3.237 1.114 6.593-1.036 7.5-4.826l7.828-32.735c.906-3.79-.984-7.772-4.22-8.887" fill="#414042"/><path d="M639.006 1112.438c-.716 0-1.437-.12-2.14-.362l-25.279-8.704c-3.877-1.335-6.08-5.873-5.015-10.33l7.828-32.735c.556-2.324 1.958-4.252 3.847-5.289a6.447 6.447 0 0 1 5.262-.458l25.279 8.705c3.824 1.317 6.08 5.964 5.029 10.359l-7.828 32.735c-.552 2.309-1.948 4.226-3.829 5.259a6.526 6.526 0 0 1-3.154.82zm-17.625-55.739c-.66 0-1.312.171-1.931.51-1.271.699-2.227 2.04-2.618 3.679l-7.828 32.735c-.757 3.166.767 6.479 3.397 7.385l25.279 8.704c1.106.382 2.24.283 3.276-.285 1.265-.695 2.212-2.024 2.601-3.649l7.828-32.735c.76-3.179-.771-6.505-3.412-7.414l-25.279-8.705a4.023 4.023 0 0 0-1.313-.225z" fill="#FFFBA4"/><path d="m699.681 1082.111-25.278-8.704c-3.237-1.114-6.599 1.059-7.505 4.849l-7.828 32.735c-.906 3.79.989 7.749 4.226 8.864l25.278 8.704c3.237 1.114 6.575-1.042 7.481-4.832l7.828-32.735c.906-3.79-.965-7.766-4.202-8.88" fill="#414042"/><path d="M690.301 1130.101c-.715 0-1.434-.12-2.135-.362l-25.278-8.704c-3.823-1.317-6.082-5.954-5.034-10.336l7.828-32.735c.554-2.317 1.956-4.241 3.846-5.279a6.475 6.475 0 0 1 5.282-.461l25.278 8.704c3.813 1.313 6.062 5.958 5.011 10.353l-7.828 32.735c-.554 2.316-1.95 4.236-3.83 5.269a6.499 6.499 0 0 1-3.14.816zm-17.625-55.739c-.665 0-1.322.172-1.945.515-1.272.699-2.227 2.037-2.617 3.669l-7.828 32.735c-.757 3.166.775 6.481 3.417 7.391l25.278 8.704a3.936 3.936 0 0 0 3.257-.282c1.264-.694 2.212-2.027 2.602-3.659l7.828-32.735c.76-3.179-.762-6.501-3.394-7.407l-25.278-8.704a4.034 4.034 0 0 0-1.319-.226z" fill="#FFFBA4"/><path d="m632.998 1128.778-25.279-8.704c-3.236-1.114-6.579 1.064-7.486 4.856l-7.823 32.712c-.906 3.79.965 7.766 4.201 8.88l25.279 8.704c3.237 1.114 6.599-1.059 7.505-4.849l7.823-32.712c.907-3.791-.984-7.772-4.22-8.887" fill="#414042"/><path d="M623.612 1176.767c-.713 0-1.43-.12-2.129-.36l-25.279-8.704c-3.813-1.313-6.061-5.958-5.01-10.353l7.823-32.712c.556-2.325 1.957-4.252 3.846-5.29a6.454 6.454 0 0 1 5.263-.457l25.279 8.704c3.823 1.317 6.08 5.964 5.029 10.359l-7.823 32.712c-.554 2.317-1.956 4.241-3.846 5.279a6.53 6.53 0 0 1-3.153.821zm-17.614-55.737c-.661 0-1.313.171-1.931.51-1.272.699-2.227 2.04-2.618 3.68l-7.823 32.712c-.76 3.179.762 6.501 3.393 7.408l25.279 8.704c1.1.379 2.229.28 3.265-.289 1.272-.699 2.227-2.037 2.617-3.669l7.823-32.712c.76-3.179-.771-6.504-3.412-7.414l-25.279-8.705a4.034 4.034 0 0 0-1.313-.226z" fill="#FFFBA4"/><path d="m684.297 1146.442-25.278-8.704c-3.237-1.114-6.598 1.058-7.505 4.849l-7.823 32.712c-.906 3.79.984 7.772 4.22 8.887l25.278 8.704c3.237 1.114 6.58-1.065 7.487-4.855l7.823-32.712c.907-3.791-.965-7.766-4.202-8.88" fill="#414042"/><path d="M674.907 1194.431a6.512 6.512 0 0 1-2.124-.359l-25.278-8.704c-3.824-1.317-6.08-5.964-5.028-10.359l7.822-32.711c.554-2.318 1.955-4.242 3.845-5.28 1.648-.904 3.522-1.068 5.283-.46l25.278 8.703c3.813 1.314 6.062 5.958 5.011 10.353l-7.823 32.712c-.556 2.324-1.958 4.252-3.846 5.289a6.509 6.509 0 0 1-3.14.817zm-17.615-55.737c-.665 0-1.321.172-1.944.515-1.273.699-2.227 2.037-2.617 3.669l-7.822 32.712c-.761 3.179.77 6.504 3.411 7.414l25.278 8.704a3.923 3.923 0 0 0 3.245-.285c1.271-.698 2.227-2.04 2.618-3.679l7.823-32.712c.76-3.179-.763-6.502-3.394-7.408l-25.278-8.703a4.04 4.04 0 0 0-1.32-.227z" fill="#FFFBA4"/><path d="M738.323 1095.416c-10.202-3.513-20.968 4.028-24.039 16.872l-15.378 64.307c-3.071 12.844 2.724 26.087 12.926 29.6 10.222 3.52 20.987-4.021 24.059-16.865l15.378-64.307c3.071-12.844-2.724-26.087-12.946-29.607" fill="#414042"/><path d="M716.927 1208.303a16.87 16.87 0 0 1-5.503-.926c-10.782-3.713-16.943-17.652-13.734-31.072l15.378-64.308c1.756-7.341 6.021-13.34 11.701-16.46 4.409-2.421 9.367-2.884 13.961-1.303 10.793 3.717 16.964 17.66 13.755 31.08l-15.378 64.307c-1.756 7.339-6.02 13.337-11.698 16.456-2.69 1.478-5.587 2.227-8.481 2.227zm16.284-112.506c-2.454 0-4.9.647-7.239 1.931-5.063 2.781-8.881 8.194-10.473 14.85l-15.378 64.308c-2.918 12.204 2.518 24.822 12.117 28.127 3.984 1.374 8.124.983 11.967-1.127 5.062-2.78 8.878-8.191 10.47-14.846l15.378-64.307c2.918-12.204-2.526-24.825-12.138-28.135a14.397 14.397 0 0 0-4.704-.801z" fill="#FFFBA4"/></g></g><g clip-path="url(#T)"><path d="M562.798 639.115c-10.222-50.871-39.399-89.613-78.181-110.958l-51.589-28.392c38.783 21.344 67.959 60.086 78.181 110.957 20.217 100.61-41.361 210.566-137.537 245.594-47.547 17.316-94.649 13.078-132.568-7.791l51.589 28.392c37.919 20.87 85.021 25.107 132.568 7.791 96.177-35.027 157.754-144.983 137.537-245.593z" fill="#414042"/><path d="M365.84 896.771c-25.969 0-51.083-6.283-73.751-18.758L240.5 849.62a1.25 1.25 0 0 1 1.205-2.191c39.218 21.583 85.932 24.321 131.538 7.712 95.467-34.77 156.808-144.305 136.74-244.174-9.823-48.885-37.368-87.988-77.559-110.108a1.25 1.25 0 0 1 1.205-2.191l51.589 28.393c40.847 22.481 68.834 62.188 78.805 111.807 20.301 101.03-41.756 211.84-138.336 247.014-19.966 7.272-40.154 10.888-59.848 10.888zm-100.17-36.152 27.624 15.203c39.216 21.583 85.933 24.322 131.538 7.712 95.467-34.769 156.809-144.304 136.74-244.173-9.823-48.884-37.367-87.988-77.559-110.108l-27.561-15.168c28.453 23.267 47.995 56.649 55.981 96.392 20.301 101.03-41.756 211.84-138.336 247.015-36.885 13.434-74.5 14.391-108.429 3.128z" fill="#FFFBA4"/><path d="m507.053 365.248 51.589 28.393c-67.17-36.968-150.607-44.476-234.832-13.801C153.442 441.887 44.364 636.663 80.176 814.884c18.108 90.114 69.791 158.741 138.49 196.55l-51.589-28.393c-68.699-37.81-120.383-106.437-138.49-196.55-35.812-178.221 73.266-372.997 243.634-435.044 84.225-30.674 167.662-23.167 234.832 13.801z" fill="#414042"/><path d="M218.666 1012.684c-.204 0-.41-.05-.602-.155l-51.589-28.393c-35.03-19.279-64.85-45.868-88.63-79.028-24.61-34.317-41.596-74.143-50.483-118.372-17.379-86.488-1.527-179.515 44.635-261.944 46.162-82.43 117.118-144.41 199.797-174.521 81.743-29.77 165.506-24.841 235.862 13.88l51.589 28.393a1.25 1.25 0 0 1-1.205 2.191c-69.716-38.369-152.749-43.241-233.802-13.722C154.699 442.759 45.763 637.282 81.402 814.637c17.457 86.877 66.42 156.379 137.867 195.701a1.25 1.25 0 0 1-.604 2.345zm158.806-679.137c-34.493 0-69.836 6.333-104.822 19.074C103.11 414.367-5.826 608.89 29.813 786.245c17.458 86.878 66.42 156.379 137.867 195.702l19.699 10.842c-22.038-16.434-41.445-36.279-57.945-59.287-24.611-34.317-41.596-74.143-50.483-118.372-17.379-86.488-1.527-179.515 44.635-261.944 46.162-82.43 117.118-144.409 199.797-174.521 69.26-25.224 139.971-25.537 202.746-1.492l-19.678-10.83c-39.623-21.807-83.561-32.796-128.979-32.796z" fill="#FFFBA4"/><path d="M697.133 590.191c35.812 178.221-73.266 372.997-243.634 435.044s-337.51-32.13-373.322-210.351 73.266-372.997 243.634-435.044 337.51 32.13 373.322 210.351zm-134.334 48.924c-20.217-100.61-114.573-153.776-210.75-118.749S194.295 665.349 214.512 765.959s114.573 153.776 210.75 118.749 157.754-144.983 137.537-245.593" fill="#E5F700"/><path d="M348.207 1045.659c-46.576 0-91.579-11.466-132.096-34.215-34.535-19.39-63.925-45.932-87.353-78.888-24.246-34.106-41.004-73.614-49.808-117.425-17.379-86.488-1.527-179.515 44.635-261.944 46.162-82.43 117.118-144.409 199.797-174.521 82.595-30.081 167.052-24.767 237.815 14.966 34.535 19.391 63.925 45.932 87.353 78.888 24.246 34.107 41.004 73.614 49.808 117.425 17.379 86.488 1.528 179.515-44.634 261.944-46.163 82.43-117.119 144.41-199.798 174.521-35.304 12.857-70.95 19.249-105.72 19.249zm80.891-683.739c-34.485 0-69.833 6.338-104.859 19.094C154.7 442.76 45.764 637.283 81.403 814.638c17.279 85.99 65.555 155.109 135.933 194.625 40.13 22.532 84.728 33.89 130.877 33.892 34.486.001 69.833-6.338 104.859-19.094 169.539-61.746 278.475-256.269 242.836-433.624-17.279-85.99-65.555-155.11-135.933-194.626-40.13-22.532-84.727-33.892-130.877-33.892zM365.82 896.783c-26.385 0-51.881-6.496-74.836-19.385-40.235-22.591-67.829-62.08-77.697-111.191-20.302-101.03 41.755-211.84 138.335-247.014 46.779-17.036 94.617-14.023 134.705 8.485 40.235 22.591 67.829 62.08 77.698 111.191 20.301 101.03-41.756 211.84-138.336 247.014-19.991 7.281-40.178 10.9-59.869 10.9zm45.665-385.987c-19.404 0-39.297 3.567-59.008 10.746-95.467 34.769-156.808 144.304-136.739 244.173 9.723 48.386 36.88 87.275 76.47 109.503 39.441 22.146 86.543 25.101 132.626 8.317 95.467-34.769 156.809-144.304 136.74-244.173-9.724-48.386-36.881-87.275-76.471-109.504-22.572-12.673-47.656-19.062-73.618-19.062z" fill="#FFFBA4"/><path d="m57.685 559.459 58.724 9.645 114.755 63.427 9.725-19.188-164.233-93.322c-7.874 14.826-14.414 28.207-18.971 39.439z" fill="url(#a)"/><path d="m314.439 640.41-79.34-23.788L23.788 488.769l79.341 23.788zm-128.58-305.784c-23.795 8.881-46.12 21.389-66.589 36.815-39.623 29.858-72.326 70.652-95.481 117.328l79.34 23.788c23.155-46.677 55.858-87.471 95.481-117.329 20.47-15.425 42.794-27.933 66.589-36.815z" fill="#FFFC48"/><path d="M103.129 513.807a1.24 1.24 0 0 1-.359-.053l-79.34-23.788a1.254 1.254 0 0 1-.761-1.753c23.604-47.582 56.748-88.307 95.85-117.771 20.963-15.798 43.473-28.243 66.903-36.988.258-.096.537-.104.797-.026l79.341 23.788a1.25 1.25 0 0 1 .078 2.368c-23.205 8.661-45.503 20.989-66.275 36.642-38.791 29.231-71.681 69.649-95.113 116.886a1.25 1.25 0 0 1-1.12.694zM25.57 487.998l76.909 23.06c23.573-47.18 56.536-87.558 95.379-116.828 19.936-15.022 41.271-27.014 63.464-35.674l-75.419-22.611c-23.063 8.653-45.228 20.931-65.881 36.495-38.428 28.957-71.064 68.895-94.452 115.559z" fill="#FFFBA4"/><path d="M198.61 395.228c20.47-15.425 42.794-27.933 66.589-36.815l49.24 281.996-211.31-127.853c23.155-46.677 55.858-87.471 95.481-117.329z" fill="#231f20"/><path d="M314.439 641.66c-.224 0-.448-.06-.647-.181L102.481 513.626a1.25 1.25 0 0 1-.473-1.625c23.604-47.58 56.752-88.308 95.85-117.771 20.964-15.798 43.474-28.243 66.904-36.988a1.248 1.248 0 0 1 1.669.956l49.239 281.997a1.252 1.252 0 0 1-1.231 1.465zM104.76 512.083l207.975 125.834-48.507-277.803c-22.698 8.631-44.516 20.776-64.866 36.112-38.509 29.019-71.202 69.062-94.602 115.856zm93.85-116.855h.01z" fill="#FFFBA4"/><path d="m314.439 641.41-79.34-23.788L23.788 489.769l79.341 23.788z" fill="url(#b)"/><path d="M314.439 641.66c-.119 0-.239-.017-.359-.053l-79.341-23.787a1.236 1.236 0 0 1-.288-.128L23.141 489.839a1.25 1.25 0 0 1 1.007-2.266l79.34 23.787c.101.03.197.073.288.128l211.311 127.853a1.25 1.25 0 0 1-.648 2.319zm-78.829-26.189 69.768 20.917-202.76-122.679-69.768-20.917z" fill="#FFFBA4"/></g><path d="M567.906 667.294s62.751-89.89 50.251-134.89-52.5-92.5-85-100-105-22.5-130 7.5-39.454 76.326-39.454 76.326c24.172-7.753 48.16-9.146 71.954-3.826l44.157-21.147 97.495 59.997-20.79 67.456c4.518 10.823 8.323 26.943 11.387 48.584z" fill="url(#U)" opacity=".3"/></svg></g></svg>