<svg xmlns="http://www.w3.org/2000/svg" x="0px" y="0px" width="100" height="100" viewBox="0 0 24 24">
<path d="M 6 2 C 4.9 2 4 2.9 4 4 L 4 20 C 4 21.1 4.9 22 6 22 L 11.519531 22 C 11.049531 21.4 10.689453 20.73 10.439453 20 L 6 20 L 6 4 L 18 4 L 18 10.029297 L 20 10.439453 L 20 4 C 20 2.9 19.1 2 18 2 L 6 2 z M 8 7 L 8 9 L 16 9 L 16 7 L 8 7 z M 8 11 L 8 13 L 11.519531 13 C 12.119531 12.18 12.889297 11.5 13.779297 11 L 8 11 z M 17.5 12 C 16.20102 12 14.993619 12.454471 14.050781 13.224609 C 12.795093 14.228018 12 15.778346 12 17.5 C 12 17.705958 12.012209 17.912543 12.037109 18.115234 C 12.344245 20.859251 14.678639 23 17.5 23 C 18.648677 23 19.656993 22.561885 20.541016 21.955078 L 22.542969 23.957031 L 23.957031 22.542969 L 21.955078 20.541016 C 22.561885 19.656993 23 18.648677 23 17.5 C 23 14.471847 20.528153 12 17.5 12 z M 17.5 14 C 19.451847 14 21 15.548153 21 17.5 C 21 18.542231 20.550391 19.459875 19.841797 20.097656 C 19.266112 19.603019 18.403729 19 17.5 19 C 16.593972 19 15.729771 19.606322 15.154297 20.101562 C 14.536656 19.542964 14.120874 18.765605 14.023438 17.888672 L 14.023438 17.882812 L 14.021484 17.875 C 14.007255 17.760825 14 17.630784 14 17.5 C 14 16.385164 14.50287 15.419989 15.302734 14.783203 L 15.308594 14.777344 L 15.3125 14.773438 C 15.909138 14.285286 16.66053 14 17.5 14 z M 8 15 L 8 17 L 10.029297 17 C 10.059297 16.3 10.199453 15.63 10.439453 15 L 8 15 z M 17.5 15 A 1.5 1.5 0 0 0 17.5 18 A 1.5 1.5 0 0 0 17.5 15 z"></path>
</svg>