<svg width="17" height="17" viewBox="0 0 17 17" fill="none" xmlns="http://www.w3.org/2000/svg">
<path d="M6.375 2.125H3.54167C2.75926 2.125 2.125 2.75926 2.125 3.54167V6.375C2.125 7.1574 2.75926 7.79167 3.54167 7.79167H6.375C7.1574 7.79167 7.79167 7.1574 7.79167 6.375V3.54167C7.79167 2.75926 7.1574 2.125 6.375 2.125Z" stroke="black" stroke-width="1.5" stroke-linecap="round" stroke-linejoin="round"/>
<path d="M4.95831 7.79167V10.625C4.95831 11.0007 5.10757 11.3611 5.37324 11.6267C5.63892 11.8924 5.99926 12.0417 6.37498 12.0417H9.20831" stroke="black" stroke-width="1.5" stroke-linecap="round" stroke-linejoin="round"/>
<path d="M13.4583 9.20833H10.625C9.84258 9.20833 9.20831 9.84259 9.20831 10.625V13.4583C9.20831 14.2407 9.84258 14.875 10.625 14.875H13.4583C14.2407 14.875 14.875 14.2407 14.875 13.4583V10.625C14.875 9.84259 14.2407 9.20833 13.4583 9.20833Z" stroke="black" stroke-width="1.5" stroke-linecap="round" stroke-linejoin="round"/>
</svg>
